<svg xmlns="http://www.w3.org/2000/svg" width="1016" height="533.225" viewBox="0 0 1016 533.225">
  <g id="Grupo_109698" data-name="Grupo 109698" transform="translate(-265 -1590.312)">
    <g id="Grupo_108344" data-name="Grupo 108344" transform="translate(51 1471.797)">
      <path id="Trazado_158105" data-name="Trazado 158105" d="M403.041,416.931s11.509,47.612,22.806,57.13c6.791,5.721,26.982,18.85,26.982,18.85l-8.4,3.048s-28.005-9.458-34.275-16.829-23.435-44.31-23.435-44.31Z" fill="#ffbeb7"/>
      <path id="Trazado_158106" data-name="Trazado 158106" d="M848.14,344.786H548.3a8.193,8.193,0,0,1-6.7-12.9l63.245-90a8.191,8.191,0,0,1,6.7-3.483H781.161a8.2,8.2,0,0,1,6.574,3.3l66.978,90A8.194,8.194,0,0,1,848.14,344.786Z" fill="#ff8663"/>
      <path id="Trazado_158107" data-name="Trazado 158107" d="M990.675,542.946H407.565a9.455,9.455,0,0,1-7.737-14.891l59.582-84.8a9.456,9.456,0,0,1,7.737-4.02H927.574a9.453,9.453,0,0,1,7.585,3.811l63.1,84.8A9.455,9.455,0,0,1,990.675,542.946Z" fill="#47b60f"/>
      <path id="Trazado_158108" data-name="Trazado 158108" d="M324.555,623.982l52.586-74.838a14.578,14.578,0,0,1,11.928-6.2H994.3a14.581,14.581,0,0,1,11.7,5.876l55.692,74.838a14.58,14.58,0,0,1-11.7,23.283H336.484A14.579,14.579,0,0,1,324.555,623.982Z" fill="#d7e700"/>
      <g id="Grupo_108307" data-name="Grupo 108307">
        <path id="Trazado_158109" data-name="Trazado 158109" d="M425.82,556.631l6.066,76.627h40.548l5.747-76.627Z" fill="#fff"/>
        <path id="Trazado_158110" data-name="Trazado 158110" d="M429.864,569.19l5.534,60.237h33.2l5.534-60.237s-8.727-1.916-24.265,0S436.25,567.274,429.864,569.19Z" fill="#ff5e29"/>
        <path id="Trazado_158111" data-name="Trazado 158111" d="M441.282,598c0-5.92,10.719-19.379,10.719-19.379S462.719,592.078,462.719,598a10.718,10.718,0,0,1-21.437,0Z" fill="#fff"/>
      </g>
      <g id="Grupo_108308" data-name="Grupo 108308">
        <path id="Trazado_158112" data-name="Trazado 158112" d="M932.144,590.514A21.571,21.571,0,1,0,907.119,611.8v2.717H900.1a3.454,3.454,0,0,0,0,6.908h7.022v5.889a3.454,3.454,0,1,0,6.908,0V621.43h6.847a3.454,3.454,0,0,0,0-6.908h-6.847V611.8A21.6,21.6,0,0,0,932.144,590.514Zm-36.234,0a14.663,14.663,0,1,1,14.663,14.664A14.681,14.681,0,0,1,895.91,590.514Z" fill="#3644c6"/>
        <path id="Trazado_158113" data-name="Trazado 158113" d="M989.951,568.939l-1.222-10.127a3.456,3.456,0,0,0-3.934-3l-12.06,1.782a3.454,3.454,0,0,0,1.01,6.833l2.352-.347-5.837,6.875a21.571,21.571,0,1,0-11.181,40.039c.591,0,1.192-.025,1.788-.073a21.57,21.57,0,0,0,14.659-35.5l7.224-8.508.344,2.852a3.453,3.453,0,0,0,3.425,3.039h0a3.389,3.389,0,0,0,.417-.024,3.455,3.455,0,0,0,3.015-3.843Zm-16.224,19.286A14.663,14.663,0,1,1,957.918,574.8c.406-.033.817-.049,1.22-.049a14.666,14.666,0,0,1,14.589,13.471Z" fill="#3644c6"/>
      </g>
      <g id="Grupo_108310" data-name="Grupo 108310">
        <path id="Trazado_158114" data-name="Trazado 158114" d="M861.589,460.427h50.317L883.026,489.6H832.709l28.879-29.177Z" fill="#3644c6"/>
        <path id="Trazado_158115" data-name="Trazado 158115" d="M864.337,463.27,838.3,489.6v31.465h95.868V482.61l-69.831-19.34Z" fill="#ff816f"/>
        <path id="Trazado_158116" data-name="Trazado 158116" d="M934.168,521.069H890.4V483.483h43.767v37.586Z" fill="#ff5e29"/>
        <path id="Trazado_158117" data-name="Trazado 158117" d="M911.839,460.427H861.522L890.4,489.6h50.317l-28.879-29.177Z" fill="#3644c6"/>
        <path id="Trazado_158118" data-name="Trazado 158118" d="M896.8,462.718l5.616,5.617h6.094V456.7H897.067l-.263,6.014Z" fill="#ff816f"/>
        <path id="Trazado_158119" data-name="Trazado 158119" d="M909.555,455.564H896.324v2.084h13.231v-2.084Z" fill="#ff5e29"/>
        <g id="Grupo_108309" data-name="Grupo 108309">
          <path id="Rectángulo_40163" data-name="Rectángulo 40163" d="M7.662,0h0a7.413,7.413,0,0,1,7.413,7.413V25.061a0,0,0,0,1,0,0H0a0,0,0,0,1,0,0V7.662A7.662,7.662,0,0,1,7.662,0Z" transform="translate(854.098 483.922)" fill="#ff5e29"/>
          <path id="Trazado_158120" data-name="Trazado 158120" d="M862.326,483.483h-1.15A7.525,7.525,0,0,0,853.659,491v18.423h15.953V490.769A7.294,7.294,0,0,0,862.326,483.483Zm-1.15.878h1.15a6.416,6.416,0,0,1,6.408,6.408V491h-14.2V491A6.645,6.645,0,0,1,861.176,484.361Zm-6.638,7.749h6.378v16.433h-6.378Zm7.508,16.433V492.11h6.688v16.433Z" fill="#233e91"/>
        </g>
      </g>
      <g id="Grupo_108314" data-name="Grupo 108314">
        <path id="Trazado_158121" data-name="Trazado 158121" d="M607.119,462.256a3.566,3.566,0,0,0-2.448,3.263v31.488a19.849,19.849,0,0,0,8.184,16.148l18.5,11.854a3.912,3.912,0,0,0,4.135,0l18.5-11.854a19.849,19.849,0,0,0,8.184-16.148V465.6A3.594,3.594,0,0,0,659.6,462.3c-22.469-7.692-31.476-7.9-52.478-.04Z" fill="#233e91"/>
        <path id="Trazado_158122" data-name="Trazado 158122" d="M659.6,462.3c-10.937-3.744-18.685-5.709-26.178-5.839V525.6a3.853,3.853,0,0,0,2.068-.591l18.5-11.854a19.849,19.849,0,0,0,8.184-16.148V465.6A3.594,3.594,0,0,0,659.6,462.3Z" fill="#3644c6"/>
        <g id="Grupo_108313" data-name="Grupo 108313">
          <g id="Grupo_108311" data-name="Grupo 108311">
            <path id="Trazado_158123" data-name="Trazado 158123" d="M635.175,484.872h-4.207a6.849,6.849,0,0,1-6.842-6.842v-.818a6.85,6.85,0,0,1,6.842-6.843h4.207a6.85,6.85,0,0,1,6.843,6.843v.818A6.85,6.85,0,0,1,635.175,484.872ZM630.968,473.1a4.112,4.112,0,0,0-4.106,4.108v.818a4.111,4.111,0,0,0,4.106,4.106h4.207a4.111,4.111,0,0,0,4.107-4.106v-.818a4.112,4.112,0,0,0-4.107-4.108Z" fill="#fff"/>
          </g>
          <path id="Rectángulo_40164" data-name="Rectángulo 40164" d="M3.284,0H24.269a4.207,4.207,0,0,1,4.207,4.207v6.756A13.793,13.793,0,0,1,14.683,24.757h0A14.683,14.683,0,0,1,0,10.074V3.284A3.284,3.284,0,0,1,3.284,0Z" transform="translate(619.054 479.229)" fill="#fff"/>
          <g id="Grupo_108312" data-name="Grupo 108312">
            <path id="Trazado_158124" data-name="Trazado 158124" d="M637.005,486.657a3.713,3.713,0,1,1-3.713-3.713A3.713,3.713,0,0,1,637.005,486.657Z" fill="#3644c6"/>
            <path id="Trazado_158125" data-name="Trazado 158125" d="M633.292,488.39h0a.807.807,0,0,1,.8.8v6.188a.807.807,0,0,1-.8.8h0a.807.807,0,0,1-.8-.8V489.2A.807.807,0,0,1,633.292,488.39Z" fill="#3644c6"/>
          </g>
        </g>
      </g>
      <path id="Trazado_158126" data-name="Trazado 158126" d="M508.355,430.179l56.254-80.061a12.545,12.545,0,0,1,10.264-5.332h319.1a12.546,12.546,0,0,1,10.064,5.055l56.692,76.18a8.933,8.933,0,0,1-7.166,14.265H513.6A6.417,6.417,0,0,1,508.355,430.179Z" transform="translate(-36.622)" fill="#96d65e"/>
      <g id="Grupo_108315" data-name="Grupo 108315" transform="translate(-36.622)">
        <path id="Trazado_158127" data-name="Trazado 158127" d="M751.927,362.834c-15.933-13.812-28.618,9.575-28.618,9.575s-20.716-16.693-30.1,2.193,38.94,41.932,38.94,41.932S767.861,376.646,751.927,362.834Z" fill="#ff5e29"/>
        <path id="Trazado_158128" data-name="Trazado 158128" d="M780.831,397.687c-3.556-15.681-21.908-7.035-21.908-7.035s-5.194-19.61-19.485-12.24,5,43.346,5,43.346S784.387,413.367,780.831,397.687Z" fill="#fff"/>
      </g>
      <g id="Grupo_108316" data-name="Grupo 108316" transform="translate(-36.622)">
        <circle id="Elipse_5115" data-name="Elipse 5115" cx="12.175" cy="12.175" r="12.175" transform="translate(618.893 374.391)" fill="#3644c6"/>
        <path id="Trazado_158129" data-name="Trazado 158129" d="M613.675,417.788h34.786s-.875-19.046-17.394-19.046S613.675,417.788,613.675,417.788Z" fill="#3644c6"/>
      </g>
      <g id="Grupo_108317" data-name="Grupo 108317" transform="translate(-36.622)">
        <path id="Trazado_158130" data-name="Trazado 158130" d="M600.3,381.453a14.169,14.169,0,1,0-14.169,14.169A14.169,14.169,0,0,0,600.3,381.453Z" fill="#233e91"/>
        <path id="Trazado_158131" data-name="Trazado 158131" d="M565.888,417.788h40.484s-1.018-22.166-20.243-22.166S565.888,417.788,565.888,417.788Z" fill="#233e91"/>
      </g>
      <g id="Grupo_108318" data-name="Grupo 108318" transform="translate(-36.622)">
        <path id="Trazado_158132" data-name="Trazado 158132" d="M617.436,395.992a8.5,8.5,0,1,0-8.5,8.5A8.5,8.5,0,0,0,617.436,395.992Z" fill="#fff"/>
        <path id="Trazado_158133" data-name="Trazado 158133" d="M596.795,417.788h24.284s-.611-13.3-12.143-13.3S596.795,417.788,596.795,417.788Z" fill="#fff"/>
      </g>
      <g id="Grupo_108321" data-name="Grupo 108321" transform="translate(-36.622)">
        <g id="Grupo_108319" data-name="Grupo 108319">
          <path id="Trazado_158134" data-name="Trazado 158134" d="M892.718,381.453a14.169,14.169,0,1,0-14.169,14.169A14.169,14.169,0,0,0,892.718,381.453Z" fill="#3644c6"/>
          <path id="Trazado_158135" data-name="Trazado 158135" d="M858.308,417.788h40.483s-1.018-22.166-20.243-22.166S858.308,417.788,858.308,417.788Z" fill="#3644c6"/>
        </g>
        <g id="Grupo_108320" data-name="Grupo 108320">
          <path id="Trazado_158136" data-name="Trazado 158136" d="M858.308,381.453a14.169,14.169,0,1,0-14.17,14.169A14.17,14.17,0,0,0,858.308,381.453Z" fill="#fff"/>
          <path id="Trazado_158137" data-name="Trazado 158137" d="M823.9,417.788H864.38s-1.018-22.166-20.243-22.166S823.9,417.788,823.9,417.788Z" fill="#fff"/>
        </g>
      </g>
      <path id="Trazado_158138" data-name="Trazado 158138" d="M631.972,231.39,709.955,120.4a4.447,4.447,0,0,1,7.206-.1L799.75,231.292a4.447,4.447,0,0,1-3.567,7.1H635.61A4.447,4.447,0,0,1,631.972,231.39Z" transform="translate(-18.488)" fill="#ff5e29"/>
      <g id="Grupo_108322" data-name="Grupo 108322" transform="translate(-18.488)">
        <path id="Trazado_158139" data-name="Trazado 158139" d="M699.853,177.157a14.693,14.693,0,1,1,14.693,14.694A14.693,14.693,0,0,1,699.853,177.157Z" fill="#fff"/>
        <path id="Trazado_158140" data-name="Trazado 158140" d="M714.546,191.851a25.714,25.714,0,0,0-25.713,25.713H740.26A25.714,25.714,0,0,0,714.546,191.851Z" fill="#fff"/>
      </g>
      <g id="Grupo_108324" data-name="Grupo 108324">
        <path id="Trazado_158141" data-name="Trazado 158141" d="M752.625,293.9s-21.57,6.725-25.4,28.5l8.6-3.895,3.941,7.822s9.479-20.557,18.383-21.079Z" fill="#233e91"/>
        <path id="Trazado_158142" data-name="Trazado 158142" d="M761.879,294.18s21.828,5.831,26.554,27.428l-8.749-3.537-3.616,7.977s-10.317-20.149-19.235-20.3Z" fill="#233e91"/>
        <circle id="Elipse_5116" data-name="Elipse 5116" cx="25.075" cy="25.075" r="25.075" transform="translate(721.492 285.039) rotate(-45)" fill="#fff"/>
        <g id="Grupo_108323" data-name="Grupo 108323">
          <path id="Trazado_158143" data-name="Trazado 158143" d="M756.953,307.148a22.11,22.11,0,1,1,22.11-22.109A22.134,22.134,0,0,1,756.953,307.148Zm0-41.537a19.428,19.428,0,1,0,19.428,19.428A19.449,19.449,0,0,0,756.953,265.611Z" fill="#233e91"/>
        </g>
        <path id="Trazado_158144" data-name="Trazado 158144" d="M761.391,278.767l9.963,1.361-7.141,7.08L766,297.1l-8.94-4.6-8.86,4.755,1.615-9.925-7.26-6.957,9.938-1.531,4.373-9.055Z" fill="#233e91"/>
      </g>
      <path id="Trazado_158145" data-name="Trazado 158145" d="M659.211,325.29H639.56a5.224,5.224,0,0,1,5.225-5.223,2.3,2.3,0,0,0,2.3-2.3v-8.794h4.6v8.794a2.3,2.3,0,0,0,2.3,2.3,5.22,5.22,0,0,1,5.222,5.222Z" fill="#fff"/>
      <path id="Trazado_158146" data-name="Trazado 158146" d="M675.934,257.889l-2.767,21.721a25.143,25.143,0,0,1-11.6,20.91l0,0A25.6,25.6,0,0,1,654.5,303.8a5.215,5.215,0,0,0-3.435,5.165v.515c0,1.525,0,2.8,0,2.8h-3.349s0-1.292,0-2.827a5.865,5.865,0,0,0-3.73-5.761,25.312,25.312,0,0,1-17.771-24.085l-2.367-21.721Z" fill="#fff"/>
      <g id="Grupo_108325" data-name="Grupo 108325">
        <path id="Trazado_158147" data-name="Trazado 158147" d="M630.732,293.145c-2.375-6.075-6.847-7.463-11.581-8.932-3.786-1.175-7.7-2.39-10.562-5.992a13.367,13.367,0,0,1-1.635-14.031,8.631,8.631,0,0,1,8.107-5.114c4.947.134,8.949,3.762,11.575,10.492a42.712,42.712,0,0,1,2.436,9.727l-2.863.315c-.019-.174-2.036-17.406-11.226-17.656a5.854,5.854,0,0,0-5.452,3.523,10.582,10.582,0,0,0,1.312,10.953c2.309,2.906,5.638,3.939,9.161,5.032,4.936,1.532,10.53,3.268,13.41,10.635Z" fill="#fff"/>
      </g>
      <g id="Grupo_108326" data-name="Grupo 108326">
        <path id="Trazado_158148" data-name="Trazado 158148" d="M668.645,293.145c2.375-6.076,6.846-7.464,11.581-8.933,3.785-1.175,7.7-2.39,10.562-5.991a13.367,13.367,0,0,0,1.634-14.031,8.631,8.631,0,0,0-8.107-5.115c-4.947.134-8.949,3.762-11.575,10.492A42.609,42.609,0,0,0,670.3,279.3l2.862.315c.019-.174,2.036-17.407,11.226-17.656a5.852,5.852,0,0,1,5.452,3.522,10.582,10.582,0,0,1-1.312,10.953c-2.309,2.906-5.637,3.939-9.161,5.033-4.936,1.532-10.53,3.268-13.41,10.634Z" fill="#fff"/>
      </g>
      <path id="Trazado_158149" data-name="Trazado 158149" d="M653.511,312.839h-8.579a2.124,2.124,0,0,1-2.118-2.117h0a2.124,2.124,0,0,1,2.118-2.118h8.579a2.124,2.124,0,0,1,2.118,2.118h0A2.124,2.124,0,0,1,653.511,312.839Z" fill="#fff"/>
      <g id="Grupo_108327" data-name="Grupo 108327">
        <path id="Trazado_158150" data-name="Trazado 158150" d="M642.666,290.565v-1.523c4.239-.206,4.527-.658,4.527-3.621v-14.9c0-2.1-.741-2.263-2.428-2.469l-1.235-.2v-1.358a45.423,45.423,0,0,0,9.136-2.058v20.988c0,3.045.247,3.415,4.445,3.621v1.523Z" fill="#233e91"/>
      </g>
      <g id="Grupo_108331" data-name="Grupo 108331">
        <g id="Grupo_108328" data-name="Grupo 108328">
          <path id="Trazado_158151" data-name="Trazado 158151" d="M516.127,461.214s-5.119,8.654-9.811,8.774-11.833-4.011-11.833-4.011-4.309-11.532-1.386-16.045a5.409,5.409,0,0,1,6,1.184,10.2,10.2,0,0,1,1.586,1.825,5.09,5.09,0,0,0,2.463,2.006c3.349,1.223,7.324-1.655,8.81,1.122a18.383,18.383,0,0,0,2.589,3.681A12.319,12.319,0,0,0,516.127,461.214Z" fill="#233e91"/>
          <path id="Trazado_158152" data-name="Trazado 158152" d="M464.606,494.07c8.506-12.19,20.439-23.62,35.447-24.082,0,0,19.394,2.588,27.892,29.329,3.73,11.735-3.527,24.32-13.987,24.32H476.215C463.493,523.637,456.435,505.78,464.606,494.07Z" fill="#233e91"/>
          <path id="Trazado_158153" data-name="Trazado 158153" d="M491.131,471.6s13.054,3.486,17.081,1.437c0,0,.609-6.555-4.889-5.636-3.762.63-6.213-1.542-7.654-2.423C493.629,463.727,490.589,468.854,491.131,471.6Z" fill="#fff"/>
        </g>
        <g id="Grupo_108330" data-name="Grupo 108330">
          <circle id="Elipse_5117" data-name="Elipse 5117" cx="24.21" cy="24.21" r="24.21" transform="translate(489.639 530.469) rotate(-85.269)" fill="#fff"/>
          <g id="Grupo_108329" data-name="Grupo 108329">
            <path id="Trazado_158154" data-name="Trazado 158154" d="M519.178,515.521a4.091,4.091,0,0,0-.059-1.441,2.979,2.979,0,0,0-.609-1.2,5.676,5.676,0,0,0-1.218-1.075,14.964,14.964,0,0,0-1.888-1.058,39.059,39.059,0,0,1-3.487-1.916,12.364,12.364,0,0,1-2.607-2.121,7.283,7.283,0,0,1-1.54-2.586,8.2,8.2,0,0,1,.663-6.2,6.9,6.9,0,0,1,1.923-2.136,8.6,8.6,0,0,1,2.753-1.311,11.451,11.451,0,0,1,3.438-.4l.485-4.09,3.293.39-.493,4.148a10.287,10.287,0,0,1,3.1,1.317,7.787,7.787,0,0,1,3.468,4.977,10.348,10.348,0,0,1,.136,3.514l-5.946-.705a5.047,5.047,0,0,0-.612-3.552,3.5,3.5,0,0,0-2.591-1.461,4.464,4.464,0,0,0-1.625.069,3.025,3.025,0,0,0-1.185.576,2.808,2.808,0,0,0-.764.986,4.125,4.125,0,0,0-.362,1.294,3.788,3.788,0,0,0,.054,1.3,2.8,2.8,0,0,0,.583,1.145,5.655,5.655,0,0,0,1.229,1.076,19.251,19.251,0,0,0,1.963,1.135q1.906.981,3.45,1.959a12.51,12.51,0,0,1,2.594,2.14,7.372,7.372,0,0,1,1.539,2.6,8.231,8.231,0,0,1-.678,6.238,6.8,6.8,0,0,1-1.931,2.116,8.294,8.294,0,0,1-2.768,1.261,12.4,12.4,0,0,1-3.455.366l-.451,3.8-3.272-.388.449-3.784a13.9,13.9,0,0,1-3.214-1.138,8.812,8.812,0,0,1-2.633-1.989,7.889,7.889,0,0,1-1.652-2.958,9.6,9.6,0,0,1-.274-4.025l5.947.706a5.922,5.922,0,0,0,.112,2.309,3.831,3.831,0,0,0,.846,1.574,3.709,3.709,0,0,0,1.36.937,6.36,6.36,0,0,0,1.63.416,5.315,5.315,0,0,0,1.727-.047,3.545,3.545,0,0,0,1.306-.543,2.832,2.832,0,0,0,.865-.954A3.439,3.439,0,0,0,519.178,515.521Z" fill="#233e91"/>
          </g>
        </g>
      </g>
      <g id="Grupo_108333" data-name="Grupo 108333">
        <g id="Grupo_108332" data-name="Grupo 108332">
          <path id="Trazado_158155" data-name="Trazado 158155" d="M781.444,467.632a35.352,35.352,0,0,0-2.824-2.676,34.078,34.078,0,0,0-44.592.471l-.006.005a34.659,34.659,0,0,0-2.532,2.48,34,34,0,0,0-9.036,23.111v.042a34.143,34.143,0,0,0,68.285,0v-.042A34.038,34.038,0,0,0,781.444,467.632Zm-24.85,44.312a20.952,20.952,0,0,1-20.922-20.879v-.042a20.818,20.818,0,0,1,5.488-14.107,20.046,20.046,0,0,1,1.724-1.687,20.886,20.886,0,0,1,27.081-.285,21.061,21.061,0,0,1,1.8,1.692,20.824,20.824,0,0,1,5.753,14.387v.042a20.951,20.951,0,0,1-20.927,20.879Z" fill="#3644c6"/>
        </g>
        <path id="Trazado_158156" data-name="Trazado 158156" d="M731.49,514.133a34,34,0,0,1-9.036-23.068h13.218a20.827,20.827,0,0,0,5.488,14.064Z" fill="#fff"/>
        <path id="Trazado_158157" data-name="Trazado 158157" d="M781.661,467.827a33.615,33.615,0,0,1,9.077,22.934H777.461a20.584,20.584,0,0,0-5.513-13.982Z" fill="#fff"/>
        <path id="Trazado_158158" data-name="Trazado 158158" d="M779.8,516.043a33.647,33.647,0,0,1-22.934,9.119V511.885a20.491,20.491,0,0,0,13.943-5.521Z" fill="#fff"/>
        <path id="Trazado_158159" data-name="Trazado 158159" d="M731.812,467.574a33.678,33.678,0,0,1,22.3-10.6l.907,13.187a20.794,20.794,0,0,0-13.636,6.517Z" fill="#fff"/>
      </g>
      <path id="Trazado_158160" data-name="Trazado 158160" d="M654.549,621.048H537.51a59.77,59.77,0,0,1,55.727-47.555c.924-.042,1.854-.066,2.79-.066A59.773,59.773,0,0,1,654.549,621.048Z" fill="#3644c6"/>
      <path id="Trazado_158161" data-name="Trazado 158161" d="M654.549,621.048H564.53c3.5-20.327,14.175-37.5,28.707-47.555.924-.042,1.854-.066,2.79-.066A59.773,59.773,0,0,1,654.549,621.048Z" fill="#233e91"/>
      <path id="Trazado_158162" data-name="Trazado 158162" d="M658.97,625.631H530.5a2.3,2.3,0,0,1-2.293-2.293h0a2.3,2.3,0,0,1,2.293-2.293H658.97a2.3,2.3,0,0,1,2.293,2.293h0A2.3,2.3,0,0,1,658.97,625.631Z" fill="#3644c6"/>
      <path id="Trazado_158163" data-name="Trazado 158163" d="M594.46,575.835h0a2.317,2.317,0,0,1-2.31-2.31V569.09a2.317,2.317,0,0,1,2.31-2.31h0a2.318,2.318,0,0,1,2.311,2.31v4.435A2.317,2.317,0,0,1,594.46,575.835Z" fill="#3644c6"/>
      <g id="Grupo_108340" data-name="Grupo 108340">
        <g id="Grupo_108336" data-name="Grupo 108336">
          <g id="Grupo_108334" data-name="Grupo 108334">
            <path id="Trazado_158164" data-name="Trazado 158164" d="M813.72,594.373a48.08,48.08,0,0,1-10.9,10.284,63.792,63.792,0,0,1-34.375,11.529,78.375,78.375,0,0,1-7.927-.027s-20.044-28.778-44.625-31.137c0,0,23.681-25.794,62.06-23.222C777.957,561.8,810.572,571.55,813.72,594.373Z" fill="#233e91"/>
            <path id="Trazado_158165" data-name="Trazado 158165" d="M715.9,585.024s19.661,27.693,44.626,31.136C760.523,616.16,740.813,586.116,715.9,585.024Z" fill="#3644c6"/>
            <path id="Trazado_158166" data-name="Trazado 158166" d="M715.9,585.024s-1.745-2.582-7.883-3.408c0,0,3.524,4.981,2.9,6.342A6.476,6.476,0,0,0,715.9,585.024Z" fill="#233e91"/>
            <path id="Trazado_158167" data-name="Trazado 158167" d="M708.014,581.616s3.5,1.585,3.706,3.739-.571,3.527-2.71,1.872S706.992,581.455,708.014,581.616Z" fill="#3644c6"/>
            <path id="Trazado_158168" data-name="Trazado 158168" d="M761.587,615.716a7.921,7.921,0,0,1,4.02,6.141s-6.378-2.962-8.22-2.582C757.387,619.275,757.656,616.925,761.587,615.716Z" fill="#233e91"/>
            <path id="Trazado_158169" data-name="Trazado 158169" d="M765.607,621.857s-1.88-2.728-4.721-3.021-4.708.208-2.651,1.92S765.755,622.635,765.607,621.857Z" fill="#3644c6"/>
            <path id="Trazado_158170" data-name="Trazado 158170" d="M778.854,562.088s-1.043-2.646.919-2.766a6.108,6.108,0,0,1,5.046,2.8c.571,1.309-2.324,1.357-2.324,1.357Z" fill="#233e91"/>
            <path id="Trazado_158171" data-name="Trazado 158171" d="M813.02,593.535s2.841-1.743,3.744-.425-.111,3.687-1.495,4.587-3.091-3-3.091-3Z" fill="#233e91"/>
          </g>
          <g id="Grupo_108335" data-name="Grupo 108335">
            <path id="Trazado_158172" data-name="Trazado 158172" d="M775.112,620.238a48.551,48.551,0,0,0,11.494,6.531,57.316,57.316,0,0,0,30.517,3.843,61.286,61.286,0,0,0,6.3-1.266s8.044-26.213,26.954-31.964c0,0-25.927-16.955-55.756-8.867C794.62,588.515,771.348,601.451,775.112,620.238Z" fill="#ff816f"/>
            <path id="Trazado_158173" data-name="Trazado 158173" d="M850.377,597.383s-8.037,25.284-26.955,31.964C823.422,629.347,830.852,602.172,850.377,597.383Z" fill="#ff5e29"/>
            <path id="Trazado_158174" data-name="Trazado 158174" d="M850.377,597.383s.678-2.343,5.335-3.968c0,0-1.435,4.545-.569,5.539A6.058,6.058,0,0,1,850.377,597.383Z" fill="#ff816f"/>
            <path id="Trazado_158175" data-name="Trazado 158175" d="M855.712,593.415s-2.346,1.819-1.921,3.578,1.423,2.737,2.67,1.075S856.481,593.125,855.712,593.415Z" fill="#ff5e29"/>
            <path id="Trazado_158176" data-name="Trazado 158176" d="M822.454,629.159s-2.23,1.7-1.512,5.552c0,0,4.26-3.375,5.831-3.36C826.773,631.351,825.913,629.509,822.454,629.159Z" fill="#ff816f"/>
            <path id="Trazado_158177" data-name="Trazado 158177" d="M820.942,634.711a5.06,5.06,0,0,1,2.926-3.162c2.181-.681,3.8-.573,2.637,1.122S821.038,635.359,820.942,634.711Z" fill="#ff5e29"/>
            <path id="Trazado_158178" data-name="Trazado 158178" d="M793.985,588.886s.1-2.284-1.491-2.073a4.172,4.172,0,0,0-3.244,3.04c-.095,1.138,2.221.722,2.221.722Z" fill="#ff816f"/>
            <path id="Trazado_158179" data-name="Trazado 158179" d="M775.439,619.456s-2.739-.951-3.1.247,1.1,2.938,2.448,3.442,1.636-2.89,1.636-2.89Z" fill="#ff816f"/>
          </g>
        </g>
        <g id="Grupo_108337" data-name="Grupo 108337">
          <path id="Trazado_158180" data-name="Trazado 158180" d="M796.243,612.618l4.079-8.922-5.952,1.719-.622-2.155,9.112-2.63.539,1.867-4.08,8.922,6.144-1.774.622,2.155-9.3,2.685Z" fill="#233e91"/>
        </g>
        <g id="Grupo_108338" data-name="Grupo 108338">
          <path id="Trazado_158181" data-name="Trazado 158181" d="M808.356,600.833l5.7-5.227-4.849-.579.209-1.754,7.424.885-.182,1.522-5.7,5.226,5.005.6-.21,1.755-7.579-.9Z" fill="#233e91"/>
        </g>
        <g id="Grupo_108339" data-name="Grupo 108339">
          <path id="Trazado_158182" data-name="Trazado 158182" d="M815.22,582.893l1.339-6.239-3.539,1.926-.7-1.28,5.418-2.949.6,1.11-1.339,6.239,3.653-1.988.7,1.281L815.824,584Z" fill="#233e91"/>
        </g>
      </g>
      <g id="Grupo_108341" data-name="Grupo 108341">
        <path id="Trazado_158183" data-name="Trazado 158183" d="M298.943,496.089c.1.175.2.355.3.535,2.408,4.186,7.934,14.445,14.02,25.669,2.878,5.326,5.892,10.871,8.751,16.087,4.927,9,9.409,17.021,12.024,21.258,2.659,4.308,4.617,7.335,5.409,8.546l.007.006a2.008,2.008,0,0,1,.257,1.249,65.383,65.383,0,0,0,.174,11.29c3.671,36.52,28.3,56.091,28.3,56.091l7.322,1.082s-10.362-38.389-13.414-60.091a41.687,41.687,0,0,1-.561-8.6c.541-5.653-.463-13.955-2.363-23.485-3.381-16.937-9.582-37.725-14.973-54.366-.341-1.062-10.638-38.31-10.638-38.31-8.643,7.554-40.166,10.67-40.166,10.67S288.047,476.712,298.943,496.089Z" fill="#233e91"/>
        <path id="Trazado_158184" data-name="Trazado 158184" d="M390.874,647.166H360.315s-.733-4.657.864-8.191c1.529-3.391,3.709-3.5.278-8.813,1.942,2,8.184,2.826,12.6,2.232.541.877,3.49,6.765,5.3,8.065C381.354,641.894,390.259,641.382,390.874,647.166Z" fill="#303030"/>
        <path id="Trazado_158185" data-name="Trazado 158185" d="M298.943,496.089c.1.175.2.355.3.535,2.408,4.186,15.434,28.245,21.52,39.47-7.052-29.012-2.147-58.024-2.147-58.024Z" fill="#3644c6"/>
        <path id="Trazado_158186" data-name="Trazado 158186" d="M412.725,350.929c.2-.8-17.454,7.978-18.35,8.971-8.279,9.184-5.918,21.169-1.181,21.284,3.039.074,2.45,5.125,2.45,5.125l33.848-14.319S425.417,348.225,412.725,350.929Z" fill="#541203"/>
        <path id="Trazado_158187" data-name="Trazado 158187" d="M401.35,409.255s5.151,10.289,4.508,18.64c0,0-6.211,9.8-22.32,12.286C383.538,440.181,397.388,409.247,401.35,409.255Z" fill="#80beca"/>
        <path id="Trazado_158188" data-name="Trazado 158188" d="M322.767,465.992l.1-5.716c-11.387,1.436-39.264-13.608-39.264-13.608s-11.914,7.924-13.545,30.553c-.8,11.045-5.832,57.755-6.389,71.7-.2,5.055-.27,8.663-.293,10.1a.024.024,0,0,1,0,.014,1.986,1.986,0,0,1-.484,1.177,65.213,65.213,0,0,0-6.17,9.458c-17.377,32.33-8.29,76.26-8.29,76.26l4.035-1.026s14.693-45.54,24.3-65.239a41.19,41.19,0,0,1,4.349-7.445c3.61-4.385,7.418-11.832,11.171-20.8C299.38,534.488,322.767,465.992,322.767,465.992Z" fill="#233e91"/>
        <path id="Trazado_158189" data-name="Trazado 158189" d="M272.737,647.166H242.178s-.732-4.657.864-8.191c1.529-3.391,3.925-4.932,3.351-9.034a11.005,11.005,0,0,0,9.525,3.644c.541.878,3.494,5.574,5.3,6.874C263.218,641.894,272.122,641.382,272.737,647.166Z" fill="#303030"/>
        <path id="Trazado_158190" data-name="Trazado 158190" d="M381.475,446.744c-4.1.7.671,3.963-4.975,4.577-8.036.877-16.332,1.477-20.678,3.21-1.585.632-2.645,1.413-2.976,2.411-1.884,5.665-13.815,15.4-13.815,15.4-53.212-2.422-56.64-26.139-56.64-26.139,34.536-33.541,63.917-51.824,88.2-54.087,5.91-.551,13.876.189,17.613,1.853,8.493,3.781,13.147,15.287,13.147,15.287S397.072,444.083,381.475,446.744Z" fill="#80beca"/>
        <path id="Trazado_158191" data-name="Trazado 158191" d="M376.5,451.321c-8.036.877-16.332,1.477-20.678,3.21a84.738,84.738,0,0,1,10.748-46.5S374.74,441.278,376.5,451.321Z" fill="#1babb5"/>
        <path id="Trazado_158192" data-name="Trazado 158192" d="M383.432,403.537s-20.207-1.1-23.8,11.583,6.736,63.327,8.962,68.554c4.051,9.515,23.777,36.673,23.777,36.673l7.253-2.209s-13.152-41.489-16.089-45.594C378.929,466.1,389.481,409.057,383.432,403.537Z" fill="#ffbeb7"/>
        <path id="Trazado_158193" data-name="Trazado 158193" d="M399.627,518.138s.373,3.217,1.733,4.878,5.314,5.68,5.383,8.032c0,0-.2,1.045-1.047.854s-3.794-3.107-5.305-2.9c0,0,.806,4.716,1.606,6.043s1.811,5.766,1.332,6.912-8.187-3.868-10.448-8.219c-1.872-3.6-.038-16.485-.038-16.485Z" fill="#ffbeb7"/>
        <path id="Trazado_158194" data-name="Trazado 158194" d="M355.649,432.086c.053.3,19.123,3.508,31.05-2.546,0,0,9.965-31.216-4.275-29.722s-22.671,5.978-23.03,12.8S355.649,432.086,355.649,432.086Z" fill="#80beca"/>
        <path id="Trazado_158195" data-name="Trazado 158195" d="M387.606,395.7c1.317,4.265,6.485,18.95,13.744,13.555-.238-1.011,1.236-3.954,2.975-6.942,2.222-3.819,4.869-7.722,4.869-7.722l-11.438-10.02-.682-.6A29.318,29.318,0,0,1,388.2,393.9,1.631,1.631,0,0,0,387.606,395.7Z" fill="#ffbeb7"/>
        <path id="Trazado_158196" data-name="Trazado 158196" d="M409.192,394.6s-2.644,3.894-4.866,7.718c-7.109-4.383-7.116-13.184-6.569-17.742Z" fill="#ffa9a2"/>
        <path id="Trazado_158197" data-name="Trazado 158197" d="M409.509,399.616s-17.26-9.605-11.113-20.262,8.058-19.073,19.338-13.392,11.058,10.972,9.871,15.028S414.158,401.84,409.509,399.616Z" fill="#ffbeb7"/>
        <path id="Trazado_158198" data-name="Trazado 158198" d="M430.521,374.775c-.791-4.732-3.194-5.184-4.87-4.868-6.375-10.541-16.789-6.427-16.789-6.427a23.5,23.5,0,0,1-13.6,8.171s2,3.727,10.256,6.034a14.1,14.1,0,0,0,8.141-.651,46.075,46.075,0,0,1-11.713,4.416c10.875.995,21.223-8.948,22.3-10.011.5,1.54,1.381,4.766.855,7.124-.716,3.206-3.561,9.01-1.824,9.761C423.269,388.324,431.707,381.871,430.521,374.775Z" fill="#541203"/>
        <path id="Trazado_158199" data-name="Trazado 158199" d="M412.725,350.929a9.027,9.027,0,0,0-6.811-9.134c-14.2-4.142-14.938,8.919-20.076,12.671-6.266,4.576-8.294,13.112,3.425,15.358s12.087-5.691,12.087-5.691Z" fill="#541203"/>
      </g>
      <rect id="Rectángulo_40165" data-name="Rectángulo 40165" width="938" height="4.796" rx="2.398" transform="translate(214 646.943)" fill="#3644c6"/>
    </g>
    <text id="Autorrealización" transform="translate(824 1646.313)" fill="#12263f" font-size="18" font-family="Roboto-Black, Roboto" font-weight="800"><tspan x="0" y="0">Autorrealización</tspan></text>
    <text id="Satisfacción_personal." data-name="Satisfacción personal." transform="translate(824 1668.313)" fill="#12263f" font-size="16" font-family="Roboto-Regular, Roboto"><tspan x="0" y="0">Satisfacción personal.</tspan></text>
    <text id="Reconocimiento" transform="translate(895 1748.313)" fill="#12263f" font-size="18" font-family="Roboto-Black, Roboto" font-weight="800"><tspan x="0" y="0">Reconocimiento</tspan></text>
    <text id="Valoración_de_los_demás_éxito_respeto." data-name="Valoración de los demás, éxito, respeto." transform="translate(895 1770.313)" fill="#12263f" font-size="16" font-family="Roboto-Regular, Roboto"><tspan x="0" y="0">Valoración de los demás, éxito, respeto.</tspan></text>
    <text id="Sociales" transform="translate(979 1840.313)" fill="#12263f" font-size="18" font-family="Roboto-Black, Roboto" font-weight="800"><tspan x="0" y="0">Sociales</tspan></text>
    <text id="Pertenencia_a_un_grupo_amistad_amor_afecto." data-name="Pertenencia a un grupo, amistad, amor, afecto." transform="translate(979 1845.313)" fill="#12263f" font-size="16" font-family="Roboto-Regular, Roboto"><tspan x="0" y="15">Pertenencia a un grupo, </tspan><tspan x="0" y="39">amistad, amor, afecto.</tspan></text>
    <text id="Seguridad" transform="translate(1056 1958.313)" fill="#12263f" font-size="18" font-family="Roboto-Black, Roboto" font-weight="800"><tspan x="0" y="0">Seguridad</tspan></text>
    <text id="Fisiológicas" transform="translate(1116 2048.313)" fill="#12263f" font-size="18" font-family="Roboto-Black, Roboto" font-weight="800"><tspan x="0" y="0">Fisiológicas</tspan></text>
    <text id="Física_laboral_económica." data-name="Física, laboral, económica." transform="translate(1056 1980.313)" fill="#12263f" font-size="16" font-family="Roboto-Regular, Roboto"><tspan x="0" y="0">Física, laboral, económica.</tspan></text>
    <text id="Respirar_comer_beber_dormir_sexualidad._" data-name="Respirar, comer, beber, dormir, sexualidad. " transform="translate(1116 2053.313)" fill="#12263f" font-size="16" font-family="Roboto-Regular, Roboto"><tspan x="0" y="15">Respirar, comer, beber, </tspan><tspan x="0" y="39">dormir, sexualidad. </tspan></text>
  </g>
</svg>
