<svg xmlns="http://www.w3.org/2000/svg" width="120" height="120" viewBox="0 0 120 120">
  <g id="Grupo_110072" data-name="Grupo 110072" transform="translate(14854.938 21398.395)">
    <circle id="Elipse_5393" data-name="Elipse 5393" cx="60" cy="60" r="60" transform="translate(-14854.938 -21398.395)" fill="#fff"/>
    <g id="Grupo_109891" data-name="Grupo 109891" transform="translate(-15748.883 -21602.328)">
      <path id="Trazado_162479" data-name="Trazado 162479" d="M963.016,237.193c1.356-.43,1.817-.293,2.539.884a30.267,30.267,0,0,1,.027,32.132c-.287.467-.341.71.1,1.11.834.748,1.589,1.586,2.377,2.387.333.338.593.567,1.076.086a1.521,1.521,0,0,1,2.375.161c5.32,5.33,10.681,10.619,15.939,16.009a8.255,8.255,0,0,1-11.763,11.58c-5.314-5.222-10.563-10.509-15.83-15.778-.931-.931-.965-1.474-.159-2.539.25-.331.313-.518-.007-.827-.918-.886-1.838-1.773-2.7-2.714-.414-.454-.634-.113-.932.068a29.391,29.391,0,0,1-8.329,3.595c-10.643,2.574-20.175.324-28.216-7.089a30.084,30.084,0,0,1,8.4-49.7c8.646-3.791,17.307-3.406,25.795.714,1.507.731,1.68,1.12,1.367,2.511-.929.986-1.32,1-2.77.291-8.075-3.934-16.254-4.124-24.287-.108a27.038,27.038,0,1,0,34.859,9.76A1.862,1.862,0,0,1,963.016,237.193ZM986.6,295.587a4.7,4.7,0,0,0-1.468-3.557c-4.761-4.8-9.554-9.569-14.319-14.364-.441-.444-.7-.467-1.161,0q-3.069,3.134-6.214,6.192c-.464.45-.346.722.038,1.093.811.782,1.6,1.586,2.4,2.383,3.957,3.956,7.9,7.925,11.875,11.863a5.149,5.149,0,0,0,8.855-3.609Zm-20.339-19.28c-.341-.325-.746-.707-1.147-1.093-.56-.539-1.125-1.508-1.678-1.5-.576.008-1.158.939-1.7,1.5-.772.8-2.221,1.5-2.13,2.412.087.873,1.409,1.622,2.186,2.426a.684.684,0,0,1,.074.085c.294.414.553.353.888,0,1.038-1.077,2.107-2.124,3.159-3.189C966.059,276.8,966.29,276.693,966.258,276.307Z" transform="translate(0)" fill="#040506"/>
      <path id="Trazado_162480" data-name="Trazado 162480" d="M963.215,237.389a1.862,1.862,0,0,0-.132,2.533,27.046,27.046,0,1,1-34.859-9.76c8.033-4.016,16.212-3.826,24.287.108,1.45.707,1.841.7,2.77-.291l3.154,2.319a1.564,1.564,0,0,0,.11,2.145,1.632,1.632,0,0,0,2.244.021ZM940.254,231.3a23.1,23.1,0,1,0,23.067,23.088A23.114,23.114,0,0,0,940.254,231.3Z" transform="translate(-0.199 -0.197)" fill="#75b62f"/>
      <path id="Trazado_162481" data-name="Trazado 162481" d="M963.639,234.755a1.631,1.631,0,0,1-2.244-.021,1.53,1.53,0,1,1,2.119-2.207C964.286,233.2,964.107,233.983,963.639,234.755Z" transform="translate(-3.049 -0.487)" fill="#040506"/>
      <path id="Trazado_162482" data-name="Trazado 162482" d="M989.981,298.976a5.149,5.149,0,0,1-8.855,3.609c-3.975-3.938-7.918-7.907-11.875-11.863-.8-.8-1.584-1.6-2.395-2.383-.384-.371-.5-.642-.038-1.093q3.144-3.058,6.215-6.192c.457-.467.72-.444,1.161,0,4.766,4.8,9.558,9.565,14.319,14.364A4.7,4.7,0,0,1,989.981,298.976Z" transform="translate(-3.384 -3.389)" fill="#75b62f"/>
      <path id="Trazado_162483" data-name="Trazado 162483" d="M969.417,279.466c.032.386-.2.494-.35.646-1.051,1.064-2.12,2.112-3.159,3.189-.335.348-.593.409-.888,0a.707.707,0,0,0-.074-.085c-.778-.8-2.1-1.553-2.186-2.426-.091-.915,1.358-1.615,2.13-2.412.544-.561,1.126-1.493,1.7-1.5.553-.008,1.118.962,1.678,1.5C968.672,278.759,969.076,279.141,969.417,279.466Z" transform="translate(-3.159 -3.16)" fill="#fbfbfb"/>
      <path id="Trazado_162484" data-name="Trazado 162484" d="M940.5,231.553a23.1,23.1,0,1,1-23.138,23.012A23.123,23.123,0,0,1,940.5,231.553Zm6.612,24.545c4.754,1.324,7.844,3.2,10.767,8.1,4.435-7.275,3.28-18.616-4.988-25.179a19.993,19.993,0,0,0-26.809,1.764c-7.118,7.377-6.608,18.05-2.969,23.408a15.593,15.593,0,0,1,10.706-8.049c-.418-.669-.831-1.247-1.16-1.87-1.45-2.745-1.3-5.717-.825-8.594.626-3.8,3.073-6.156,6.823-7.055a8.687,8.687,0,0,1,8.994,3.533C950.21,245.742,949.989,251.964,947.117,256.1Zm-8.212,5.653c0-.676-.013-1.353.006-2.029.012-.442-.095-.653-.609-.709a12.594,12.594,0,0,0-12.782,7.383,1.509,1.509,0,0,0,.35,1.883,20.085,20.085,0,0,0,28.853.388,2.092,2.092,0,0,0,.442-2.821c-2.562-4.908-7.2-7.154-12.567-6.83-.549.033-.583.318-.58.732.009,1.277.021,2.556-.006,3.833a1.613,1.613,0,0,1-1.5,1.772c-.9.031-1.558-.7-1.6-1.8C938.89,262.954,938.908,262.352,938.9,261.751Zm7.261-12.809c0-.766.021-1.331,0-1.894a5.728,5.728,0,0,0-5.7-5.524,5.8,5.8,0,0,0-5.717,5.532c-.041,1.088-.034,2.18,0,3.269a5.8,5.8,0,0,0,3.792,5.232,5.657,5.657,0,0,0,6.316-1.729A6.47,6.47,0,0,0,946.166,248.942Z" transform="translate(-0.45 -0.455)" fill="#040506"/>
      <path id="Trazado_162485" data-name="Trazado 162485" d="M947.317,256.3c2.873-4.135,3.094-10.356.538-13.946a8.688,8.688,0,0,0-8.994-3.533c-3.75.9-6.2,3.251-6.823,7.055-.473,2.876-.625,5.849.825,8.594.329.623.742,1.2,1.16,1.87a15.593,15.593,0,0,0-10.706,8.049c-3.638-5.358-4.149-16.031,2.969-23.408a19.993,19.993,0,0,1,26.809-1.764c8.268,6.563,9.423,17.9,4.988,25.179C955.161,259.495,952.071,257.621,947.317,256.3Z" transform="translate(-0.65 -0.653)" fill="#fbfbfb"/>
      <path id="Trazado_162486" data-name="Trazado 162486" d="M939.413,263.49c0,.6-.017,1.2,0,1.8.039,1.1.7,1.83,1.6,1.8a1.613,1.613,0,0,0,1.5-1.772c.026-1.277.014-2.556.006-3.833,0-.415.031-.7.58-.732,5.371-.324,10.005,1.922,12.567,6.83a2.092,2.092,0,0,1-.442,2.821,20.085,20.085,0,0,1-28.853-.388,1.509,1.509,0,0,1-.35-1.883,12.594,12.594,0,0,1,12.782-7.383c.514.056.622.267.609.709C939.4,262.136,939.411,262.813,939.413,263.49Z" transform="translate(-0.956 -2.193)" fill="#f85316"/>
      <path id="Trazado_162487" data-name="Trazado 162487" d="M947.267,249.575a6.471,6.471,0,0,1-1.318,4.885,5.658,5.658,0,0,1-6.316,1.729,5.8,5.8,0,0,1-3.792-5.232c-.032-1.089-.04-2.181,0-3.269a5.8,5.8,0,0,1,5.717-5.532,5.728,5.728,0,0,1,5.7,5.524C947.288,248.245,947.267,248.809,947.267,249.575Z" transform="translate(-1.551 -1.088)" fill="#fbcec5"/>
    </g>
  </g>
</svg>
