<svg xmlns="http://www.w3.org/2000/svg" width="120" height="120" viewBox="0 0 120 120">
  <g id="Grupo_110073" data-name="Grupo 110073" transform="translate(14670.939 21398.395)">
    <circle id="Elipse_5406" data-name="Elipse 5406" cx="60" cy="60" r="60" transform="translate(-14670.939 -21398.395)" fill="#fff"/>
    <g id="Grupo_109892" data-name="Grupo 109892" transform="translate(-15666.938 -21627.6)">
      <path id="Trazado_162488" data-name="Trazado 162488" d="M1095.926,278.9a1.636,1.636,0,0,0-2.335-.475q-8.439,4.385-16.871,8.781c-2.257,1.181-2.246,1.2-1.7,3.667.013.057-.038.13-.086.273-.232-.045-.483-.084-.729-.143-3.647-.887-7.3-1.744-10.938-2.679a8.311,8.311,0,0,0-7.477,1.318,1.187,1.187,0,0,1-1.48.072,12.367,12.367,0,0,0-8.55-1.044c-1.9.451-3.785.969-5.69,1.393a10.814,10.814,0,0,1-2.7.55c.422-2.163.358-2.31-1.472-3.261q-8.485-4.413-16.974-8.823c-1.227-.638-1.835-.517-2.761.574-.04-.044-.073-.074-.112-.115.009,9.754.11,19.506.143,29.26.013-.018.027-.031.04-.049.34.882,1.09,1.075,1.807,1.3q5.905,1.867,11.814,3.72c1.279.4,1.878.1,2.373-1.129.095-.233-.064-.81.55-.572.463.18.836.31.692,1.024a4.911,4.911,0,0,0,3.966,6.127,1.044,1.044,0,0,1,.959.981,4.844,4.844,0,0,0,4.039,4.021.924.924,0,0,1,.881.865,4.781,4.781,0,0,0,4,4.042c.7.123.855.449,1,1.047.843,3.466,4.3,5.172,7.337,3.414a12.628,12.628,0,0,0,4.572-4.714c.208-.364.263-.667.862-.594,3.118.381,5.2-1.081,5.931-4.17a.894.894,0,0,1,.86-.792,4.907,4.907,0,0,0,4.115-4.1c.14-.662.43-.815.995-.915a4.813,4.813,0,0,0,3.891-3.747,3.776,3.776,0,0,1,2.73-2.5c.457-.071.365.251.442.466.487,1.36,1.1,1.665,2.493,1.229,3.186-1,6.392-1.943,9.547-3.031,1.26-.434,2.731-.484,3.751-1.542C1095.685,298.718,1095.887,288.8,1095.926,278.9ZM1029.776,309c-.159.684-.406.83-1.067.614-2.852-.932-5.717-1.819-8.576-2.729-.449-.143-.869-.215-.867-.921.032-7.851.021-15.7.021-23.721,4.887,2.531,9.606,4.981,14.333,7.415a.8.8,0,0,1,.489,1.065Q1031.913,299.851,1029.776,309Zm9.6,6.379a1.465,1.465,0,0,1-.955.3,1.875,1.875,0,0,1-1.747-1.041,1.76,1.76,0,0,1,.2-2.111,32.327,32.327,0,0,1,2.632-2.62,1.835,1.835,0,0,1,2.487.007,1.8,1.8,0,0,1,.39,2.438A19.165,19.165,0,0,1,1039.379,315.375Zm4.782,5.035a1.994,1.994,0,0,1-.724.222,2.039,2.039,0,0,1-1.842-1.131,1.613,1.613,0,0,1,.183-1.9,37.989,37.989,0,0,1,2.778-2.782,1.673,1.673,0,0,1,2.364.041,1.7,1.7,0,0,1,.472,2.321A12.674,12.674,0,0,1,1044.161,320.409Zm5.283,4.78a1.759,1.759,0,0,1-1.162.43,2,2,0,0,1-1.676-1.091,1.758,1.758,0,0,1,.226-2.1,29.852,29.852,0,0,1,2.607-2.618,1.888,1.888,0,0,1,2.566.066,1.831,1.831,0,0,1,.127,2.627C1051.3,323.457,1050.352,324.308,1049.444,325.189Zm7.87,1.928a13.053,13.053,0,0,1-3.227,3.252,1.646,1.646,0,0,1-.7.192,1.933,1.933,0,0,1-1.74-2.945,14.744,14.744,0,0,1,2.927-2.945,1.7,1.7,0,0,1,2.277.117A1.714,1.714,0,0,1,1057.314,327.117Zm15.3-12.466a1.962,1.962,0,0,1-2.222-.661q-3.746-3.747-7.5-7.489a9.409,9.409,0,0,0-.813-.774,1.451,1.451,0,0,0-2.126.106,1.386,1.386,0,0,0,.008,2.112c1.434,1.482,2.9,2.932,4.356,4.4,1.268,1.278,2.551,2.541,3.8,3.837,1.014,1.05,1.094,2.142.274,2.969-.868.874-1.974.792-3.055-.279-2.455-2.434-4.893-4.885-7.338-7.33-.159-.16-.315-.322-.479-.477-.972-.924-1.838-1.019-2.54-.283-.678.711-.545,1.609.394,2.551q3.853,3.863,7.71,7.722c1.094,1.1,1.205,2.159.353,3.048s-1.982.794-3.066-.272c-1.9-1.869-3.8-3.741-5.661-5.646a5.3,5.3,0,0,0-3.366-1.859c-.437-.036-.62-.227-.688-.7a4.731,4.731,0,0,0-4.052-4.236c-.637-.132-.806-.4-.93-1.01a5.02,5.02,0,0,0-8.35-2.747,7.749,7.749,0,0,0-1.042,1.027c-.481.634-.96.622-1.632.279-1.8-.916-1.538-.581-1.138-2.3.887-3.8,1.83-7.59,2.691-11.4a1.556,1.556,0,0,1,1.353-1.359c2.962-.685,5.9-1.5,8.863-2.157a9.322,9.322,0,0,1,5.8.48c-.971.735-1.791,1.358-2.614,1.976a5.5,5.5,0,0,0-1.653,7.308,5.564,5.564,0,0,0,6.937,2.351c2.35-.894,4.7-1.792,7.032-2.728a1.571,1.571,0,0,1,2.032.431c3.007,3.248,6.1,6.421,9.138,9.637C1074.367,312.514,1074.131,314.074,1072.619,314.651Zm5.928-6.1c-2.426,1.339-2.409,1.345-4.291-.645-3.068-3.244-6.165-6.461-9.217-9.721a1.988,1.988,0,0,0-2.488-.61c-2.781,1.126-5.6,2.165-8.4,3.242a2.651,2.651,0,0,1-3.21-.512,2.374,2.374,0,0,1,.32-3.405c2.263-1.731,4.564-3.414,6.881-5.072a4.666,4.666,0,0,1,2.841-.748c1.887.266,3.972.908,6.089,1.4,2.705.623,5.391,1.329,8.095,1.961a1.1,1.1,0,0,1,.985.9c.933,4.06,1.87,8.118,2.853,12.166A.77.77,0,0,1,1078.546,308.548Zm13.412-1.567c-2.737.8-5.456,1.671-8.16,2.58-.794.267-1.086.141-1.279-.7-1.25-5.416-2.541-10.822-3.834-16.228-.623-2.6-.637-2.6,1.787-3.857,3.831-1.991,7.673-3.962,11.479-6,.978-.523,1.079-.211,1.072.7-.031,3.687-.013,7.374-.013,11.061,0,3.649-.029,7.3.022,10.948A1.268,1.268,0,0,1,1091.958,306.982Z" transform="translate(0 -1.532)" fill="#040404"/>
      <path id="Trazado_162489" data-name="Trazado 162489" d="M1051.386,278.961a1.675,1.675,0,0,1-1.905,1.51c-1.617.007-3.236.021-4.854,0-1.257-.02-1.789-.468-1.858-1.737-.045-.847-.577-.625-1.01-.626-3.951-.011-7.9,0-11.853-.008-1.937,0-2.247-.347-2.284-2.309-.1-5.377,2.217-9.231,7.186-11.381.831-.359.361-.719.17-1.1-1.365-2.707-.955-6.948.965-9.037a6.249,6.249,0,0,1,10.872,3.644c.094,1.937.313,3.926-.824,5.7-.225.351-.159.586.289.745a9.6,9.6,0,0,1,2.664,1.445,3.275,3.275,0,0,0,2.344-.562c.114-.3-.159-.473-.288-.692-1.547-2.619-1.619-8.684,1.7-10.945a9.32,9.32,0,0,1,2.083-1.1l1.053-.257c3.588-.178,6.2,1.2,7.267,4.264a10.166,10.166,0,0,1-.283,7.786c-.148.318-.748.752-.255,1.013.6.322,1.3.976,2.032.551a17.683,17.683,0,0,1,2.867-1.536c.767-.273.206-.627.087-.935-1.17-3.033-1.354-6.025.646-8.783a6.114,6.114,0,0,1,6.973-2.065,6.263,6.263,0,0,1,4.216,5.463c.135,2.109.205,4.222-1.157,6.116a11.346,11.346,0,0,1,6.917,6.292,12.963,12.963,0,0,1,.942,6.177c-.065,1.018-.688,1.493-1.86,1.5q-6.034.014-12.067,0c-.716,0-1.3-.085-1.268.993.027.944-.741,1.357-1.614,1.375-1.766.037-3.533.025-5.3.006a1.756,1.756,0,0,1-1.729-1.488c.37-1.391.7-1.659,2.1-1.671a20.211,20.211,0,0,1,2.365.015c1.021.113,1.2-.319,1.081-1.22a9.278,9.278,0,0,0-7.74-8.114c-1.6-.277-1.647-.24-1.652,1.348,0,.226.011.452-.008.676a1.489,1.489,0,0,1-1.575,1.544,1.435,1.435,0,0,1-1.521-1.475,11.362,11.362,0,0,1-.016-1.463c.028-.521-.135-.743-.7-.717a9.148,9.148,0,0,0-8.684,8.713c-.008.557.182.718.712.7.976-.031,1.953,0,2.93-.009A1.607,1.607,0,0,1,1051.386,278.961Zm-14.608-3.943c1.727,0,3.455-.025,5.182.012.664.014,1-.139,1.142-.868a11.74,11.74,0,0,1,2.123-4.547c.406-.565,1.449-1,1.12-1.683-.3-.625-1.327-.742-2.091-.944-.073-.019-.148-.031-.22-.049-1.714-.411-1.737-.4-1.927,1.286a1.451,1.451,0,0,1-1.518,1.478,1.472,1.472,0,0,1-1.558-1.452,3.194,3.194,0,0,1-.021-.787c.074-.626-.217-.743-.784-.72a8.32,8.32,0,0,0-7.458,7.367c-.042.667.088.942.829.92C1033.323,274.982,1035.05,275.018,1036.778,275.018Zm30.289-6.981a13.062,13.062,0,0,1,3.685,6.6c.126.574.585.369.914.371,3.42.014,6.841-.022,10.262.03.9.013,1.075-.294.98-1.108a8.223,8.223,0,0,0-6.3-6.985c-1.694-.41-1.756-.372-1.944,1.279a1.557,1.557,0,0,1-3.1.145,2.93,2.93,0,0,1-.047-.9c.06-.609-.185-.8-.776-.725A8.18,8.18,0,0,0,1067.067,268.037Zm-13.854-8.011c0,.413-.026.828,0,1.239a3.577,3.577,0,0,0,3.473,3.46,3.53,3.53,0,0,0,3.751-3.156,9.809,9.809,0,0,0-.033-3.254,3.587,3.587,0,0,0-4.464-2.859C1054.04,255.973,1053.2,257.369,1053.213,260.026Zm-9.467-.435c0-.4.007-.663,0-.925a3.243,3.243,0,0,0-3.178-3.373,3.285,3.285,0,0,0-3.193,3.389,18.458,18.458,0,0,0,.014,1.91,3.169,3.169,0,0,0,4.587,2.649C1043.6,262.464,1043.829,261.03,1043.746,259.591Zm32.506-.105c0-.375.02-.753,0-1.126a3.131,3.131,0,0,0-6.237-.328,8.432,8.432,0,0,0,.08,3.249,3.083,3.083,0,0,0,4.071,2.12C1075.721,262.82,1076.265,261.807,1076.252,259.486Z" transform="translate(-0.683 0)" fill="#040404"/>
      <path id="Trazado_162490" data-name="Trazado 162490" d="M1052.534,279.944a1.607,1.607,0,0,0-1.841-1.659c-.977.008-1.954-.022-2.93.009-.53.018-.72-.143-.712-.7a9.148,9.148,0,0,1,8.684-8.713c.564-.026.727.2.7.717a11.363,11.363,0,0,0,.016,1.463,1.435,1.435,0,0,0,1.521,1.475,1.489,1.489,0,0,0,1.575-1.544c.019-.224.007-.45.008-.676.006-1.588.051-1.625,1.652-1.348a9.278,9.278,0,0,1,7.74,8.114c.116.9-.06,1.333-1.081,1.22a20.2,20.2,0,0,0-2.365-.015c-1.4.012-1.73.28-2.1,1.671l-3.821-.013c-.116-.946-.545-1.628-1.585-1.637s-1.454.7-1.6,1.62Z" transform="translate(-1.831 -0.983)" fill="#dce736"/>
      <path id="Trazado_162491" data-name="Trazado 162491" d="M1056.976,280.523c.15-.922.557-1.629,1.6-1.62s1.469.692,1.585,1.637a1.6,1.6,0,0,1-3.188-.017Z" transform="translate(-2.417 -1.577)" fill="#040404"/>
      <path id="Trazado_162492" data-name="Trazado 162492" d="M1053.312,293.044c-.971.735-1.79,1.358-2.614,1.976a5.5,5.5,0,0,0-1.653,7.308,5.564,5.564,0,0,0,6.937,2.351c2.35-.894,4.7-1.792,7.032-2.728a1.571,1.571,0,0,1,2.032.431c3.007,3.248,6.1,6.421,9.138,9.637,1.261,1.332,1.025,2.892-.487,3.469a1.961,1.961,0,0,1-2.222-.66q-3.746-3.747-7.5-7.489a9.384,9.384,0,0,0-.813-.774,1.451,1.451,0,0,0-2.126.106,1.386,1.386,0,0,0,.008,2.112c1.434,1.482,2.9,2.932,4.356,4.4,1.268,1.278,2.551,2.541,3.8,3.837,1.014,1.05,1.094,2.143.273,2.969-.868.874-1.973.792-3.054-.279q-3.682-3.651-7.338-7.33c-.159-.16-.315-.322-.479-.477-.972-.924-1.838-1.019-2.541-.283-.678.711-.545,1.609.394,2.551q3.853,3.863,7.71,7.722c1.094,1.1,1.205,2.159.353,3.048s-1.982.794-3.066-.272c-1.9-1.869-3.8-3.741-5.661-5.646a5.3,5.3,0,0,0-3.366-1.859c-.437-.036-.62-.227-.688-.7a4.731,4.731,0,0,0-4.052-4.236c-.637-.132-.806-.4-.93-1.011a5.02,5.02,0,0,0-8.35-2.746,7.719,7.719,0,0,0-1.042,1.027c-.481.634-.96.622-1.632.279-1.8-.916-1.538-.581-1.138-2.3.887-3.8,1.83-7.59,2.691-11.4a1.556,1.556,0,0,1,1.353-1.359c2.962-.685,5.9-1.5,8.863-2.157A9.321,9.321,0,0,1,1053.312,293.044Z" transform="translate(-1.078 -2.369)" fill="#facdc4"/>
      <path id="Trazado_162493" data-name="Trazado 162493" d="M1096.92,294.818c0,3.649-.029,7.3.022,10.948a1.268,1.268,0,0,1-1.074,1.492c-2.737.8-5.456,1.671-8.16,2.58-.794.267-1.086.141-1.279-.7-1.249-5.416-2.54-10.822-3.834-16.228-.623-2.6-.637-2.6,1.787-3.857,3.831-1.991,7.673-3.962,11.479-6,.978-.523,1.079-.211,1.072.7C1096.9,287.443,1096.92,291.13,1096.92,294.818Z" transform="translate(-3.91 -1.808)" fill="#f85316"/>
      <path id="Trazado_162494" data-name="Trazado 162494" d="M1019.489,282.5c4.887,2.531,9.606,4.981,14.333,7.415a.8.8,0,0,1,.49,1.065q-2.2,9.13-4.333,18.275c-.16.684-.407.83-1.068.614-2.852-.931-5.717-1.819-8.576-2.729-.449-.143-.869-.215-.867-.922C1019.5,298.368,1019.489,290.516,1019.489,282.5Z" transform="translate(-0.201 -1.79)" fill="#75b62f"/>
      <path id="Trazado_162495" data-name="Trazado 162495" d="M1063.138,291.892c1.887.266,3.972.908,6.089,1.4,2.705.623,5.391,1.329,8.095,1.961a1.1,1.1,0,0,1,.985.9c.933,4.06,1.87,8.118,2.853,12.167a.769.769,0,0,1-.459,1.047c-2.426,1.339-2.409,1.345-4.291-.645-3.068-3.244-6.165-6.461-9.217-9.721a1.988,1.988,0,0,0-2.488-.61c-2.781,1.126-5.6,2.165-8.4,3.242a2.651,2.651,0,0,1-3.21-.512,2.373,2.373,0,0,1,.32-3.405c2.263-1.731,4.564-3.414,6.881-5.073A4.672,4.672,0,0,1,1063.138,291.892Z" transform="translate(-2.154 -2.345)" fill="#fbc7a3"/>
      <path id="Trazado_162496" data-name="Trazado 162496" d="M1039.7,317.635a1.876,1.876,0,0,1-1.748-1.041,1.76,1.76,0,0,1,.2-2.111,32.309,32.309,0,0,1,2.632-2.62,1.835,1.835,0,0,1,2.487.007,1.8,1.8,0,0,1,.39,2.438,19.174,19.174,0,0,1-3.006,3.032A1.466,1.466,0,0,1,1039.7,317.635Z" transform="translate(-1.278 -3.496)" fill="#fbc7a3"/>
      <path id="Trazado_162497" data-name="Trazado 162497" d="M1045.025,322.905a2.04,2.04,0,0,1-1.842-1.131,1.613,1.613,0,0,1,.183-1.9,37.983,37.983,0,0,1,2.778-2.782,1.673,1.673,0,0,1,2.364.041,1.7,1.7,0,0,1,.472,2.321,12.674,12.674,0,0,1-3.23,3.231A1.989,1.989,0,0,1,1045.025,322.905Z" transform="translate(-1.589 -3.806)" fill="#fbc7a3"/>
      <path id="Trazado_162498" data-name="Trazado 162498" d="M1050.184,328.207a2,2,0,0,1-1.676-1.091,1.758,1.758,0,0,1,.226-2.1,29.882,29.882,0,0,1,2.607-2.618,1.888,1.888,0,0,1,2.566.066,1.831,1.831,0,0,1,.127,2.627c-.834.949-1.78,1.8-2.688,2.682A1.76,1.76,0,0,1,1050.184,328.207Z" transform="translate(-1.903 -4.119)" fill="#fbc7a3"/>
      <path id="Trazado_162499" data-name="Trazado 162499" d="M1055.6,333.459a1.933,1.933,0,0,1-1.74-2.945,14.741,14.741,0,0,1,2.927-2.945,1.7,1.7,0,0,1,2.277.117,1.715,1.715,0,0,1,.462,2.33,13.051,13.051,0,0,1-3.227,3.252A1.646,1.646,0,0,1,1055.6,333.459Z" transform="translate(-2.214 -4.43)" fill="#fbc7a3"/>
      <path id="Trazado_162500" data-name="Trazado 162500" d="M1036.975,275.929c-1.728,0-3.455-.036-5.182.016-.74.022-.871-.253-.829-.92a8.32,8.32,0,0,1,7.459-7.367c.566-.024.858.094.784.72a3.194,3.194,0,0,0,.021.787,1.472,1.472,0,0,0,1.558,1.452,1.45,1.45,0,0,0,1.518-1.478c.19-1.683.213-1.7,1.927-1.286.072.018.148.03.22.049.764.2,1.788.319,2.091.944.329.678-.714,1.119-1.12,1.683a11.736,11.736,0,0,0-2.123,4.546c-.145.728-.478.882-1.142.868C1040.43,275.9,1038.7,275.929,1036.975,275.929Z" transform="translate(-0.88 -0.911)" fill="#3d46c2"/>
      <path id="Trazado_162501" data-name="Trazado 162501" d="M1069.544,268.949a8.181,8.181,0,0,1,3.678-1.288c.591-.076.836.116.776.725a2.934,2.934,0,0,0,.047.9,1.557,1.557,0,0,0,3.1-.145c.188-1.65.25-1.689,1.944-1.279a8.223,8.223,0,0,1,6.3,6.985c.095.815-.08,1.122-.98,1.108-3.42-.052-6.842-.016-10.262-.03-.328,0-.787.2-.914-.371A13.062,13.062,0,0,0,1069.544,268.949Z" transform="translate(-3.16 -0.912)" fill="#75b62f"/>
      <path id="Trazado_162502" data-name="Trazado 162502" d="M1054.819,260.222c-.01-2.657.827-4.053,2.732-4.57a3.588,3.588,0,0,1,4.464,2.859,9.812,9.812,0,0,1,.033,3.254,3.53,3.53,0,0,1-3.751,3.156,3.577,3.577,0,0,1-3.473-3.46C1054.793,261.05,1054.819,260.635,1054.819,260.222Z" transform="translate(-2.289 -0.196)" fill="#fbc7a3"/>
      <path id="Trazado_162503" data-name="Trazado 162503" d="M1044.358,259.785c.083,1.439-.143,2.873-1.772,3.65a3.169,3.169,0,0,1-4.587-2.649,18.457,18.457,0,0,1-.014-1.91,3.285,3.285,0,0,1,3.193-3.389,3.243,3.243,0,0,1,3.178,3.373C1044.364,259.122,1044.358,259.384,1044.358,259.785Z" transform="translate(-1.294 -0.194)" fill="#facdc4"/>
      <path id="Trazado_162504" data-name="Trazado 162504" d="M1078.906,259.68c.013,2.321-.531,3.334-2.09,3.914a3.083,3.083,0,0,1-4.071-2.12,8.43,8.43,0,0,1-.08-3.249,3.131,3.131,0,0,1,6.237.328C1078.926,258.927,1078.906,259.3,1078.906,259.68Z" transform="translate(-3.337 -0.194)" fill="#fbc7a3"/>
    </g>
  </g>
</svg>
