<svg xmlns="http://www.w3.org/2000/svg" xmlns:xlink="http://www.w3.org/1999/xlink" width="449.422" height="430.117" viewBox="0 0 449.422 430.117">
  <defs>
    <linearGradient id="linear-gradient" x1="1.059" y1="0.884" x2="0.127" y2="-0.024" gradientUnits="objectBoundingBox">
      <stop offset="0" stop-color="#f85316"/>
      <stop offset="0.077" stop-color="#f85519"/>
      <stop offset="1" stop-color="#ff713d"/>
    </linearGradient>
    <linearGradient id="linear-gradient-2" x1="-0.09" y1="0.097" x2="0.867" y2="0.992" gradientUnits="objectBoundingBox">
      <stop offset="0" stop-color="#3d46c2"/>
      <stop offset="1" stop-color="#4752e3"/>
    </linearGradient>
  </defs>
  <g id="Grupo_80128" data-name="Grupo 80128" transform="translate(105.229 -9.652) rotate(17)">
    <g id="Grupo_80127" data-name="Grupo 80127" transform="translate(7.73 7.731)">
      <path id="Trazado_113538" data-name="Trazado 113538" d="M3838.3-1090.346a171.151,171.151,0,0,1-67.039-13.535,171.638,171.638,0,0,1-54.745-36.91,171.654,171.654,0,0,1-36.91-54.745,171.158,171.158,0,0,1-13.536-67.039,171.164,171.164,0,0,1,13.536-67.04,171.664,171.664,0,0,1,36.91-54.744,171.655,171.655,0,0,1,54.745-36.91A171.153,171.153,0,0,1,3838.3-1434.8a171.151,171.151,0,0,1,67.039,13.535,171.664,171.664,0,0,1,54.746,36.91A171.678,171.678,0,0,1,3997-1329.614a171.15,171.15,0,0,1,13.535,67.04A171.144,171.144,0,0,1,3997-1195.535a171.669,171.669,0,0,1-36.909,54.745,171.647,171.647,0,0,1-54.746,36.91A171.149,171.149,0,0,1,3838.3-1090.346Zm0-343.095c-94.216,0-170.867,76.651-170.867,170.867s76.651,170.867,170.867,170.867,170.868-76.651,170.868-170.867S3932.518-1433.441,3838.3-1433.441Z" transform="translate(-3666.072 1434.803)" fill="#fff"/>
    </g>
    <path id="Trazado_113539" data-name="Trazado 113539" d="M3817.589-1431.377h0a10.214,10.214,0,0,0,9.591,10.2,159.214,159.214,0,0,1,103.414,46.522,159.209,159.209,0,0,1,46.522,103.415,10.215,10.215,0,0,0,10.2,9.592h0a10.235,10.235,0,0,0,10.208-10.859,179.6,179.6,0,0,0-52.474-116.609,179.593,179.593,0,0,0-116.608-52.472A10.233,10.233,0,0,0,3817.589-1431.377Z" transform="translate(-3637.63 1441.604)" fill="url(#linear-gradient)"/>
    <path id="Trazado_113540" data-name="Trazado 113540" d="M3669.5-1283.287a10.235,10.235,0,0,0-10.208,10.86,179.583,179.583,0,0,0,52.472,116.607,179.588,179.588,0,0,0,116.609,52.475,10.233,10.233,0,0,0,10.859-10.209h0a10.213,10.213,0,0,0-9.591-10.2,159.21,159.21,0,0,1-103.416-46.523,159.207,159.207,0,0,1-46.521-103.413,10.215,10.215,0,0,0-10.2-9.592Z" transform="translate(-3659.272 1463.245)" fill="url(#linear-gradient-2)"/>
  </g>
</svg>
