<svg xmlns="http://www.w3.org/2000/svg" width="120" height="120" viewBox="0 0 120 120">
  <g id="Grupo_109926" data-name="Grupo 109926" transform="translate(13250.944 3941.359)">
    <circle id="Elipse_5397" data-name="Elipse 5397" cx="60" cy="60" r="60" transform="translate(-13250.944 -3941.359)" fill="#fff"/>
    <g id="Grupo_109909" data-name="Grupo 109909" transform="translate(-14282.588 -4269.481)">
      <path id="Trazado_162521" data-name="Trazado 162521" d="M1132.172,423.74c-.226-.01-1.666-.044-1.891-.044-25.628,0-79.139.044-79.139.044a42.969,42.969,0,0,1,.3-6.441,12.706,12.706,0,0,1,8.678-9.551,9.462,9.462,0,0,1-1.361-8.661,1.083,1.083,0,0,1,.135-.425c1.653-1.841.012-3.494-.293-5.22-.062-.348-.365-.314-.622-.356-1.447-.232-2.891-.486-4.341-.7-.809-.119-1.567-.279-1.933-1.134a99.193,99.193,0,0,1-.166-14.588.83.83,0,0,1,.145-.347c.872-1.261,2.371-1.212,3.618-1.216,2.534-.008,3.725-1.127,4.243-3.527a16.175,16.175,0,0,1,1.689-3.792,1.283,1.283,0,0,0-.141-1.61c-.886-1.117-1.69-2.3-2.519-3.463-.85-1.193-.7-1.881.577-2.971a112.025,112.025,0,0,0,8.75-8.787,1.662,1.662,0,0,1,2.492-.328c1.2.9,2.449,1.746,3.651,2.648a1.242,1.242,0,0,0,1.8-.029,11.245,11.245,0,0,1,5.145-2.207c1.135-.163,1.431-.445,1.534-1.147.219-1.488.489-2.97.7-4.46a2.069,2.069,0,0,1,1.068-1.618c4.951-.054,9.9-.136,14.85.039a2.025,2.025,0,0,1,1.068,1.738c.23,1.449.475,2.895.679,4.347a.966.966,0,0,0,.875.961,19.249,19.249,0,0,1,6.038,2.494,1,1,0,0,0,1.384-.013c1.27-.937,2.569-1.834,3.833-2.779,1.188-.888,2.187-.344,3.176,1.352a20.943,20.943,0,0,0,7.76,7.665c1.442.821,1.8,1.821,1.025,2.879-.885,1.214-1.717,2.469-2.651,3.643a1.538,1.538,0,0,0-.142,1.717,28.419,28.419,0,0,1,2.468,6,.943.943,0,0,0,.917.785c1.3.187,2.6.374,3.9.614.788.146,1.686.1,2.158.986.18.336.221,14.788-.017,15.2-.512.881-1.427.866-2.28.983-.373.051-.745.108-1.113.182-1.131.227-2.562,0-3.315.77-.71.728-.779,2.067-1.174,3.12a.909.909,0,0,0,.072.831c1.937,3.87,1.8,6.905-.45,10.411,4.582,1.684,7.542,4.742,8.3,9.727A37.729,37.729,0,0,1,1132.172,423.74Zm-47.641-17.682c.061.126.137.146.23.029l-.144-.108a9.133,9.133,0,0,1-.571-3.2c.085-.92-.315-1.3-1.091-1.678a19.356,19.356,0,0,1,15.277-35.5c9.6,3.264,15.16,14.418,11.957,23.968a19.286,19.286,0,0,1-10.109,11.694c-.421.206-.769.4-.729.988a8.161,8.161,0,0,1-.713,3.889c.248-.056.353-.068.45-.1,8.377-3.033,13.619-8.874,15.533-17.573a23.343,23.343,0,0,0-15.894-26.963,1.914,1.914,0,0,1-1.643-2.082,1.811,1.811,0,0,1,2.318-1.017A26.572,26.572,0,0,1,1118,387.422a31.536,31.536,0,0,1-1.729,6.568,7.965,7.965,0,0,1,2.6.017c.781.061,1.6,1.039,2.222.381a6.374,6.374,0,0,0,.853-2.415c.034-.107.034-.224.058-.334a1.748,1.748,0,0,1,1.614-1.488c1.41-.2,2.81-.479,4.224-.651a1,1,0,0,0,.89-1c-.033-3.13-.04-6.26,0-9.39.009-.717-.282-.876-.909-.954-1.421-.177-2.831-.436-4.246-.654a1.91,1.91,0,0,1-1.558-1.423,30.038,30.038,0,0,0-3.354-8.1,2.11,2.11,0,0,1,.166-2.379c.835-1.076,1.58-2.224,2.426-3.291.922-1.165-.487-1.381-3.263-3.953a25.719,25.719,0,0,1-3.081-3.52c-.733-.98-1.093-1-1.707-.523-1.044.8-2.146,1.533-3.183,2.345a2.248,2.248,0,0,1-2.583.155,28.36,28.36,0,0,0-7.8-3.254,2.051,2.051,0,0,1-1.683-1.96c-.173-1.3-.445-2.587-.6-3.888a.928.928,0,0,0-.925-.827c-3.131.028-6.263.035-9.394,0-.681-.009-.922.222-1.01.863-.2,1.432-.452,2.856-.681,4.283a1.8,1.8,0,0,1-1.311,1.451,30.329,30.329,0,0,0-8.111,3.353,1.982,1.982,0,0,1-2.5-.136c-1.069-.832-2.193-1.594-3.28-2.4-.473-.353-.819-.5-1.4.284-.425.58-.844,1.172-1.315,1.715-4.186,4.82-6.319,4.666-5.36,5.907.851,1.1,1.6,2.281,2.463,3.371a1.966,1.966,0,0,1,.144,2.489,33.928,33.928,0,0,0-3.346,8.113,1.791,1.791,0,0,1-1.6,1.377c-1.379.207-2.75.467-4.134.631-.674.079-.862.344-.854,1.006.035,3.13.029,6.26.007,9.39,0,.592.132.874.786.937,1.123.109,2.229.4,3.353.487,1.572.121,2.519.788,2.692,2.443a12.888,12.888,0,0,0,.519,1.608c.139.567.314.713.921.452a6.944,6.944,0,0,1,3.3-.625c.653.053.727-.206.517-.707a23.855,23.855,0,0,1-1.109-3.668c-3.17-13.167,5.322-27.536,18.379-31.138a1.694,1.694,0,0,1,2.179,1.073,1.817,1.817,0,0,1-1.489,2.024,22.669,22.669,0,0,0-6.158,2.9c-10.239,7.247-13.318,19.724-7.549,30.6A21.97,21.97,0,0,0,1084.532,406.058Zm-9.061-22.3a16.269,16.269,0,0,0,8.273,14.251c.616.34.935.437,1.386-.345a7.7,7.7,0,0,1,13.165.016c.442.736.742.648,1.356.308a16.212,16.212,0,0,0-3.844-29.858A16.249,16.249,0,0,0,1075.47,383.761ZM1066,420.74c3.471,0,6.942,0,10.414-.008.36,0,.857.209.907-.494.437-6.13-4.238-10.046-9.091-9.752-.48.028-.672.148-.651.647.032.752.029,1.508,0,2.262a1.583,1.583,0,0,1-1.58,1.692,1.614,1.614,0,0,1-1.548-1.738c-.011-.226,0-.452,0-.679,0-2.46,0-2.461-2.49-2.111a5.255,5.255,0,0,0-.549.126c-4.247,1.061-6.718,4.481-6.673,9.14.008.765.244.936.965.929C1059.132,420.72,1062.566,420.74,1066,420.74Zm51.434,0c3.241,0,6.483.016,9.726-.007,1.718-.011,1.576.353,1.541-1.545a8.633,8.633,0,0,0-8.777-8.706c-.705,0-1.031.14-.959.918a10.851,10.851,0,0,1-.01,2.143,1.492,1.492,0,0,1-1.625,1.522,1.453,1.453,0,0,1-1.484-1.637c0-.227,0-.452,0-.679,0-2.514-.107-2.6-2.634-2.177-.148.025-.292.075-.438.11-4.216,1.058-6.712,4.5-6.679,9.137a.93.93,0,0,0,.936.937C1110.5,420.718,1113.964,420.74,1117.433,420.74Zm-25.818,0H1101a1.946,1.946,0,0,0,1.963-1.966,8.589,8.589,0,0,0-8.982-8.292c-.609.029-.777.227-.751.8a19.806,19.806,0,0,1-.012,2.365,1.5,1.5,0,0,1-1.25,1.406,1.464,1.464,0,0,1-1.785-1.3,5.814,5.814,0,0,1-.05-1.013c-.014-2.464-.2-2.616-2.675-2.155-.11.021-.217.062-.327.09-4.246,1.04-6.757,4.476-6.729,9.1,0,.821.27.992,1.032.983C1084.829,420.719,1088.222,420.74,1091.615,420.74Zm-4.5-18.609c0,3.108,1.855,5.234,4.61,5.2a5.123,5.123,0,0,0,4.345-3.385,5.513,5.513,0,0,0-.881-5.3,4.479,4.479,0,0,0-4.994-1.4A4.781,4.781,0,0,0,1087.111,402.13Zm-25.643.05c0,.226-.009.452,0,.677A4.427,4.427,0,0,0,1064,406.83a4.294,4.294,0,0,0,4.5-.255c1.919-1.216,2.688-4.027,1.768-6.57a4.371,4.371,0,0,0-3.443-2.91A4.606,4.606,0,0,0,1061.468,402.181Zm51.378.01c0,3.021,1.729,5.07,4.366,5.129a4.374,4.374,0,0,0,4.318-2.7,5.985,5.985,0,0,0-.742-6.07,4.688,4.688,0,0,0-2.493-1.454A4.6,4.6,0,0,0,1112.846,402.191Zm-12.473,6.742a12.883,12.883,0,0,1,3.786,3.657c.2.306.4.586.721.084a12.146,12.146,0,0,1,6.6-4.94,9.7,9.7,0,0,1-1.835-4.326A27.441,27.441,0,0,1,1100.373,408.933Zm-17.338.016a27.867,27.867,0,0,1-9.314-5.529,9.462,9.462,0,0,1-1.8,4.339,12.218,12.218,0,0,1,6.929,5.377A13.87,13.87,0,0,1,1083.036,408.949Z" fill="#030404"/>
      <path id="Trazado_162522" data-name="Trazado 162522" d="M1086.5,359.624a1.694,1.694,0,0,0-2.179-1.073c-13.057,3.6-21.549,17.971-18.379,31.138a23.855,23.855,0,0,0,1.109,3.668c.21.5.136.76-.517.707a6.944,6.944,0,0,0-3.3.625c-.607.26-.782.115-.921-.452a12.888,12.888,0,0,1-.519-1.608c-.173-1.655-1.12-2.322-2.692-2.443-1.123-.087-2.229-.378-3.353-.487-.654-.063-.791-.345-.786-.937.022-3.13.027-6.26-.007-9.39-.008-.663.18-.927.854-1.006,1.384-.164,2.755-.425,4.134-.631a1.81,1.81,0,0,0,1.627-1.484,29.21,29.21,0,0,1,3.314-8,1.966,1.966,0,0,0-.143-2.492c-.863-1.09-1.612-2.271-2.463-3.371a.656.656,0,0,1,.062-1.042q3.443-3.421,6.856-6.87c.442-.449.753-.294,1.155.007,1.086.811,2.211,1.573,3.28,2.4a1.982,1.982,0,0,0,2.5.136,30.329,30.329,0,0,1,8.111-3.353,1.6,1.6,0,0,0,1.3-1.383c.231-1.451.493-2.9.691-4.351.088-.641.329-.871,1.01-.863,3.132.039,6.263.032,9.394,0,.623-.006.848.2.922.811.161,1.306.435,2.6.608,3.9a2.051,2.051,0,0,0,1.683,1.96,28.354,28.354,0,0,1,7.792,3.248,2.042,2.042,0,0,0,2.594-.148c1.036-.813,2.139-1.541,3.183-2.345.5-.382.828-.445,1.323.063,2.178,2.234,4.4,4.43,6.623,6.615a.824.824,0,0,1,.1,1.318c-.84,1.061-1.581,2.2-2.411,3.272a1.939,1.939,0,0,0-.181,2.4,30.078,30.078,0,0,1,3.384,8.214,1.7,1.7,0,0,0,1.529,1.31c1.416.218,2.826.478,4.246.654.627.078.917.237.909.954-.039,3.13-.032,6.26,0,9.39.007.671-.206.916-.871,1-1.421.171-2.826.453-4.243.653a1.748,1.748,0,0,0-1.614,1.488c-.024.11-.024.227-.058.334a6.374,6.374,0,0,1-.853,2.415c-.625.658-1.441-.32-2.222-.381a7.965,7.965,0,0,0-2.6-.017,31.536,31.536,0,0,0,1.729-6.568A26.572,26.572,0,0,0,1099.62,358.6a1.811,1.811,0,0,0-2.318,1.017,20.011,20.011,0,0,0-3.817-.512c-.136-.892-.511-1.566-1.534-1.6-1.085-.032-1.475.683-1.671,1.594A20.024,20.024,0,0,0,1086.5,359.624Z" transform="translate(-0.215 -0.187)" fill="#75b62f"/>
      <path id="Trazado_162523" data-name="Trazado 162523" d="M1076.919,385.179a16.249,16.249,0,0,1,20.337-15.629,16.212,16.212,0,0,1,3.844,29.858c-.62.344-.92.43-1.369-.329a7.608,7.608,0,0,0-13.167.029c-.443.757-.762.658-1.371.322A16.269,16.269,0,0,1,1076.919,385.179Zm15.925,7.081a4.836,4.836,0,0,0,3.242-1.4c2.355-2.334,4.714-4.665,7.031-7.036a3,3,0,0,0,0-4.342c-.719-.769-1.465-1.516-2.226-2.244a3.006,3.006,0,0,0-4.507.055c-.972.945-1.952,1.886-2.866,2.886-.535.586-.87.659-1.491.051a2.914,2.914,0,0,0-4.406.037q-1.106,1.049-2.161,2.149a2.963,2.963,0,0,0,.017,4.5q1.931,1.979,3.907,3.915A4.966,4.966,0,0,0,1092.844,392.26Z" transform="translate(-1.449 -1.418)" fill="#dce736"/>
      <path id="Trazado_162524" data-name="Trazado 162524" d="M1066.214,424.7c-3.433,0-6.867-.02-10.3.015-.721.008-.957-.163-.965-.929-.044-4.659,2.426-8.079,6.673-9.14a5.255,5.255,0,0,1,.549-.126c2.488-.35,2.488-.349,2.49,2.111,0,.227-.009.453,0,.679a1.614,1.614,0,0,0,1.548,1.738,1.583,1.583,0,0,0,1.58-1.692c.028-.753.031-1.509,0-2.262-.021-.5.171-.618.651-.647,4.853-.294,9.528,3.622,9.091,9.752-.05.7-.547.493-.907.494C1073.156,424.708,1069.686,424.7,1066.214,424.7Z" transform="translate(-0.215 -3.964)" fill="#f85316"/>
      <path id="Trazado_162525" data-name="Trazado 162525" d="M1120.7,424.7c-3.469,0-6.936-.022-10.4.017-.742.009-.931-.2-.936-.936-.033-4.632,2.462-8.079,6.679-9.138.146-.036.29-.086.438-.11,2.528-.424,2.632-.337,2.634,2.177,0,.227,0,.452,0,.679a1.453,1.453,0,0,0,1.484,1.637,1.492,1.492,0,0,0,1.625-1.522,10.851,10.851,0,0,0,.01-2.143c-.072-.779.254-.917.959-.918a8.633,8.633,0,0,1,8.777,8.706c.035,1.9.177,1.534-1.541,1.545C1127.186,424.719,1123.944,424.7,1120.7,424.7Z" transform="translate(-3.27 -3.963)" fill="#f85316"/>
      <path id="Trazado_162526" data-name="Trazado 162526" d="M1093.357,424.7c-3.393,0-6.786-.021-10.179.017-.762.009-1.027-.162-1.032-.983-.028-4.624,2.482-8.06,6.729-9.1.109-.027.216-.069.327-.09,2.475-.462,2.661-.31,2.675,2.155a5.814,5.814,0,0,0,.05,1.013,1.44,1.44,0,0,0,1.566,1.319,1.41,1.41,0,0,0,1.469-1.418,19.713,19.713,0,0,0,.012-2.372c-.026-.571.142-.769.751-.8a8.59,8.59,0,0,1,8.98,8.231c.074,2.027.074,2.027-1.961,2.027Z" transform="translate(-1.742 -3.963)" fill="#3d46c2"/>
      <path id="Trazado_162527" data-name="Trazado 162527" d="M1089.252,405.3a4.781,4.781,0,0,1,3.08-4.884,4.479,4.479,0,0,1,4.994,1.4,5.7,5.7,0,0,1,.545,6.168,4.168,4.168,0,0,1-4.18,2.513C1091.03,410.441,1089.249,408.34,1089.252,405.3Z" transform="translate(-2.141 -3.167)" fill="#fab585"/>
      <path id="Trazado_162528" data-name="Trazado 162528" d="M1062.081,405.349a4.608,4.608,0,0,1,5.354-5.086,4.371,4.371,0,0,1,3.443,2.91c.92,2.543.151,5.355-1.768,6.57a4.294,4.294,0,0,1-4.5.255,4.427,4.427,0,0,1-2.528-3.973C1062.073,405.8,1062.083,405.574,1062.081,405.349Z" transform="translate(-0.614 -3.168)" fill="#fab585"/>
      <path id="Trazado_162529" data-name="Trazado 162529" d="M1116.517,405.358a4.6,4.6,0,0,1,5.45-5.093,4.688,4.688,0,0,1,2.493,1.454,5.985,5.985,0,0,1,.742,6.07,4.374,4.374,0,0,1-4.318,2.7C1118.246,410.429,1116.519,408.379,1116.517,405.358Z" transform="translate(-3.67 -3.167)" fill="#fab585"/>
      <path id="Trazado_162530" data-name="Trazado 162530" d="M1103.3,412.481a27.441,27.441,0,0,0,9.275-5.525,9.7,9.7,0,0,0,1.835,4.326,12.146,12.146,0,0,0-6.6,4.94c-.326.5-.523.222-.721-.084A12.883,12.883,0,0,0,1103.3,412.481Z" transform="translate(-2.93 -3.548)" fill="#75b62f"/>
      <path id="Trazado_162531" data-name="Trazado 162531" d="M1084.273,412.5a13.87,13.87,0,0,0-4.185,4.187,12.218,12.218,0,0,0-6.929-5.377,9.462,9.462,0,0,0,1.8-4.339A27.867,27.867,0,0,0,1084.273,412.5Z" transform="translate(-1.238 -3.549)" fill="#75b62f"/>
      <path id="Trazado_162532" data-name="Trazado 162532" d="M1095.585,359.721a1.557,1.557,0,0,1-1.539,1.458c-.969.024-1.439-.6-1.665-1.461.2-.911.586-1.626,1.671-1.594C1095.075,358.155,1095.449,358.829,1095.585,359.721Z" transform="translate(-2.317 -0.807)" fill="#030404"/>
      <path id="Trazado_162533" data-name="Trazado 162533" d="M1093.291,392.691a4.966,4.966,0,0,1-3.465-1.431q-1.971-1.94-3.907-3.915a2.963,2.963,0,0,1-.017-4.5q1.056-1.1,2.161-2.149a2.914,2.914,0,0,1,4.406-.037c.621.608.956.535,1.491-.051.914-1,1.893-1.942,2.866-2.886a3.006,3.006,0,0,1,4.507-.055c.761.728,1.506,1.474,2.226,2.244a3,3,0,0,1,0,4.342c-2.317,2.371-4.676,4.7-7.031,7.036A4.836,4.836,0,0,1,1093.291,392.691Zm-.03-3.178c.681.059,1.076-.45,1.494-.863,1.683-1.665,3.339-3.355,5.013-5.031,1.557-1.559,1.534-1.529-.048-3.146-.5-.512-.764-.5-1.238-.006-1.3,1.358-2.642,2.681-3.992,3.993a1.641,1.641,0,0,1-2.577.033c-1.74-1.59-1.727-1.577-3.371.152-.33.348-.405.512-.026.874,1.168,1.115,2.3,2.273,3.438,3.418A1.536,1.536,0,0,0,1093.26,389.513Z" transform="translate(-1.895 -1.849)" fill="#030404"/>
      <path id="Trazado_162534" data-name="Trazado 162534" d="M1093.462,389.716a1.536,1.536,0,0,1-1.307-.576c-1.14-1.145-2.269-2.3-3.437-3.418-.38-.362-.3-.526.026-.874,1.644-1.729,1.631-1.742,3.371-.152a1.641,1.641,0,0,0,2.577-.033c1.35-1.312,2.69-2.634,3.992-3.993.475-.495.737-.506,1.238.006,1.582,1.617,1.605,1.587.048,3.146-1.673,1.675-3.33,3.366-5.013,5.031C1094.538,389.266,1094.143,389.775,1093.462,389.716Z" transform="translate(-2.097 -2.052)" fill="#fdfdfd"/>
    </g>
  </g>
</svg>
