<svg xmlns="http://www.w3.org/2000/svg" width="120" height="120" viewBox="0 0 120 120">
  <g id="Grupo_109928" data-name="Grupo 109928" transform="translate(12525.065 3941.359)">
    <circle id="Elipse_5398" data-name="Elipse 5398" cx="60" cy="60" r="60" transform="translate(-12525.065 -3941.359)" fill="#fff"/>
    <g id="Grupo_109911" data-name="Grupo 109911" transform="translate(-13443.132 -4230.271)">
      <path id="Trazado_162546" data-name="Trazado 162546" d="M990.807,344.04c-.8-.378-1.237-1.166-1.916-1.681.682-.9.011-1.449-.547-2.024a4.269,4.269,0,0,0,1.877-6.23,4.22,4.22,0,0,0-7.184.125c-.28.455-.429.426-.758.077-.642-.684-1.332-1.324-1.989-1.995a1.283,1.283,0,0,1,.026-2.116c1.193-1.193,2.376-2.4,3.585-3.572.436-.423.727-.875.462-1.466-.249-.554-.776-.54-1.306-.528a2.215,2.215,0,0,1-2.321-2.243,2.238,2.238,0,1,1,4.472.139c-.029.55.018,1.037.552,1.292.579.276,1-.051,1.4-.452,1.219-1.234,2.443-2.464,3.683-3.677a1.237,1.237,0,0,1,1.963.008c.641.618,1.232,1.289,1.894,1.882.489.438.565.655-.092,1.04a4.213,4.213,0,0,0,1.624,7.7,4.226,4.226,0,0,0,4.611-2.456c.066.02.125.02.154.049.721.709,1.442,1.417,2.156,2.132.933.935.934,1.5,0,2.437q-1.783,1.787-3.578,3.563a1.035,1.035,0,0,0-.318,1.237,1.02,1.02,0,0,0,1.128.6,2.888,2.888,0,0,1,.288-.017,2.261,2.261,0,0,1,2.2,1.749,2.235,2.235,0,1,1-4.411.273,1.131,1.131,0,0,0-.585-1.208,1.063,1.063,0,0,0-1.291.354c-.586.569-1.154,1.159-1.733,1.735a1.079,1.079,0,0,0-.134,1.6c-.669.518-1.126,1.275-1.9,1.677C992.149,343.038,991.426,343.037,990.807,344.04Z" transform="translate(-16.541 -1.32)" fill="#f85316"/>
      <path id="Trazado_162570" data-name="Trazado 162570" d="M992.792,344.04c.8-.378,1.237-1.166,1.916-1.681-.682-.9-.011-1.449.547-2.024a4.268,4.268,0,0,1-1.877-6.23,4.22,4.22,0,0,1,7.184.125c.28.455.429.426.758.077.642-.684,1.332-1.324,1.989-1.995a1.283,1.283,0,0,0-.027-2.116c-1.193-1.193-2.376-2.4-3.585-3.572-.435-.423-.727-.875-.462-1.466.249-.554.776-.54,1.306-.528a2.215,2.215,0,0,0,2.321-2.243,2.238,2.238,0,1,0-4.472.139c.029.55-.018,1.037-.553,1.292-.579.276-1-.051-1.4-.452-1.22-1.234-2.443-2.464-3.684-3.677a1.237,1.237,0,0,0-1.963.008c-.641.618-1.232,1.289-1.894,1.882-.489.438-.565.655.092,1.04a4.213,4.213,0,0,1-1.624,7.7,4.227,4.227,0,0,1-4.611-2.456c-.066.02-.125.02-.154.049-.721.709-1.442,1.417-2.156,2.132-.933.935-.934,1.5,0,2.437q1.783,1.787,3.578,3.563a1.035,1.035,0,0,1,.318,1.237,1.021,1.021,0,0,1-1.128.6c-.1-.008-.192-.019-.288-.017a2.261,2.261,0,0,0-2.2,1.749,2.235,2.235,0,1,0,4.411.273,1.131,1.131,0,0,1,.585-1.208,1.063,1.063,0,0,1,1.291.354c.586.569,1.154,1.159,1.733,1.735a1.079,1.079,0,0,1,.134,1.6c.669.518,1.127,1.275,1.9,1.677C991.45,343.038,992.174,343.037,992.792,344.04Z" transform="translate(-14.546 36.589)" fill="#3d46c2"/>
      <path id="Trazado_162547" data-name="Trazado 162547" d="M960.68,367.166c1.717,1.951,2.043,3.633,1.093,5.434a4.283,4.283,0,0,1-7.983-1.444c-.927.529-1.83,1.042-2.731,1.559-2.289,1.313-3.9.861-5.221-1.456q-1.2-2.1-2.419-4.183a1.059,1.059,0,0,1-.027-1.333,1.074,1.074,0,0,1,1.309-.261,2.233,2.233,0,1,0-1.434-2.524c-.124.5-.308.931-.876,1.02-.592.092-.916-.248-1.189-.733-.873-1.549-1.776-3.081-2.663-4.622a3.19,3.19,0,0,1,1.128-4.452c1.046-.638,2.114-1.241,3.208-1.88a6.443,6.443,0,0,1-1.229-1.665,4.229,4.229,0,1,1,7.9-2.961c.194.648.377.606.85.3.809-.517,1.648-.989,2.487-1.457a3.2,3.2,0,0,1,4.452,1.161q.8,1.283,1.512,2.62c.263.494.414.534.851.118a4.236,4.236,0,1,1,5.246,6.606,3.07,3.07,0,0,1-1.312.569c-.4.053-.475.169-.248.542.562.923,1.089,1.868,1.612,2.814a3.192,3.192,0,0,1-1.168,4.392C962.8,365.951,961.757,366.542,960.68,367.166Zm-14.607.486c.558.966,1.113,1.919,1.661,2.876a1.313,1.313,0,0,0,2.091.583q2.283-1.317,4.562-2.64a1.075,1.075,0,0,1,1.281-.014,1,1,0,0,1,.293,1.236,2.371,2.371,0,0,0,.05,1.829,2.244,2.244,0,0,0,2.528,1.221,2.238,2.238,0,0,0-.06-4.366c-.568-.127-1.027-.312-1.1-.95-.069-.61.362-.9.815-1.156,1.4-.8,2.8-1.6,4.194-2.41,1.183-.689,1.309-1.207.617-2.4-.832-1.435-1.662-2.873-2.5-4.306a1.075,1.075,0,0,1,.01-1.394,1.025,1.025,0,0,1,1.315-.2,1.68,1.68,0,0,0,.273.1,2.248,2.248,0,1,0,.839-4.415,2.291,2.291,0,0,0-2.529,1.851c-.12.54-.309.986-.893,1.085-.6.1-.9-.3-1.168-.773-.831-1.465-1.684-2.917-2.523-4.377-.6-1.045-1.152-1.2-2.191-.607-1.5.862-3.007,1.721-4.5,2.593a1.016,1.016,0,0,1-1.273-.021.956.956,0,0,1-.26-1.239,1.144,1.144,0,0,0,.068-.206,2.243,2.243,0,1,0-2.45,1.574c.494.12.858.338.94.856a1.033,1.033,0,0,1-.635,1.107c-.127.069-.249.146-.375.218-1.375.793-2.758,1.572-4.122,2.384-1.08.642-1.2,1.146-.576,2.25.413.733.865,1.446,1.253,2.192.27.521.438.546.9.126a4.035,4.035,0,0,1,4.568-.733,4.093,4.093,0,0,1,2.514,4.027C949.616,365.535,948.417,366.914,946.073,367.652Z" transform="translate(0 -11.41)" fill="#040505"/>
      <path id="Trazado_162548" data-name="Trazado 162548" d="M1038.712,371.154c-1.033.594-2.011,1.154-2.988,1.717a3.248,3.248,0,0,1-4.759-1.25c-.862-1.473-1.7-2.959-2.558-4.437-.278-.479-.494-.962-.065-1.46.395-.458.862-.38,1.386-.211a2.233,2.233,0,1,0-1.5-2.672c-.136.542-.277,1.046-.922,1.141-.681.1-.968-.377-1.252-.879-.854-1.5-1.727-3-2.588-4.5a3.189,3.189,0,0,1,1.1-4.407c1.062-.653,2.148-1.264,3.258-1.913a5.739,5.739,0,0,1-1.278-1.745,4.231,4.231,0,1,1,7.931-2.921c.188.608.344.7.884.341.8-.533,1.644-1,2.485-1.458a3.2,3.2,0,0,1,4.4,1.133c.551.873,1.06,1.773,1.553,2.68.238.437.379.545.8.132a4.2,4.2,0,0,1,4.615-.878,4.262,4.262,0,0,1-.119,7.862,9.659,9.659,0,0,1-.984.3c.626,1.1,1.24,2.162,1.831,3.231a3.186,3.186,0,0,1-1.2,4.382c-1.031.615-2.074,1.208-3.144,1.831a4.281,4.281,0,0,1-3.151,7.613C1040.672,374.613,1039.367,373.365,1038.712,371.154Zm-7.723-3.526c.579,1,1.124,1.932,1.661,2.869.566.99,1.162,1.158,2.138.594,1.5-.866,3.005-1.727,4.5-2.6a1.087,1.087,0,0,1,1.34-.01,1.028,1.028,0,0,1,.254,1.247,2.338,2.338,0,0,0,.047,1.762,2.236,2.236,0,0,0,2.507,1.261,2.238,2.238,0,0,0-.059-4.382c-.546-.119-.972-.308-1.06-.9s.323-.914.779-1.174q2.067-1.184,4.136-2.366c1.292-.741,1.412-1.234.647-2.553-.822-1.415-1.628-2.838-2.455-4.248a1.055,1.055,0,0,1,.05-1.39,1,1,0,0,1,1.257-.181,1.2,1.2,0,0,0,.136.049,2.277,2.277,0,0,0,2.462-.758,2.243,2.243,0,1,0-3.991-1.714c-.1.554-.332.976-.917,1.055-.562.077-.86-.3-1.115-.747-.843-1.486-1.707-2.959-2.561-4.439-.581-1.007-1.149-1.168-2.142-.6q-2.285,1.313-4.566,2.632a1,1,0,0,1-1.214-.016.948.948,0,0,1-.3-1.228,1.544,1.544,0,0,0,.091-.274,2.243,2.243,0,1,0-4.384-.9,2.255,2.255,0,0,0,1.957,2.519,1.033,1.033,0,0,1,.9.811,1,1,0,0,1-.6,1.121c-.148.081-.289.173-.435.258-1.354.781-2.716,1.548-4.06,2.346-1.12.666-1.235,1.159-.589,2.3.415.733.863,1.447,1.253,2.192.259.495.413.53.854.117a4.228,4.228,0,0,1,6.6,1.084C1035.51,363.906,1034.1,366.82,1030.989,367.628Z" transform="translate(-33.707 -11.411)" fill="#040505"/>
      <path id="Trazado_162549" data-name="Trazado 162549" d="M993.4,341.046a1.079,1.079,0,0,1,.134-1.6c.58-.577,1.147-1.166,1.733-1.735a1.063,1.063,0,0,1,1.291-.354,1.131,1.131,0,0,1,.585,1.208,2.235,2.235,0,1,0,4.411-.273,2.261,2.261,0,0,0-2.2-1.749,2.87,2.87,0,0,0-.288.017,1.021,1.021,0,0,1-1.128-.6,1.035,1.035,0,0,1,.318-1.237q1.791-1.78,3.578-3.563c.935-.937.935-1.5,0-2.437-.714-.715-1.435-1.423-2.156-2.132-.03-.03-.088-.03-.154-.049A4.227,4.227,0,0,1,994.918,329a4.213,4.213,0,0,1-1.624-7.7c.657-.385.581-.6.092-1.04-.662-.593-1.254-1.264-1.894-1.882a1.237,1.237,0,0,0-1.963-.008c-1.241,1.213-2.464,2.443-3.683,3.677-.4.4-.817.727-1.4.452-.534-.255-.582-.742-.553-1.292a2.238,2.238,0,1,0-4.472-.139,2.215,2.215,0,0,0,2.321,2.243c.53-.012,1.057-.026,1.306.528.265.59-.027,1.042-.462,1.466-1.209,1.175-2.392,2.379-3.585,3.572a1.283,1.283,0,0,0-.027,2.116c.657.671,1.346,1.311,1.989,1.995.329.35.478.379.758-.077a4.22,4.22,0,0,1,7.184-.125,4.269,4.269,0,0,1-1.877,6.23c.558.575,1.229,1.129.547,2.024a1.107,1.107,0,0,1-1.6-.213c-.534-.556-1.077-1.1-1.633-1.635a1.088,1.088,0,0,1-.37-1.288c.22-.534.669-.612,1.191-.585a2.234,2.234,0,0,0,1.886-3.664,2.2,2.2,0,0,0-2.41-.7,2.277,2.277,0,0,0-1.535,2,3.825,3.825,0,0,0,.006.506.93.93,0,0,1-.562,1,.982.982,0,0,1-1.188-.247c-.876-.86-1.741-1.73-2.608-2.6-.492-.495-.994-.981-1.464-1.5a3.208,3.208,0,0,1,.084-4.443q1.11-1.132,2.247-2.236c.282-.275.428-.429-.057-.7a3.955,3.955,0,0,1-2.1-4.036,4.026,4.026,0,0,1,2.645-3.566,4.188,4.188,0,0,1,5.195,1.8c.268.48.418.417.732.093.72-.741,1.447-1.477,2.2-2.185a3.176,3.176,0,0,1,4.592.05c1.294,1.259,2.554,2.555,3.839,3.823a1.129,1.129,0,0,1,.432,1.276c-.221.563-.7.657-1.251.609a2.155,2.155,0,0,0-2.21,1.195,2.062,2.062,0,0,0,.065,2.194,2.235,2.235,0,0,0,4.14-1.256c-.026-.555-.052-1.066.56-1.341.644-.289,1.042.1,1.443.5,1.206,1.211,2.422,2.413,3.621,3.631a3.2,3.2,0,0,1,.042,4.806c-.8.831-1.645,1.62-2.52,2.478a4.444,4.444,0,0,1,2.569,3.33A4.265,4.265,0,0,1,1001,342.7a4.311,4.311,0,0,1-5.043-1.391,1.847,1.847,0,0,1-.283-.416c-.188-.533-.385-.39-.67-.064A1.1,1.1,0,0,1,993.4,341.046Z" transform="translate(-15.228)" fill="#060505"/>
      <path id="Trazado_162571" data-name="Trazado 162571" d="M987.6,341.046a1.079,1.079,0,0,0-.134-1.6c-.58-.577-1.147-1.166-1.733-1.735a1.063,1.063,0,0,0-1.291-.354,1.131,1.131,0,0,0-.585,1.208,2.235,2.235,0,1,1-4.411-.273,2.261,2.261,0,0,1,2.2-1.749,2.861,2.861,0,0,1,.288.017,1.02,1.02,0,0,0,1.128-.6,1.035,1.035,0,0,0-.318-1.237q-1.791-1.78-3.578-3.563c-.935-.937-.935-1.5,0-2.437.714-.715,1.435-1.423,2.156-2.132.03-.03.088-.03.154-.049A4.227,4.227,0,0,0,986.09,329a4.213,4.213,0,0,0,1.624-7.7c-.657-.385-.581-.6-.092-1.04.662-.593,1.254-1.264,1.894-1.882a1.237,1.237,0,0,1,1.963-.008c1.241,1.213,2.464,2.443,3.684,3.677.4.4.817.727,1.4.452.534-.255.582-.742.552-1.292a2.238,2.238,0,1,1,4.472-.139,2.215,2.215,0,0,1-2.321,2.243c-.53-.011-1.057-.026-1.306.528-.265.59.027,1.042.462,1.466,1.209,1.175,2.392,2.379,3.585,3.572a1.283,1.283,0,0,1,.027,2.116c-.657.671-1.346,1.311-1.989,1.995-.329.35-.478.379-.758-.077a4.22,4.22,0,0,0-7.184-.125,4.268,4.268,0,0,0,1.877,6.23c-.558.575-1.229,1.129-.547,2.024a1.107,1.107,0,0,0,1.6-.213c.534-.556,1.077-1.1,1.633-1.635a1.088,1.088,0,0,0,.37-1.288c-.22-.534-.669-.612-1.191-.585a2.234,2.234,0,0,1-1.886-3.664,2.2,2.2,0,0,1,2.41-.7,2.277,2.277,0,0,1,1.535,2,3.835,3.835,0,0,1-.006.506.93.93,0,0,0,.562,1,.982.982,0,0,0,1.188-.247c.876-.86,1.741-1.73,2.608-2.6.492-.495.994-.981,1.464-1.5a3.208,3.208,0,0,0-.084-4.443q-1.11-1.132-2.247-2.236c-.282-.275-.428-.429.057-.7a3.955,3.955,0,0,0,2.1-4.036,4.026,4.026,0,0,0-2.645-3.566,4.188,4.188,0,0,0-5.2,1.8c-.268.48-.418.417-.732.093-.72-.741-1.447-1.477-2.2-2.185a3.176,3.176,0,0,0-4.592.05c-1.294,1.259-2.554,2.555-3.839,3.823a1.129,1.129,0,0,0-.432,1.276c.221.563.7.657,1.251.609a2.155,2.155,0,0,1,2.21,1.195,2.061,2.061,0,0,1-.065,2.194,2.235,2.235,0,0,1-4.14-1.256c.026-.555.052-1.066-.56-1.341-.644-.289-1.042.1-1.443.5-1.206,1.211-2.422,2.413-3.621,3.631a3.2,3.2,0,0,0-.042,4.806c.8.831,1.645,1.62,2.52,2.478a4.444,4.444,0,0,0-2.569,3.33A4.265,4.265,0,0,0,980,342.7a4.311,4.311,0,0,0,5.043-1.391,1.846,1.846,0,0,0,.283-.416c.188-.533.385-.39.67-.064A1.1,1.1,0,0,0,987.6,341.046Z" transform="translate(-13.267 37.909)" fill="#060505"/>
      <path id="Trazado_162550" data-name="Trazado 162550" d="M998.085,359.884c.618-1,1.342-1,2.012,0a1.111,1.111,0,0,1-.695,1.22.935.935,0,0,1-1.05-.28A1.344,1.344,0,0,1,998.085,359.884Z" transform="translate(-23.819 -17.164)" fill="#0c0a0a"/>
      <path id="Trazado_162572" data-name="Trazado 162572" d="M1000.1,359.884c-.618-1-1.342-1-2.012,0a1.111,1.111,0,0,0,.695,1.22.935.935,0,0,0,1.05-.28A1.343,1.343,0,0,0,1000.1,359.884Z" transform="translate(-21.852 20.77)" fill="#0c0a0a"/>
      <path id="Trazado_162551" data-name="Trazado 162551" d="M947.4,368.991c2.344-.738,3.543-2.117,3.615-4.1a4.093,4.093,0,0,0-2.514-4.027,4.035,4.035,0,0,0-4.568.733c-.46.42-.629.394-.9-.126-.388-.746-.841-1.458-1.253-2.192-.622-1.1-.5-1.608.576-2.25,1.364-.811,2.747-1.59,4.122-2.384.125-.072.248-.149.375-.218a1.033,1.033,0,0,0,.634-1.107c-.082-.518-.446-.736-.94-.856a2.235,2.235,0,1,1,2.45-1.574,1.133,1.133,0,0,1-.068.206.956.956,0,0,0,.26,1.239,1.016,1.016,0,0,0,1.273.02c1.5-.872,3-1.731,4.5-2.593,1.039-.6,1.591-.438,2.191.607.839,1.46,1.692,2.912,2.523,4.377.266.469.568.875,1.168.773.584-.1.773-.545.893-1.085a2.232,2.232,0,0,1,4.425.583A2.254,2.254,0,0,1,963.428,357a1.691,1.691,0,0,1-.273-.1,1.025,1.025,0,0,0-1.315.2,1.075,1.075,0,0,0-.01,1.394c.838,1.433,1.667,2.871,2.5,4.306.692,1.2.566,1.714-.617,2.4-1.394.811-2.794,1.609-4.194,2.41-.454.26-.885.546-.815,1.156.072.638.531.823,1.1.95a2.238,2.238,0,0,1,.06,4.366,2.244,2.244,0,0,1-2.528-1.221,2.37,2.37,0,0,1-.05-1.829,1,1,0,0,0-.293-1.236,1.075,1.075,0,0,0-1.281.014q-2.277,1.326-4.562,2.64a1.313,1.313,0,0,1-2.091-.583C948.509,370.91,947.954,369.957,947.4,368.991Z" transform="translate(-1.323 -12.749)" fill="#75b62f"/>
      <path id="Trazado_162552" data-name="Trazado 162552" d="M1032.311,368.967c3.106-.808,4.521-3.721,3.121-6.264a4.228,4.228,0,0,0-6.6-1.084c-.441.413-.6.378-.854-.117-.39-.746-.838-1.46-1.253-2.192-.646-1.142-.531-1.636.589-2.3,1.344-.8,2.706-1.565,4.06-2.346.146-.084.288-.176.435-.258a1,1,0,0,0,.6-1.121,1.033,1.033,0,0,0-.9-.811,2.255,2.255,0,0,1-1.957-2.519,2.243,2.243,0,1,1,4.384.9,1.552,1.552,0,0,1-.091.274.948.948,0,0,0,.3,1.228,1,1,0,0,0,1.214.016q2.28-1.322,4.566-2.632c.993-.571,1.561-.41,2.142.6.853,1.479,1.717,2.953,2.56,4.439.254.449.552.824,1.115.747.585-.08.82-.5.917-1.056a2.237,2.237,0,1,1,3.991,1.714,2.277,2.277,0,0,1-2.462.758,1.217,1.217,0,0,1-.135-.049,1,1,0,0,0-1.257.181,1.055,1.055,0,0,0-.05,1.39c.827,1.411,1.634,2.834,2.455,4.249.766,1.319.645,1.812-.647,2.553q-2.067,1.185-4.136,2.366c-.456.261-.869.563-.779,1.174s.514.786,1.06.9a2.238,2.238,0,0,1,.059,4.382,2.236,2.236,0,0,1-2.507-1.261,2.338,2.338,0,0,1-.047-1.762,1.028,1.028,0,0,0-.254-1.247,1.087,1.087,0,0,0-1.34.01c-1.5.873-3,1.734-4.5,2.6-.976.564-1.572.4-2.138-.594C1033.435,370.9,1032.89,369.967,1032.311,368.967Z" transform="translate(-35.029 -12.75)" fill="#dce736"/>
    </g>
  </g>
</svg>
