<svg xmlns="http://www.w3.org/2000/svg" width="1240" height="478.362" viewBox="0 0 1240 478.362">
  <g id="Grupo_109953" data-name="Grupo 109953" transform="translate(-180 -1326.922)">
    <rect id="Rectángulo_40574" data-name="Rectángulo 40574" width="180.031" height="64.297" rx="6" transform="translate(704.357 1327.922)" fill="#3d46c2" stroke="#838cfc" stroke-width="2"/>
    <path id="Trazado_160430" data-name="Trazado 160430" d="M724.111,31.685V22.332h3.69a3.752,3.752,0,0,1,1.812.406,2.751,2.751,0,0,1,1.142,1.119,3.323,3.323,0,0,1,.4,1.644,3.283,3.283,0,0,1-.4,1.644,2.769,2.769,0,0,1-1.165,1.11,3.91,3.91,0,0,1-1.836.4H725.4V27.068h2.033a2,2,0,0,0,.94-.2,1.3,1.3,0,0,0,.557-.553,1.733,1.733,0,0,0,.187-.817,1.689,1.689,0,0,0-.187-.813,1.246,1.246,0,0,0-.557-.543,2.037,2.037,0,0,0-.95-.2h-1.333v7.736Zm8.184,0V22.332h3.69a3.966,3.966,0,0,1,1.808.379,2.622,2.622,0,0,1,1.146,1.064,3.153,3.153,0,0,1,.4,1.612,3.067,3.067,0,0,1-.4,1.6,2.611,2.611,0,0,1-1.165,1.023,4.292,4.292,0,0,1-1.836.356h-2.471V26.78h2.151a2.464,2.464,0,0,0,.94-.155,1.119,1.119,0,0,0,.558-.466,1.474,1.474,0,0,0,.186-.772,1.533,1.533,0,0,0-.186-.785,1.151,1.151,0,0,0-.562-.484,2.307,2.307,0,0,0-.945-.169h-1.334v7.736Zm5.051-4.256,2.324,4.256h-2.183l-2.274-4.256Zm3.247,4.256V22.332h6.3v1.63H742.57v2.229h4v1.63h-4v2.233h4.343v1.63ZM753.4,25.022a1.157,1.157,0,0,0-.471-.859,1.862,1.862,0,0,0-1.128-.306,2.151,2.151,0,0,0-.817.137,1.145,1.145,0,0,0-.511.37.89.89,0,0,0-.174.539.771.771,0,0,0,.1.438,1.1,1.1,0,0,0,.325.324,2.442,2.442,0,0,0,.475.233,4.887,4.887,0,0,0,.576.164l.84.2a5.934,5.934,0,0,1,1.124.365,3.422,3.422,0,0,1,.886.562,2.337,2.337,0,0,1,.58.785,2.485,2.485,0,0,1,.215,1.037,2.586,2.586,0,0,1-.439,1.489,2.782,2.782,0,0,1-1.242.973,4.989,4.989,0,0,1-1.95.343,5.147,5.147,0,0,1-1.973-.347,2.89,2.89,0,0,1-1.306-1.028,3.074,3.074,0,0,1-.489-1.694h1.914a1.432,1.432,0,0,0,.269.785,1.5,1.5,0,0,0,.644.47,2.557,2.557,0,0,0,.918.155,2.364,2.364,0,0,0,.872-.146,1.335,1.335,0,0,0,.58-.406.941.941,0,0,0,.206-.6.779.779,0,0,0-.187-.53,1.421,1.421,0,0,0-.539-.365,5.442,5.442,0,0,0-.863-.274l-1.018-.256a4.266,4.266,0,0,1-1.867-.9,2.084,2.084,0,0,1-.681-1.648,2.452,2.452,0,0,1,.452-1.484,3.056,3.056,0,0,1,1.265-.991,4.469,4.469,0,0,1,1.827-.356,4.32,4.32,0,0,1,1.817.356,2.877,2.877,0,0,1,1.215.991,2.624,2.624,0,0,1,.448,1.47Zm5.189-2.69v9.352H756.61V22.332Zm4.8,9.352h-3.315V22.332h3.343a4.96,4.96,0,0,1,2.43.562,3.8,3.8,0,0,1,1.566,1.6,5.294,5.294,0,0,1,.552,2.5,5.332,5.332,0,0,1-.552,2.512,3.8,3.8,0,0,1-1.576,1.612A5.011,5.011,0,0,1,763.388,31.685ZM762.05,29.99h1.256a3.174,3.174,0,0,0,1.475-.31,2,2,0,0,0,.9-.973A4.09,4.09,0,0,0,765.991,27a4.031,4.031,0,0,0-.305-1.694,1.979,1.979,0,0,0-.9-.968,3.173,3.173,0,0,0-1.475-.311h-1.26Zm7.237,1.694V22.332h6.3v1.63h-4.324v2.229h4v1.63h-4v2.233h4.342v1.63Zm15.555-9.352v9.352h-1.708L779.065,25.8H779v5.886h-1.978V22.332h1.735l4.037,5.882h.082V22.332Zm1.136,1.63v-1.63h7.681v1.63H790.8v7.722h-1.955V23.963Zm8.8,7.722V22.332h6.3v1.63H796.76v2.229h4v1.63h-4v2.233H801.1v1.63ZM735.9,46.3a5.408,5.408,0,0,1-.58,2.6,4.02,4.02,0,0,1-1.571,1.639,4.7,4.7,0,0,1-4.465,0,4.03,4.03,0,0,1-1.567-1.639,6.165,6.165,0,0,1,0-5.2,4,4,0,0,1,1.567-1.635,4.684,4.684,0,0,1,4.465,0,3.989,3.989,0,0,1,1.571,1.635A5.408,5.408,0,0,1,735.9,46.3Zm-2.005,0a4.18,4.18,0,0,0-.3-1.671,2.261,2.261,0,0,0-.827-1.032,2.4,2.4,0,0,0-2.5,0,2.289,2.289,0,0,0-.831,1.032,4.921,4.921,0,0,0,0,3.343A2.289,2.289,0,0,0,730.269,49a2.4,2.4,0,0,0,2.5,0,2.261,2.261,0,0,0,.827-1.032A4.181,4.181,0,0,0,733.895,46.3Zm12.364-1.653a2.061,2.061,0,0,0-.269-.589,1.657,1.657,0,0,0-.425-.438,1.816,1.816,0,0,0-.566-.279,2.4,2.4,0,0,0-.7-.1,2.248,2.248,0,0,0-1.261.356,2.334,2.334,0,0,0-.84,1.037,4.05,4.05,0,0,0-.3,1.653,4.173,4.173,0,0,0,.3,1.662A2.321,2.321,0,0,0,743.035,49a2.286,2.286,0,0,0,1.283.356,2.539,2.539,0,0,0,1.146-.237,1.7,1.7,0,0,0,.731-.68,2.014,2.014,0,0,0,.256-1.037l.4.059h-2.411V45.969h3.913v1.178a4.108,4.108,0,0,1-.521,2.119,3.546,3.546,0,0,1-1.434,1.361,4.869,4.869,0,0,1-4.4-.105,4.023,4.023,0,0,1-1.553-1.658,5.543,5.543,0,0,1-.552-2.557,5.823,5.823,0,0,1,.329-2.028,4.327,4.327,0,0,1,.932-1.516,4.023,4.023,0,0,1,1.393-.945,4.511,4.511,0,0,1,1.721-.324,4.57,4.57,0,0,1,1.48.233,3.94,3.94,0,0,1,1.214.648,3.508,3.508,0,0,1,.872,1,3.393,3.393,0,0,1,.434,1.269Zm3.44,6.329V41.621H756v1.63h-4.325V45.48h4v1.63h-4v2.233h4.343v1.63Zm7.732,0V41.621h3.69a3.966,3.966,0,0,1,1.808.379,2.627,2.627,0,0,1,1.146,1.064,3.161,3.161,0,0,1,.4,1.612,3.059,3.059,0,0,1-.4,1.6,2.6,2.6,0,0,1-1.165,1.023,4.289,4.289,0,0,1-1.836.356H758.6V46.069h2.152a2.471,2.471,0,0,0,.94-.155,1.114,1.114,0,0,0,.557-.466,1.474,1.474,0,0,0,.187-.772,1.533,1.533,0,0,0-.187-.785,1.145,1.145,0,0,0-.562-.484,2.3,2.3,0,0,0-.945-.169h-1.333v7.736Zm5.051-4.256,2.324,4.256h-2.183l-2.274-4.256Zm3.247,4.256V41.621h6.3v1.63h-4.325V45.48h4v1.63h-4v2.233h4.342v1.63Zm15.555-9.352v9.352h-1.708l-4.069-5.886h-.068v5.886h-1.977V41.621H775.2l4.037,5.882h.082V41.621Zm1.136,1.63v-1.63H790.1v1.63h-2.864v7.722h-1.954V43.252Zm8.8,7.722V41.621h6.3v1.63H793.2V45.48h4v1.63h-4v2.233h4.342v1.63Z" transform="translate(30.385 1323.564)" fill="#fff"/>
    <path id="Trazado_162582" data-name="Trazado 162582" d="M6,0H120.564a6,6,0,0,1,6,6V45.437a6,6,0,0,1-6,6H6a6,6,0,0,1-6-6V6A6,6,0,0,1,6,0Z" transform="translate(434.311 1469.375)" fill="#fff" stroke="#4752e3" stroke-width="2"/>
    <path id="Trazado_160431" data-name="Trazado 160431" d="M366.08,205.287a2.838,2.838,0,0,0-.357-.744,2.252,2.252,0,0,0-.525-.567,2.208,2.208,0,0,0-.7-.361,2.817,2.817,0,0,0-.854-.123,2.589,2.589,0,0,0-1.425.406,2.781,2.781,0,0,0-1,1.192,5.192,5.192,0,0,0,0,3.836,2.742,2.742,0,0,0,1.014,1.192,2.688,2.688,0,0,0,1.465.407,2.719,2.719,0,0,0,1.329-.311,2.161,2.161,0,0,0,.881-.876,2.733,2.733,0,0,0,.315-1.343l.366.068h-2.676V206.9h3.676v1.064a4.011,4.011,0,0,1-.5,2.046,3.42,3.42,0,0,1-1.379,1.333,4.534,4.534,0,0,1-4.237-.114,3.969,3.969,0,0,1-1.489-1.658,5.7,5.7,0,0,1-.534-2.557,6.065,6.065,0,0,1,.31-2.009,4.364,4.364,0,0,1,.872-1.512,3.812,3.812,0,0,1,1.329-.955,4.165,4.165,0,0,1,1.676-.333,4.319,4.319,0,0,1,1.411.223,3.81,3.81,0,0,1,1.169.635,3.594,3.594,0,0,1,1.311,2.224Zm3.161,6.4v-9.352H375.1v1.214h-4.452V206.4H374.8v1.21h-4.146v2.864h4.507v1.214Zm7.607,0v-9.352h3.333a3.872,3.872,0,0,1,1.8.375,2.486,2.486,0,0,1,1.078,1.036,3.148,3.148,0,0,1,.356,1.521,3.079,3.079,0,0,1-.361,1.512,2.435,2.435,0,0,1-1.078,1.009,4,4,0,0,1-1.8.361h-2.525v-1.215h2.4a2.7,2.7,0,0,0,1.114-.2,1.3,1.3,0,0,0,.635-.571,1.887,1.887,0,0,0,.2-.9,1.94,1.94,0,0,0-.206-.918,1.325,1.325,0,0,0-.635-.593,2.571,2.571,0,0,0-1.128-.211h-1.772v8.142Zm4.617-4.219,2.311,4.219h-1.607l-2.265-4.219Zm3.53,4.219v-9.352h5.864v1.214h-4.453V206.4h4.146v1.21h-4.146v2.864h4.507v1.214Zm15.156-9.352v9.352h-1.3l-4.754-6.859h-.087v6.859H392.6v-9.352h1.306l4.758,6.868h.087v-6.868Zm1.456,1.214v-1.214h7.238v1.214h-2.918v8.138h-1.406v-8.138Zm8.7,8.138v-9.352h5.863v1.214h-4.453V206.4h4.147v1.21h-4.147v2.864h4.507v1.214Zm11.839,0h-2.119l3.229-9.352H425.8l3.224,9.352H426.9l-2.343-7.215h-.072Zm-.133-3.676h5.006v1.544h-5.006Z" transform="translate(101.965 1288.232)" fill="#12263f"/>
    <path id="Trazado_162581" data-name="Trazado 162581" d="M6,0H120.564a6,6,0,0,1,6,6V45.437a6,6,0,0,1-6,6H6a6,6,0,0,1-6-6V6A6,6,0,0,1,6,0Z" transform="translate(1051.563 1469.375)" fill="#fff" stroke="#4752e3" stroke-width="2"/>
    <path id="Trazado_160432" data-name="Trazado 160432" d="M1134.771,205.287a2.725,2.725,0,0,0-.354-.744,2.288,2.288,0,0,0-.522-.567,2.315,2.315,0,0,0-.7-.361,2.822,2.822,0,0,0-.852-.123,2.6,2.6,0,0,0-1.431.406,2.832,2.832,0,0,0-1,1.192,4.54,4.54,0,0,0-.362,1.914,4.454,4.454,0,0,0,.37,1.922,2.783,2.783,0,0,0,1.013,1.192,2.675,2.675,0,0,0,1.463.407,2.724,2.724,0,0,0,1.334-.311,2.129,2.129,0,0,0,.876-.876,2.667,2.667,0,0,0,.321-1.343l.362.068h-2.676V206.9h3.673v1.064a3.985,3.985,0,0,1-.5,2.046,3.419,3.419,0,0,1-1.382,1.333,4.531,4.531,0,0,1-4.236-.114,3.952,3.952,0,0,1-1.487-1.658,5.73,5.73,0,0,1-.539-2.557,6.024,6.024,0,0,1,.313-2.009,4.35,4.35,0,0,1,.876-1.512,3.822,3.822,0,0,1,1.326-.955,4.166,4.166,0,0,1,1.672-.333,4.328,4.328,0,0,1,1.415.223,3.712,3.712,0,0,1,1.166.635,3.58,3.58,0,0,1,1.318,2.224Zm3.167,6.4v-9.352h5.859v1.214h-4.452V206.4h4.147v1.21h-4.147v2.864h4.509v1.214Zm7.6,0v-9.352h3.335a3.848,3.848,0,0,1,1.8.375,2.45,2.45,0,0,1,1.077,1.036,3.106,3.106,0,0,1,.362,1.521,3.071,3.071,0,0,1-.362,1.512,2.441,2.441,0,0,1-1.077,1.009,4.013,4.013,0,0,1-1.808.361h-2.524v-1.215h2.4a2.691,2.691,0,0,0,1.117-.2,1.313,1.313,0,0,0,.635-.571,1.851,1.851,0,0,0,.2-.9,1.941,1.941,0,0,0-.2-.918,1.336,1.336,0,0,0-.635-.593,2.605,2.605,0,0,0-1.133-.211h-1.768v8.142Zm4.621-4.219,2.307,4.219h-1.607l-2.267-4.219Zm3.528,4.219v-9.352h5.859v1.214H1155.1V206.4h4.147v1.21H1155.1v2.864h4.509v1.214Zm15.158-9.352v9.352h-1.3l-4.75-6.859h-.089v6.859h-1.414v-9.352h1.31l4.758,6.868h.089v-6.868Zm1.455,1.214v-1.214h7.233v1.214h-2.917v8.138h-1.407v-8.138Zm8.7,8.138v-9.352h5.859v1.214h-4.452V206.4h4.147v1.21h-4.147v2.864h4.509v1.214Zm10.223,0v-9.352h3.745a4.236,4.236,0,0,1,1.72.305,2.305,2.305,0,0,1,1.037.85,2.229,2.229,0,0,1,.346,1.243,2.051,2.051,0,0,1-.217.963,1.861,1.861,0,0,1-.6.676,2.416,2.416,0,0,1-.868.371v.091a2.131,2.131,0,0,1,1,.3,2.1,2.1,0,0,1,.755.781,2.247,2.247,0,0,1,.3,1.187,2.48,2.48,0,0,1-.37,1.329,2.513,2.513,0,0,1-1.085.918,4.131,4.131,0,0,1-1.768.338Zm1.977-1.616h1.615a1.894,1.894,0,0,0,1.206-.315,1.067,1.067,0,0,0,.378-.85,1.215,1.215,0,0,0-.723-1.151,1.818,1.818,0,0,0-.82-.169H1191.2Zm0-3.822h1.463a1.745,1.745,0,0,0,.723-.141,1.178,1.178,0,0,0,.506-.411,1.1,1.1,0,0,0,.185-.634,1.023,1.023,0,0,0-.362-.817,1.477,1.477,0,0,0-1.013-.311h-1.5Z" transform="translate(-48.922 1288.232)" fill="#12263f"/>
    <rect id="Rectángulo_40577" data-name="Rectángulo 40577" width="90.016" height="64.297" rx="6" transform="translate(292.857 1559.391)" fill="#f85316"/>
    <rect id="Rectángulo_40578" data-name="Rectángulo 40578" width="90.016" height="64.297" rx="6" transform="translate(588.623 1559.391)" fill="#f85316"/>
    <rect id="Rectángulo_40579" data-name="Rectángulo 40579" width="90.016" height="64.297" rx="6" transform="translate(910.107 1559.391)" fill="#f85316"/>
    <rect id="Rectángulo_40580" data-name="Rectángulo 40580" width="90.016" height="64.297" rx="6" transform="translate(1205.875 1559.391)" fill="#f85316"/>
    <rect id="Rectángulo_40581" data-name="Rectángulo 40581" width="126.564" height="51.437" rx="6" transform="translate(196.412 1675.125)" fill="#bae887" stroke="#77b43a" stroke-width="2"/>
    <path id="Trazado_160437" data-name="Trazado 160437" d="M56.617,460.789a1.336,1.336,0,0,0-.6-1,2.318,2.318,0,0,0-1.333-.36,2.477,2.477,0,0,0-1,.182,1.536,1.536,0,0,0-.653.493,1.167,1.167,0,0,0-.228.708,1.042,1.042,0,0,0,.155.575,1.4,1.4,0,0,0,.416.407,3.179,3.179,0,0,0,.557.269q.3.1.571.174l.913.237a6.9,6.9,0,0,1,.918.3,3.691,3.691,0,0,1,.872.493,2.36,2.36,0,0,1,.648.759,2.192,2.192,0,0,1,.251,1.082,2.487,2.487,0,0,1-.411,1.411,2.739,2.739,0,0,1-1.183.973,4.44,4.44,0,0,1-1.868.356,4.53,4.53,0,0,1-1.818-.334,2.792,2.792,0,0,1-1.2-.945,2.738,2.738,0,0,1-.479-1.461h1.416a1.444,1.444,0,0,0,.329.845,1.779,1.779,0,0,0,.744.5,3.02,3.02,0,0,0,1,.159,2.825,2.825,0,0,0,1.064-.187,1.777,1.777,0,0,0,.74-.53,1.254,1.254,0,0,0,.269-.8.981.981,0,0,0-.237-.681,1.76,1.76,0,0,0-.635-.438,6.21,6.21,0,0,0-.9-.306l-1.105-.3a4.3,4.3,0,0,1-1.781-.9,2.021,2.021,0,0,1-.653-1.571,2.334,2.334,0,0,1,.438-1.411,2.883,2.883,0,0,1,1.187-.936,4.068,4.068,0,0,1,1.69-.338,3.984,3.984,0,0,1,1.676.333,2.833,2.833,0,0,1,1.151.918,2.314,2.314,0,0,1,.438,1.333Zm9.048-2.456h1.416v6.151a3.282,3.282,0,0,1-.461,1.74,3.224,3.224,0,0,1-1.3,1.187,4.675,4.675,0,0,1-3.914,0,3.224,3.224,0,0,1-1.3-1.187,3.282,3.282,0,0,1-.461-1.74v-6.151h1.411v6.037a2.251,2.251,0,0,0,.279,1.128,2.018,2.018,0,0,0,.8.776,2.834,2.834,0,0,0,2.452,0,1.949,1.949,0,0,0,.795-.776,2.251,2.251,0,0,0,.278-1.128Zm3.326,9.352v-9.352h3.425a3.651,3.651,0,0,1,1.649.329,2.249,2.249,0,0,1,.977.881,2.42,2.42,0,0,1,.324,1.247,2.075,2.075,0,0,1-.215.987,1.771,1.771,0,0,1-.575.639,2.537,2.537,0,0,1-.785.347v.092a1.864,1.864,0,0,1,.909.3,2.152,2.152,0,0,1,.74.78,2.433,2.433,0,0,1,.292,1.233,2.482,2.482,0,0,1-.338,1.288,2.308,2.308,0,0,1-1.032.9,4.2,4.2,0,0,1-1.786.329Zm1.411-1.21h2.037a2.162,2.162,0,0,0,1.452-.392,1.264,1.264,0,0,0,.438-.982,1.541,1.541,0,0,0-.224-.813,1.6,1.6,0,0,0-.639-.589,2.048,2.048,0,0,0-.977-.219H70.4Zm0-4.1h1.89a1.937,1.937,0,0,0,.854-.183,1.489,1.489,0,0,0,.607-.511,1.354,1.354,0,0,0,.228-.785,1.3,1.3,0,0,0-.406-.973,1.734,1.734,0,0,0-1.247-.393H70.4Zm14.985.63a5.621,5.621,0,0,1-.548,2.575,4.018,4.018,0,0,1-1.5,1.653,4.358,4.358,0,0,1-4.329,0,4.025,4.025,0,0,1-1.5-1.657,6.306,6.306,0,0,1,0-5.142,3.994,3.994,0,0,1,1.5-1.653,4.332,4.332,0,0,1,4.329,0,3.984,3.984,0,0,1,1.5,1.653A5.592,5.592,0,0,1,85.387,463.009Zm-1.4,0a4.472,4.472,0,0,0-.37-1.922,2.7,2.7,0,0,0-1-1.188,2.76,2.76,0,0,0-2.881,0,2.743,2.743,0,0,0-1,1.188,5.253,5.253,0,0,0,0,3.85,2.778,2.778,0,0,0,1,1.187,2.784,2.784,0,0,0,2.881,0,2.737,2.737,0,0,0,1-1.187A4.507,4.507,0,0,0,83.99,463.009ZM87,467.685v-9.352h3.334a3.866,3.866,0,0,1,1.8.374,2.477,2.477,0,0,1,1.078,1.036,3.139,3.139,0,0,1,.356,1.521,3.079,3.079,0,0,1-.36,1.512,2.435,2.435,0,0,1-1.078,1.009,4,4,0,0,1-1.8.361H87.808v-1.215h2.4a2.7,2.7,0,0,0,1.115-.2,1.3,1.3,0,0,0,.634-.571,1.878,1.878,0,0,0,.2-.9,1.941,1.941,0,0,0-.2-.918,1.325,1.325,0,0,0-.635-.593,2.571,2.571,0,0,0-1.128-.211H88.416v8.142Zm4.617-4.219,2.311,4.219H92.325l-2.265-4.219Zm6.557,4.219H95.152v-9.352h3.123a4.707,4.707,0,0,1,2.361.561,3.7,3.7,0,0,1,1.511,1.6,6.166,6.166,0,0,1,0,5.01,3.755,3.755,0,0,1-1.534,1.616A4.909,4.909,0,0,1,98.179,467.685Zm-1.617-1.233H98.1a3.558,3.558,0,0,0,1.776-.4,2.532,2.532,0,0,0,1.06-1.173,4.532,4.532,0,0,0,.351-1.881,4.473,4.473,0,0,0-.351-1.868,2.488,2.488,0,0,0-1.037-1.165,3.382,3.382,0,0,0-1.713-.4H96.562Zm9.139-8.119v9.352h-1.411v-9.352Zm9.462,0v9.352h-1.3l-4.754-6.859h-.087v6.859h-1.411v-9.352h1.306l4.759,6.868h.087v-6.868Zm2.707,9.352h-1.5l3.365-9.352h1.631l3.365,9.352h-1.5l-2.643-7.654h-.073Zm.252-3.663h4.858v1.187h-4.858Zm10.848,3.663h-3.028v-9.352h3.124a4.7,4.7,0,0,1,2.36.561,3.707,3.707,0,0,1,1.512,1.6,6.162,6.162,0,0,1,0,5.01,3.746,3.746,0,0,1-1.534,1.616A4.907,4.907,0,0,1,128.97,467.685Zm-1.616-1.233h1.539a3.561,3.561,0,0,0,1.776-.4,2.53,2.53,0,0,0,1.059-1.173,4.518,4.518,0,0,0,.352-1.881,4.46,4.46,0,0,0-.352-1.868,2.491,2.491,0,0,0-1.036-1.165,3.384,3.384,0,0,0-1.713-.4h-1.626Zm15.852-3.443a5.616,5.616,0,0,1-.548,2.575,4.013,4.013,0,0,1-1.5,1.653,4.358,4.358,0,0,1-4.329,0,4.027,4.027,0,0,1-1.5-1.657,6.3,6.3,0,0,1,0-5.142,4,4,0,0,1,1.5-1.653,4.332,4.332,0,0,1,4.329,0,3.979,3.979,0,0,1,1.5,1.653A5.588,5.588,0,0,1,143.206,463.009Zm-1.4,0a4.469,4.469,0,0,0-.37-1.922,2.7,2.7,0,0,0-1-1.188,2.76,2.76,0,0,0-2.881,0,2.746,2.746,0,0,0-1,1.188,5.26,5.26,0,0,0,0,3.85,2.782,2.782,0,0,0,1,1.187,2.783,2.783,0,0,0,2.881,0,2.733,2.733,0,0,0,1-1.187A4.5,4.5,0,0,0,141.809,463.009Z" transform="translate(162.48 1237.982)" fill="#12263f"/>
    <rect id="Rectángulo_40582" data-name="Rectángulo 40582" width="126.564" height="51.437" rx="6" transform="translate(503.78 1675.125)" fill="#bae887" stroke="#77b43a" stroke-width="2"/>
    <path id="Trazado_160438" data-name="Trazado 160438" d="M439.054,460.789a1.338,1.338,0,0,0-.6-1,2.32,2.32,0,0,0-1.333-.36,2.475,2.475,0,0,0-1,.182,1.539,1.539,0,0,0-.653.493,1.169,1.169,0,0,0-.228.708,1.048,1.048,0,0,0,.155.575,1.4,1.4,0,0,0,.416.407,3.131,3.131,0,0,0,.557.269q.3.1.571.174l.913.237a6.863,6.863,0,0,1,.918.3,3.707,3.707,0,0,1,.873.493,2.354,2.354,0,0,1,.648.759,2.186,2.186,0,0,1,.252,1.082,2.492,2.492,0,0,1-.411,1.411,2.744,2.744,0,0,1-1.183.973,4.441,4.441,0,0,1-1.868.356,4.528,4.528,0,0,1-1.817-.334,2.792,2.792,0,0,1-1.2-.945,2.745,2.745,0,0,1-.479-1.461H435a1.447,1.447,0,0,0,.329.845,1.781,1.781,0,0,0,.744.5,3.024,3.024,0,0,0,1,.159,2.828,2.828,0,0,0,1.064-.187,1.774,1.774,0,0,0,.739-.53,1.251,1.251,0,0,0,.269-.8.981.981,0,0,0-.237-.681,1.762,1.762,0,0,0-.635-.438,6.247,6.247,0,0,0-.9-.306l-1.105-.3a4.3,4.3,0,0,1-1.781-.9,2.02,2.02,0,0,1-.653-1.571,2.332,2.332,0,0,1,.439-1.411,2.88,2.88,0,0,1,1.187-.936,4.068,4.068,0,0,1,1.689-.338,3.989,3.989,0,0,1,1.677.333,2.829,2.829,0,0,1,1.15.918,2.31,2.31,0,0,1,.439,1.333Zm9.047-2.456h1.415v6.151a3.279,3.279,0,0,1-.461,1.74,3.221,3.221,0,0,1-1.3,1.187,4.677,4.677,0,0,1-3.914,0,3.221,3.221,0,0,1-1.3-1.187,3.279,3.279,0,0,1-.461-1.74v-6.151H443.5v6.037a2.251,2.251,0,0,0,.278,1.128,2.019,2.019,0,0,0,.8.776,2.836,2.836,0,0,0,2.453,0,1.95,1.95,0,0,0,.794-.776,2.251,2.251,0,0,0,.279-1.128Zm3.326,9.352v-9.352h3.425a3.648,3.648,0,0,1,1.648.329,2.248,2.248,0,0,1,.977.881,2.419,2.419,0,0,1,.325,1.247,2.077,2.077,0,0,1-.215.987,1.774,1.774,0,0,1-.575.639,2.546,2.546,0,0,1-.786.347v.092a1.863,1.863,0,0,1,.909.3,2.15,2.15,0,0,1,.739.78,2.428,2.428,0,0,1,.293,1.233,2.484,2.484,0,0,1-.338,1.288,2.312,2.312,0,0,1-1.032.9,4.2,4.2,0,0,1-1.786.329Zm1.411-1.21h2.037a2.16,2.16,0,0,0,1.452-.392,1.263,1.263,0,0,0,.439-.982,1.538,1.538,0,0,0-.224-.813,1.593,1.593,0,0,0-.639-.589,2.047,2.047,0,0,0-.977-.219h-2.087Zm0-4.1h1.891a1.934,1.934,0,0,0,.854-.183,1.493,1.493,0,0,0,.608-.511,1.357,1.357,0,0,0,.228-.785,1.3,1.3,0,0,0-.407-.973,1.734,1.734,0,0,0-1.247-.393h-1.927Zm14.985.63a5.626,5.626,0,0,1-.547,2.575,4.02,4.02,0,0,1-1.5,1.653,4.358,4.358,0,0,1-4.329,0,4.027,4.027,0,0,1-1.5-1.657,6.312,6.312,0,0,1,0-5.142,4,4,0,0,1,1.5-1.653,4.332,4.332,0,0,1,4.329,0,3.986,3.986,0,0,1,1.5,1.653A5.6,5.6,0,0,1,467.823,463.009Zm-1.4,0a4.482,4.482,0,0,0-.37-1.922,2.7,2.7,0,0,0-1-1.188,2.761,2.761,0,0,0-2.882,0,2.746,2.746,0,0,0-1,1.188,5.259,5.259,0,0,0,0,3.85,2.782,2.782,0,0,0,1,1.187,2.785,2.785,0,0,0,2.882,0,2.738,2.738,0,0,0,1-1.187A4.517,4.517,0,0,0,466.426,463.009Zm3.015,4.676v-9.352h3.334a3.866,3.866,0,0,1,1.8.374,2.477,2.477,0,0,1,1.078,1.036,3.139,3.139,0,0,1,.357,1.521,3.079,3.079,0,0,1-.361,1.512,2.435,2.435,0,0,1-1.078,1.009,4,4,0,0,1-1.8.361h-2.525v-1.215h2.4a2.7,2.7,0,0,0,1.115-.2,1.3,1.3,0,0,0,.634-.571,1.878,1.878,0,0,0,.2-.9,1.94,1.94,0,0,0-.2-.918,1.325,1.325,0,0,0-.635-.593,2.571,2.571,0,0,0-1.128-.211h-1.772v8.142Zm4.617-4.219,2.311,4.219h-1.607l-2.265-4.219Zm6.557,4.219h-3.028v-9.352h3.123a4.7,4.7,0,0,1,2.361.561,3.7,3.7,0,0,1,1.511,1.6,6.158,6.158,0,0,1,0,5.01,3.755,3.755,0,0,1-1.534,1.616A4.909,4.909,0,0,1,480.615,467.685ZM479,466.452h1.538a3.564,3.564,0,0,0,1.777-.4,2.534,2.534,0,0,0,1.059-1.173,4.532,4.532,0,0,0,.351-1.881,4.473,4.473,0,0,0-.351-1.868,2.489,2.489,0,0,0-1.037-1.165,3.382,3.382,0,0,0-1.713-.4H479Zm9.138-8.119v9.352h-1.411v-9.352Zm9.462,0v9.352h-1.3l-4.754-6.859h-.087v6.859h-1.411v-9.352h1.306l4.759,6.868h.087v-6.868Zm2.707,9.352h-1.5l3.365-9.352H503.8l3.365,9.352h-1.5l-2.643-7.654h-.073Zm.252-3.663h4.859v1.187h-4.859Zm10.849,3.663h-3.028v-9.352H511.5a4.7,4.7,0,0,1,2.36.561,3.7,3.7,0,0,1,1.512,1.6,6.162,6.162,0,0,1,0,5.01,3.746,3.746,0,0,1-1.534,1.616A4.906,4.906,0,0,1,511.407,467.685Zm-1.617-1.233h1.539a3.56,3.56,0,0,0,1.776-.4,2.53,2.53,0,0,0,1.059-1.173,4.519,4.519,0,0,0,.352-1.881,4.46,4.46,0,0,0-.352-1.868,2.487,2.487,0,0,0-1.036-1.165,3.384,3.384,0,0,0-1.713-.4H509.79Zm15.852-3.443a5.626,5.626,0,0,1-.547,2.575,4.019,4.019,0,0,1-1.5,1.653,4.358,4.358,0,0,1-4.329,0,4.027,4.027,0,0,1-1.5-1.657,6.3,6.3,0,0,1,0-5.142,4,4,0,0,1,1.5-1.653,4.332,4.332,0,0,1,4.329,0,3.985,3.985,0,0,1,1.5,1.653A5.6,5.6,0,0,1,525.642,463.009Zm-1.4,0a4.469,4.469,0,0,0-.371-1.922,2.7,2.7,0,0,0-1-1.188,2.76,2.76,0,0,0-2.881,0,2.746,2.746,0,0,0-1,1.188,5.259,5.259,0,0,0,0,3.85,2.782,2.782,0,0,0,1,1.187,2.783,2.783,0,0,0,2.881,0,2.734,2.734,0,0,0,1-1.187A4.5,4.5,0,0,0,524.245,463.009Z" transform="translate(87.412 1237.982)" fill="#12263f"/>
    <rect id="Rectángulo_40583" data-name="Rectángulo 40583" width="126.564" height="51.437" rx="6" transform="translate(811.148 1675.125)" fill="#bae887" stroke="#77b43a" stroke-width="2"/>
    <path id="Trazado_160439" data-name="Trazado 160439" d="M821.49,460.789a1.338,1.338,0,0,0-.6-1,2.32,2.32,0,0,0-1.333-.36,2.476,2.476,0,0,0-1,.182,1.539,1.539,0,0,0-.653.493,1.168,1.168,0,0,0-.228.708,1.041,1.041,0,0,0,.156.575,1.385,1.385,0,0,0,.415.407,3.184,3.184,0,0,0,.557.269q.3.1.571.174l.913.237a6.863,6.863,0,0,1,.918.3,3.691,3.691,0,0,1,.873.493,2.355,2.355,0,0,1,.648.759,2.186,2.186,0,0,1,.252,1.082,2.486,2.486,0,0,1-.411,1.411,2.744,2.744,0,0,1-1.183.973,4.44,4.44,0,0,1-1.868.356,4.528,4.528,0,0,1-1.817-.334,2.792,2.792,0,0,1-1.2-.945,2.744,2.744,0,0,1-.479-1.461h1.415a1.447,1.447,0,0,0,.329.845,1.781,1.781,0,0,0,.744.5,3.024,3.024,0,0,0,1,.159,2.828,2.828,0,0,0,1.064-.187,1.774,1.774,0,0,0,.739-.53,1.252,1.252,0,0,0,.269-.8.981.981,0,0,0-.237-.681,1.762,1.762,0,0,0-.635-.438,6.212,6.212,0,0,0-.9-.306l-1.105-.3a4.3,4.3,0,0,1-1.781-.9,2.021,2.021,0,0,1-.653-1.571,2.333,2.333,0,0,1,.439-1.411,2.88,2.88,0,0,1,1.187-.936,4.067,4.067,0,0,1,1.689-.338,3.989,3.989,0,0,1,1.677.333,2.828,2.828,0,0,1,1.15.918,2.309,2.309,0,0,1,.439,1.333Zm9.047-2.456h1.415v6.151a3.279,3.279,0,0,1-.461,1.74,3.222,3.222,0,0,1-1.3,1.187,4.677,4.677,0,0,1-3.914,0,3.22,3.22,0,0,1-1.3-1.187,3.279,3.279,0,0,1-.461-1.74v-6.151h1.411v6.037a2.251,2.251,0,0,0,.278,1.128,2.02,2.02,0,0,0,.8.776,2.834,2.834,0,0,0,2.452,0,1.946,1.946,0,0,0,.794-.776,2.252,2.252,0,0,0,.279-1.128Zm3.326,9.352v-9.352h3.425a3.648,3.648,0,0,1,1.648.329,2.248,2.248,0,0,1,.977.881,2.419,2.419,0,0,1,.325,1.247,2.076,2.076,0,0,1-.215.987,1.773,1.773,0,0,1-.576.639,2.536,2.536,0,0,1-.786.347v.092a1.862,1.862,0,0,1,.909.3,2.159,2.159,0,0,1,.74.78,2.436,2.436,0,0,1,.292,1.233,2.484,2.484,0,0,1-.338,1.288,2.312,2.312,0,0,1-1.032.9,4.2,4.2,0,0,1-1.786.329Zm1.411-1.21h2.037a2.159,2.159,0,0,0,1.451-.392,1.263,1.263,0,0,0,.439-.982,1.538,1.538,0,0,0-.224-.813,1.593,1.593,0,0,0-.639-.589,2.047,2.047,0,0,0-.977-.219h-2.086Zm0-4.1h1.89a1.934,1.934,0,0,0,.854-.183,1.492,1.492,0,0,0,.608-.511,1.356,1.356,0,0,0,.228-.785,1.3,1.3,0,0,0-.407-.973,1.734,1.734,0,0,0-1.247-.393h-1.927Zm14.985.63a5.627,5.627,0,0,1-.548,2.575,4.02,4.02,0,0,1-1.5,1.653,4.358,4.358,0,0,1-4.329,0,4.027,4.027,0,0,1-1.5-1.657,6.312,6.312,0,0,1,0-5.142,4,4,0,0,1,1.5-1.653,4.332,4.332,0,0,1,4.329,0,3.986,3.986,0,0,1,1.5,1.653A5.6,5.6,0,0,1,850.259,463.009Zm-1.4,0a4.469,4.469,0,0,0-.37-1.922,2.7,2.7,0,0,0-1-1.188,2.761,2.761,0,0,0-2.882,0,2.747,2.747,0,0,0-1,1.188,5.259,5.259,0,0,0,0,3.85,2.782,2.782,0,0,0,1,1.187,2.785,2.785,0,0,0,2.882,0,2.738,2.738,0,0,0,1-1.187A4.5,4.5,0,0,0,848.862,463.009Zm3.015,4.676v-9.352h3.334a3.872,3.872,0,0,1,1.8.374,2.48,2.48,0,0,1,1.077,1.036,3.139,3.139,0,0,1,.357,1.521,3.079,3.079,0,0,1-.361,1.512,2.435,2.435,0,0,1-1.078,1.009,4,4,0,0,1-1.8.361H852.68v-1.215h2.4a2.7,2.7,0,0,0,1.115-.2,1.3,1.3,0,0,0,.635-.571,1.888,1.888,0,0,0,.2-.9,1.941,1.941,0,0,0-.206-.918,1.326,1.326,0,0,0-.635-.593,2.57,2.57,0,0,0-1.128-.211h-1.772v8.142Zm4.617-4.219,2.311,4.219H857.2l-2.265-4.219Zm6.557,4.219h-3.028v-9.352h3.123a4.7,4.7,0,0,1,2.361.561,3.707,3.707,0,0,1,1.512,1.6,6.162,6.162,0,0,1,0,5.01,3.755,3.755,0,0,1-1.534,1.616A4.909,4.909,0,0,1,863.051,467.685Zm-1.616-1.233h1.538a3.561,3.561,0,0,0,1.777-.4,2.534,2.534,0,0,0,1.059-1.173,4.519,4.519,0,0,0,.351-1.881,4.461,4.461,0,0,0-.351-1.868,2.488,2.488,0,0,0-1.037-1.165,3.382,3.382,0,0,0-1.713-.4h-1.625Zm9.139-8.119v9.352h-1.411v-9.352Zm9.461,0v9.352h-1.3l-4.754-6.859H873.9v6.859h-1.411v-9.352h1.306l4.759,6.868h.087v-6.868Zm2.707,9.352h-1.5l3.365-9.352h1.631l3.365,9.352h-1.5l-2.644-7.654h-.073Zm.252-3.663h4.858v1.187h-4.858Zm10.849,3.663h-3.028v-9.352h3.123a4.7,4.7,0,0,1,2.36.561,3.7,3.7,0,0,1,1.512,1.6,6.161,6.161,0,0,1,0,5.01,3.746,3.746,0,0,1-1.534,1.616A4.906,4.906,0,0,1,893.843,467.685Zm-1.617-1.233h1.539a3.561,3.561,0,0,0,1.776-.4,2.53,2.53,0,0,0,1.059-1.173,4.519,4.519,0,0,0,.352-1.881,4.46,4.46,0,0,0-.352-1.868,2.482,2.482,0,0,0-1.036-1.165,3.382,3.382,0,0,0-1.713-.4h-1.626Zm15.852-3.443a5.626,5.626,0,0,1-.547,2.575,4.02,4.02,0,0,1-1.5,1.653,4.358,4.358,0,0,1-4.329,0,4.027,4.027,0,0,1-1.5-1.657,6.3,6.3,0,0,1,0-5.142,4,4,0,0,1,1.5-1.653,4.332,4.332,0,0,1,4.329,0,3.986,3.986,0,0,1,1.5,1.653A5.6,5.6,0,0,1,908.078,463.009Zm-1.4,0a4.48,4.48,0,0,0-.37-1.922,2.7,2.7,0,0,0-1-1.188,2.761,2.761,0,0,0-2.882,0,2.746,2.746,0,0,0-1,1.188,5.259,5.259,0,0,0,0,3.85,2.781,2.781,0,0,0,1,1.187,2.785,2.785,0,0,0,2.882,0,2.738,2.738,0,0,0,1-1.187A4.515,4.515,0,0,0,906.681,463.009Z" transform="translate(12.344 1237.982)" fill="#12263f"/>
    <rect id="Rectángulo_40584" data-name="Rectángulo 40584" width="126.564" height="51.437" rx="6" transform="translate(1118.52 1675.125)" fill="#bae887" stroke="#77b43a" stroke-width="2"/>
    <path id="Trazado_160440" data-name="Trazado 160440" d="M1203.923,460.789a1.334,1.334,0,0,0-.6-1,2.316,2.316,0,0,0-1.334-.36,2.507,2.507,0,0,0-1,.182,1.555,1.555,0,0,0-.651.493,1.161,1.161,0,0,0-.225.708,1.033,1.033,0,0,0,.153.575,1.4,1.4,0,0,0,.418.407,2.906,2.906,0,0,0,.555.269c.2.07.386.128.571.174l.916.237a6.923,6.923,0,0,1,.916.3,3.616,3.616,0,0,1,.868.493,2.262,2.262,0,0,1,.651.759,2.178,2.178,0,0,1,.249,1.082,2.492,2.492,0,0,1-.41,1.411,2.72,2.72,0,0,1-1.181.973,4.422,4.422,0,0,1-1.865.356,4.51,4.51,0,0,1-1.816-.334,2.789,2.789,0,0,1-1.205-.945,2.753,2.753,0,0,1-.482-1.461h1.423a1.417,1.417,0,0,0,.33.845,1.774,1.774,0,0,0,.739.5,3.054,3.054,0,0,0,1,.159,2.837,2.837,0,0,0,1.061-.187,1.759,1.759,0,0,0,.739-.53,1.274,1.274,0,0,0,.273-.8.972.972,0,0,0-.241-.681,1.762,1.762,0,0,0-.635-.438,6.129,6.129,0,0,0-.9-.306l-1.1-.3a4.294,4.294,0,0,1-1.784-.9,2.024,2.024,0,0,1-.651-1.571,2.35,2.35,0,0,1,.434-1.411,2.931,2.931,0,0,1,1.189-.936,4.057,4.057,0,0,1,1.688-.338,3.992,3.992,0,0,1,1.68.333,2.87,2.87,0,0,1,1.149.918,2.27,2.27,0,0,1,.434,1.333Zm9.05-2.456h1.415v6.151a3.3,3.3,0,0,1-.458,1.74,3.243,3.243,0,0,1-1.3,1.187,4.206,4.206,0,0,1-1.953.429,4.262,4.262,0,0,1-1.961-.429,3.219,3.219,0,0,1-1.294-1.187,3.3,3.3,0,0,1-.458-1.74v-6.151h1.406v6.037a2.262,2.262,0,0,0,.281,1.128,1.973,1.973,0,0,0,.8.776,2.562,2.562,0,0,0,1.23.279,2.508,2.508,0,0,0,1.222-.279,1.879,1.879,0,0,0,.8-.776,2.262,2.262,0,0,0,.281-1.128Zm3.328,9.352v-9.352h3.424a3.656,3.656,0,0,1,1.648.329,2.27,2.27,0,0,1,.98.881,2.488,2.488,0,0,1,.322,1.247,2.057,2.057,0,0,1-.217.987,1.768,1.768,0,0,1-.571.639,2.64,2.64,0,0,1-.788.347v.092a1.886,1.886,0,0,1,.908.3,2.145,2.145,0,0,1,.74.78,2.453,2.453,0,0,1,.289,1.233,2.484,2.484,0,0,1-.338,1.288,2.269,2.269,0,0,1-1.029.9,4.2,4.2,0,0,1-1.784.329Zm1.406-1.21h2.041a2.142,2.142,0,0,0,1.447-.392,1.251,1.251,0,0,0,.442-.982,1.511,1.511,0,0,0-.225-.813,1.634,1.634,0,0,0-.635-.589,2.08,2.08,0,0,0-.98-.219h-2.09Zm0-4.1h1.889a1.962,1.962,0,0,0,.86-.183,1.437,1.437,0,0,0,.6-.511,1.354,1.354,0,0,0,.233-.785,1.292,1.292,0,0,0-.41-.973,1.731,1.731,0,0,0-1.246-.393h-1.929Zm14.989.63a5.669,5.669,0,0,1-.547,2.575,4.058,4.058,0,0,1-1.5,1.653,4.364,4.364,0,0,1-4.332,0,3.982,3.982,0,0,1-1.495-1.657,6.239,6.239,0,0,1,0-5.142,3.952,3.952,0,0,1,1.495-1.653,4.338,4.338,0,0,1,4.332,0,4.023,4.023,0,0,1,1.5,1.653A5.64,5.64,0,0,1,1232.7,463.009Zm-1.4,0a4.432,4.432,0,0,0-.37-1.922,2.689,2.689,0,0,0-1-1.188,2.767,2.767,0,0,0-2.885,0,2.794,2.794,0,0,0-1,1.188,5.3,5.3,0,0,0,0,3.85,2.831,2.831,0,0,0,1,1.187,2.662,2.662,0,0,0,1.447.4,2.635,2.635,0,0,0,1.439-.4,2.723,2.723,0,0,0,1-1.187A4.467,4.467,0,0,0,1231.3,463.009Zm3.014,4.676v-9.352h3.335a3.848,3.848,0,0,1,1.8.374,2.449,2.449,0,0,1,1.077,1.036,3.106,3.106,0,0,1,.362,1.521,3.071,3.071,0,0,1-.362,1.512,2.44,2.44,0,0,1-1.077,1.009,4.037,4.037,0,0,1-1.808.361h-2.524v-1.215h2.4a2.716,2.716,0,0,0,1.117-.2,1.313,1.313,0,0,0,.635-.571,1.849,1.849,0,0,0,.2-.9,1.943,1.943,0,0,0-.209-.918,1.3,1.3,0,0,0-.635-.593,2.543,2.543,0,0,0-1.125-.211h-1.768v8.142Zm4.613-4.219,2.315,4.219h-1.607l-2.266-4.219Zm6.558,4.219h-3.022v-9.352h3.118a4.716,4.716,0,0,1,2.363.561,3.671,3.671,0,0,1,1.511,1.6,5.442,5.442,0,0,1,.53,2.5,5.514,5.514,0,0,1-.53,2.512,3.771,3.771,0,0,1-1.535,1.616A4.927,4.927,0,0,1,1245.483,467.685Zm-1.615-1.233h1.543a3.579,3.579,0,0,0,1.776-.4,2.6,2.6,0,0,0,1.061-1.173,4.549,4.549,0,0,0,.346-1.881,4.49,4.49,0,0,0-.346-1.868,2.5,2.5,0,0,0-1.037-1.165,3.414,3.414,0,0,0-1.712-.4h-1.632Zm9.138-8.119v9.352H1251.6v-9.352Zm9.468,0v9.352h-1.3l-4.75-6.859h-.088v6.859h-1.415v-9.352h1.31l4.758,6.868h.088v-6.868Zm2.7,9.352h-1.495l3.367-9.352h1.632l3.359,9.352h-1.495l-2.644-7.654h-.072Zm.257-3.663h4.854v1.187h-4.854Zm10.85,3.663h-3.03v-9.352h3.127a4.684,4.684,0,0,1,2.355.561,3.667,3.667,0,0,1,1.511,1.6,5.442,5.442,0,0,1,.53,2.5,5.514,5.514,0,0,1-.53,2.512,3.771,3.771,0,0,1-1.535,1.616A4.9,4.9,0,0,1,1276.281,467.685Zm-1.624-1.233h1.543a3.559,3.559,0,0,0,1.776-.4,2.516,2.516,0,0,0,1.061-1.173,4.542,4.542,0,0,0,.354-1.881,4.483,4.483,0,0,0-.354-1.868,2.5,2.5,0,0,0-1.037-1.165,3.372,3.372,0,0,0-1.712-.4h-1.632Zm15.857-3.443a5.67,5.67,0,0,1-.546,2.575,4.059,4.059,0,0,1-1.5,1.653,4.364,4.364,0,0,1-4.332,0,3.982,3.982,0,0,1-1.495-1.657,6.236,6.236,0,0,1,0-5.142,3.952,3.952,0,0,1,1.495-1.653,4.338,4.338,0,0,1,4.332,0,4.024,4.024,0,0,1,1.5,1.653A5.64,5.64,0,0,1,1290.515,463.009Zm-1.4,0a4.434,4.434,0,0,0-.37-1.922,2.69,2.69,0,0,0-1-1.188,2.611,2.611,0,0,0-1.439-.406,2.638,2.638,0,0,0-1.447.406,2.8,2.8,0,0,0-1,1.188,5.3,5.3,0,0,0,0,3.85,2.832,2.832,0,0,0,1,1.187,2.662,2.662,0,0,0,1.447.4,2.635,2.635,0,0,0,1.439-.4,2.724,2.724,0,0,0,1-1.187A4.469,4.469,0,0,0,1289.117,463.009Z" transform="translate(-62.723 1237.982)" fill="#12263f"/>
    <rect id="Rectángulo_40585" data-name="Rectángulo 40585" width="126.564" height="51.437" rx="6" transform="translate(350.096 1675.125)" fill="#bae887" stroke="#77b43a" stroke-width="2"/>
    <path id="Trazado_160441" data-name="Trazado 160441" d="M247.836,460.789a1.338,1.338,0,0,0-.6-1,2.321,2.321,0,0,0-1.334-.36,2.474,2.474,0,0,0-.995.182,1.534,1.534,0,0,0-.653.493,1.169,1.169,0,0,0-.228.708,1.047,1.047,0,0,0,.155.575,1.4,1.4,0,0,0,.415.407,3.166,3.166,0,0,0,.558.269q.3.1.571.174l.913.237a6.9,6.9,0,0,1,.918.3,3.687,3.687,0,0,1,.872.493,2.348,2.348,0,0,1,.649.759,2.186,2.186,0,0,1,.252,1.082,2.487,2.487,0,0,1-.411,1.411,2.737,2.737,0,0,1-1.182.973,4.44,4.44,0,0,1-1.868.356,4.528,4.528,0,0,1-1.817-.334,2.792,2.792,0,0,1-1.2-.945,2.738,2.738,0,0,1-.479-1.461h1.415a1.447,1.447,0,0,0,.329.845,1.781,1.781,0,0,0,.744.5,3.024,3.024,0,0,0,1,.159,2.82,2.82,0,0,0,1.063-.187,1.776,1.776,0,0,0,.74-.53,1.256,1.256,0,0,0,.269-.8.981.981,0,0,0-.237-.681,1.762,1.762,0,0,0-.635-.438,6.246,6.246,0,0,0-.9-.306l-1.105-.3a4.3,4.3,0,0,1-1.781-.9,2.02,2.02,0,0,1-.653-1.571,2.332,2.332,0,0,1,.439-1.411,2.88,2.88,0,0,1,1.187-.936,4.067,4.067,0,0,1,1.689-.338,3.983,3.983,0,0,1,1.676.333,2.832,2.832,0,0,1,1.151.918,2.31,2.31,0,0,1,.439,1.333Zm9.047-2.456H258.3v6.151a3.279,3.279,0,0,1-.461,1.74,3.221,3.221,0,0,1-1.3,1.187,4.677,4.677,0,0,1-3.914,0,3.221,3.221,0,0,1-1.3-1.187,3.279,3.279,0,0,1-.461-1.74v-6.151h1.411v6.037a2.251,2.251,0,0,0,.279,1.128,2.018,2.018,0,0,0,.8.776,2.836,2.836,0,0,0,2.453,0,1.95,1.95,0,0,0,.794-.776,2.252,2.252,0,0,0,.279-1.128Zm3.326,9.352v-9.352h3.425a3.648,3.648,0,0,1,1.648.329,2.248,2.248,0,0,1,.977.881,2.419,2.419,0,0,1,.325,1.247,2.076,2.076,0,0,1-.215.987,1.771,1.771,0,0,1-.575.639,2.545,2.545,0,0,1-.786.347v.092a1.863,1.863,0,0,1,.909.3,2.15,2.15,0,0,1,.739.78,2.428,2.428,0,0,1,.293,1.233,2.484,2.484,0,0,1-.338,1.288,2.312,2.312,0,0,1-1.032.9,4.2,4.2,0,0,1-1.786.329Zm1.411-1.21h2.037a2.161,2.161,0,0,0,1.452-.392,1.263,1.263,0,0,0,.439-.982,1.538,1.538,0,0,0-.224-.813,1.593,1.593,0,0,0-.639-.589,2.047,2.047,0,0,0-.977-.219h-2.087Zm0-4.1h1.891a1.934,1.934,0,0,0,.854-.183,1.493,1.493,0,0,0,.608-.511,1.357,1.357,0,0,0,.228-.785,1.3,1.3,0,0,0-.407-.973,1.733,1.733,0,0,0-1.247-.393h-1.927Zm14.985.63a5.627,5.627,0,0,1-.547,2.575,4.02,4.02,0,0,1-1.5,1.653,4.358,4.358,0,0,1-4.329,0,4.028,4.028,0,0,1-1.5-1.657,6.3,6.3,0,0,1,0-5.142,4,4,0,0,1,1.5-1.653,4.332,4.332,0,0,1,4.329,0,3.986,3.986,0,0,1,1.5,1.653A5.6,5.6,0,0,1,276.6,463.009Zm-1.4,0a4.482,4.482,0,0,0-.37-1.922,2.71,2.71,0,0,0-1-1.188,2.761,2.761,0,0,0-2.882,0,2.746,2.746,0,0,0-1,1.188,5.259,5.259,0,0,0,0,3.85,2.782,2.782,0,0,0,1,1.187,2.785,2.785,0,0,0,2.882,0,2.744,2.744,0,0,0,1-1.187A4.517,4.517,0,0,0,275.208,463.009Zm3.015,4.676v-9.352h3.334a3.866,3.866,0,0,1,1.8.374,2.477,2.477,0,0,1,1.078,1.036,3.139,3.139,0,0,1,.356,1.521,3.079,3.079,0,0,1-.36,1.512,2.435,2.435,0,0,1-1.078,1.009,4,4,0,0,1-1.8.361h-2.525v-1.215h2.4a2.7,2.7,0,0,0,1.115-.2,1.3,1.3,0,0,0,.634-.571,1.878,1.878,0,0,0,.2-.9,1.941,1.941,0,0,0-.2-.918,1.325,1.325,0,0,0-.635-.593,2.57,2.57,0,0,0-1.128-.211h-1.772v8.142Zm4.617-4.219,2.311,4.219h-1.607l-2.266-4.219Zm6.557,4.219H286.37v-9.352h3.123a4.707,4.707,0,0,1,2.361.561,3.7,3.7,0,0,1,1.511,1.6,6.166,6.166,0,0,1,0,5.01,3.756,3.756,0,0,1-1.534,1.616A4.909,4.909,0,0,1,289.4,467.685Zm-1.617-1.233h1.539a3.559,3.559,0,0,0,1.776-.4,2.532,2.532,0,0,0,1.06-1.173,4.532,4.532,0,0,0,.351-1.881,4.473,4.473,0,0,0-.351-1.868,2.488,2.488,0,0,0-1.037-1.165,3.382,3.382,0,0,0-1.713-.4H287.78Zm9.139-8.119v9.352h-1.411v-9.352Zm9.462,0v9.352h-1.3l-4.754-6.859h-.087v6.859h-1.411v-9.352h1.306L304.9,465.2h.087v-6.868Zm2.707,9.352h-1.5l3.365-9.352h1.631l3.365,9.352h-1.5l-2.643-7.654h-.073Zm.252-3.663H314.2v1.187H309.34Zm10.849,3.663h-3.028v-9.352h3.124a4.7,4.7,0,0,1,2.361.561,3.708,3.708,0,0,1,1.512,1.6,6.162,6.162,0,0,1,0,5.01,3.746,3.746,0,0,1-1.534,1.616A4.907,4.907,0,0,1,320.188,467.685Zm-1.616-1.233h1.539a3.561,3.561,0,0,0,1.776-.4,2.531,2.531,0,0,0,1.059-1.173A4.519,4.519,0,0,0,323.3,463a4.461,4.461,0,0,0-.352-1.868,2.491,2.491,0,0,0-1.036-1.165,3.384,3.384,0,0,0-1.713-.4h-1.626Zm15.852-3.443a5.616,5.616,0,0,1-.548,2.575,4.012,4.012,0,0,1-1.5,1.653,4.358,4.358,0,0,1-4.329,0,4.028,4.028,0,0,1-1.5-1.657,6.3,6.3,0,0,1,0-5.142,4,4,0,0,1,1.5-1.653,4.332,4.332,0,0,1,4.329,0,3.978,3.978,0,0,1,1.5,1.653A5.587,5.587,0,0,1,334.424,463.009Zm-1.4,0a4.469,4.469,0,0,0-.371-1.922,2.7,2.7,0,0,0-1-1.188,2.76,2.76,0,0,0-2.881,0,2.746,2.746,0,0,0-1,1.188,5.26,5.26,0,0,0,0,3.85,2.782,2.782,0,0,0,1,1.187,2.783,2.783,0,0,0,2.881,0,2.733,2.733,0,0,0,1-1.187A4.5,4.5,0,0,0,333.027,463.009Z" transform="translate(124.947 1237.982)" fill="#12263f"/>
    <rect id="Rectángulo_40586" data-name="Rectángulo 40586" width="126.564" height="51.437" rx="6" transform="translate(657.464 1675.125)" fill="#bae887" stroke="#77b43a" stroke-width="2"/>
    <path id="Trazado_160442" data-name="Trazado 160442" d="M630.272,460.789a1.338,1.338,0,0,0-.6-1,2.32,2.32,0,0,0-1.333-.36,2.475,2.475,0,0,0-1,.182,1.539,1.539,0,0,0-.654.493,1.169,1.169,0,0,0-.228.708,1.041,1.041,0,0,0,.156.575,1.385,1.385,0,0,0,.416.407,3.188,3.188,0,0,0,.557.269q.3.1.571.174l.913.237a6.866,6.866,0,0,1,.918.3,3.693,3.693,0,0,1,.873.493,2.356,2.356,0,0,1,.648.759,2.186,2.186,0,0,1,.252,1.082,2.486,2.486,0,0,1-.411,1.411,2.744,2.744,0,0,1-1.183.973,4.44,4.44,0,0,1-1.868.356,4.528,4.528,0,0,1-1.817-.334,2.793,2.793,0,0,1-1.2-.945,2.745,2.745,0,0,1-.479-1.461h1.415a1.447,1.447,0,0,0,.329.845,1.78,1.78,0,0,0,.744.5,3.023,3.023,0,0,0,1,.159,2.827,2.827,0,0,0,1.064-.187,1.773,1.773,0,0,0,.739-.53,1.251,1.251,0,0,0,.269-.8.981.981,0,0,0-.237-.681,1.763,1.763,0,0,0-.635-.438,6.215,6.215,0,0,0-.9-.306l-1.105-.3a4.3,4.3,0,0,1-1.781-.9,2.02,2.02,0,0,1-.653-1.571,2.332,2.332,0,0,1,.439-1.411,2.88,2.88,0,0,1,1.187-.936,4.067,4.067,0,0,1,1.689-.338,3.989,3.989,0,0,1,1.677.333,2.829,2.829,0,0,1,1.15.918,2.31,2.31,0,0,1,.439,1.333Zm9.047-2.456h1.415v6.151a3.279,3.279,0,0,1-.461,1.74,3.221,3.221,0,0,1-1.3,1.187,4.677,4.677,0,0,1-3.914,0,3.222,3.222,0,0,1-1.3-1.187,3.279,3.279,0,0,1-.461-1.74v-6.151h1.411v6.037a2.251,2.251,0,0,0,.278,1.128,2.021,2.021,0,0,0,.8.776,2.834,2.834,0,0,0,2.452,0,1.946,1.946,0,0,0,.794-.776,2.252,2.252,0,0,0,.279-1.128Zm3.326,9.352v-9.352h3.425a3.648,3.648,0,0,1,1.648.329,2.248,2.248,0,0,1,.977.881,2.419,2.419,0,0,1,.325,1.247,2.077,2.077,0,0,1-.215.987,1.774,1.774,0,0,1-.576.639,2.545,2.545,0,0,1-.786.347v.092a1.862,1.862,0,0,1,.909.3,2.159,2.159,0,0,1,.74.78,2.436,2.436,0,0,1,.292,1.233,2.484,2.484,0,0,1-.338,1.288,2.312,2.312,0,0,1-1.032.9,4.2,4.2,0,0,1-1.786.329Zm1.411-1.21h2.037a2.159,2.159,0,0,0,1.451-.392,1.263,1.263,0,0,0,.439-.982,1.539,1.539,0,0,0-.224-.813,1.592,1.592,0,0,0-.639-.589,2.047,2.047,0,0,0-.977-.219h-2.086Zm0-4.1h1.89a1.934,1.934,0,0,0,.854-.183,1.493,1.493,0,0,0,.608-.511,1.356,1.356,0,0,0,.228-.785,1.3,1.3,0,0,0-.407-.973,1.733,1.733,0,0,0-1.247-.393h-1.927Zm14.985.63a5.626,5.626,0,0,1-.548,2.575,4.019,4.019,0,0,1-1.5,1.653,4.358,4.358,0,0,1-4.329,0,4.027,4.027,0,0,1-1.5-1.657,6.313,6.313,0,0,1,0-5.142,4,4,0,0,1,1.5-1.653,4.332,4.332,0,0,1,4.329,0,3.985,3.985,0,0,1,1.5,1.653A5.6,5.6,0,0,1,659.041,463.009Zm-1.4,0a4.469,4.469,0,0,0-.37-1.922,2.7,2.7,0,0,0-1-1.188,2.761,2.761,0,0,0-2.882,0,2.746,2.746,0,0,0-1,1.188,5.26,5.26,0,0,0,0,3.85,2.782,2.782,0,0,0,1,1.187,2.785,2.785,0,0,0,2.882,0,2.739,2.739,0,0,0,1-1.187A4.5,4.5,0,0,0,657.644,463.009Zm3.015,4.676v-9.352h3.334a3.872,3.872,0,0,1,1.8.374,2.479,2.479,0,0,1,1.077,1.036,3.139,3.139,0,0,1,.357,1.521,3.079,3.079,0,0,1-.361,1.512,2.435,2.435,0,0,1-1.078,1.009,4,4,0,0,1-1.8.361h-2.526v-1.215h2.4a2.7,2.7,0,0,0,1.115-.2,1.3,1.3,0,0,0,.635-.571,1.886,1.886,0,0,0,.2-.9,1.941,1.941,0,0,0-.206-.918,1.325,1.325,0,0,0-.635-.593,2.571,2.571,0,0,0-1.128-.211H662.07v8.142Zm4.617-4.219,2.311,4.219h-1.607l-2.265-4.219Zm6.557,4.219h-3.028v-9.352h3.123a4.7,4.7,0,0,1,2.361.561,3.707,3.707,0,0,1,1.512,1.6,6.162,6.162,0,0,1,0,5.01,3.756,3.756,0,0,1-1.534,1.616A4.909,4.909,0,0,1,671.833,467.685Zm-1.616-1.233h1.538a3.562,3.562,0,0,0,1.777-.4,2.534,2.534,0,0,0,1.059-1.173,4.531,4.531,0,0,0,.351-1.881,4.472,4.472,0,0,0-.351-1.868,2.488,2.488,0,0,0-1.037-1.165,3.382,3.382,0,0,0-1.713-.4h-1.625Zm9.139-8.119v9.352h-1.411v-9.352Zm9.461,0v9.352h-1.3l-4.754-6.859h-.087v6.859h-1.411v-9.352h1.306l4.759,6.868h.087v-6.868Zm2.707,9.352h-1.5l3.365-9.352h1.631l3.365,9.352h-1.5l-2.644-7.654h-.073Zm.252-3.663h4.858v1.187h-4.858Zm10.849,3.663H699.6v-9.352h3.123a4.7,4.7,0,0,1,2.36.561,3.7,3.7,0,0,1,1.512,1.6,6.162,6.162,0,0,1,0,5.01,3.745,3.745,0,0,1-1.534,1.616A4.906,4.906,0,0,1,702.625,467.685Zm-1.617-1.233h1.539a3.56,3.56,0,0,0,1.776-.4,2.53,2.53,0,0,0,1.059-1.173,4.518,4.518,0,0,0,.352-1.881,4.459,4.459,0,0,0-.352-1.868,2.482,2.482,0,0,0-1.036-1.165,3.384,3.384,0,0,0-1.713-.4h-1.626Zm15.852-3.443a5.626,5.626,0,0,1-.547,2.575,4.02,4.02,0,0,1-1.5,1.653,4.358,4.358,0,0,1-4.329,0,4.027,4.027,0,0,1-1.5-1.657,6.3,6.3,0,0,1,0-5.142,4,4,0,0,1,1.5-1.653,4.332,4.332,0,0,1,4.329,0,3.986,3.986,0,0,1,1.5,1.653A5.6,5.6,0,0,1,716.86,463.009Zm-1.4,0a4.482,4.482,0,0,0-.37-1.922,2.705,2.705,0,0,0-1-1.188,2.761,2.761,0,0,0-2.882,0,2.747,2.747,0,0,0-1,1.188,5.26,5.26,0,0,0,0,3.85,2.782,2.782,0,0,0,1,1.187,2.785,2.785,0,0,0,2.882,0,2.739,2.739,0,0,0,1-1.187A4.517,4.517,0,0,0,715.463,463.009Z" transform="translate(49.879 1237.982)" fill="#12263f"/>
    <rect id="Rectángulo_40587" data-name="Rectángulo 40587" width="126.564" height="51.437" rx="6" transform="translate(964.832 1675.125)" fill="#bae887" stroke="#77b43a" stroke-width="2"/>
    <path id="Trazado_160443" data-name="Trazado 160443" d="M1012.705,460.789a1.333,1.333,0,0,0-.6-1,2.316,2.316,0,0,0-1.334-.36,2.44,2.44,0,0,0-.989.182,1.582,1.582,0,0,0-.659.493,1.161,1.161,0,0,0-.225.708,1.033,1.033,0,0,0,.153.575,1.5,1.5,0,0,0,.418.407,3.462,3.462,0,0,0,.555.269c.2.07.394.128.571.174l.916.237a6.922,6.922,0,0,1,.916.3,3.825,3.825,0,0,1,.876.493,2.33,2.33,0,0,1,.643.759,2.178,2.178,0,0,1,.257,1.082,2.438,2.438,0,0,1-.418,1.411,2.675,2.675,0,0,1-1.182.973,4.422,4.422,0,0,1-1.865.356,4.51,4.51,0,0,1-1.816-.334,2.79,2.79,0,0,1-1.206-.945,2.681,2.681,0,0,1-.474-1.461h1.415a1.417,1.417,0,0,0,.329.845,1.775,1.775,0,0,0,.739.5,3.055,3.055,0,0,0,1,.159,2.808,2.808,0,0,0,1.061-.187,1.759,1.759,0,0,0,.739-.53,1.228,1.228,0,0,0,.273-.8.972.972,0,0,0-.241-.681,1.7,1.7,0,0,0-.635-.438,6.129,6.129,0,0,0-.9-.306l-1.1-.3a4.345,4.345,0,0,1-1.784-.9,2.024,2.024,0,0,1-.651-1.571,2.35,2.35,0,0,1,.434-1.411,2.929,2.929,0,0,1,1.189-.936,4.057,4.057,0,0,1,1.688-.338,3.99,3.99,0,0,1,1.68.333,2.815,2.815,0,0,1,1.149.918,2.337,2.337,0,0,1,.442,1.333Zm9.05-2.456h1.415v6.151a3.3,3.3,0,0,1-.458,1.74,3.191,3.191,0,0,1-1.3,1.187,4.658,4.658,0,0,1-3.906,0,3.19,3.19,0,0,1-1.3-1.187,3.3,3.3,0,0,1-.458-1.74v-6.151h1.406v6.037a2.262,2.262,0,0,0,.281,1.128,2.08,2.08,0,0,0,.8.776,2.85,2.85,0,0,0,2.459,0,1.9,1.9,0,0,0,.788-.776,2.181,2.181,0,0,0,.281-1.128Zm3.327,9.352v-9.352h3.424a3.633,3.633,0,0,1,1.648.329,2.271,2.271,0,0,1,.981.881,2.41,2.41,0,0,1,.321,1.247,2.057,2.057,0,0,1-.217.987,1.7,1.7,0,0,1-.571.639,2.556,2.556,0,0,1-.788.347v.092a1.86,1.86,0,0,1,.908.3,2.146,2.146,0,0,1,.739.78,2.455,2.455,0,0,1,.3,1.233,2.415,2.415,0,0,1-.346,1.288,2.27,2.27,0,0,1-1.029.9,4.2,4.2,0,0,1-1.784.329Zm1.407-1.21h2.041a2.181,2.181,0,0,0,1.455-.392,1.27,1.27,0,0,0,.434-.982,1.51,1.51,0,0,0-.225-.813,1.581,1.581,0,0,0-.635-.589,2.057,2.057,0,0,0-.98-.219h-2.09Zm0-4.1h1.9a1.952,1.952,0,0,0,.852-.183,1.511,1.511,0,0,0,.611-.511,1.409,1.409,0,0,0,.225-.785,1.291,1.291,0,0,0-.41-.973,1.719,1.719,0,0,0-1.246-.393h-1.929Zm14.989.63a5.666,5.666,0,0,1-.547,2.575,4.058,4.058,0,0,1-1.5,1.653,4.364,4.364,0,0,1-4.332,0,3.981,3.981,0,0,1-1.495-1.657,6.32,6.32,0,0,1,0-5.142,3.951,3.951,0,0,1,1.495-1.653,4.338,4.338,0,0,1,4.332,0,4.023,4.023,0,0,1,1.5,1.653A5.637,5.637,0,0,1,1041.478,463.009Zm-1.4,0a4.436,4.436,0,0,0-.37-1.922,2.689,2.689,0,0,0-1-1.188,2.752,2.752,0,0,0-2.877,0,2.688,2.688,0,0,0-1,1.188,5.194,5.194,0,0,0,0,3.85,2.721,2.721,0,0,0,1,1.187,2.776,2.776,0,0,0,2.877,0,2.722,2.722,0,0,0,1-1.187A4.471,4.471,0,0,0,1040.079,463.009Zm3.014,4.676v-9.352h3.335a3.848,3.848,0,0,1,1.8.374,2.513,2.513,0,0,1,1.085,1.036,3.194,3.194,0,0,1,.354,1.521,3.072,3.072,0,0,1-.362,1.512,2.443,2.443,0,0,1-1.077,1.009,4.014,4.014,0,0,1-1.808.361H1043.9v-1.215h2.4a2.675,2.675,0,0,0,1.109-.2,1.314,1.314,0,0,0,.635-.571,1.851,1.851,0,0,0,.2-.9,1.941,1.941,0,0,0-.2-.918,1.337,1.337,0,0,0-.635-.593,2.6,2.6,0,0,0-1.133-.211h-1.768v8.142Zm4.621-4.219,2.307,4.219h-1.607l-2.266-4.219Zm6.558,4.219h-3.03v-9.352h3.126a4.685,4.685,0,0,1,2.355.561,3.67,3.67,0,0,1,1.511,1.6,5.442,5.442,0,0,1,.53,2.5,5.514,5.514,0,0,1-.53,2.512,3.77,3.77,0,0,1-1.535,1.616A4.9,4.9,0,0,1,1054.273,467.685Zm-1.623-1.233h1.543a3.557,3.557,0,0,0,1.776-.4,2.517,2.517,0,0,0,1.061-1.173,4.544,4.544,0,0,0,.354-1.881,4.485,4.485,0,0,0-.354-1.868,2.506,2.506,0,0,0-1.037-1.165,3.373,3.373,0,0,0-1.712-.4h-1.631Zm9.146-8.119v9.352h-1.415v-9.352Zm9.46,0v9.352h-1.3l-4.75-6.859h-.089v6.859h-1.406v-9.352h1.3l4.758,6.868h.089v-6.868Zm2.708,9.352h-1.5l3.367-9.352h1.631l3.368,9.352h-1.5l-2.644-7.654h-.072Zm.249-3.663h4.855v1.187h-4.855Zm10.85,3.663h-3.03v-9.352h3.126a4.664,4.664,0,0,1,2.355.561,3.733,3.733,0,0,1,1.519,1.6,6.22,6.22,0,0,1-.008,5.01,3.77,3.77,0,0,1-1.535,1.616A4.895,4.895,0,0,1,1085.063,467.685Zm-1.615-1.233h1.535a3.559,3.559,0,0,0,1.776-.4,2.516,2.516,0,0,0,1.061-1.173,4.544,4.544,0,0,0,.354-1.881,4.485,4.485,0,0,0-.354-1.868,2.505,2.505,0,0,0-1.037-1.165,3.373,3.373,0,0,0-1.712-.4h-1.624Zm15.849-3.443a5.668,5.668,0,0,1-.547,2.575,4.058,4.058,0,0,1-1.5,1.653,4.364,4.364,0,0,1-4.332,0,3.984,3.984,0,0,1-1.495-1.657,6.321,6.321,0,0,1,0-5.142,3.954,3.954,0,0,1,1.495-1.653,4.338,4.338,0,0,1,4.332,0,4.023,4.023,0,0,1,1.5,1.653A5.639,5.639,0,0,1,1099.3,463.009Zm-1.4,0a4.434,4.434,0,0,0-.37-1.922,2.688,2.688,0,0,0-1-1.188,2.752,2.752,0,0,0-2.877,0,2.689,2.689,0,0,0-1,1.188,5.2,5.2,0,0,0,0,3.85,2.723,2.723,0,0,0,1,1.187,2.776,2.776,0,0,0,2.877,0,2.721,2.721,0,0,0,1-1.187A4.469,4.469,0,0,0,1097.9,463.009Z" transform="translate(-25.189 1237.982)" fill="#12263f"/>
    <rect id="Rectángulo_40588" data-name="Rectángulo 40588" width="126.564" height="51.437" rx="6" transform="translate(1272.197 1675.125)" fill="#bae887" stroke="#77b43a" stroke-width="2"/>
    <path id="Trazado_160444" data-name="Trazado 160444" d="M1395.143,460.789a1.333,1.333,0,0,0-.6-1,2.315,2.315,0,0,0-1.334-.36,2.48,2.48,0,0,0-1,.182,1.5,1.5,0,0,0-.651.493,1.16,1.16,0,0,0-.225.708,1.034,1.034,0,0,0,.153.575,1.313,1.313,0,0,0,.418.407,2.91,2.91,0,0,0,.555.269c.2.07.386.128.571.174l.916.237a6.917,6.917,0,0,1,.916.3,3.616,3.616,0,0,1,.868.493,2.26,2.26,0,0,1,.651.759,2.177,2.177,0,0,1,.249,1.082,2.492,2.492,0,0,1-.41,1.411,2.767,2.767,0,0,1-1.181.973,4.448,4.448,0,0,1-1.865.356,4.552,4.552,0,0,1-1.825-.334,2.813,2.813,0,0,1-1.2-.945,2.754,2.754,0,0,1-.482-1.461h1.415a1.467,1.467,0,0,0,.329.845,1.8,1.8,0,0,0,.748.5,3.006,3.006,0,0,0,1,.159,2.85,2.85,0,0,0,1.069-.187,1.812,1.812,0,0,0,.74-.53,1.267,1.267,0,0,0,.265-.8.968.968,0,0,0-.233-.681,1.837,1.837,0,0,0-.635-.438,6.122,6.122,0,0,0-.9-.306l-1.109-.3a4.258,4.258,0,0,1-1.776-.9,2.024,2.024,0,0,1-.651-1.571,2.351,2.351,0,0,1,.434-1.411,2.877,2.877,0,0,1,1.189-.936,4.058,4.058,0,0,1,1.688-.338,4.017,4.017,0,0,1,1.68.333,2.868,2.868,0,0,1,1.149.918,2.271,2.271,0,0,1,.434,1.333Zm9.05-2.456h1.415v6.151a3.181,3.181,0,0,1-1.76,2.927,4.677,4.677,0,0,1-3.914,0,3.22,3.22,0,0,1-1.294-1.187,3.3,3.3,0,0,1-.466-1.74v-6.151h1.415v6.037a2.262,2.262,0,0,0,.281,1.128,1.973,1.973,0,0,0,.8.776,2.833,2.833,0,0,0,2.451,0,1.976,1.976,0,0,0,.8-.776,2.262,2.262,0,0,0,.281-1.128Zm3.328,9.352v-9.352h3.424a3.656,3.656,0,0,1,1.648.329,2.249,2.249,0,0,1,.973.881,2.416,2.416,0,0,1,.329,1.247,2.059,2.059,0,0,1-.217.987,1.789,1.789,0,0,1-.579.639,2.51,2.51,0,0,1-.78.347v.092a1.887,1.887,0,0,1,.908.3,2.143,2.143,0,0,1,.739.78,2.451,2.451,0,0,1,.289,1.233,2.484,2.484,0,0,1-.338,1.288,2.311,2.311,0,0,1-1.029.9,4.2,4.2,0,0,1-1.784.329Zm1.406-1.21h2.033a2.151,2.151,0,0,0,1.455-.392,1.251,1.251,0,0,0,.442-.982,1.584,1.584,0,0,0-.225-.813,1.6,1.6,0,0,0-.643-.589,2.025,2.025,0,0,0-.972-.219h-2.09Zm0-4.1h1.889a1.963,1.963,0,0,0,.86-.183,1.491,1.491,0,0,0,.6-.511,1.354,1.354,0,0,0,.233-.785,1.292,1.292,0,0,0-.41-.973,1.731,1.731,0,0,0-1.246-.393h-1.929Zm14.989.63a5.563,5.563,0,0,1-.555,2.575,3.949,3.949,0,0,1-1.5,1.653,4.057,4.057,0,0,1-2.154.575,4.115,4.115,0,0,1-2.17-.575,4.055,4.055,0,0,1-1.5-1.657,6.321,6.321,0,0,1,0-5.142,4.024,4.024,0,0,1,1.5-1.653,4.089,4.089,0,0,1,2.17-.579,4.032,4.032,0,0,1,2.154.579,3.917,3.917,0,0,1,1.5,1.653A5.534,5.534,0,0,1,1423.916,463.009Zm-1.4,0a4.555,4.555,0,0,0-.37-1.922,2.741,2.741,0,0,0-1-1.188,2.767,2.767,0,0,0-2.885,0,2.8,2.8,0,0,0-1,1.188,5.3,5.3,0,0,0,0,3.85,2.834,2.834,0,0,0,1,1.187,2.79,2.79,0,0,0,2.885,0,2.777,2.777,0,0,0,1-1.187A4.591,4.591,0,0,0,1422.518,463.009Zm3.014,4.676v-9.352h3.335a3.848,3.848,0,0,1,1.8.374,2.449,2.449,0,0,1,1.077,1.036,3.1,3.1,0,0,1,.354,1.521,3.068,3.068,0,0,1-.354,1.512,2.484,2.484,0,0,1-1.077,1.009,4.039,4.039,0,0,1-1.808.361h-2.524v-1.215h2.4a2.716,2.716,0,0,0,1.117-.2,1.313,1.313,0,0,0,.635-.571,2.118,2.118,0,0,0-.008-1.818,1.3,1.3,0,0,0-.635-.593,2.542,2.542,0,0,0-1.125-.211h-1.776v8.142Zm4.613-4.219,2.315,4.219h-1.607l-2.267-4.219Zm6.558,4.219h-3.022v-9.352h3.118a4.715,4.715,0,0,1,2.363.561,3.714,3.714,0,0,1,1.511,1.6,6.136,6.136,0,0,1-.008,5.01,3.724,3.724,0,0,1-1.535,1.616A4.9,4.9,0,0,1,1436.7,467.685Zm-1.615-1.233h1.543a3.58,3.58,0,0,0,1.776-.4,2.544,2.544,0,0,0,1.053-1.173,4.418,4.418,0,0,0,.354-1.881,4.361,4.361,0,0,0-.354-1.868,2.423,2.423,0,0,0-1.037-1.165,3.372,3.372,0,0,0-1.712-.4h-1.624Zm9.138-8.119v9.352h-1.406v-9.352Zm9.46,0v9.352h-1.294l-4.75-6.859h-.089v6.859h-1.414v-9.352h1.31l4.758,6.868h.088v-6.868Zm2.708,9.352H1454.9l3.368-9.352h1.624l3.368,9.352h-1.495l-2.644-7.654h-.072Zm.257-3.663h4.854v1.187h-4.854Zm10.842,3.663h-3.022v-9.352h3.118a4.716,4.716,0,0,1,2.363.561,3.667,3.667,0,0,1,1.511,1.6,5.441,5.441,0,0,1,.531,2.5,5.512,5.512,0,0,1-.531,2.512,3.771,3.771,0,0,1-1.535,1.616A4.928,4.928,0,0,1,1467.493,467.685Zm-1.615-1.233h1.543a3.579,3.579,0,0,0,1.776-.4,2.6,2.6,0,0,0,1.061-1.173A4.549,4.549,0,0,0,1470.6,463a4.49,4.49,0,0,0-.346-1.868,2.5,2.5,0,0,0-1.037-1.165,3.414,3.414,0,0,0-1.712-.4h-1.632Zm15.857-3.443a5.566,5.566,0,0,1-.554,2.575,3.951,3.951,0,0,1-1.5,1.653,4.059,4.059,0,0,1-2.154.575,4.115,4.115,0,0,1-2.17-.575,4.054,4.054,0,0,1-1.5-1.657,6.321,6.321,0,0,1,0-5.142,4.023,4.023,0,0,1,1.5-1.653,4.089,4.089,0,0,1,2.17-.579,4.033,4.033,0,0,1,2.154.579,3.918,3.918,0,0,1,1.5,1.653A5.537,5.537,0,0,1,1481.735,463.009Zm-1.4,0a4.555,4.555,0,0,0-.37-1.922,2.741,2.741,0,0,0-1-1.188,2.767,2.767,0,0,0-2.885,0,2.8,2.8,0,0,0-1,1.188,5.3,5.3,0,0,0,0,3.85,2.832,2.832,0,0,0,1,1.187,2.79,2.79,0,0,0,2.885,0,2.777,2.777,0,0,0,1-1.187A4.591,4.591,0,0,0,1480.336,463.009Z" transform="translate(-100.257 1237.982)" fill="#12263f"/>
    <path id="Trazado_160445" data-name="Trazado 160445" d="M206.638,371.706a1.206,1.206,0,0,0-2.411,0Zm73.454,45.861a1.207,1.207,0,0,0,1.705,0l7.672-7.672a1.206,1.206,0,0,0-1.705-1.705l-6.819,6.82-6.819-6.82a1.206,1.206,0,0,0-1.7,1.705Zm-75.865-45.861v3.215h2.411v-3.215Zm20.495,23.709h36.935V393H224.722ZM279.74,413.5v3.215h2.411V413.5Zm-18.083-18.083A18.083,18.083,0,0,1,279.74,413.5h2.411A20.5,20.5,0,0,0,261.656,393ZM204.227,374.92a20.5,20.5,0,0,0,20.495,20.495V393a18.084,18.084,0,0,1-18.083-18.083Z" transform="translate(132.433 1255.197)" fill="#838cfc"/>
    <path id="Trazado_160446" data-name="Trazado 160446" d="M185.673,371.706a1.206,1.206,0,0,0-2.411,0Zm-80.23,45.861a1.207,1.207,0,0,0,1.705,0l7.672-7.672a1.206,1.206,0,0,0-1.705-1.705l-6.819,6.82-6.82-6.82a1.206,1.206,0,0,0-1.7,1.705Zm77.818-45.861v15.968h2.411V371.706Zm-78.171,29.04v15.968H107.5V400.745ZM112.832,393a7.741,7.741,0,0,0-7.741,7.741H107.5a5.33,5.33,0,0,1,5.33-5.33Zm70.43-5.33a5.33,5.33,0,0,1-5.329,5.33v2.411a7.741,7.741,0,0,0,7.741-7.741Z" transform="translate(153.398 1255.197)" fill="#838cfc"/>
    <path id="Trazado_160447" data-name="Trazado 160447" d="M135.638,394.364v9.352H133.93l-4.069-5.886h-.068v5.886h-1.977v-9.352h1.735l4.037,5.882h.082v-5.882Zm3.47,0v9.352h-1.978v-9.352Zm3.175,0,2.261,7.106h.086l2.266-7.106h2.192l-3.224,9.352h-2.549l-3.229-9.352Zm7.789,9.352v-9.352h6.3v1.63h-4.324v2.229h4v1.63h-4v2.233h4.342v1.63Zm7.732,0v-9.352h1.978v7.722h4.009v1.63Zm9.793-1.644v-1.558l3.9-6.151h1.343v2.155h-.795l-2.461,3.9v.073h5.548v1.585Zm4.49,1.644V401.6l.036-.69v-6.544h1.854v9.352Z" transform="translate(147.432 1250.514)" fill="#12263f"/>
    <path id="Trazado_160448" data-name="Trazado 160448" d="M556.506,371.706a1.206,1.206,0,1,0-2.411,0ZM487.88,417.566a1.206,1.206,0,0,0,1.7,0l7.672-7.672a1.206,1.206,0,0,0-1.705-1.705l-6.819,6.82-6.82-6.82a1.206,1.206,0,0,0-1.7,1.705ZM554.1,371.706v3.215h2.411v-3.215ZM536.012,393H508.021v2.411h27.991ZM487.526,413.5v3.215h2.411V413.5ZM508.021,393A20.5,20.5,0,0,0,487.526,413.5h2.411a18.084,18.084,0,0,1,18.084-18.083ZM554.1,374.92A18.083,18.083,0,0,1,536.012,393v2.411a20.494,20.494,0,0,0,20.495-20.495Z" transform="translate(78.33 1255.197)" fill="#838cfc"/>
    <path id="Trazado_160449" data-name="Trazado 160449" d="M574.638,371.706a1.206,1.206,0,0,0-2.411,0ZM659.7,417.566a1.206,1.206,0,0,0,1.7,0l7.672-7.672a1.206,1.206,0,0,0-1.7-1.705l-6.82,6.82-6.819-6.82a1.206,1.206,0,0,0-1.7,1.705Zm-87.469-45.861v3.215h2.411v-3.215Zm20.495,23.709h48.537V393H592.722Zm66.62,18.083v3.215h2.411V413.5Zm-18.083-18.083A18.083,18.083,0,0,1,659.342,413.5h2.411A20.494,20.494,0,0,0,641.258,393ZM572.227,374.92a20.5,20.5,0,0,0,20.495,20.495V393a18.084,18.084,0,0,1-18.083-18.083Z" transform="translate(60.198 1255.197)" fill="#838cfc"/>
    <path id="Trazado_160450" data-name="Trazado 160450" d="M953.059,371.706a1.206,1.206,0,0,0-2.411,0Zm-82.743,45.861a1.206,1.206,0,0,0,1.7,0l7.672-7.672a1.206,1.206,0,0,0-1.7-1.705l-6.82,6.82-6.819-6.82a1.206,1.206,0,0,0-1.7,1.705Zm80.332-45.861v3.215h2.411v-3.215ZM932.564,393H890.457v2.411h42.107Zm-62.6,20.495v3.215h2.411V413.5ZM890.457,393A20.5,20.5,0,0,0,869.962,413.5h2.411a18.084,18.084,0,0,1,18.083-18.083Zm60.191-18.083A18.083,18.083,0,0,1,932.564,393v2.411a20.494,20.494,0,0,0,20.495-20.495Z" transform="translate(3.262 1255.197)" fill="#838cfc"/>
    <path id="Trazado_160451" data-name="Trazado 160451" d="M974.638,371.706a1.206,1.206,0,0,0-2.411,0Zm70.938,45.861a1.215,1.215,0,0,0,1.712,0l7.667-7.672a1.205,1.205,0,0,0-1.7-1.705l-6.824,6.82-6.815-6.82a1.205,1.205,0,0,0-1.7,1.705Zm-73.349-45.861v3.215h2.411v-3.215Zm20.495,23.709h34.417V393H992.721Zm52.5,18.083v3.215h2.411V413.5Zm-18.083-18.083a18.082,18.082,0,0,1,18.083,18.083h2.411A20.491,20.491,0,0,0,1027.139,393ZM972.227,374.92a20.5,20.5,0,0,0,20.495,20.495V393a18.084,18.084,0,0,1-18.083-18.083Z" transform="translate(-18.317 1255.197)" fill="#838cfc"/>
    <path id="Trazado_160452" data-name="Trazado 160452" d="M1323.895,371.706a1.206,1.206,0,1,0-2.411,0Zm-71.145,45.861a1.205,1.205,0,0,0,1.7,0l7.676-7.672a1.205,1.205,0,0,0-1.7-1.705l-6.823,6.82-6.815-6.82a1.205,1.205,0,0,0-1.7,1.705Zm68.733-45.861v3.215h2.411v-3.215ZM1303.4,393h-30.509v2.411H1303.4Zm-51,20.495v3.215h2.411V413.5ZM1272.891,393A20.5,20.5,0,0,0,1252.4,413.5h2.411a18.087,18.087,0,0,1,18.083-18.083Zm48.592-18.083A18.087,18.087,0,0,1,1303.4,393v2.411a20.5,20.5,0,0,0,20.495-20.495Z" transform="translate(-71.807 1255.197)" fill="#838cfc"/>
    <path id="Trazado_160453" data-name="Trazado 160453" d="M1342.641,371.706a1.206,1.206,0,1,0-2.411,0Zm82.541,45.861a1.205,1.205,0,0,0,1.7,0l7.675-7.672a1.205,1.205,0,0,0-1.7-1.705l-6.824,6.82-6.815-6.82a1.208,1.208,0,0,0-1.712,1.705Zm-84.952-45.861v3.215h2.411v-3.215Zm20.495,23.709h46.021V393h-46.021Zm64.1,18.083v3.215h2.411V413.5Zm-18.083-18.083a18.082,18.082,0,0,1,18.083,18.083h2.411A20.5,20.5,0,0,0,1406.745,393ZM1340.23,374.92a20.491,20.491,0,0,0,20.495,20.495V393a18.082,18.082,0,0,1-18.083-18.083Z" transform="translate(-90.553 1255.197)" fill="#838cfc"/>
    <path id="Trazado_160454" data-name="Trazado 160454" d="M1117.082,258.869H989.507v2.411h127.575Zm-127.575,0a17.28,17.28,0,0,0-17.28,17.28h2.411a14.869,14.869,0,0,1,14.869-14.869ZM1131.951,244a14.867,14.867,0,0,1-14.869,14.869v2.411a17.277,17.277,0,0,0,17.28-17.28Z" transform="translate(-18.317 1280.027)" fill="#838cfc"/>
    <path id="Trazado_160455" data-name="Trazado 160455" d="M1188.24,261.28h103.9v-2.411h-103.9Zm103.9,0A14.873,14.873,0,0,1,1307,276.148h2.411a17.282,17.282,0,0,0-17.28-17.28ZM1170.96,244a17.282,17.282,0,0,0,17.28,17.28v-2.411A14.873,14.873,0,0,1,1173.371,244Z" transform="translate(-57.326 1280.027)" fill="#838cfc"/>
    <path id="Trazado_160456" data-name="Trazado 160456" d="M420.244,261.28h103.89v-2.411H420.244Zm103.89,0A14.869,14.869,0,0,1,539,276.148h2.411a17.28,17.28,0,0,0-17.28-17.28ZM402.964,244a17.28,17.28,0,0,0,17.28,17.28v-2.411A14.869,14.869,0,0,1,405.375,244Z" transform="translate(93.423 1280.027)" fill="#838cfc"/>
    <path id="Trazado_160457" data-name="Trazado 160457" d="M349.085,258.869h-31.64v2.411h31.64Zm-95.937,0H221.507v2.411h31.641Zm-31.641,0a17.28,17.28,0,0,0-17.28,17.28h2.411a14.869,14.869,0,0,1,14.869-14.869ZM363.954,244a14.869,14.869,0,0,1-14.869,14.869v2.411A17.28,17.28,0,0,0,366.365,244Z" transform="translate(132.433 1280.027)" fill="#838cfc"/>
    <path id="Trazado_160458" data-name="Trazado 160458" d="M284.02,258.333v9.352h-1.708l-4.069-5.886h-.068v5.886H276.2v-9.352h1.735l4.036,5.882h.083v-5.882Zm3.469,0v9.352h-1.977v-9.352Zm3.175,0,2.26,7.106h.087l2.265-7.106h2.193l-3.224,9.352H291.7l-3.229-9.352Zm7.788,9.352v-9.352h6.3v1.63h-4.324v2.229h4v1.63h-4v2.233h4.342v1.63Zm7.732,0v-9.352h1.977v7.722h4.01v1.63Zm9.935,0V266.26l3.329-3.082q.426-.411.713-.739a2.816,2.816,0,0,0,.443-.645,1.6,1.6,0,0,0,.15-.69,1.294,1.294,0,0,0-.187-.707,1.229,1.229,0,0,0-.511-.461,1.608,1.608,0,0,0-.735-.165,1.548,1.548,0,0,0-.749.174,1.2,1.2,0,0,0-.493.5,1.613,1.613,0,0,0-.174.772h-1.877a2.979,2.979,0,0,1,.415-1.594,2.767,2.767,0,0,1,1.165-1.046,3.846,3.846,0,0,1,1.726-.37,4,4,0,0,1,1.749.356,2.764,2.764,0,0,1,1.165.977,2.529,2.529,0,0,1,.415,1.434,2.756,2.756,0,0,1-.21,1.046,4.377,4.377,0,0,1-.735,1.146,16.918,16.918,0,0,1-1.493,1.5L318.86,266v.064h3.928v1.616Z" transform="translate(118.306 1277.24)" fill="#12263f"/>
    <path id="Trazado_160459" data-name="Trazado 160459" d="M142.562,270.514v9.353h-1.708l-4.069-5.886h-.068v5.886h-1.977v-9.353h1.735l4.036,5.882h.083v-5.882Zm3.47,0v9.353h-1.978v-9.353Zm3.175,0,2.26,7.106h.087l2.266-7.106h2.192l-3.224,9.353h-2.548l-3.229-9.353Zm7.788,9.353v-9.353h6.3v1.631h-4.324v2.229h4V276h-4v2.233h4.342v1.631Zm7.732,0v-9.353H166.7v7.722h4.009v1.631Zm13.391.128a4.479,4.479,0,0,1-1.822-.352,3.107,3.107,0,0,1-1.255-.977,2.455,2.455,0,0,1-.47-1.443h1.991a1.04,1.04,0,0,0,.223.6,1.38,1.38,0,0,0,.558.4,2.037,2.037,0,0,0,.78.142,1.9,1.9,0,0,0,.8-.16,1.321,1.321,0,0,0,.544-.443,1.118,1.118,0,0,0,.2-.653,1.1,1.1,0,0,0-.21-.662,1.345,1.345,0,0,0-.594-.456,2.313,2.313,0,0,0-.913-.165h-.873v-1.452h.873a1.9,1.9,0,0,0,.79-.156,1.268,1.268,0,0,0,.538-.429,1.154,1.154,0,0,0-.443-1.685,1.514,1.514,0,0,0-.694-.151,1.818,1.818,0,0,0-.735.146,1.279,1.279,0,0,0-.534.407,1.063,1.063,0,0,0-.215.62h-1.9a2.427,2.427,0,0,1,.461-1.424,2.988,2.988,0,0,1,1.206-.964,4.059,4.059,0,0,1,1.722-.352,3.844,3.844,0,0,1,1.694.352,2.778,2.778,0,0,1,1.128.95,2.278,2.278,0,0,1,.4,1.333,1.822,1.822,0,0,1-.489,1.31,2.22,2.22,0,0,1-1.274.667v.073a2.483,2.483,0,0,1,1.57.717,2.023,2.023,0,0,1,.539,1.452,2.282,2.282,0,0,1-.461,1.42,3.1,3.1,0,0,1-1.274.977A4.611,4.611,0,0,1,178.118,279.994Z" transform="translate(146.072 1274.848)" fill="#12263f"/>
    <path id="Trazado_160460" data-name="Trazado 160460" d="M886.552,227.875l10.688-19.135a2.411,2.411,0,0,0-2.088-3.617l-21.915-.311a2.411,2.411,0,0,0-2.087,3.617l11.227,19.446A2.411,2.411,0,0,0,886.552,227.875Z" transform="translate(1.588 1287.721)" fill="#f85316"/>
    <path id="Trazado_160461" data-name="Trazado 160461" d="M689.822,306.307l-10.688,19.135a2.411,2.411,0,0,0,2.089,3.617l21.915.312a2.411,2.411,0,0,0,2.087-3.617L694,306.307A2.411,2.411,0,0,0,689.822,306.307Z" transform="translate(39.277 1268.035)" fill="#f85316"/>
    <rect id="Rectángulo_40589" data-name="Rectángulo 40589" width="14.344" height="180.871" rx="3" transform="translate(881.893 1495.098) rotate(60)" fill="#f85316"/>
    <path id="Trazado_160462" data-name="Trazado 160462" d="M1504.685,37.029l-11.228-18.823a2.413,2.413,0,0,0-4.179,0l-11.228,18.823a2.412,2.412,0,0,0,2.09,3.616H1502.6A2.412,2.412,0,0,0,1504.685,37.029Z" transform="translate(-117.541 1324.586)" fill="#f85316"/>
    <rect id="Rectángulo_40590" data-name="Rectángulo 40590" width="14.344" height="296.657" rx="3" transform="translate(1380.956 1649.406) rotate(180)" fill="#f85316"/>
    <path id="Trazado_160463" data-name="Trazado 160463" d="M1162.759,560.325l-18.823,11.228a2.412,2.412,0,0,0,0,4.177l18.823,11.227a2.412,2.412,0,0,0,3.617-2.089V562.414A2.412,2.412,0,0,0,1162.759,560.325Z" transform="translate(-51.785 1218)" fill="#f85316"/>
    <rect id="Rectángulo_40591" data-name="Rectángulo 40591" width="14.344" height="296.657" rx="3" transform="translate(1398.766 1784.51) rotate(90)" fill="#f85316"/>
    <path id="Trazado_160464" data-name="Trazado 160464" d="M385.923,586.957l18.823-11.227a2.411,2.411,0,0,0,0-4.177l-18.823-11.228a2.411,2.411,0,0,0-3.616,2.089v22.454A2.411,2.411,0,0,0,385.923,586.957Z" transform="translate(97.478 1218)" fill="#f85316"/>
    <rect id="Rectángulo_40592" data-name="Rectángulo 40592" width="14.344" height="296.657" rx="3" transform="translate(195.608 1798.775) rotate(-90)" fill="#f85316"/>
    <path id="Trazado_160465" data-name="Trazado 160465" d="M702.244,581.8V567.771h2.966v5.788h6.021v-5.788h2.959V581.8h-2.959V576H705.21v5.8Zm26.916-7.015a8.107,8.107,0,0,1-.87,3.9,6.026,6.026,0,0,1-2.356,2.459,7.057,7.057,0,0,1-6.7-.006,6.05,6.05,0,0,1-2.349-2.459,9.246,9.246,0,0,1,0-7.8,6,6,0,0,1,2.349-2.452,7.034,7.034,0,0,1,6.7,0,5.987,5.987,0,0,1,2.356,2.452A8.11,8.11,0,0,1,729.16,574.785Zm-3.007,0a6.272,6.272,0,0,0-.445-2.507,3.4,3.4,0,0,0-1.24-1.548,3.6,3.6,0,0,0-3.753,0,3.432,3.432,0,0,0-1.247,1.548,7.38,7.38,0,0,0,0,5.014,3.435,3.435,0,0,0,1.247,1.548,3.6,3.6,0,0,0,3.753,0,3.4,3.4,0,0,0,1.24-1.548A6.276,6.276,0,0,0,726.154,574.785Zm4.838,7.015V567.771h5.534a5.943,5.943,0,0,1,2.713.569,3.935,3.935,0,0,1,1.72,1.6,4.74,4.74,0,0,1,.6,2.418,4.594,4.594,0,0,1-.6,2.4,3.9,3.9,0,0,1-1.746,1.534,6.427,6.427,0,0,1-2.754.534h-3.706v-2.384h3.226a3.708,3.708,0,0,0,1.411-.232,1.681,1.681,0,0,0,.836-.7,2.212,2.212,0,0,0,.281-1.157,2.3,2.3,0,0,0-.281-1.178,1.72,1.72,0,0,0-.843-.726,3.446,3.446,0,0,0-1.418-.254h-2v11.6Zm7.576-6.384,3.487,6.384h-3.274l-3.411-6.384Zm7.682-7.645V581.8h-2.966V567.771Zm1.923,14.029v-1.761l7-9.822h-7.014v-2.446H758.9v1.76l-7.008,9.823h7.021V581.8Zm24.882-7.015a8.107,8.107,0,0,1-.87,3.9,6.023,6.023,0,0,1-2.356,2.459,7.059,7.059,0,0,1-6.7-.006,6.051,6.051,0,0,1-2.349-2.459,9.246,9.246,0,0,1,0-7.8,6,6,0,0,1,2.349-2.452,7.035,7.035,0,0,1,6.7,0,5.985,5.985,0,0,1,2.356,2.452A8.111,8.111,0,0,1,773.054,574.785Zm-3.008,0a6.256,6.256,0,0,0-.445-2.507,3.389,3.389,0,0,0-1.239-1.548,3.606,3.606,0,0,0-3.754,0,3.443,3.443,0,0,0-1.246,1.548,7.394,7.394,0,0,0,0,5.014,3.447,3.447,0,0,0,1.246,1.548,3.605,3.605,0,0,0,3.754,0,3.392,3.392,0,0,0,1.239-1.548A6.26,6.26,0,0,0,770.047,574.785Zm16.572-7.014V581.8h-2.562l-6.1-8.83h-.1v8.83h-2.966V567.771h2.6l6.055,8.822h.124v-8.822Zm1.549,2.446v-2.446h11.521v2.446h-4.294V581.8h-2.932V570.217ZM801.924,581.8h-3.179l4.843-14.029h3.822l4.836,14.029h-3.179l-3.514-10.823h-.109Zm-.2-5.514h7.507V578.6h-7.507Zm11.843,5.514V567.771h2.966v11.583h6.014V581.8Z" transform="translate(34.678 1216.512)" fill="#12263f"/>
    <path id="Trazado_160466" data-name="Trazado 160466" d="M23.527,260.876v4.973H9.5v-5.014a7.437,7.437,0,0,1,.842-3.644,5.684,5.684,0,0,1,2.4-2.349,7.932,7.932,0,0,1,3.754-.829,7.989,7.989,0,0,1,3.767.829,5.7,5.7,0,0,1,2.418,2.363A7.522,7.522,0,0,1,23.527,260.876Zm-2.541,2.008V261a4.762,4.762,0,0,0-.466-2.213,3,3,0,0,0-1.459-1.356,6.134,6.134,0,0,0-2.562-.46,6.047,6.047,0,0,0-2.541.46,2.971,2.971,0,0,0-1.452,1.349,4.765,4.765,0,0,0-.466,2.213v1.891Zm2.541-10.7H9.5V242.73h2.445v6.487h3.343v-6h2.445v6h3.35V242.7h2.445Zm-9.994-19.054a1.733,1.733,0,0,0-1.288.706,2.8,2.8,0,0,0-.459,1.692,3.228,3.228,0,0,0,.206,1.226,1.728,1.728,0,0,0,.555.768,1.335,1.335,0,0,0,.808.26,1.157,1.157,0,0,0,.658-.158,1.652,1.652,0,0,0,.486-.486,3.69,3.69,0,0,0,.349-.713,7.392,7.392,0,0,0,.247-.862l.3-1.261a8.887,8.887,0,0,1,.548-1.685,5.116,5.116,0,0,1,.843-1.329,3.5,3.5,0,0,1,1.178-.87,3.731,3.731,0,0,1,1.555-.322,3.879,3.879,0,0,1,2.233.658,4.171,4.171,0,0,1,1.459,1.863,7.479,7.479,0,0,1,.514,2.925,7.72,7.72,0,0,1-.521,2.959,4.331,4.331,0,0,1-1.541,1.959,4.6,4.6,0,0,1-2.541.733v-2.87a2.152,2.152,0,0,0,1.178-.4,2.244,2.244,0,0,0,.705-.965,3.837,3.837,0,0,0,.233-1.377,3.552,3.552,0,0,0-.219-1.308,2.009,2.009,0,0,0-.61-.87,1.411,1.411,0,0,0-.9-.308,1.166,1.166,0,0,0-.795.281,2.137,2.137,0,0,0-.548.809,8.19,8.19,0,0,0-.411,1.295L17.376,237a6.4,6.4,0,0,1-1.349,2.8,3.13,3.13,0,0,1-2.473,1.021,3.676,3.676,0,0,1-2.226-.678,4.576,4.576,0,0,1-1.486-1.9,6.7,6.7,0,0,1-.534-2.74,6.484,6.484,0,0,1,.534-2.726,4.317,4.317,0,0,1,1.486-1.822,3.931,3.931,0,0,1,2.206-.671Zm.877-17.04v3a2.935,2.935,0,0,0-1.034.335,2.624,2.624,0,0,0-.781.651,2.857,2.857,0,0,0-.493.918,3.508,3.508,0,0,0-.171,1.116,3.333,3.333,0,0,0,.541,1.9,3.463,3.463,0,0,0,1.562,1.254,6.193,6.193,0,0,0,2.48.444,6.312,6.312,0,0,0,2.521-.444A3.413,3.413,0,0,0,20.575,224a3.376,3.376,0,0,0,.521-1.869,3.7,3.7,0,0,0-.158-1.1,2.893,2.893,0,0,0-.459-.911,2.641,2.641,0,0,0-.747-.657,2.9,2.9,0,0,0-1-.37l.014-3a5.423,5.423,0,0,1,1.863.582,5.6,5.6,0,0,1,1.6,1.24,5.834,5.834,0,0,1,1.11,1.849,6.8,6.8,0,0,1,.4,2.418,6.618,6.618,0,0,1-.849,3.356,6.027,6.027,0,0,1-2.459,2.329,8.255,8.255,0,0,1-3.9.85,8.165,8.165,0,0,1-3.9-.863,6.011,6.011,0,0,1-2.452-2.343,6.565,6.565,0,0,1-.849-3.329,7.191,7.191,0,0,1,.342-2.26,5.73,5.73,0,0,1,1-1.857,5.143,5.143,0,0,1,1.6-1.315A5.947,5.947,0,0,1,14.41,216.088Zm9.117-1.761H9.5v-9.452h2.445v6.487h3.343v-6h2.445v6h3.35v-6.514h2.445ZM9.5,191.15H23.527v2.561l-8.829,6.1v.1h8.829v2.966H9.5v-2.6l8.823-6.055V194.1H9.5Zm14.028-7.057v4.973H9.5v-5.014a7.435,7.435,0,0,1,.842-3.644,5.686,5.686,0,0,1,2.4-2.35,7.941,7.941,0,0,1,3.754-.829,8,8,0,0,1,3.767.829,5.7,5.7,0,0,1,2.418,2.364A7.52,7.52,0,0,1,23.527,184.092ZM20.986,186.1v-1.884A4.761,4.761,0,0,0,20.52,182a3,3,0,0,0-1.459-1.357,6.135,6.135,0,0,0-2.562-.459,6.048,6.048,0,0,0-2.541.459A2.973,2.973,0,0,0,12.506,182a4.763,4.763,0,0,0-.466,2.213v1.89Zm2.541-10.7H9.5v-9.453h2.445v6.487h3.343v-6h2.445v6h3.35v-6.514h2.445ZM9.5,152.22H23.527v2.561l-8.829,6.1v.1h8.829v2.966H9.5v-2.6l8.823-6.055v-.124H9.5Zm2.445-1.55H9.5V139.149h2.445v4.3H23.527v2.932H11.944Zm11.583-13.052H9.5v-9.453h2.445v6.487h3.343v-6h2.445v6h3.35v-6.514h2.445Z" transform="translate(170.693 1302.77)" fill="#12263f"/>
    <path id="Trazado_160467" data-name="Trazado 160467" d="M1534.4,136.75v-3.179l14.033,4.843v3.822l-14.033,4.836v-3.178l10.826-3.514v-.11Zm5.521-.2v7.507H1537.6V136.55Zm4.477,19.133a1.725,1.725,0,0,0,1.286-.7,2.8,2.8,0,0,0,.458-1.692,3.242,3.242,0,0,0-.2-1.226,1.793,1.793,0,0,0-.555-.768,1.349,1.349,0,0,0-.812-.26,1.17,1.17,0,0,0-.659.158,1.646,1.646,0,0,0-.482.486,3.685,3.685,0,0,0-.354.712,6.536,6.536,0,0,0-.241.863l-.305,1.26a9.128,9.128,0,0,1-.546,1.685,4.936,4.936,0,0,1-.844,1.329,3.456,3.456,0,0,1-1.173.87,3.751,3.751,0,0,1-1.559.322,3.89,3.89,0,0,1-2.234-.657,4.149,4.149,0,0,1-1.455-1.863,7.431,7.431,0,0,1-.514-2.926,7.591,7.591,0,0,1,.522-2.958,4.348,4.348,0,0,1,1.535-1.959,4.638,4.638,0,0,1,2.54-.733v2.87a2.15,2.15,0,0,0-1.173.4,2.233,2.233,0,0,0-.707.966,3.887,3.887,0,0,0-.233,1.377,3.59,3.59,0,0,0,.217,1.308,2.091,2.091,0,0,0,.611.87,1.425,1.425,0,0,0,.9.309,1.175,1.175,0,0,0,.8-.281,2.216,2.216,0,0,0,.547-.808,7.8,7.8,0,0,0,.41-1.295l.386-1.528a6.442,6.442,0,0,1,1.35-2.8,3.12,3.12,0,0,1,2.468-1.021,3.677,3.677,0,0,1,2.226.678,4.556,4.556,0,0,1,1.487,1.9,6.606,6.606,0,0,1,.539,2.74,6.394,6.394,0,0,1-.539,2.726,4.293,4.293,0,0,1-1.487,1.822,3.92,3.92,0,0,1-2.2.671Zm-.876,17.041v-3a2.976,2.976,0,0,0,1.037-.336,2.665,2.665,0,0,0,.78-.65,2.949,2.949,0,0,0,.49-.918A3.564,3.564,0,0,0,1546,166.7a3.318,3.318,0,0,0-.539-1.9,3.441,3.441,0,0,0-1.559-1.254,7.238,7.238,0,0,0-5,0,3.257,3.257,0,0,0-2.065,3.13,3.714,3.714,0,0,0,.161,1.1,2.893,2.893,0,0,0,.458.911,2.527,2.527,0,0,0,.748.657,2.848,2.848,0,0,0,1,.37l-.016,3a5.373,5.373,0,0,1-1.857-.583,5.524,5.524,0,0,1-1.6-1.239,5.814,5.814,0,0,1-1.109-1.849,7.248,7.248,0,0,1,.442-5.775,6.086,6.086,0,0,1,2.459-2.329,8.272,8.272,0,0,1,3.9-.85,8.167,8.167,0,0,1,3.906.863,5.994,5.994,0,0,1,2.451,2.343,6.524,6.524,0,0,1,.852,3.329,7.059,7.059,0,0,1-.346,2.261,5.741,5.741,0,0,1-1,1.856,5.11,5.11,0,0,1-1.6,1.316A5.919,5.919,0,0,1,1543.525,172.725Zm-9.122,1.76h14.033v9.453h-2.443v-6.487h-3.344v6H1540.2v-6h-3.344v6.514H1534.4Zm14.033,23.178H1534.4V195.1l8.833-6.1v-.1H1534.4v-2.966h14.033v2.6l-8.825,6.055v.124h8.825Zm-14.033,7.057v-4.973h14.033v5.014a7.428,7.428,0,0,1-.844,3.644,5.672,5.672,0,0,1-2.4,2.349,8.952,8.952,0,0,1-7.523,0,5.691,5.691,0,0,1-2.419-2.363A7.514,7.514,0,0,1,1534.4,204.719Zm2.548-2.007V204.6a4.726,4.726,0,0,0,.466,2.213,2.975,2.975,0,0,0,1.455,1.356,6.163,6.163,0,0,0,2.564.459,6.042,6.042,0,0,0,2.54-.459,2.979,2.979,0,0,0,1.455-1.349,4.826,4.826,0,0,0,.466-2.212v-1.891Zm-2.548,10.7h14.033v9.452h-2.443V216.38h-3.344v6H1540.2v-6h-3.344v6.514H1534.4Zm14.033,23.178H1534.4V234.03l8.833-6.1v-.1H1534.4v-2.967h14.033v2.6l-8.825,6.055v.123h8.825Zm-2.443,1.55h2.443v11.521h-2.443v-4.3H1534.4v-2.931h11.59Zm-11.59,13.052h14.033v9.452h-2.443V254.16h-3.344v6H1540.2v-6h-3.344v6.514H1534.4Z" transform="translate(-128.629 1301.703)" fill="#12263f"/>
    <path id="Trazado_160468" data-name="Trazado 160468" d="M727.771,260.791l-4.307,2.487-7.014-12.149,4.342-2.508a7.43,7.43,0,0,1,3.577-1.092,5.683,5.683,0,0,1,3.237.907,8.947,8.947,0,0,1,3.761,6.513,5.693,5.693,0,0,1-.837,3.276A7.519,7.519,0,0,1,727.771,260.791Zm-3.009-1.2,1.632-.942a4.752,4.752,0,0,0,1.683-1.509,3,3,0,0,0,.445-1.942,6.131,6.131,0,0,0-.883-2.448,6.058,6.058,0,0,0-1.668-1.971,2.971,2.971,0,0,0-1.894-.583,4.763,4.763,0,0,0-2.149.7l-1.637.945Zm6.093-16.781,7.014,12.149-2.569,1.483L728.286,244.3Zm10.9,9.9-2.753,1.589-2.82-14.57,3.31-1.911,11.2,9.731-2.753,1.589-8.454-7.616-.095.055Zm-2.929-4.676,6.5-3.754,1.157,2.005-6.5,3.753Zm15.751-13.69a3.079,3.079,0,0,0-.792-.563,2.475,2.475,0,0,0-.881-.251,2.711,2.711,0,0,0-.944.063,3.584,3.584,0,0,0-.979.4,3.367,3.367,0,0,0-1.37,1.408,3.5,3.5,0,0,0-.314,1.976,6.078,6.078,0,0,0,.849,2.373,6.244,6.244,0,0,0,1.631,1.937,3.483,3.483,0,0,0,1.876.728,3.426,3.426,0,0,0,1.935-.5,3.81,3.81,0,0,0,1.311-1.168,2.554,2.554,0,0,0,.439-1.432,3.033,3.033,0,0,0-.445-1.538l.567-.224-3.132,1.808-1.117-1.934L758.3,234.5l.883,1.53a6.167,6.167,0,0,1,.913,3.143,5.324,5.324,0,0,1-.842,2.844,7.3,7.3,0,0,1-5.8,3.165,6.04,6.04,0,0,1-3.26-.989,8.31,8.31,0,0,1-2.636-2.907,8.74,8.74,0,0,1-1.093-2.881,6.482,6.482,0,0,1,.073-2.668,6.034,6.034,0,0,1,1.1-2.273,7.156,7.156,0,0,1,4.09-2.519,5.9,5.9,0,0,1,2.064-.069,5.259,5.259,0,0,1,1.883.645,5.081,5.081,0,0,1,1.516,1.324Zm16.739-6.8a8.113,8.113,0,0,1,1.2,3.816,6.042,6.042,0,0,1-.811,3.308,7.056,7.056,0,0,1-5.805,3.343,6.054,6.054,0,0,1-3.265-.955,9.251,9.251,0,0,1-3.9-6.757,5.994,5.994,0,0,1,.809-3.3,7.031,7.031,0,0,1,5.8-3.35,5.986,5.986,0,0,1,3.267.946A8.111,8.111,0,0,1,771.32,227.549Zm-2.6,1.5a6.275,6.275,0,0,0-1.639-1.948,3.4,3.4,0,0,0-1.848-.721,3.606,3.606,0,0,0-3.251,1.877,3.432,3.432,0,0,0-.305,1.964,7.388,7.388,0,0,0,2.507,4.342,3.434,3.434,0,0,0,1.853.717,3.6,3.6,0,0,0,3.251-1.877,3.393,3.393,0,0,0,.3-1.96A6.285,6.285,0,0,0,768.716,229.052Zm10.844-14.36,7.014,12.149-2.219,1.281-9.7-4.595-.089.051,4.415,7.647-2.569,1.483L769.4,220.559l2.254-1.3,9.655,4.613.107-.062L777,216.169Zm10.913,9.9-2.753,1.59-2.82-14.57,3.31-1.911,11.2,9.731-2.753,1.589-8.454-7.616-.095.055Zm-2.93-4.676,6.5-3.753,1.157,2.005-6.5,3.753Zm13.014-1.146-7.014-12.149,2.569-1.483,5.792,10.031,5.208-3.007,1.223,2.118Z" transform="translate(31.889 1287.656)" fill="#1e1e1e"/>
    <path id="Trazado_160469" data-name="Trazado 160469" d="M42.053,374.2,53.28,393.019a2.411,2.411,0,0,0,4.177,0L68.684,374.2A2.411,2.411,0,0,0,66.6,370.58H44.142A2.411,2.411,0,0,0,42.053,374.2Z" transform="translate(164.33 1255.182)" fill="#f85316"/>
    <rect id="Rectángulo_40593" data-name="Rectángulo 40593" width="14.344" height="296.657" rx="3" transform="translate(212.566 1341.586)" fill="#f85316"/>
    <path id="Trazado_160470" data-name="Trazado 160470" d="M774.638,83.706a1.206,1.206,0,1,0-2.411,0Zm318.409,71.579a1.205,1.205,0,0,0,1.7,0l7.675-7.672a1.205,1.205,0,1,0-1.7-1.705l-6.823,6.82-6.815-6.82a1.205,1.205,0,1,0-1.7,1.705ZM772.227,83.706V99.78h2.411V83.706Zm20.495,36.569h281.888v-2.411H792.722Zm299.971,18.084v16.074h2.411V138.358Zm-18.083-18.084a18.082,18.082,0,0,1,18.083,18.084h2.411a20.491,20.491,0,0,0-20.495-20.495ZM772.227,99.78a20.5,20.5,0,0,0,20.495,20.495v-2.411A18.084,18.084,0,0,1,774.638,99.78Z" transform="translate(20.94 1311.729)" fill="#838cfc"/>
    <path id="Trazado_160471" data-name="Trazado 160471" d="M700.282,83.706a1.206,1.206,0,0,0-2.411,0ZM401.444,155.285a1.206,1.206,0,0,0,1.7,0l7.672-7.672a1.206,1.206,0,1,0-1.706-1.705l-6.82,6.82-6.819-6.82a1.206,1.206,0,0,0-1.7,1.705ZM697.871,83.706V99.78h2.411V83.706Zm-18.083,34.158H592.881v2.411h86.906Zm-171.3,0H421.585v2.411h86.907Zm-107.4,20.495v16.074H403.5V138.358Zm20.495-20.495a20.5,20.5,0,0,0-20.495,20.495H403.5a18.084,18.084,0,0,1,18.083-18.084ZM697.871,99.78a18.083,18.083,0,0,1-18.083,18.083v2.411A20.494,20.494,0,0,0,700.282,99.78Z" transform="translate(95.297 1311.729)" fill="#838cfc"/>
    <path id="Trazado_160472" data-name="Trazado 160472" d="M560.251,119.545v14.029h-1.945l-7.131-10.288h-.13v10.288h-2.117V119.545h1.959l7.137,10.3h.13v-10.3Zm4.837,0v14.029h-2.116V119.545Zm3.942,0,3.9,11.426h.158l3.9-11.426h2.288l-5.049,14.029h-2.445l-5.048-14.029Zm11.913,14.029V119.545h8.8v1.822h-6.679v4.275h6.219v1.815h-6.219v4.3h6.761v1.822Zm11.256,0V119.545h2.117v12.207h6.357v1.822Zm20.39-14.029v14.029h-2.123v-11.9h-.082l-3.356,2.192v-2.028l3.5-2.288Z" transform="translate(64.771 1304.457)" fill="#12263f"/>
    <path id="Trazado_163082" data-name="Trazado 163082" d="M-20.665-9.953h1.319v7.048A2.919,2.919,0,0,1-20.2-.67,3.2,3.2,0,0,1-22.49.137,3.292,3.292,0,0,1-24.8-.622a2.74,2.74,0,0,1-.827-2.126h1.313a1.825,1.825,0,0,0,.468,1.333,1.814,1.814,0,0,0,1.357.479,1.76,1.76,0,0,0,1.316-.513,1.986,1.986,0,0,0,.509-1.436ZM-11.484-4.6H-15.8v3.527h5.011V0H-17.11V-9.953h6.255v1.08H-15.8v3.2h4.313Zm7.82.205H-7.841V0H-9.153V-9.953h6.166v1.08H-7.841v3.4h4.177ZM4.211-4.6H-.1v3.527H4.908V0H-1.415V-9.953H4.84v1.08H-.1v3.2H4.211Zm5.8,4.6V-9.953h2.81a4.523,4.523,0,0,1,2.3.574,3.884,3.884,0,0,1,1.542,1.634,5.318,5.318,0,0,1,.55,2.434v.636a5.336,5.336,0,0,1-.543,2.468A3.823,3.823,0,0,1,15.111-.581,4.811,4.811,0,0,1,12.763,0ZM11.32-8.873v7.8H12.7a3.006,3.006,0,0,0,2.362-.943A3.9,3.9,0,0,0,15.907-4.7v-.581a3.957,3.957,0,0,0-.8-2.635,2.835,2.835,0,0,0-2.259-.954ZM24.814-4.6H20.5v3.527h5.011V0H19.188V-9.953h6.255v1.08H20.5v3.2h4.313Zm-55.34,18.164a6.172,6.172,0,0,1-2.458-1.193,2.279,2.279,0,0,1-.769-1.747,2.408,2.408,0,0,1,.94-1.945,3.736,3.736,0,0,1,2.444-.769,4.078,4.078,0,0,1,1.829.4A3.007,3.007,0,0,1-27.3,9.4a2.8,2.8,0,0,1,.441,1.524h-1.319a1.81,1.81,0,0,0-.574-1.418,2.34,2.34,0,0,0-1.62-.516,2.394,2.394,0,0,0-1.514.427,1.424,1.424,0,0,0-.543,1.186,1.281,1.281,0,0,0,.516,1.029,5.066,5.066,0,0,0,1.757.769,8.136,8.136,0,0,1,1.941.769,2.946,2.946,0,0,1,1.039.981,2.5,2.5,0,0,1,.338,1.319,2.326,2.326,0,0,1-.943,1.938,4.022,4.022,0,0,1-2.522.728,4.678,4.678,0,0,1-1.914-.393,3.221,3.221,0,0,1-1.371-1.077,2.627,2.627,0,0,1-.482-1.552h1.319a1.714,1.714,0,0,0,.667,1.425,2.806,2.806,0,0,0,1.781.523,2.58,2.58,0,0,0,1.593-.424,1.377,1.377,0,0,0,.554-1.155,1.351,1.351,0,0,0-.513-1.131A5.911,5.911,0,0,0-30.526,13.563Zm11-.164H-23.84v3.527h5.011V18h-6.323V8.047H-18.9v1.08H-23.84v3.2h4.313Zm9.652,1.442a3.662,3.662,0,0,1-1.166,2.437,3.82,3.82,0,0,1-2.608.858,3.507,3.507,0,0,1-2.827-1.265,5.088,5.088,0,0,1-1.063-3.384v-.957a5.671,5.671,0,0,1,.5-2.44,3.7,3.7,0,0,1,1.4-1.617,3.911,3.911,0,0,1,2.105-.564,3.6,3.6,0,0,1,2.543.885,3.706,3.706,0,0,1,1.114,2.451h-1.319a2.847,2.847,0,0,0-.742-1.723,2.248,2.248,0,0,0-1.6-.533,2.349,2.349,0,0,0-1.972.93,4.265,4.265,0,0,0-.714,2.646v.964a4.384,4.384,0,0,0,.677,2.577,2.187,2.187,0,0,0,1.894.957,2.526,2.526,0,0,0,1.678-.5,2.75,2.75,0,0,0,.776-1.726Zm9.112,0a3.662,3.662,0,0,1-1.166,2.437,3.82,3.82,0,0,1-2.608.858,3.507,3.507,0,0,1-2.827-1.265,5.088,5.088,0,0,1-1.063-3.384v-.957a5.671,5.671,0,0,1,.5-2.44,3.7,3.7,0,0,1,1.4-1.617A3.911,3.911,0,0,1-4.419,7.91,3.6,3.6,0,0,1-1.876,8.8,3.706,3.706,0,0,1-.762,11.246H-2.082a2.847,2.847,0,0,0-.742-1.723,2.248,2.248,0,0,0-1.6-.533,2.349,2.349,0,0,0-1.972.93,4.265,4.265,0,0,0-.714,2.646v.964a4.384,4.384,0,0,0,.677,2.577,2.187,2.187,0,0,0,1.894.957,2.526,2.526,0,0,0,1.678-.5,2.75,2.75,0,0,0,.776-1.726ZM2.437,18H1.125V8.047H2.437Zm10.056-4.655A6.157,6.157,0,0,1,12,15.9a3.728,3.728,0,0,1-1.395,1.665,3.837,3.837,0,0,1-2.105.574A3.713,3.713,0,0,1,5,15.912a5.908,5.908,0,0,1-.516-2.478v-.718a6.084,6.084,0,0,1,.5-2.536,3.691,3.691,0,0,1,3.5-2.27,3.858,3.858,0,0,1,2.109.578A3.721,3.721,0,0,1,12,10.163a6.187,6.187,0,0,1,.492,2.553ZM11.187,12.7a4.463,4.463,0,0,0-.711-2.717,2.345,2.345,0,0,0-1.989-.947,2.32,2.32,0,0,0-1.958.947,4.371,4.371,0,0,0-.735,2.628v.731a4.469,4.469,0,0,0,.721,2.7,2.329,2.329,0,0,0,1.986.981,2.32,2.32,0,0,0,1.969-.926,4.444,4.444,0,0,0,.718-2.656ZM9.129,5.367h1.531L8.829,7.377H7.81ZM22.111,18H20.792l-5.011-7.67V18H14.461V8.047h1.319l5.024,7.7v-7.7h1.306Zm9.625,0H30.464V9.571l-2.55.937V9.359L31.538,8h.2Z" transform="translate(338 1587.369)" fill="#fff"/>
    <path id="Trazado_163083" data-name="Trazado 163083" d="M-20.665-9.953h1.319v7.048A2.919,2.919,0,0,1-20.2-.67,3.2,3.2,0,0,1-22.49.137,3.292,3.292,0,0,1-24.8-.622a2.74,2.74,0,0,1-.827-2.126h1.313a1.825,1.825,0,0,0,.468,1.333,1.814,1.814,0,0,0,1.357.479,1.76,1.76,0,0,0,1.316-.513,1.986,1.986,0,0,0,.509-1.436ZM-11.484-4.6H-15.8v3.527h5.011V0H-17.11V-9.953h6.255v1.08H-15.8v3.2h4.313Zm7.82.205H-7.841V0H-9.153V-9.953h6.166v1.08H-7.841v3.4h4.177ZM4.211-4.6H-.1v3.527H4.908V0H-1.415V-9.953H4.84v1.08H-.1v3.2H4.211Zm5.8,4.6V-9.953h2.81a4.523,4.523,0,0,1,2.3.574,3.884,3.884,0,0,1,1.542,1.634,5.318,5.318,0,0,1,.55,2.434v.636a5.336,5.336,0,0,1-.543,2.468A3.823,3.823,0,0,1,15.111-.581,4.811,4.811,0,0,1,12.763,0ZM11.32-8.873v7.8H12.7a3.006,3.006,0,0,0,2.362-.943A3.9,3.9,0,0,0,15.907-4.7v-.581a3.957,3.957,0,0,0-.8-2.635,2.835,2.835,0,0,0-2.259-.954ZM24.814-4.6H20.5v3.527h5.011V0H19.188V-9.953h6.255v1.08H20.5v3.2h4.313Zm-55.34,18.164a6.172,6.172,0,0,1-2.458-1.193,2.279,2.279,0,0,1-.769-1.747,2.408,2.408,0,0,1,.94-1.945,3.736,3.736,0,0,1,2.444-.769,4.078,4.078,0,0,1,1.829.4A3.007,3.007,0,0,1-27.3,9.4a2.8,2.8,0,0,1,.441,1.524h-1.319a1.81,1.81,0,0,0-.574-1.418,2.34,2.34,0,0,0-1.62-.516,2.394,2.394,0,0,0-1.514.427,1.424,1.424,0,0,0-.543,1.186,1.281,1.281,0,0,0,.516,1.029,5.066,5.066,0,0,0,1.757.769,8.136,8.136,0,0,1,1.941.769,2.946,2.946,0,0,1,1.039.981,2.5,2.5,0,0,1,.338,1.319,2.326,2.326,0,0,1-.943,1.938,4.022,4.022,0,0,1-2.522.728,4.678,4.678,0,0,1-1.914-.393,3.221,3.221,0,0,1-1.371-1.077,2.627,2.627,0,0,1-.482-1.552h1.319a1.714,1.714,0,0,0,.667,1.425,2.806,2.806,0,0,0,1.781.523,2.58,2.58,0,0,0,1.593-.424,1.377,1.377,0,0,0,.554-1.155,1.351,1.351,0,0,0-.513-1.131A5.911,5.911,0,0,0-30.526,13.563Zm11-.164H-23.84v3.527h5.011V18h-6.323V8.047H-18.9v1.08H-23.84v3.2h4.313Zm9.652,1.442a3.662,3.662,0,0,1-1.166,2.437,3.82,3.82,0,0,1-2.608.858,3.507,3.507,0,0,1-2.827-1.265,5.088,5.088,0,0,1-1.063-3.384v-.957a5.671,5.671,0,0,1,.5-2.44,3.7,3.7,0,0,1,1.4-1.617,3.911,3.911,0,0,1,2.105-.564,3.6,3.6,0,0,1,2.543.885,3.706,3.706,0,0,1,1.114,2.451h-1.319a2.847,2.847,0,0,0-.742-1.723,2.248,2.248,0,0,0-1.6-.533,2.349,2.349,0,0,0-1.972.93,4.265,4.265,0,0,0-.714,2.646v.964a4.384,4.384,0,0,0,.677,2.577,2.187,2.187,0,0,0,1.894.957,2.526,2.526,0,0,0,1.678-.5,2.75,2.75,0,0,0,.776-1.726Zm9.112,0a3.662,3.662,0,0,1-1.166,2.437,3.82,3.82,0,0,1-2.608.858,3.507,3.507,0,0,1-2.827-1.265,5.088,5.088,0,0,1-1.063-3.384v-.957a5.671,5.671,0,0,1,.5-2.44,3.7,3.7,0,0,1,1.4-1.617A3.911,3.911,0,0,1-4.419,7.91,3.6,3.6,0,0,1-1.876,8.8,3.706,3.706,0,0,1-.762,11.246H-2.082a2.847,2.847,0,0,0-.742-1.723,2.248,2.248,0,0,0-1.6-.533,2.349,2.349,0,0,0-1.972.93,4.265,4.265,0,0,0-.714,2.646v.964a4.384,4.384,0,0,0,.677,2.577,2.187,2.187,0,0,0,1.894.957,2.526,2.526,0,0,0,1.678-.5,2.75,2.75,0,0,0,.776-1.726ZM2.437,18H1.125V8.047H2.437Zm10.056-4.655A6.157,6.157,0,0,1,12,15.9a3.728,3.728,0,0,1-1.395,1.665,3.837,3.837,0,0,1-2.105.574A3.713,3.713,0,0,1,5,15.912a5.908,5.908,0,0,1-.516-2.478v-.718a6.084,6.084,0,0,1,.5-2.536,3.691,3.691,0,0,1,3.5-2.27,3.858,3.858,0,0,1,2.109.578A3.721,3.721,0,0,1,12,10.163a6.187,6.187,0,0,1,.492,2.553ZM11.187,12.7a4.463,4.463,0,0,0-.711-2.717,2.345,2.345,0,0,0-1.989-.947,2.32,2.32,0,0,0-1.958.947,4.371,4.371,0,0,0-.735,2.628v.731a4.469,4.469,0,0,0,.721,2.7,2.329,2.329,0,0,0,1.986.981,2.32,2.32,0,0,0,1.969-.926,4.444,4.444,0,0,0,.718-2.656ZM9.129,5.367h1.531L8.829,7.377H7.81ZM22.111,18H20.792l-5.011-7.67V18H14.461V8.047h1.319l5.024,7.7v-7.7h1.306ZM34.1,18H27.58v-.909l3.445-3.828a8.185,8.185,0,0,0,1.056-1.412,2.356,2.356,0,0,0,.291-1.125A1.786,1.786,0,0,0,31.9,9.448a1.649,1.649,0,0,0-1.258-.5,1.953,1.953,0,0,0-1.466.537,2.05,2.05,0,0,0-.523,1.494H27.388a2.936,2.936,0,0,1,.885-2.222,3.282,3.282,0,0,1,2.369-.848,3.153,3.153,0,0,1,2.194.728,2.483,2.483,0,0,1,.807,1.938q0,1.47-1.873,3.5L29.1,16.968h5Z" transform="translate(634 1587.369)" fill="#fff"/>
    <path id="Trazado_163084" data-name="Trazado 163084" d="M-20.665-9.953h1.319v7.048A2.919,2.919,0,0,1-20.2-.67,3.2,3.2,0,0,1-22.49.137,3.292,3.292,0,0,1-24.8-.622a2.74,2.74,0,0,1-.827-2.126h1.313a1.825,1.825,0,0,0,.468,1.333,1.814,1.814,0,0,0,1.357.479,1.76,1.76,0,0,0,1.316-.513,1.986,1.986,0,0,0,.509-1.436ZM-11.484-4.6H-15.8v3.527h5.011V0H-17.11V-9.953h6.255v1.08H-15.8v3.2h4.313Zm7.82.205H-7.841V0H-9.153V-9.953h6.166v1.08H-7.841v3.4h4.177ZM4.211-4.6H-.1v3.527H4.908V0H-1.415V-9.953H4.84v1.08H-.1v3.2H4.211Zm5.8,4.6V-9.953h2.81a4.523,4.523,0,0,1,2.3.574,3.884,3.884,0,0,1,1.542,1.634,5.318,5.318,0,0,1,.55,2.434v.636a5.336,5.336,0,0,1-.543,2.468A3.823,3.823,0,0,1,15.111-.581,4.811,4.811,0,0,1,12.763,0ZM11.32-8.873v7.8H12.7a3.006,3.006,0,0,0,2.362-.943A3.9,3.9,0,0,0,15.907-4.7v-.581a3.957,3.957,0,0,0-.8-2.635,2.835,2.835,0,0,0-2.259-.954ZM24.814-4.6H20.5v3.527h5.011V0H19.188V-9.953h6.255v1.08H20.5v3.2h4.313ZM-32.259,13.563a6.172,6.172,0,0,1-2.458-1.193,2.279,2.279,0,0,1-.769-1.747,2.408,2.408,0,0,1,.94-1.945A3.736,3.736,0,0,1-32.1,7.91a4.078,4.078,0,0,1,1.829.4A3.007,3.007,0,0,1-29.029,9.4a2.8,2.8,0,0,1,.441,1.524h-1.319a1.81,1.81,0,0,0-.574-1.418A2.34,2.34,0,0,0-32.1,8.99a2.394,2.394,0,0,0-1.514.427,1.424,1.424,0,0,0-.543,1.186,1.281,1.281,0,0,0,.516,1.029,5.066,5.066,0,0,0,1.757.769,8.136,8.136,0,0,1,1.941.769,2.946,2.946,0,0,1,1.039.981,2.5,2.5,0,0,1,.338,1.319,2.326,2.326,0,0,1-.943,1.938,4.022,4.022,0,0,1-2.522.728,4.678,4.678,0,0,1-1.914-.393,3.221,3.221,0,0,1-1.371-1.077,2.627,2.627,0,0,1-.482-1.552h1.319a1.714,1.714,0,0,0,.667,1.425,2.806,2.806,0,0,0,1.781.523,2.58,2.58,0,0,0,1.593-.424,1.377,1.377,0,0,0,.554-1.155,1.351,1.351,0,0,0-.513-1.131A5.911,5.911,0,0,0-32.259,13.563Zm11-.164h-4.313v3.527h5.011V18h-6.323V8.047h6.255v1.08h-4.942v3.2h4.313Zm9.652,1.442a3.662,3.662,0,0,1-1.166,2.437,3.82,3.82,0,0,1-2.608.858,3.507,3.507,0,0,1-2.827-1.265,5.088,5.088,0,0,1-1.063-3.384v-.957a5.671,5.671,0,0,1,.5-2.44,3.7,3.7,0,0,1,1.4-1.617,3.911,3.911,0,0,1,2.105-.564,3.6,3.6,0,0,1,2.543.885,3.706,3.706,0,0,1,1.114,2.451h-1.319a2.847,2.847,0,0,0-.742-1.723,2.248,2.248,0,0,0-1.6-.533,2.349,2.349,0,0,0-1.972.93,4.265,4.265,0,0,0-.714,2.646v.964a4.384,4.384,0,0,0,.677,2.577,2.187,2.187,0,0,0,1.894.957,2.526,2.526,0,0,0,1.678-.5,2.75,2.75,0,0,0,.776-1.726Zm9.112,0a3.662,3.662,0,0,1-1.166,2.437,3.82,3.82,0,0,1-2.608.858A3.507,3.507,0,0,1-9.1,16.872a5.088,5.088,0,0,1-1.063-3.384v-.957a5.671,5.671,0,0,1,.5-2.44,3.7,3.7,0,0,1,1.4-1.617A3.911,3.911,0,0,1-6.152,7.91,3.6,3.6,0,0,1-3.609,8.8,3.706,3.706,0,0,1-2.5,11.246H-3.814a2.847,2.847,0,0,0-.742-1.723,2.248,2.248,0,0,0-1.6-.533,2.349,2.349,0,0,0-1.972.93,4.265,4.265,0,0,0-.714,2.646v.964a4.384,4.384,0,0,0,.677,2.577,2.187,2.187,0,0,0,1.894.957,2.526,2.526,0,0,0,1.678-.5,2.75,2.75,0,0,0,.776-1.726ZM.7,18H-.608V8.047H.7ZM10.76,13.345a6.157,6.157,0,0,1-.492,2.553,3.728,3.728,0,0,1-1.395,1.665,3.837,3.837,0,0,1-2.105.574,3.713,3.713,0,0,1-3.5-2.225,5.908,5.908,0,0,1-.516-2.478v-.718a6.084,6.084,0,0,1,.5-2.536,3.691,3.691,0,0,1,3.5-2.27,3.858,3.858,0,0,1,2.109.578,3.721,3.721,0,0,1,1.4,1.675,6.187,6.187,0,0,1,.492,2.553ZM9.454,12.7a4.463,4.463,0,0,0-.711-2.717,2.345,2.345,0,0,0-1.989-.947A2.32,2.32,0,0,0,4.8,9.985a4.371,4.371,0,0,0-.735,2.628v.731a4.469,4.469,0,0,0,.721,2.7,2.329,2.329,0,0,0,1.986.981A2.32,2.32,0,0,0,8.736,16.1a4.444,4.444,0,0,0,.718-2.656ZM7.4,5.367H8.928L7.1,7.377H6.077ZM20.378,18H19.059l-5.011-7.67V18H12.729V8.047h1.319l5.024,7.7v-7.7h1.306Zm7.308-5.592h.95a2.088,2.088,0,0,0,1.408-.472,1.576,1.576,0,0,0,.513-1.237,1.544,1.544,0,0,0-1.743-1.75,1.813,1.813,0,0,0-1.309.468,1.639,1.639,0,0,0-.489,1.241H25.751a2.539,2.539,0,0,1,.865-1.965,3.15,3.15,0,0,1,2.2-.783,3.113,3.113,0,0,1,2.208.745,2.692,2.692,0,0,1,.8,2.071,2.185,2.185,0,0,1-.42,1.258,2.538,2.538,0,0,1-1.145.909,2.446,2.446,0,0,1,1.268.861,2.392,2.392,0,0,1,.448,1.47,2.715,2.715,0,0,1-.875,2.126,3.277,3.277,0,0,1-2.276.786,3.363,3.363,0,0,1-2.28-.759,2.517,2.517,0,0,1-.878-2h1.271a1.627,1.627,0,0,0,.513,1.258,1.95,1.95,0,0,0,1.374.472,1.914,1.914,0,0,0,1.4-.479,1.844,1.844,0,0,0,.485-1.374,1.673,1.673,0,0,0-.533-1.333,2.323,2.323,0,0,0-1.538-.479h-.95Z" transform="translate(956 1587.369)" fill="#fff"/>
    <path id="Trazado_163085" data-name="Trazado 163085" d="M-20.665-9.953h1.319v7.048A2.919,2.919,0,0,1-20.2-.67,3.2,3.2,0,0,1-22.49.137,3.292,3.292,0,0,1-24.8-.622a2.74,2.74,0,0,1-.827-2.126h1.313a1.825,1.825,0,0,0,.468,1.333,1.814,1.814,0,0,0,1.357.479,1.76,1.76,0,0,0,1.316-.513,1.986,1.986,0,0,0,.509-1.436ZM-11.484-4.6H-15.8v3.527h5.011V0H-17.11V-9.953h6.255v1.08H-15.8v3.2h4.313Zm7.82.205H-7.841V0H-9.153V-9.953h6.166v1.08H-7.841v3.4h4.177ZM4.211-4.6H-.1v3.527H4.908V0H-1.415V-9.953H4.84v1.08H-.1v3.2H4.211Zm5.8,4.6V-9.953h2.81a4.523,4.523,0,0,1,2.3.574,3.884,3.884,0,0,1,1.542,1.634,5.318,5.318,0,0,1,.55,2.434v.636a5.336,5.336,0,0,1-.543,2.468A3.823,3.823,0,0,1,15.111-.581,4.811,4.811,0,0,1,12.763,0ZM11.32-8.873v7.8H12.7a3.006,3.006,0,0,0,2.362-.943A3.9,3.9,0,0,0,15.907-4.7v-.581a3.957,3.957,0,0,0-.8-2.635,2.835,2.835,0,0,0-2.259-.954ZM24.814-4.6H20.5v3.527h5.011V0H19.188V-9.953h6.255v1.08H20.5v3.2h4.313Zm-55.34,18.164a6.172,6.172,0,0,1-2.458-1.193,2.279,2.279,0,0,1-.769-1.747,2.408,2.408,0,0,1,.94-1.945,3.736,3.736,0,0,1,2.444-.769,4.078,4.078,0,0,1,1.829.4A3.007,3.007,0,0,1-27.3,9.4a2.8,2.8,0,0,1,.441,1.524h-1.319a1.81,1.81,0,0,0-.574-1.418,2.34,2.34,0,0,0-1.62-.516,2.394,2.394,0,0,0-1.514.427,1.424,1.424,0,0,0-.543,1.186,1.281,1.281,0,0,0,.516,1.029,5.066,5.066,0,0,0,1.757.769,8.136,8.136,0,0,1,1.941.769,2.946,2.946,0,0,1,1.039.981,2.5,2.5,0,0,1,.338,1.319,2.326,2.326,0,0,1-.943,1.938,4.022,4.022,0,0,1-2.522.728,4.678,4.678,0,0,1-1.914-.393,3.221,3.221,0,0,1-1.371-1.077,2.627,2.627,0,0,1-.482-1.552h1.319a1.714,1.714,0,0,0,.667,1.425,2.806,2.806,0,0,0,1.781.523,2.58,2.58,0,0,0,1.593-.424,1.377,1.377,0,0,0,.554-1.155,1.351,1.351,0,0,0-.513-1.131A5.911,5.911,0,0,0-30.526,13.563Zm11-.164H-23.84v3.527h5.011V18h-6.323V8.047H-18.9v1.08H-23.84v3.2h4.313Zm9.652,1.442a3.662,3.662,0,0,1-1.166,2.437,3.82,3.82,0,0,1-2.608.858,3.507,3.507,0,0,1-2.827-1.265,5.088,5.088,0,0,1-1.063-3.384v-.957a5.671,5.671,0,0,1,.5-2.44,3.7,3.7,0,0,1,1.4-1.617,3.911,3.911,0,0,1,2.105-.564,3.6,3.6,0,0,1,2.543.885,3.706,3.706,0,0,1,1.114,2.451h-1.319a2.847,2.847,0,0,0-.742-1.723,2.248,2.248,0,0,0-1.6-.533,2.349,2.349,0,0,0-1.972.93,4.265,4.265,0,0,0-.714,2.646v.964a4.384,4.384,0,0,0,.677,2.577,2.187,2.187,0,0,0,1.894.957,2.526,2.526,0,0,0,1.678-.5,2.75,2.75,0,0,0,.776-1.726Zm9.112,0a3.662,3.662,0,0,1-1.166,2.437,3.82,3.82,0,0,1-2.608.858,3.507,3.507,0,0,1-2.827-1.265,5.088,5.088,0,0,1-1.063-3.384v-.957a5.671,5.671,0,0,1,.5-2.44,3.7,3.7,0,0,1,1.4-1.617A3.911,3.911,0,0,1-4.419,7.91,3.6,3.6,0,0,1-1.876,8.8,3.706,3.706,0,0,1-.762,11.246H-2.082a2.847,2.847,0,0,0-.742-1.723,2.248,2.248,0,0,0-1.6-.533,2.349,2.349,0,0,0-1.972.93,4.265,4.265,0,0,0-.714,2.646v.964a4.384,4.384,0,0,0,.677,2.577,2.187,2.187,0,0,0,1.894.957,2.526,2.526,0,0,0,1.678-.5,2.75,2.75,0,0,0,.776-1.726ZM2.437,18H1.125V8.047H2.437Zm10.056-4.655A6.157,6.157,0,0,1,12,15.9a3.728,3.728,0,0,1-1.395,1.665,3.837,3.837,0,0,1-2.105.574A3.713,3.713,0,0,1,5,15.912a5.908,5.908,0,0,1-.516-2.478v-.718a6.084,6.084,0,0,1,.5-2.536,3.691,3.691,0,0,1,3.5-2.27,3.858,3.858,0,0,1,2.109.578A3.721,3.721,0,0,1,12,10.163a6.187,6.187,0,0,1,.492,2.553ZM11.187,12.7a4.463,4.463,0,0,0-.711-2.717,2.345,2.345,0,0,0-1.989-.947,2.32,2.32,0,0,0-1.958.947,4.371,4.371,0,0,0-.735,2.628v.731a4.469,4.469,0,0,0,.721,2.7,2.329,2.329,0,0,0,1.986.981,2.32,2.32,0,0,0,1.969-.926,4.444,4.444,0,0,0,.718-2.656ZM9.129,5.367h1.531L8.829,7.377H7.81ZM22.111,18H20.792l-5.011-7.67V18H14.461V8.047h1.319l5.024,7.7v-7.7h1.306Zm10.808-3.343H34.3v1.032H32.918V18H31.647V15.689H27.115v-.745l4.457-6.9h1.347Zm-4.368,0h3.1V9.776l-.15.273Z" transform="translate(1252 1587.369)" fill="#fff"/>
  </g>
</svg>
