<svg xmlns="http://www.w3.org/2000/svg" width="60.001" height="60" viewBox="0 0 60.001 60">
  <g id="Grupo_110061" data-name="Grupo 110061" transform="translate(14695.132 23749.064)">
    <g id="Grupo_109874" data-name="Grupo 109874" transform="translate(-15984.115 -24256.684)">
      <path id="Trazado_160500" data-name="Trazado 160500" d="M1312.936,545.515v-1.948c.166-.007.332-.02.5-.02h51c.166,0,.332.013.5.02q0,.974,0,1.948c-.8.175-1,.424-1,1.3q0,10.368,0,20.736c0,3.81-.007,7.62.01,11.43,0,.419-.074.583-.533.558-.768-.041-1.54-.017-2.311-.01s-1,.216-1.183.993h-1.969c-.2-.839-.414-1-1.373-1q-20.929,0-41.858.016c-.664,0-.792-.181-.791-.81q.031-15.929.014-31.858C1313.938,545.935,1313.758,545.693,1312.936,545.515Zm35.52,4.024c-1.147,0-2.188,0-3.229,0a7.008,7.008,0,0,0-7.294,7.312c0,3.143,0,6.286,0,9.429a4.977,4.977,0,0,1-5.239,5.256c-1.853,0-3.705,0-5.558,0-.791,0-1.213.374-1.2,1.029.017.629.423.967,1.192.968q2.717.006,5.433,0a7.018,7.018,0,0,0,7.37-7.365c0-3.247-.016-6.494.01-9.741a4.867,4.867,0,0,1,4.044-4.781,35.46,35.46,0,0,1,4.514-.117c-.14.156-.192.209-.239.267a1,1,0,1,0,1.464,1.363c.626-.61,1.242-1.231,1.855-1.854a.9.9,0,0,0,.173-1.291,28.369,28.369,0,0,0-2.287-2.3.864.864,0,0,0-1.243.106.942.942,0,0,0-.132,1.252A5.375,5.375,0,0,0,1348.456,549.539Zm11.48,19.051a.95.95,0,0,0-.511-.936.937.937,0,0,0-1.153.137q-.553.5-1.063,1.055c-.2.215-.338.24-.546.01-.32-.355-.66-.695-1.013-1.017a1,1,0,1,0-1.427,1.4,8.825,8.825,0,0,0,.883.882c.339.285.421.5.024.817a8.31,8.31,0,0,0-.888.876,1,1,0,1,0,1.43,1.4c.333-.314.666-.631.967-.975.227-.258.374-.229.592.01a10.968,10.968,0,0,0,1.112,1.093.9.9,0,0,0,1.294-.08.918.918,0,0,0,.115-1.295,4.53,4.53,0,0,0-.515-.542c-.885-.887-.882-.884,0-1.775C1359.536,569.34,1359.912,569.076,1359.936,568.591Zm-36.992-15.029a.979.979,0,0,0,.9-.566.9.9,0,0,0-.147-1.095c-.354-.381-.72-.752-1.1-1.108-.2-.188-.2-.319,0-.5.351-.326.693-.662,1.017-1.014a1,1,0,1,0-1.415-1.413c-.351.325-.689.667-1.013,1.018-.186.2-.318.2-.5,0-.325-.351-.662-.693-1.014-1.018a1,1,0,1,0-1.415,1.413,13.7,13.7,0,0,0,.974.969c.244.217.261.364.008.592a11.033,11.033,0,0,0-1.1,1.111.9.9,0,0,0,.066,1.294.919.919,0,0,0,1.294.124,3.193,3.193,0,0,0,.411-.381c1.023-1.016,1.022-1.016,2.04,0C1322.234,553.257,1322.489,553.578,1322.943,553.562Zm23,10.987a1.046,1.046,0,0,0,.765-.369c.311-.307.635-.6.925-.93.215-.242.366-.265.591-.008a13.148,13.148,0,0,0,.968.974,1,1,0,1,0,1.42-1.415c-.324-.352-.665-.689-1.017-1.014-.2-.188-.194-.318,0-.5.351-.325.693-.662,1.017-1.014a1,1,0,1,0-1.416-1.413c-.351.325-.689.667-1.013,1.018-.185.2-.317.2-.5,0-.325-.351-.662-.693-1.013-1.018a1,1,0,1,0-1.416,1.408c.325.351.667.688,1.018,1.013.2.185.2.315,0,.5q-.568.534-1.1,1.107a.881.881,0,0,0-.164,1.039A1,1,0,0,0,1345.944,564.549Zm-18-6.018a.955.955,0,0,0-.906.545.922.922,0,0,0,.137,1.1,14.054,14.054,0,0,0,1.053,1.063c.244.22.256.365.006.592a10.829,10.829,0,0,0-1.09,1.112.891.891,0,0,0,.086,1.291.915.915,0,0,0,1.294.11,3.862,3.862,0,0,0,.453-.427c.959-.958.959-.958,1.9-.013.735.735,1.254.844,1.751.369.514-.491.409-1.043-.343-1.8-.936-.937-.936-.937-.013-1.861.747-.748.862-1.322.363-1.806-.483-.468-1.042-.352-1.76.365-.945.944-.945.943-1.9-.014C1328.684,558.87,1328.422,558.527,1327.945,558.531Zm-6.967,11.008a3,3,0,1,0,2.958,3.006A3.023,3.023,0,0,0,1320.978,569.539Zm38.953-18.974a3,3,0,1,0-2.993,2.974A3.02,3.02,0,0,0,1359.931,550.565Z" transform="translate(-19.952 -29.927)" fill="#dae8ed"/>
      <path id="Trazado_160501" data-name="Trazado 160501" d="M1339.98,590.341c.178-.777.42-.986,1.183-.993s1.542-.032,2.311.009c.459.025.535-.14.533-.558-.016-3.81-.01-7.62-.01-11.43q0-10.368,0-20.736c0-.879.2-1.128,1-1.3.821.177,1,.415,1,1.364q0,15.959-.014,31.919c0,.58.1.831.726.744a7,7,0,0,1,1.248-.006.97.97,0,0,1,1.031,1.014q.029,1.967,0,3.935c-.011.712-.432,1.047-1.257,1.047q-6.029,0-12.057,0H1330.9c-.044.27.162.417.276.588q3.176,4.779,6.369,9.546a1.217,1.217,0,0,1,.239,1.326c-.261.5-.727.545-1.231.54-1.374-.014-2.75-.04-4.123.01a1.608,1.608,0,0,1-1.534-.836c-2.386-3.581-4.8-7.146-7.2-10.717a1.669,1.669,0,0,0-1.589-.449c-.217.119-.108.337-.108.5q-.011,4.5-.005,8.995c0,.479.013.958,0,1.436a.987.987,0,0,1-1.066,1.046q-1.936.022-3.873,0a.976.976,0,0,1-1.047-1.063c-.011-2.665,0-5.33-.009-8,0-.686.453-.9.991-1.068.916.311,1.009.437,1.01,1.381q0,2.651,0,5.3c0,1.544,0,1.533,1.582,1.459.33-.016.423-.122.423-.439q-.013-4.553,0-9.107c0-.348-.1-.476-.458-.466-.852.025-1.7.016-2.557.021a6.5,6.5,0,0,0-2.286.053c-.644.258-.9,1.143-1.318,1.757q-3.186,4.7-6.335,9.417a1.52,1.52,0,0,1-1.442.766c-1.373-.036-2.748-.02-4.122-.006-.522.005-1.017-.019-1.285-.555a1.236,1.236,0,0,1,.258-1.325c2.232-3.331,4.455-6.669,6.7-10.028-.213-.171-.448-.088-.656-.088q-8.026-.009-16.053,0c-1.151,0-1.441-.289-1.442-1.431q0-1.593,0-3.185c0-1.076.3-1.384,1.355-1.387a7.759,7.759,0,0,1,1.061.009c.523.071.592-.162.592-.62q-.018-16.051-.009-32.1c0-.884.19-1.128,1-1.3.822.178,1,.42,1,1.364q0,15.929-.014,31.858c0,.629.127.811.791.81q20.929-.033,41.858-.016c.958,0,1.17.157,1.373,1-.192.846-.42,1.008-1.428,1.008H1292.1c-1.1,0-1.1,0-1.095,1.125.008,1-.134.872.845.872q26.832,0,53.664,0c1.515,0,1.5,0,1.488-1.493,0-.425-.147-.517-.54-.513-1.749.018-3.5.011-5.248.006C1340.405,591.347,1340.155,591.136,1339.98,590.341Zm-36.894,15.005c.619,0,1.237-.03,1.851.011a.853.853,0,0,0,.85-.469c1.986-2.971,3.99-5.931,5.983-8.9.12-.179.314-.334.3-.641-.627,0-1.247.025-1.864-.009a.914.914,0,0,0-.91.484c-1.98,3-3.982,5.987-5.974,8.98C1303.22,604.953,1303.062,605.079,1303.086,605.346Zm22.8-10a1.432,1.432,0,0,0,.086.253q3.184,4.732,6.371,9.462c.094.14.175.281.377.28.734,0,1.468,0,2.22,0a.931.931,0,0,0-.048-.2q-3.155-4.75-6.311-9.5a.6.6,0,0,0-.57-.3C1327.327,595.358,1326.642,595.349,1325.887,595.349Z" transform="translate(-0.018 -39.743)" fill="#010101"/>
      <path id="Trazado_160502" data-name="Trazado 160502" d="M1344.98,513.64c-.166-.007-.332-.02-.5-.02q-25.5,0-51,0c-.166,0-.332.013-.5.02-.936-.007-1.873-.011-2.809-.021-.818-.009-1.181-.365-1.186-1.178q-.011-1.842,0-3.684a1.017,1.017,0,0,1,1.107-1.135c.146-.005.291,0,.437,0h56.895c1.308,0,1.548.243,1.548,1.571,0,1.082.006,2.165,0,3.247-.006.813-.37,1.17-1.186,1.179C1346.852,513.629,1345.916,513.633,1344.98,513.64Zm-25.994-2.021h26.8c1.188,0,1.193,0,1.186-1.159-.006-.958.121-.838-.817-.838q-26.929,0-53.857,0c-1.315,0-1.274,0-1.33,1.283-.028.643.207.729.774.728Q1305.365,511.605,1318.986,511.619Z" transform="translate(0)" fill="#010101"/>
      <path id="Trazado_160503" data-name="Trazado 160503" d="M1456.566,794.928c.852,0,1.705,0,2.557-.021.358-.01.46.118.458.466q-.016,4.553,0,9.107c0,.317-.092.424-.422.439-1.583.074-1.582.085-1.582-1.459q0-2.651,0-5.3c0-.944-.094-1.07-1.01-1.38Q1456.566,795.853,1456.566,794.928Z" transform="translate(-139.594 -239.307)" fill="#f85316"/>
      <path id="Trazado_160504" data-name="Trazado 160504" d="M1349.953,764.962c.175.794.426,1.006,1.238,1.008,1.749,0,3.5.012,5.248-.006.392,0,.537.088.54.513.009,1.494.026,1.493-1.488,1.493q-26.832,0-53.665,0c-.979,0-.838.132-.845-.872-.008-1.125,0-1.125,1.095-1.125h44.481c1.008,0,1.236-.163,1.427-1.008Z" transform="translate(-9.991 -214.364)" fill="#f85316"/>
      <path id="Trazado_160505" data-name="Trazado 160505" d="M1413.3,569.273a5.376,5.376,0,0,1-.364-.459.942.942,0,0,1,.132-1.252.864.864,0,0,1,1.243-.106,28.378,28.378,0,0,1,2.287,2.3.9.9,0,0,1-.173,1.291c-.613.623-1.229,1.244-1.855,1.854a1,1,0,1,1-1.464-1.363c.047-.057.1-.111.239-.267a35.455,35.455,0,0,0-4.514.117,4.867,4.867,0,0,0-4.044,4.781c-.026,3.247-.006,6.494-.009,9.741a7.018,7.018,0,0,1-7.37,7.365q-2.717,0-5.433,0c-.768,0-1.175-.339-1.192-.969-.018-.655.405-1.027,1.2-1.029,1.853,0,3.706,0,5.558,0a4.977,4.977,0,0,0,5.239-5.256c.006-3.143,0-6.286,0-9.429a7.008,7.008,0,0,1,7.294-7.312C1411.112,569.27,1412.153,569.273,1413.3,569.273Z" transform="translate(-84.797 -49.661)" fill="#020202"/>
      <path id="Trazado_160506" data-name="Trazado 160506" d="M1564.2,688.145c-.024.485-.4.749-.7,1.055-.88.891-.882.888,0,1.775a4.544,4.544,0,0,1,.515.542.918.918,0,0,1-.115,1.3.9.9,0,0,1-1.294.08,10.976,10.976,0,0,1-1.112-1.093c-.218-.239-.365-.268-.592-.01-.3.344-.634.661-.967.974a1,1,0,1,1-1.43-1.4,8.293,8.293,0,0,1,.888-.876c.4-.313.315-.532-.024-.817a8.85,8.85,0,0,1-.883-.882,1,1,0,1,1,1.427-1.4c.353.323.693.662,1.013,1.017.208.231.347.206.546-.01.339-.366.694-.719,1.063-1.055a.937.937,0,0,1,1.153-.137A.949.949,0,0,1,1564.2,688.145Z" transform="translate(-224.221 -149.482)" fill="#020202"/>
      <path id="Trazado_160507" data-name="Trazado 160507" d="M1347.689,573.429c-.454.016-.709-.305-.988-.582-1.018-1.011-1.017-1.012-2.04,0a3.206,3.206,0,0,1-.411.381.919.919,0,0,1-1.294-.124.9.9,0,0,1-.066-1.295,11.04,11.04,0,0,1,1.1-1.111c.253-.228.237-.375-.008-.592a13.671,13.671,0,0,1-.974-.969,1,1,0,1,1,1.415-1.413c.352.325.688.667,1.014,1.018.184.2.316.2.5,0,.325-.352.662-.693,1.013-1.018a1,1,0,1,1,1.415,1.413c-.324.352-.666.689-1.017,1.014-.2.184-.2.315,0,.5.379.356.746.727,1.1,1.108a.9.9,0,0,1,.147,1.095A.978.978,0,0,1,1347.689,573.429Z" transform="translate(-44.699 -49.795)" fill="#020202"/>
      <path id="Trazado_160508" data-name="Trazado 160508" d="M1505.426,639.264a1,1,0,0,1-.932-.619.882.882,0,0,1,.164-1.039q.531-.571,1.1-1.107c.2-.188.2-.318,0-.5-.351-.325-.693-.662-1.018-1.013a1,1,0,1,1,1.416-1.408c.351.325.688.667,1.013,1.018.185.2.316.2.5,0,.324-.352.662-.693,1.013-1.018a1,1,0,1,1,1.416,1.413c-.324.352-.667.688-1.017,1.014-.2.183-.207.314,0,.5.352.324.693.662,1.018,1.014a1,1,0,1,1-1.42,1.415,13.1,13.1,0,0,1-.968-.974c-.225-.257-.376-.234-.591.008-.29.326-.613.623-.925.93A1.046,1.046,0,0,1,1505.426,639.264Z" transform="translate(-179.434 -104.643)" fill="#020202"/>
      <path id="Trazado_160509" data-name="Trazado 160509" d="M1397.63,633.263c.477,0,.739.339,1.031.63.96.957.959.958,1.9.014.718-.717,1.276-.833,1.76-.365.5.484.384,1.058-.363,1.806-.922.924-.922.924.013,1.861.751.753.857,1.3.343,1.8-.5.475-1.016.366-1.751-.369-.946-.945-.945-.945-1.9.013a3.859,3.859,0,0,1-.453.427.915.915,0,0,1-1.294-.11.892.892,0,0,1-.086-1.291,10.826,10.826,0,0,1,1.09-1.112c.25-.227.237-.372-.006-.592a14.053,14.053,0,0,1-1.052-1.063.922.922,0,0,1-.137-1.1A.955.955,0,0,1,1397.63,633.263Z" transform="translate(-89.637 -104.659)" fill="#020202"/>
      <path id="Trazado_160510" data-name="Trazado 160510" d="M1345.926,699.178a3,3,0,1,1-3.039,2.926A3.015,3.015,0,0,1,1345.926,699.178Zm-.068,3.97a.991.991,0,0,0,1-.913.971.971,0,0,0-1.938-.12A.994.994,0,0,0,1345.857,703.148Z" transform="translate(-44.901 -159.567)" fill="#020202"/>
      <path id="Trazado_160511" data-name="Trazado 160511" d="M1564.4,570.505a3,3,0,1,1-3.007-3.02A3.025,3.025,0,0,1,1564.4,570.505Zm-3-1a.97.97,0,1,0,.973,1A.982.982,0,0,0,1561.4,569.51Z" transform="translate(-224.425 -49.868)" fill="#020202"/>
      <path id="Trazado_160512" data-name="Trazado 160512" d="M1373.306,804.89c-.024-.267.134-.393.233-.542,1.992-2.993,3.994-5.979,5.974-8.98a.914.914,0,0,1,.91-.484c.617.034,1.236.009,1.864.009.017.307-.176.461-.3.641-1.993,2.967-4,5.927-5.983,8.9a.853.853,0,0,1-.85.469C1374.543,804.86,1373.925,804.89,1373.306,804.89Z" transform="translate(-70.238 -239.287)" fill="#f85316"/>
      <path id="Trazado_160513" data-name="Trazado 160513" d="M1509.841,794.926c.755,0,1.44.008,2.125,0a.6.6,0,0,1,.57.3q3.153,4.752,6.311,9.5a.92.92,0,0,1,.048.2c-.752,0-1.486,0-2.22,0-.2,0-.283-.14-.377-.28q-3.185-4.731-6.371-9.462A1.434,1.434,0,0,1,1509.841,794.926Z" transform="translate(-183.972 -239.32)" fill="#f85316"/>
      <path id="Trazado_160514" data-name="Trazado 160514" d="M1328.886,521.588q-13.62,0-27.241.012c-.567,0-.8-.084-.774-.728.056-1.281.015-1.283,1.33-1.283q26.929,0,53.857,0c.938,0,.811-.12.818.838.007,1.159,0,1.159-1.186,1.159Z" transform="translate(-9.901 -9.969)" fill="#f85316"/>
      <path id="Trazado_160515" data-name="Trazado 160515" d="M1355.974,713.26a.972.972,0,1,1,.058-1.943.98.98,0,0,1,.939,1.03A.991.991,0,0,1,1355.974,713.26Z" transform="translate(-55.017 -169.678)" fill="#3d46c2"/>
      <path id="Trazado_160516" data-name="Trazado 160516" d="M1571.524,579.611a.97.97,0,1,1-.968,1A.989.989,0,0,1,1571.524,579.611Z" transform="translate(-234.547 -59.969)" fill="#75b62f"/>
    </g>
  </g>
</svg>
