<svg xmlns="http://www.w3.org/2000/svg" width="40.16" height="60" viewBox="0 0 40.16 60">
  <g id="Grupo_110062" data-name="Grupo 110062" transform="translate(14132.211 23624.473)">
    <g id="Grupo_109873" data-name="Grupo 109873" transform="translate(-15729.02 -24752.969)">
      <path id="Trazado_160493" data-name="Trazado 160493" d="M1597.565,1188.5a1.567,1.567,0,0,1-.747-1.585,42.985,42.985,0,0,1,.106-4.5,4.6,4.6,0,0,1,3.511-3.875.544.544,0,0,0,.515-.515,7.405,7.405,0,0,1,4.222-5.581,1.024,1.024,0,0,0,.555-.558,48.4,48.4,0,0,0,4.092-18.946c.007-.406-.082-.554-.452-.643a3.782,3.782,0,0,1-2.3-5.283c.164-.369.1-.49-.188-.7a5.844,5.844,0,0,1-2.446-4.958c-.018-3.808-.006-7.616,0-11.424,0-1.008.377-1.429,1.276-1.432q1.9-.005,3.8,0c.869,0,1.255.43,1.257,1.394,0,1.875.009,3.75-.006,5.624,0,.362.055.528.421.487.553-.062,1.3.253,1.613-.125.275-.33.081-1.147.083-1.749,0-1.426,0-2.851,0-4.277,0-.918.4-1.353,1.239-1.355q2.772-.007,5.544,0c.858,0,1.24.439,1.242,1.411,0,1.875.012,3.75-.008,5.624,0,.4.1.493.439.47.541-.037,1.257.2,1.579-.1s.093-1.133.1-1.731c.013-1.425,0-2.851.005-4.277,0-.965.387-1.394,1.255-1.4q1.927-.007,3.854,0c.83,0,1.225.443,1.225,1.37,0,3.847.021,7.694-.007,11.541a5.818,5.818,0,0,1-2.484,4.935c-.235.169-.323.265-.168.61a3.786,3.786,0,0,1-2.33,5.35c-.323.08-.4.219-.4.572a48.318,48.318,0,0,0,4.113,19.057.883.883,0,0,0,.486.48,7.423,7.423,0,0,1,4.279,5.663.481.481,0,0,0,.453.448,4.765,4.765,0,0,1,3.659,4.811c.014,1.191-.025,2.384.014,3.573a1.594,1.594,0,0,1-.75,1.585Zm23.016-8.907c.205-.892.507-1.16,1.334-1.16,2.8,0,5.6-.01,8.393.009.419,0,.453-.115.33-.524a4.918,4.918,0,0,0-4.546-3.694c-6.141-.02-12.282-.007-18.423-.005a3.818,3.818,0,0,0-1.349.245,5.257,5.257,0,0,0-3.313,3.969h.645q4.144,0,8.288,0c.786,0,1.116.308,1.274,1.154-.126.862-.454,1.186-1.234,1.187-3.536,0-7.072,0-10.608,0a2.46,2.46,0,0,0-2.432,2.686c-.005.683.037,1.37-.013,2.049-.041.562.151.656.611.655q17.337-.02,34.674-.011a1.652,1.652,0,0,1,.264,0c.315.052.383-.116.374-.433-.018-.683-.005-1.366-.006-2.049,0-1.863-.933-2.9-2.613-2.9q-5.172,0-10.344,0C1621.062,1180.769,1620.76,1180.49,1620.581,1179.588Zm-3.7-7.724c2.763,0,5.526-.005,8.288.006.37,0,.551.006.342-.511a50.153,50.153,0,0,1-3.651-18.491c0-.335-.054-.475-.4-.474q-4.566.024-9.133,0c-.327,0-.42.1-.414.458a39.484,39.484,0,0,1-.232,4.557,49.96,49.96,0,0,1-3.412,13.936c-.193.474-.09.528.324.526C1611.36,1171.855,1614.122,1171.863,1616.885,1171.863Zm.012-26.96q3.484,0,6.968,0c2.036,0,3.372-1.483,3.374-3.739,0-2.831.007-5.662,0-8.493,0-.6.238-1.394-.109-1.732-.3-.294-1.007-.052-1.528-.106-.427-.044-.481.157-.477.565.018,1.835.01,3.671.007,5.506,0,1.008-.38,1.435-1.275,1.438q-1.874.006-3.748,0c-.941,0-1.312-.411-1.313-1.454,0-1.855-.01-3.71.007-5.565,0-.38-.088-.5-.437-.49-.967.026-1.936.036-2.9,0-.425-.018-.481.158-.477.567.018,1.835.01,3.671.007,5.506,0,1.008-.38,1.435-1.274,1.438q-1.9.006-3.8,0c-.867,0-1.257-.435-1.26-1.394,0-1.445.009-2.89-.006-4.335-.006-.577.229-1.348-.107-1.676-.292-.285-.972-.059-1.477-.1-.4-.033-.536.078-.533.562.022,3.28.008,6.56.013,9.841a3.352,3.352,0,0,0,3.333,3.665Q1613.387,1144.908,1616.9,1144.9Zm-.016,5.156c2.234,0,4.468.006,6.7,0a1.343,1.343,0,0,0,1.345-1.655,1.293,1.293,0,0,0-1.377-1.153q-4.934-.006-9.869,0c-1.179,0-2.357-.01-3.536,0a1.4,1.4,0,0,0,.085,2.806C1612.448,1150.063,1614.665,1150.059,1616.881,1150.059Z" transform="translate(0)" fill="#010101"/>
      <path id="Trazado_160494" data-name="Trazado 160494" d="M1686.08,1300.607c-2.763,0-5.526-.008-8.288.009-.414,0-.517-.052-.324-.526a49.961,49.961,0,0,0,3.412-13.936,39.481,39.481,0,0,0,.232-4.557c-.006-.359.088-.46.414-.458q4.566.021,9.133,0c.346,0,.4.138.4.473a50.153,50.153,0,0,0,3.651,18.491c.209.517.028.513-.342.511C1691.605,1300.6,1688.843,1300.607,1686.08,1300.607Z" transform="translate(-69.194 -128.744)" fill="#dce736"/>
      <path id="Trazado_160495" data-name="Trazado 160495" d="M1633.439,1454.793c.179.9.481,1.181,1.306,1.181q5.172,0,10.344,0c1.679,0,2.611,1.037,2.613,2.9,0,.683-.013,1.367.006,2.05.008.318-.059.485-.374.433a1.65,1.65,0,0,0-.264,0q-17.337,0-34.674.011c-.46,0-.652-.093-.611-.655.05-.679.008-1.365.013-2.049a2.461,2.461,0,0,1,2.433-2.686c3.536-.007,7.072,0,10.608,0,.78,0,1.108-.325,1.234-1.187l2.609,0c.133.793.483,1.18,1.068,1.18s.935-.387,1.068-1.18Z" transform="translate(-12.858 -275.205)" fill="#dce736"/>
      <path id="Trazado_160496" data-name="Trazado 160496" d="M1676.063,1157.259c-2.34,0-4.681,0-7.021,0a3.352,3.352,0,0,1-3.333-3.665c-.005-3.28.009-6.56-.013-9.841,0-.484.138-.594.533-.562.505.042,1.185-.183,1.477.1.337.328.1,1.1.107,1.676.015,1.445,0,2.89.006,4.335,0,.96.393,1.391,1.26,1.394q1.9.007,3.8,0c.894,0,1.273-.43,1.274-1.438,0-1.835.011-3.671-.007-5.506,0-.409.052-.585.477-.567.966.04,1.936.03,2.9,0,.349-.009.441.11.437.49-.017,1.855-.009,3.709-.007,5.565,0,1.042.372,1.451,1.313,1.453q1.874,0,3.748,0c.894,0,1.273-.43,1.275-1.438,0-1.835.011-3.671-.007-5.506,0-.408.05-.609.477-.565.522.054,1.226-.188,1.528.106.347.338.107,1.136.109,1.732.011,2.831.008,5.662,0,8.493,0,2.256-1.339,3.736-3.374,3.739Q1679.547,1157.263,1676.063,1157.259Z" transform="translate(-59.166 -12.356)" fill="#dce736"/>
      <path id="Trazado_160497" data-name="Trazado 160497" d="M1658.307,1425.835l-2.621,0c-.16-.767-.544-1.172-1.094-1.155s-.887.406-1.043,1.155l-2.609,0c-.157-.846-.488-1.153-1.274-1.154q-4.144,0-8.288,0h-.645a5.257,5.257,0,0,1,3.313-3.969,3.818,3.818,0,0,1,1.349-.245c6.141,0,12.282-.015,18.423.005a4.918,4.918,0,0,1,4.546,3.694c.123.409.09.527-.33.524-2.8-.018-5.6-.011-8.393-.009C1658.814,1424.675,1658.512,1424.943,1658.307,1425.835Z" transform="translate(-37.726 -246.247)" fill="#f85316"/>
      <path id="Trazado_160498" data-name="Trazado 160498" d="M1690.069,1251.057c-2.217,0-4.433,0-6.65,0a1.4,1.4,0,0,1-.085-2.806c1.178-.014,2.357,0,3.536,0q4.935,0,9.869,0a1.293,1.293,0,0,1,1.377,1.153,1.343,1.343,0,0,1-1.345,1.655C1694.538,1251.063,1692.3,1251.057,1690.069,1251.057Z" transform="translate(-73.188 -100.998)" fill="#f85316"/>
      <path id="Trazado_160499" data-name="Trazado 160499" d="M1731.535,1448.586c.155-.748.507-1.138,1.042-1.155s.934.388,1.094,1.155c-.133.793-.483,1.18-1.068,1.18S1731.667,1449.379,1731.535,1448.586Z" transform="translate(-115.712 -269.001)" fill="#010101"/>
    </g>
  </g>
</svg>
