<svg xmlns="http://www.w3.org/2000/svg" width="59.996" height="60" viewBox="0 0 59.996 60">
  <g id="Grupo_110063" data-name="Grupo 110063" transform="translate(14710.803 23504.018)">
    <g id="Grupo_109872" data-name="Grupo 109872" transform="translate(-14099.76 -24505.477)">
      <path id="Trazado_160472" data-name="Trazado 160472" d="M-569.561,1061.458h-23.2c-.068-.179-.255-.156-.387-.213a3.007,3.007,0,0,1-1.83-3.42,3,3,0,0,1,2.956-2.356c.547-.008,1.095-.025,1.639.006.344.02.481-.083.522-.431.193-1.666.389-3.332.623-4.993.072-.511-.081-.6-.564-.6q-7.995.027-15.99.008a5.008,5.008,0,0,1-5.25-5.268q0-18.743,0-37.486a5.732,5.732,0,0,1,.051-.933,4.988,4.988,0,0,1,5.152-4.315q20.851,0,41.7,0c2.655,0,5.31-.007,7.966,0a5,5,0,0,1,4.986,3.817c.028.1-.026.247.138.283V1045.4c-.09.021-.1.094-.128.17a5.03,5.03,0,0,1-5.334,3.892h-15.914c-.249,0-.5-.071-.444.367.235,1.757.444,3.518.651,5.279.036.3.181.369.46.36.6-.018,1.209-.016,1.813,0a2.957,2.957,0,0,1,2.784,2.187,3.026,3.026,0,0,1-1.261,3.322A8.45,8.45,0,0,1-569.561,1061.458Zm-5.329-11.055c.015-.889.015-.889-.825-.889h-10.659c-.841,0-.841,0-.824.889-.3,1.532-.4,3.09-.626,4.631-.044.3.044.41.367.41q6.414-.014,12.827,0c.323,0,.411-.109.367-.41C-574.489,1053.493-574.594,1051.935-574.891,1050.4Zm-27.95-10.981c.156.009.311.025.466.025q24.372,0,48.744.013c.5,0,.6-.148.6-.62q-.022-13.153-.012-26.306c0-.175-.014-.35-.021-.526.134-.5-.12-.566-.553-.565q-27.4.013-54.805-.005c-.529,0-.635.142-.634.647q.024,13.38.012,26.759a2.008,2.008,0,0,1,0,.234c-.032.27.064.379.354.376C-606.743,1039.435-604.791,1039.431-602.84,1039.422Zm21.86,2.026h-27.232a3.322,3.322,0,0,1-.41,0c-.33-.042-.443.086-.431.423.024.7.007,1.406.007,2.108q0,3.485,3.487,3.488h49.018a7.335,7.335,0,0,0,.76-.03,2.973,2.973,0,0,0,2.735-2.978c.015-.781-.028-1.564.015-2.342.029-.519-.1-.681-.658-.68Q-567.335,1041.464-580.981,1041.448Zm-.086-32h9.547q8.9,0,17.8.01c.5,0,.738-.078.686-.652-.058-.639-.013-1.287-.013-1.932,0-2.236-1.189-3.417-3.439-3.417h-35.668q-6.882,0-13.763,0a3,3,0,0,0-3.131,3.136c-.005.722.04,1.448-.014,2.166-.043.571.135.7.7.7Q-594.714,1009.434-581.067,1009.449Zm0,49.983h7.261c1.21,0,2.42.012,3.63,0a.974.974,0,0,0,1.058-1.206c-.108-.484-.493-.724-1.18-.724h-21.491a2.756,2.756,0,0,0-.351.007.933.933,0,0,0-.839,1.014c.029.586.443.911,1.195.912Q-586.43,1059.435-581.072,1059.432Z" transform="translate(0 0)" fill="#020202"/>
      <path id="Trazado_160473" data-name="Trazado 160473" d="M-589.022,1108.885c-1.951.009-3.9.013-5.853.031-.29,0-.386-.106-.354-.376a1.981,1.981,0,0,0,0-.234q0-13.38-.012-26.759c0-.505.106-.648.634-.647q27.4.023,54.8.005c.433,0,.687.064.553.565a23.928,23.928,0,0,0-1.6,1.977c-.762.921-1.5,1.864-2.348,2.709a3.852,3.852,0,0,1-.017-.641c.065-.488-.12-.632-.608-.612-.993.039-1.989.012-2.983.012-1.442,0-1.425,0-1.442,1.465,0,.428.092.571.543.562,1.227-.024,2.455.008,3.682.017,0,.271-.227.394-.378.565a10.77,10.77,0,0,0-1.267,1.362c-.717.015-1.435.027-2.153.049-.155.005-.414-.079-.4.191a5.151,5.151,0,0,0,.1,1.83,2.858,2.858,0,0,1-.339.394c-.915.743-1.83,1.488-2.761,2.211a11.025,11.025,0,0,1-2,1.382q-.007-4.362-.015-8.725c0-.972-.326-1.3-1.3-1.3q-2.694-.011-5.388,0c-.96,0-1.307.355-1.308,1.308,0,2.6,0,5.192,0,7.788,0,1.952-.015,3.9-.023,5.854l-1.951.934q-.011-5.3-.023-10.6c0-.941-.321-1.263-1.265-1.266q-2.7-.007-5.39,0c-1.027,0-1.33.3-1.33,1.317q0,5.6,0,11.19c0,1.49,0,1.468-1.472,1.49-.46.007-.537-.141-.535-.56.019-2.714.011-5.429.009-8.144,0-.962-.337-1.292-1.309-1.294q-2.636,0-5.273,0c-1.147,0-1.418.268-1.418,1.407,0,2.676-.009,5.351.009,8.027,0,.419-.077.58-.539.563-1.034-.038-2.07-.012-3.1-.012-1.367,0-1.338,0-1.379,1.348-.017.544.145.664.671.662,3.925-.016,7.85,0,11.775.007-.027.174-.163.177-.3.218-.818.248-1.629.523-2.448.767-2.829.841-5.7,1.533-8.58,2.15C-586.415,1108.349-587.72,1108.614-589.022,1108.885Zm2.814-19.96h-3.626c-1.409,0-1.39,0-1.411,1.435-.007.458.113.59.58.586,2.651-.023,5.3-.011,7.953-.011,1.528,0,1.513,0,1.505-1.528,0-.394-.123-.494-.5-.489C-583.207,1088.936-584.708,1088.925-586.209,1088.925Zm1.984-4.01h-1.522c-1.522,0-1.506,0-1.5,1.532,0,.394.122.5.5.492,1.346-.019,2.693-.007,4.04-.007,1.559,0,1.548,0,1.5-1.591-.01-.333-.109-.439-.439-.432C-582.507,1084.928-583.366,1084.915-584.225,1084.915Zm-5.011,1.009c0-1.009,0-1.009-.955-1.009-1.044,0-1.044,0-1.044,1.037,0,.979,0,.979.984.979C-589.235,1086.932-589.235,1086.932-589.235,1085.924Z" transform="translate(-13.818 -69.463)" fill="#d2e1f1"/>
      <path id="Trazado_160474" data-name="Trazado 160474" d="M-545.741,1112.858c1.3-.271,2.607-.536,3.908-.814,2.885-.617,5.752-1.308,8.58-2.15.82-.244,1.63-.519,2.448-.767.135-.041.271-.044.3-.218.136-.007.272-.02.408-.02h23.654c1.517,0,1.5,0,1.5-1.516,0-.378-.1-.5-.486-.49-1.366.023-2.732,0-4.1.016-.33,0-.436-.094-.434-.428.017-2.517.016-5.035.021-7.552a11.033,11.033,0,0,0,2-1.382c.931-.723,1.846-1.467,2.761-2.211a2.864,2.864,0,0,0,.339-.394c1.131-.007,2.262-.018,3.393-.021,1.6,0,1.591,0,1.523-1.623-.013-.314-.118-.4-.411-.4-.681,0-1.363-.019-2.044-.031a10.774,10.774,0,0,1,1.267-1.362c.151-.172.375-.294.378-.565.607.073.931-.144.825-.8.85-.845,1.586-1.787,2.348-2.709a23.91,23.91,0,0,1,1.6-1.978c.007.175.021.35.021.526q0,13.153.012,26.306c0,.472-.094.621-.6.62q-24.372-.021-48.744-.013C-545.43,1112.883-545.586,1112.867-545.741,1112.858Z" transform="translate(-57.099 -73.436)" fill="#d2e1f1"/>
      <path id="Trazado_160475" data-name="Trazado 160475" d="M-567.14,1319.73q13.645,0,27.291-.014c.554,0,.687.16.658.68-.043.778,0,1.561-.015,2.342a2.973,2.973,0,0,1-2.735,2.978,7.335,7.335,0,0,1-.76.03h-49.018q-3.485,0-3.487-3.488c0-.7.017-1.406-.007-2.108-.011-.338.1-.464.431-.423a3.32,3.32,0,0,0,.41,0Zm23,2c-1.054,0-1.054,0-1.054,1.023,0,.984,0,.984.972.984,1.026,0,1.026,0,1.026-1.049C-543.2,1321.732-543.2,1321.732-544.142,1321.732Z" transform="translate(-13.84 -278.282)" fill="#c2c1c6"/>
      <path id="Trazado_160476" data-name="Trazado 160476" d="M-567.3,1023.356q-13.647,0-27.293.014c-.564,0-.743-.13-.7-.7.055-.718.009-1.444.014-2.166a3,3,0,0,1,3.131-3.136q6.882-.011,13.763,0h35.668c2.25,0,3.438,1.181,3.439,3.417,0,.644-.044,1.293.013,1.932.052.575-.185.654-.686.652q-8.9-.023-17.8-.01Zm-14.974-2c1.009,0,1.009,0,1.009-.958,0-1.041,0-1.041-1.043-1.041-.979,0-.979,0-.979.987C-583.288,1021.358-583.288,1021.358-582.274,1021.358Zm-3-1c0-1,0-1-1.023-1-.993,0-.993,0-.993.972,0,1.027,0,1.027,1,1.027C-585.273,1021.358-585.273,1021.358-585.273,1020.359Zm-5,1c.991,0,.991,0,.991-1.02,0-.979,0-.979-.976-.979-1.023,0-1.023,0-1.023.992S-591.286,1021.358-590.278,1021.358Z" transform="translate(-13.767 -13.907)" fill="#3d46c2"/>
      <path id="Trazado_160477" data-name="Trazado 160477" d="M-413.342,1391.115c.3,1.532.4,3.09.626,4.631.044.3-.044.41-.367.41q-6.414-.014-12.827,0c-.323,0-.411-.109-.367-.41.225-1.542.329-3.1.626-4.631a3.848,3.848,0,0,0,.4.04q5.751,0,11.5,0A3.916,3.916,0,0,0-413.342,1391.115Z" transform="translate(-161.549 -340.712)" fill="#c2c1c6"/>
      <path id="Trazado_160478" data-name="Trazado 160478" d="M-408.934,1384.928a3.916,3.916,0,0,1-.4.041q-5.751,0-11.5,0a3.784,3.784,0,0,1-.4-.04c-.016-.889-.016-.889.824-.889h10.659C-408.919,1384.039-408.919,1384.039-408.934,1384.928Z" transform="translate(-165.957 -334.525)" fill="#c2c1c6"/>
      <path id="Trazado_160479" data-name="Trazado 160479" d="M-490.53,1122.878c-.005,2.517,0,5.035-.021,7.552,0,.334.1.432.434.428,1.366-.016,2.732.008,4.1-.016.389-.007.484.112.486.49,0,1.516.017,1.516-1.5,1.516h-23.654c-.136,0-.272.013-.408.02-3.925-.007-7.85-.024-11.775-.007-.526,0-.688-.119-.671-.662.041-1.347.012-1.348,1.379-1.348,1.035,0,2.071-.026,3.1.012.462.017.542-.144.539-.563-.018-2.676-.01-5.351-.009-8.027,0-1.139.271-1.407,1.418-1.407q2.636,0,5.273,0c.972,0,1.308.332,1.309,1.294,0,2.715.01,5.429-.009,8.144,0,.419.075.567.535.56,1.472-.022,1.472,0,1.472-1.49q0-5.6,0-11.191c0-1.015.3-1.316,1.33-1.317q2.7,0,5.39,0c.944,0,1.263.324,1.265,1.266q.013,5.3.023,10.6c-.007.194-.021.388-.021.582,0,1.641,0,1.633,1.641,1.541.283-.016.365-.1.359-.374-.02-.895-.02-1.789-.028-2.684.008-1.951.02-3.9.023-5.854,0-2.6,0-5.192,0-7.789,0-.953.348-1.3,1.308-1.308q2.694-.01,5.388,0c.977,0,1.3.33,1.3,1.3Q-490.533,1118.515-490.53,1122.878Zm-2.012,0c0-2.5-.008-5,.008-7.5,0-.4-.1-.545-.518-.533-1.014.029-2.03.023-3.045,0-.363-.007-.462.12-.461.472q.014,7.554,0,15.108c0,.334.1.435.431.429,1.015-.019,2.03-.03,3.044,0,.44.015.555-.112.551-.551C-492.553,1127.837-492.542,1125.358-492.542,1122.879Zm-13.984,2c0,1.833.006,3.665-.006,5.5,0,.325.036.491.432.48,1.052-.029,2.105-.019,3.158,0,.3,0,.4-.072.4-.388q-.015-5.585,0-11.171c0-.337-.108-.429-.433-.423-1.013.018-2.028.025-3.041,0-.4-.011-.529.1-.523.514C-506.512,1121.213-506.525,1123.046-506.525,1124.878Zm-5.989,2c0-1.19-.013-2.38.008-3.57.006-.361-.107-.468-.463-.461q-1.55.031-3.1,0c-.345-.007-.474.074-.472.449q.025,3.569,0,7.139c0,.332.1.433.43.427,1.034-.018,2.068-.028,3.1,0,.435.013.512-.148.5-.538C-512.529,1129.182-512.514,1128.031-512.514,1126.88Z" transform="translate(-76.51 -97.396)" fill="#020202"/>
      <path id="Trazado_160480" data-name="Trazado 160480" d="M-558.406,1144.737c1.5,0,3,.011,4.5-.008.376,0,.5.1.5.489.008,1.528.023,1.528-1.505,1.528-2.651,0-5.3-.012-7.953.011-.467,0-.587-.128-.58-.586.021-1.435,0-1.435,1.411-1.435Z" transform="translate(-41.621 -125.275)" fill="#020202"/>
      <path id="Trazado_160481" data-name="Trazado 160481" d="M-528.592,1112.821c.859,0,1.718.012,2.576-.006.33-.007.429.1.439.432.049,1.591.06,1.591-1.5,1.591-1.347,0-2.694-.012-4.04.007-.377.005-.5-.1-.5-.492-.006-1.532-.021-1.532,1.5-1.532Z" transform="translate(-69.45 -97.369)" fill="#020202"/>
      <path id="Trazado_160482" data-name="Trazado 160482" d="M-216.064,1114.016c.106.659-.218.876-.825.8-1.227-.01-2.456-.041-3.682-.017-.452.009-.548-.135-.543-.562.017-1.465,0-1.465,1.442-1.465.994,0,1.99.027,2.983-.012.489-.019.674.124.608.612A3.849,3.849,0,0,0-216.064,1114.016Z" transform="translate(-340.949 -97.322)" fill="#020202"/>
      <path id="Trazado_160483" data-name="Trazado 160483" d="M-218.612,1144.486c.682.012,1.363.035,2.044.031.292,0,.4.081.41.4.068,1.623.078,1.62-1.523,1.624-1.131,0-2.262.014-3.393.021a5.149,5.149,0,0,1-.1-1.831c-.011-.269.248-.185.4-.19C-220.047,1144.513-219.33,1144.5-218.612,1144.486Z" transform="translate(-340.87 -125.062)" fill="#020202"/>
      <path id="Trazado_160484" data-name="Trazado 160484" d="M-338.453,1231.912c.008.895.008,1.789.028,2.684.006.272-.076.358-.359.374-1.644.092-1.645.1-1.641-1.541,0-.194.014-.388.021-.582Z" transform="translate(-236.625 -201.507)" fill="#d2e1f1"/>
      <path id="Trazado_160485" data-name="Trazado 160485" d="M-561.354,1113.876c0,1.008,0,1.008-1.015,1.008-.984,0-.984,0-.984-.979,0-1.037,0-1.037,1.044-1.037C-561.354,1112.867-561.354,1112.867-561.354,1113.876Z" transform="translate(-41.7 -97.415)" fill="#020202"/>
      <path id="Trazado_160486" data-name="Trazado 160486" d="M-195.952,1335.764c.944,0,.944,0,.944.958,0,1.049,0,1.049-1.026,1.049-.972,0-.972,0-.972-.984C-197.006,1335.764-197.006,1335.764-195.952,1335.764Z" transform="translate(-362.03 -292.314)" fill="#020202"/>
      <path id="Trazado_160487" data-name="Trazado 160487" d="M-498.667,1035.261c-1.013,0-1.013,0-1.013-1.012,0-.987,0-.987.979-.987,1.043,0,1.043,0,1.043,1.041C-497.658,1035.261-497.658,1035.261-498.667,1035.261Z" transform="translate(-97.375 -27.81)" fill="#020202"/>
      <path id="Trazado_160488" data-name="Trazado 160488" d="M-529.52,1034.262c0,1,0,1-1.02,1-1,0-1,0-1-1.027,0-.972,0-.972.993-.972C-529.52,1033.263-529.52,1033.263-529.52,1034.262Z" transform="translate(-69.52 -27.81)" fill="#020202"/>
      <path id="Trazado_160489" data-name="Trazado 160489" d="M-562.348,1035.261c-1.008,0-1.008,0-1.008-1.007,0-.992,0-.992,1.023-.992.976,0,.976,0,.976.979C-561.357,1035.261-561.357,1035.261-562.348,1035.261Z" transform="translate(-41.697 -27.81)" fill="#020202"/>
      <path id="Trazado_160490" data-name="Trazado 160490" d="M-304.7,1136.829c0,2.479-.011,4.958.011,7.437,0,.439-.11.565-.551.551-1.014-.034-2.03-.022-3.044,0-.331.006-.432-.1-.431-.429q.014-7.554,0-15.108c0-.352.1-.479.461-.472,1.015.02,2.03.026,3.045,0,.421-.012.521.132.518.533C-304.7,1131.832-304.7,1134.33-304.7,1136.829Z" transform="translate(-264.355 -111.346)" fill="#f85316"/>
      <path id="Trazado_160491" data-name="Trazado 160491" d="M-388.136,1166.787c0-1.833.013-3.665-.01-5.5-.005-.416.119-.525.523-.514,1.013.028,2.028.021,3.041,0,.325-.006.434.087.433.423q-.016,5.585,0,11.171c0,.317-.106.392-.4.388-1.052-.015-2.106-.025-3.158,0-.4.011-.434-.155-.432-.48C-388.13,1170.452-388.136,1168.619-388.136,1166.787Z" transform="translate(-194.899 -139.304)" fill="#75b62f"/>
      <path id="Trazado_160492" data-name="Trazado 160492" d="M-463.79,1196.515c0,1.151-.015,2.3.008,3.453.008.389-.069.551-.5.537-1.033-.032-2.067-.022-3.1,0-.329.006-.432-.1-.43-.427q.018-3.57,0-7.139c0-.375.127-.456.472-.45q1.55.03,3.1,0c.357-.007.469.1.463.461C-463.8,1194.135-463.79,1195.325-463.79,1196.515Z" transform="translate(-125.234 -167.032)" fill="#dce736"/>
    </g>
  </g>
</svg>
