<svg xmlns="http://www.w3.org/2000/svg" width="505" height="628.8" viewBox="0 0 505 628.8">
  <g id="Grupo_110063" data-name="Grupo 110063" transform="translate(5095.213 12379.645)">
    <path id="Trazado_162590" data-name="Trazado 162590" d="M0,0H256.969V159.041H0Z" transform="translate(-5095.213 -12360.385)" fill="#dee4f0" opacity="0.199"/>
    <path id="Trazado_159319" data-name="Trazado 159319" d="M223.53,154.323c-17.817-6.751-38.318,11.929-55.78,4.3-10.168-4.434-14.79-15.9-19.756-25.833s-13.561-20.359-24.591-19.212-20.1,14.046-30.869,10.936c-6.763-1.951-10.156-9.458-11.823-16.3S77.838,93.8,72.671,89,56.746,85.455,55.93,92.549v84.32H256.918S229.69,156.664,223.53,154.323Z" transform="translate(-5123.809 -12399.72)" fill="#dce736" opacity="0.164"/>
    <path id="Trazado_159320" data-name="Trazado 159320" d="M263.96,162.881c0,.177-48.71.331-108.77.331s-108.77-.154-108.77-.331,48.7-.331,108.77-.331S263.96,162.7,263.96,162.881Z" transform="translate(-5125.542 -12385.79)" fill="#e0e0e0"/>
    <path id="Trazado_159321" data-name="Trazado 159321" d="M263.96,131.731c0,.177-48.71.331-108.77.331s-108.77-.154-108.77-.331,48.7-.331,108.77-.331S263.96,131.554,263.96,131.731Z" transform="translate(-5125.542 -12391.469)" fill="#e0e0e0"/>
    <path id="Trazado_159322" data-name="Trazado 159322" d="M263.96,100.581c0,.177-48.71.331-108.77.331s-108.77-.154-108.77-.331,48.7-.331,108.77-.331S263.96,100.4,263.96,100.581Z" transform="translate(-5125.542 -12397.146)" fill="#e0e0e0"/>
    <path id="Trazado_159323" data-name="Trazado 159323" d="M263.96,70.981c0,.177-48.71.319-108.77.319s-108.77-.142-108.77-.319,48.7-.331,108.77-.331S263.96,70.792,263.96,70.981Z" transform="translate(-5125.542 -12402.542)" fill="#e0e0e0"/>
    <path id="Trazado_159324" data-name="Trazado 159324" d="M396.512,80.285V39.52A40.706,40.706,0,1,1,355.83,81.172Z" transform="translate(-5069.143 -12408.217)" fill="#3d46c2" opacity="0.148"/>
    <path id="Trazado_159325" data-name="Trazado 159325" d="M388.124,70.942l-40.694.922a42.95,42.95,0,0,1,11.527-29.309,41.842,41.842,0,0,1,28.54-12.3Z" transform="translate(-5070.674 -12409.904)" fill="#f85316" opacity="0.148"/>
    <path id="Trazado_159326" data-name="Trazado 159326" d="M118.318,386.528V349.7a36.828,36.828,0,1,0,36.816,37.679Z" transform="translate(-5119.15 -12351.677)" fill="#75b62f" opacity="0.289"/>
    <path id="Trazado_159327" data-name="Trazado 159327" d="M120.24,378.124l36.816.839a38.825,38.825,0,0,0-10.428-26.519,37.834,37.834,0,0,0-25.821-11.125Z" transform="translate(-5112.086 -12353.204)" fill="#dce736" opacity="0.289"/>
    <rect id="Rectángulo_40429" data-name="Rectángulo 40429" width="17.214" height="53.758" transform="translate(-4776.99 -12237.038)" fill="#75b62f" opacity="0.178"/>
    <path id="Trazado_162591" data-name="Trazado 162591" d="M0,0H17.214V41.486H0Z" transform="translate(-4751.288 -12224.766)" fill="#dce736" opacity="0.254"/>
    <path id="Trazado_162592" data-name="Trazado 162592" d="M0,0H17.214V24.639H0Z" transform="translate(-4727.5 -12207.918)" fill="#3d46c2" opacity="0.223"/>
    <path id="Trazado_159328" data-name="Trazado 159328" d="M45.28,231.73v61.661h76.1l13.979,19.592V293.391H151.9V231.73Z" transform="translate(-5140.256 -12334.649)" fill="#f3f9ff"/>
    <path id="Trazado_159329" data-name="Trazado 159329" d="M45.317,231.764h7.725l21.847-.071,77.052-.142h.273v62.242H135.364l.309-.309v20.482l-.558-.783L121.171,293.6l.249.119-76.1-.071H45.08v-.225c.059-18.987.095-34.414.131-45.154,0-5.316,0-9.494.059-12.259v12.4c0,10.68.071,26.036.119,45.012l-.225-.237,76.1-.059h.142l.095.119,13.991,19.592-.558.178v-19.9h16.851l-.309.309V231.716l.285.285-76.874-.142-21.906-.071H45.661Z" transform="translate(-5140.293 -12334.683)" fill="#263238"/>
    <path id="Trazado_159330" data-name="Trazado 159330" d="M129.04,252.529c0,.166-15.024.309-33.56.309s-33.56-.142-33.56-.309,15.024-.309,33.56-.309S129.04,252.351,129.04,252.529Z" transform="translate(-5137.149 -12330.824)" fill="#263238"/>
    <path id="Trazado_159331" data-name="Trazado 159331" d="M129.04,263.979c0,.166-15.024.309-33.56.309s-33.56-.142-33.56-.309,15.024-.309,33.56-.309S129.04,263.812,129.04,263.979Z" transform="translate(-5137.149 -12328.687)" fill="#263238"/>
    <path id="Trazado_159332" data-name="Trazado 159332" d="M485.881,85.28H387.99v55.538h16.187l-1.21.225,13.861,17.67-.9-17.9h69.956Z" transform="translate(-5076.272 -12361.991)" fill="#fafafa"/>
    <path id="Trazado_159333" data-name="Trazado 159333" d="M485.933,85.32v3.833c0,2.551,0,6.266.059,11.048,0,9.648.071,23.556.119,40.668v.237h-.225l-70.015.071.3-.32c.285,5.672.593,11.725.914,17.9v.961l-.593-.759-13.718-17.67-.309-.4.5-.095,1.187-.214.059.605h-16.5V85h.344l70.751.142,20.043.071h-.119l-20.115.071-70.561.32.285-.285V140.87l-.309-.309h16.187l.059.617-1.187.225.19-.5c4.747,6.052,9.422,12.009,13.861,17.67l-.546.2c-.308-6.159-.605-12.211-.89-17.884v-.32h.32l70.015.071-.237.225c.059-17.053.095-30.914.131-40.526,0-4.806,0-8.544.059-11.108V86.329A6.429,6.429,0,0,0,485.933,85.32Z" transform="translate(-5076.324 -12362.044)" fill="#263238"/>
    <path id="Trazado_159334" data-name="Trazado 159334" d="M403.52,104.269c0-.166,13.659-.309,30.51-.309s30.522.142,30.522.309-13.659.309-30.522.309S403.52,104.447,403.52,104.269Z" transform="translate(-5073.373 -12358.504)" fill="#263238"/>
    <path id="Trazado_159335" data-name="Trazado 159335" d="M403.52,114.3c0-.166,13.659-.309,30.51-.309s30.522.142,30.522.309-13.659.309-30.522.309S403.52,114.477,403.52,114.3Z" transform="translate(-5073.373 -12356.632)" fill="#263238"/>
    <path id="Trazado_159336" data-name="Trazado 159336" d="M193.36,168a52.974,52.974,0,1,0-12.6,14.039l23.734,5.6h0Z" transform="translate(-5130.92 -12361.631)" fill="#fff"/>
    <path id="Trazado_159337" data-name="Trazado 159337" d="M181.048,181.829h-.487a52.311,52.311,0,0,1-25.051,10.4,46.951,46.951,0,0,1-8.236.392c-1.412-.095-2.848-.131-4.308-.249l-4.379-.688a52.414,52.414,0,0,1-32.385-20.9,51.561,51.561,0,0,1-8.734-20.032A52.962,52.962,0,0,1,98.1,127.7,51.186,51.186,0,0,1,109.2,106.4a52.216,52.216,0,0,1,19.96-14.24,52.934,52.934,0,0,1,23.212-3.56,51.035,51.035,0,0,1,21.361,6.266,52.734,52.734,0,0,1,24.719,30.261,56.454,56.454,0,0,1,2.373,16.9,52.029,52.029,0,0,1-7.63,25.882l-.059.107.059.107,11.321,19.533-10.906-19.64a52.292,52.292,0,0,0,7.808-25.977,56.743,56.743,0,0,0-2.362-17.172A53.4,53.4,0,0,0,174.141,94.12a51.958,51.958,0,0,0-21.657-6.4,53.636,53.636,0,0,0-23.592,3.56,52.907,52.907,0,0,0-20.281,14.478,51.968,51.968,0,0,0-11.357,21.681,53.779,53.779,0,0,0-.617,23.425,52.45,52.45,0,0,0,8.924,20.281,53.02,53.02,0,0,0,32.9,21.1l4.45.665c1.46.131,2.919.166,4.355.237a46.855,46.855,0,0,0,8.307-.427,52.41,52.41,0,0,0,25.122-10.573l23.734,5.376Z" transform="translate(-5130.854 -12361.563)" fill="#263238"/>
    <path id="Trazado_159338" data-name="Trazado 159338" d="M136.671,117.1l1.5,23.734a3.856,3.856,0,0,0,3.56,3.56h0a3.857,3.857,0,0,0,4.047-3.418l2.634-23.841a3.015,3.015,0,0,0-2.663-3.329,3.306,3.306,0,0,0-.375-.018l-5.791.083a3.014,3.014,0,0,0-2.913,3.112C136.666,117.024,136.669,117.062,136.671,117.1Z" transform="translate(-5123.195 -12356.669)" fill="#ff725e"/>
    <path id="Trazado_159339" data-name="Trazado 159339" d="M148.042,152.038a5.81,5.81,0,1,1,.014-.044Z" transform="translate(-5123.173 -12350.95)" fill="#ff725e"/>
    <path id="Trazado_159340" data-name="Trazado 159340" d="M332.724,320.14l4.952,13.867s22.669,20.812,26,48.682,3.343,33.948,3.343,33.948L360,497.93H208.953s-4.952-65.718-3.157-84.3,12.653-39.619,12.653-39.619l11.514-27.869.347-14.028Z" transform="translate(-5115.199 -12248.774)" fill="#f85316"/>
    <path id="Trazado_159341" data-name="Trazado 159341" d="M332.292,332.491a9.2,9.2,0,0,1-1.065.223l-3.058.545L316.915,335.1c-9.521,1.523-22.669,3.541-37.229,5.584s-27.783,3.714-37.378,4.618c-4.791.5-8.667.817-11.366,1l-3.1.2a6.517,6.517,0,0,1-1.077,0,6.3,6.3,0,0,1,1.065-.161l3.083-.31c2.687-.272,6.562-.656,11.341-1.238,9.583-1.065,22.781-2.773,37.341-4.8s27.708-3.987,37.242-5.386l11.291-1.647,3.07-.421A6.413,6.413,0,0,1,332.292,332.491Z" transform="translate(-5110.112 -12245.835)" fill="#455a64"/>
    <path id="Trazado_159342" data-name="Trazado 159342" d="M246.882,372.22a6.9,6.9,0,0,1-.557,1.35c-.384.867-1,2.08-1.8,3.566a101.69,101.69,0,0,1-6.983,11.143,105.42,105.42,0,0,1-8.345,10.189c-1.151,1.238-2.117,2.191-2.81,2.835a6.929,6.929,0,0,1-1.1.966,5.823,5.823,0,0,1,.929-1.139l2.637-2.971a129.527,129.527,0,0,0,8.171-10.264c3-4.16,5.423-8.109,7.107-11.019l1.969-3.454A6.72,6.72,0,0,1,246.882,372.22Z" transform="translate(-5110.464 -12236.374)" fill="#455a64"/>
    <path id="Trazado_159343" data-name="Trazado 159343" d="M391.218,202.45s3.1,52.074,4.024,57.967-4.024,13.334-4.024,13.334S379.753,274.989,372,260.726l-4.952-11.143a70.959,70.959,0,0,0,2.786-29.454c-1.857-16.739-2.786-24.489-2.786-24.489Z" transform="translate(-5076.712 -12278.416)" fill="#ffbe9d"/>
    <path id="Trazado_159344" data-name="Trazado 159344" d="M380.345,147.084c1.35,12.567,1.238,23.437-4.952,25.666-.52.186-4.68.347-5.225.409-7.131.768-14.1-9.657-15.575-23.276s3.108-25.294,10.239-26.074c.669,0,4.47-.607,5.126-.5C376.284,124.452,379.008,134.74,380.345,147.084Z" transform="translate(-5079.744 -12295.641)" fill="#455a64"/>
    <path id="Trazado_159345" data-name="Trazado 159345" d="M397.414,182.627s5.225,1.746,4.271,6.785a115.59,115.59,0,0,1-4.271,13.99l-6.5,7.193L367.391,203.4a14.476,14.476,0,0,1-1.609-7.045c.161-3.95,0-13.73,0-13.73a23.224,23.224,0,0,0,4.271-8.989c.792-4.073,1.362-8.815,1.523-10.264a.447.447,0,0,1,.5-.388l.022,0a6.116,6.116,0,0,1,4.581,4.185c1.238,3.95.953,5.051.953,5.051Z" transform="translate(-5077.016 -12286.191)" fill="#ffbe9d"/>
    <path id="Trazado_159346" data-name="Trazado 159346" d="M377.519,166.326l-3.368-5.386-3.541,2.724,6.562,12.963,1.783-5.435Z" transform="translate(-5075.865 -12286.678)" fill="#455a64"/>
    <path id="Trazado_159347" data-name="Trazado 159347" d="M377.426,165.989s3.714-5.571,7.119-2.922,2.625,4.234,0,9.112c0,0,6.71-.929,5.126,6.19,0,0,6.661-1.312,6.5,4.408,0,0,5.485,4.544,3.12,7.973s-11.452,10-13.966,9.211-2.8-4.21-2.8-4.21-3-1.052-3.912-2.476.26-3.714.26-3.714-2.637-2.278-3.293-2.91,0-3.937,0-3.937l3.553-4.086s-5.126,2.761-6.314,1.981-2.476-1.449-1.449-3.17a54.3,54.3,0,0,1,4.952-5.67Z" transform="translate(-5075.772 -12286.342)" fill="#ffbe9d"/>
    <path id="Trazado_159348" data-name="Trazado 159348" d="M380.77,192.177a17.23,17.23,0,0,1,1.56-2.266,20.5,20.5,0,0,1,4.556-4.952,47.8,47.8,0,0,0,5.225-4.024,24.947,24.947,0,0,0,1.733-2.1,5.025,5.025,0,0,1-1.4,2.476,32.72,32.72,0,0,1-5.175,4.234,24.519,24.519,0,0,0-4.569,4.692A9.042,9.042,0,0,1,380.77,192.177Z" transform="translate(-5073.446 -12282.419)" fill="#eb996e"/>
    <path id="Trazado_159349" data-name="Trazado 159349" d="M377.35,187.485a52.043,52.043,0,0,1,5.039-6.438c1.461-1.7,2.7-3.33,3.8-4.358a4.962,4.962,0,0,1,1.969-1.4c.062.074-.669.619-1.634,1.721s-2.167,2.736-3.652,4.457A50.224,50.224,0,0,1,377.35,187.485Z" transform="translate(-5074.26 -12283.262)" fill="#eb996e"/>
    <path id="Trazado_159350" data-name="Trazado 159350" d="M377.57,176.8a24.832,24.832,0,0,1,2.86-3.256,38.028,38.028,0,0,0,2.476-3.491,6.451,6.451,0,0,1-1.969,3.912A10.664,10.664,0,0,1,377.57,176.8Z" transform="translate(-5074.208 -12284.509)" fill="#eb996e"/>
    <path id="Trazado_159351" data-name="Trazado 159351" d="M369.93,181a4.768,4.768,0,0,1,2.191.9,12.6,12.6,0,0,1,3.925,4.172,23.657,23.657,0,0,1,2.229,5.249,7.884,7.884,0,0,1,.532,2.29,8.65,8.65,0,0,1-.953-2.142,35.52,35.52,0,0,0-2.365-5.064,14.63,14.63,0,0,0-3.628-4.135A13.812,13.812,0,0,0,369.93,181Z" transform="translate(-5076.027 -12281.902)" fill="#eb996e"/>
    <ellipse id="Elipse_5267" data-name="Elipse 5267" cx="11.081" cy="24.811" rx="11.081" ry="24.811" transform="matrix(0.994, -0.108, 0.108, 0.994, -4721.283, -12171.133)" fill="#263238"/>
    <path id="Trazado_159352" data-name="Trazado 159352" d="M371.319,172.225c5.7-2.848,9.1-13.334,7.8-25.331s-6.809-21.407-12.95-23.053c-4.829,2.749-7.577,13.161-6.277,25.17S366.045,170.479,371.319,172.225Z" transform="translate(-5078.493 -12295.512)" fill="#e0e0e0"/>
    <path id="Trazado_159353" data-name="Trazado 159353" d="M369.543,159.5a108.107,108.107,0,0,1-1.015-11.675,109.739,109.739,0,0,1-.384-11.712,102.692,102.692,0,0,1,1.028,11.675A107.5,107.5,0,0,1,369.543,159.5Z" transform="translate(-5076.458 -12292.59)" fill="#fff"/>
    <path id="Trazado_159354" data-name="Trazado 159354" d="M367.855,152.964a14.891,14.891,0,0,1-.681-3.269c-.285-2.03-.582-4.829-.755-7.949s-.173-5.93-.111-7.973a14.848,14.848,0,0,1,.272-3.293,18.908,18.908,0,0,1,.186,3.293c0,2.043.124,4.841.3,7.949s.4,5.893.57,7.924A20.245,20.245,0,0,1,367.855,152.964Z" transform="translate(-5076.898 -12293.931)" fill="#fff"/>
    <path id="Trazado_159355" data-name="Trazado 159355" d="M377.476,166.006a1.516,1.516,0,0,1,0,.4l-.173,1.127-.73,4.3h0c-.718.743-1.523,1.61-2.4,2.575a22.746,22.746,0,0,0-2.612,3.318,1.624,1.624,0,0,0-.211,1,1.539,1.539,0,0,0,.594.867,11.244,11.244,0,0,0,1.015.706,1.526,1.526,0,0,0,1.09.124,21.049,21.049,0,0,0,5.089-2.068l1.238-.619-.891,1.015-3.541,4.1.062-.087a4.955,4.955,0,0,0,0,3.962,11.017,11.017,0,0,0,3.318,2.86l.272.173-.186.272c-.755,1.065-1.238,2.687,0,3.566a14.39,14.39,0,0,0,3.863,2.191l-.433.285v-.1h0c.087.087-.2-.21.21.26.842-.483.235-.2.421-.272h0v.458a4.963,4.963,0,0,0,.111.631,5.548,5.548,0,0,0,.433,1.238,3.12,3.12,0,0,0,.78.966,1.877,1.877,0,0,0,1.04.5,6.289,6.289,0,0,0,2.476-.718,22.68,22.68,0,0,0,2.476-1.362,41.376,41.376,0,0,0,4.271-3.1A27.192,27.192,0,0,0,398.771,191a3.294,3.294,0,0,0,.854-2.117,5.179,5.179,0,0,0-.607-2.241,12.874,12.874,0,0,0-2.984-3.628l-.1-.1v-.149a4.78,4.78,0,0,0-.409-2.191,3.372,3.372,0,0,0-1.5-1.5,7.432,7.432,0,0,0-4.222-.446h-.384l.062-.4c.062-.421.149-.854.2-1.238a6.893,6.893,0,0,0,0-1.238,3.412,3.412,0,0,0-.879-2.142,5.1,5.1,0,0,0-4.148-1.238h-.446l.21-.384a37.2,37.2,0,0,0,1.87-3.714,5.1,5.1,0,0,0,.409-1.8,2.9,2.9,0,0,0-.483-1.61,7.338,7.338,0,0,0-2.315-2.13,3.105,3.105,0,0,0-2.551,0,8.424,8.424,0,0,0-2.971,2.229c-.3.31-.5.569-.644.743s-.21.26-.223.248a1.367,1.367,0,0,1,.173-.285,7.894,7.894,0,0,1,.594-.8,11.651,11.651,0,0,1,1.114-1.164,6.438,6.438,0,0,1,1.857-1.238,3.4,3.4,0,0,1,2.786,0l.681.421.631.508a6.174,6.174,0,0,1,1.238,1.238,3.166,3.166,0,0,1,.57,1.82,5.475,5.475,0,0,1-.409,1.956,35.514,35.514,0,0,1-1.857,3.789l-.235-.347a7.012,7.012,0,0,1,2.377.149,4.326,4.326,0,0,1,2.216,1.238,3.962,3.962,0,0,1,1.04,2.476,8.187,8.187,0,0,1,0,1.35,8.711,8.711,0,0,1-.21,1.35l-.322-.334a7.868,7.868,0,0,1,4.593.47,3.986,3.986,0,0,1,1.77,1.758,5.333,5.333,0,0,1,.483,2.476l-.111-.248a13.3,13.3,0,0,1,3.145,3.813,5.348,5.348,0,0,1,.681,2.476,3.576,3.576,0,0,1-.26,1.35,5.354,5.354,0,0,1-.718,1.151,26.464,26.464,0,0,1-3.714,3.714,40.239,40.239,0,0,1-4.346,3.157A23.516,23.516,0,0,1,388.8,199.6a6.509,6.509,0,0,1-2.823.768,3.183,3.183,0,0,1-2.55-1.758,6.085,6.085,0,0,1-.5-1.35,6.954,6.954,0,0,1-.124-.693v-.582h0c.186-.087-.409.21.421-.272.409.458.124.161.211.26v.656l-.433-.173a15.341,15.341,0,0,1-4.036-2.3,2.91,2.91,0,0,1-.743-1,2.367,2.367,0,0,1-.161-1.238,4.728,4.728,0,0,1,.879-2.154l.087.446a11.446,11.446,0,0,1-3.5-3.07,4,4,0,0,1-.545-2.253,7.138,7.138,0,0,1,.384-2.179h0l3.578-4.061.31.4A20.378,20.378,0,0,1,374,181.1a1.93,1.93,0,0,1-1.424-.2c-.347-.248-.706-.47-1.04-.755a1.911,1.911,0,0,1-.73-1.127,2,2,0,0,1,.26-1.238,23.164,23.164,0,0,1,2.724-3.355c.891-.966,1.721-1.808,2.476-2.476h0c.371-1.82.656-3.256.867-4.284l.248-1.1A1.363,1.363,0,0,1,377.476,166.006Z" transform="translate(-5075.822 -12286.383)" fill="#eb996e"/>
    <path id="Trazado_159356" data-name="Trazado 159356" d="M224.181,362.164,177.419,304.11S152.558,325.046,151.9,325.7s38.888,39.136,64.294,54.03l7.986-5.287Z" transform="translate(-5127.939 -12252.591)" fill="#ffbe9d"/>
    <path id="Trazado_159357" data-name="Trazado 159357" d="M251.333,336.307s-14.758-2.328-16.1-1.362-11.465,7.775-11.465,7.775a53.108,53.108,0,0,1-4.47,6.017s-3.293,3.888-5.819,4.271a11.165,11.165,0,0,1-4.086,0l-6.6,18.262s5.051,5.25,8.159,4.853,19.611-9.509,19.611-9.509l4.086-1.362s15.922.582,16.7-4.271V359.62l-15.736-1.362-5.819.978,10.1-3.8s14.758-.867,16.1-1.238,2.909-2.476,2.328-3.714l-3.108-.384s3.355-2.315,3.231-4.457l-13.966-2.216S252.893,339.2,251.333,336.307Z" transform="translate(-5115.819 -12245.305)" fill="#ffbe9d"/>
    <path id="Trazado_159358" data-name="Trazado 159358" d="M252.349,347.552a5.729,5.729,0,0,1-1.238-.173c-.8-.149-1.993-.347-3.454-.557-2.934-.433-7-.953-11.49-1.449a12.93,12.93,0,0,0-1.622-.136,4.933,4.933,0,0,0-1.5.26c-.953.384-1.907.83-2.786,1.238-1.77.83-3.343,1.634-4.63,2.365a31.773,31.773,0,0,0-2.947,1.857,7.905,7.905,0,0,1-1.065.73,3.468,3.468,0,0,1,.9-.929A23.227,23.227,0,0,1,225.4,348.7,45.94,45.94,0,0,1,230,346.228a27.464,27.464,0,0,1,2.835-1.238,5.457,5.457,0,0,1,1.684-.31,15.1,15.1,0,0,1,1.721.136c4.507.508,8.568,1.09,11.489,1.647,1.461.272,2.637.532,3.442.755A4.273,4.273,0,0,1,252.349,347.552Z" transform="translate(-5111.338 -12242.932)" fill="#eb996e"/>
    <path id="Trazado_159359" data-name="Trazado 159359" d="M240.474,342.578c0,.1-1.139-.384-3.009-.743a16.328,16.328,0,0,0-13.829,3.578c-1.449,1.238-2.179,2.179-2.266,2.1a8,8,0,0,1,1.969-2.476,15.326,15.326,0,0,1,14.226-3.714A7.789,7.789,0,0,1,240.474,342.578Z" transform="translate(-5111.397 -12243.838)" fill="#eb996e"/>
    <path id="Trazado_159360" data-name="Trazado 159360" d="M410.126,260.592a24.2,24.2,0,0,1,2.848,9.9c0,4.841-2.835,13.309-2.835,13.309l-3.529,3.33s2.315,10.586-11.143,13.619-88.474-40.127-88.474-40.127L305,203.38s10.9,4.544,18.757,12.381,52.656,40.857,52.656,40.857,1.82-11.688,3.826-10.92S410.126,260.592,410.126,260.592Z" transform="translate(-5091.486 -12276.573)" fill="#e0e0e0"/>
    <path id="Trazado_159361" data-name="Trazado 159361" d="M331.642,207.223l-40.622-8.667-10.573-10.87-46.713-.446L228.1,197.467l-35,21.283s8.815,58.3,12.034,65.1,28.7,81.714,28.7,81.714l101.845-12.146.867-47.047,2.947-22.768a67.712,67.712,0,0,0,.3-14.684C337.833,247.7,331.642,207.223,331.642,207.223Z" transform="translate(-5118.128 -12280.416)" fill="#e0e0e0"/>
    <path id="Trazado_159362" data-name="Trazado 159362" d="M194.512,339.927l-33.428,22.892-11.663-16.628,3.12-2.773s-17.222-14.238-16.182-24.279,19.19-35.9,19.19-35.9,38.913-63.687,50.972-70.571c1.684-.953,16.33,34.394,16.33,48.286s-2.736,13.891-2.736,13.891-11.774,11.428-17.333,21.828-14.931,21.654-21.159,25.851Z" transform="translate(-5131.649 -12274.368)" fill="#e0e0e0"/>
    <path id="Trazado_159363" data-name="Trazado 159363" d="M157.83,294.829a5.483,5.483,0,0,1,.9-.1,17.8,17.8,0,0,1,2.476.136,24.247,24.247,0,0,1,7.75,2.352,25.477,25.477,0,0,1,6.587,4.729,11.353,11.353,0,0,1,2.13,2.588c-.161.173-3.368-3.962-9-6.735a27.987,27.987,0,0,0-7.528-2.476C159.105,294.978,157.83,294.941,157.83,294.829Z" transform="translate(-5126.526 -12254.824)" fill="#263238"/>
    <path id="Trazado_159364" data-name="Trazado 159364" d="M166.051,285.7a9.941,9.941,0,0,1,2.476,2.117,22.87,22.87,0,0,1,4.309,6.587,23.5,23.5,0,0,1,1.857,7.651,9.886,9.886,0,0,1-.136,3.256c-.1,0-.074-1.238-.31-3.219a27.663,27.663,0,0,0-2.006-7.429,26.631,26.631,0,0,0-4.061-6.549C166.917,286.6,165.989,285.787,166.051,285.7Z" transform="translate(-5124.569 -12256.974)" fill="#263238"/>
    <path id="Trazado_159365" data-name="Trazado 159365" d="M272.439,256.42a8.669,8.669,0,0,1,.31,1.7,18.235,18.235,0,0,1,.2,1.993,25.809,25.809,0,0,1,.074,2.662,29.949,29.949,0,0,1-.149,3.231c-.062,1.164-.285,2.389-.483,3.714a42.37,42.37,0,0,1-6.19,15.736c-.743,1.077-1.424,2.117-2.167,3.021a31.836,31.836,0,0,1-2.1,2.476,24.707,24.707,0,0,1-1.882,1.894,15.5,15.5,0,0,1-1.51,1.325,8.567,8.567,0,0,1-1.374,1.028c-.087-.111,1.845-1.609,4.432-4.544.644-.743,1.337-1.548,2.006-2.476s1.374-1.931,2.092-3.009a48.955,48.955,0,0,0,3.813-7.429,49.447,49.447,0,0,0,2.328-8.06c.21-1.238.446-2.476.532-3.628s.186-2.2.223-3.182C272.686,258.859,272.3,256.445,272.439,256.42Z" transform="translate(-5102.877 -12263.945)" fill="#263238"/>
    <path id="Trazado_159366" data-name="Trazado 159366" d="M278.456,248.716a4.94,4.94,0,0,1-.792-.594c-.52-.4-1.238-1.028-2.216-1.771-1.931-1.535-4.8-3.714-8.456-6.19s-8.06-5.423-12.95-8.667a157.009,157.009,0,0,1-15.476-11.539h.483c-.52.743-1.052,1.56-1.548,2.4a35.382,35.382,0,0,0-4.271,11.291l-.186.978-.4-.9a157.824,157.824,0,0,1-9.149-27c-.83-3.454-1.4-6.19-1.721-8.159-.186-.953-.285-1.7-.359-2.2a5.165,5.165,0,0,1-.087-.768,3.151,3.151,0,0,1,.2.743c.111.557.26,1.238.458,2.191.4,1.907,1.015,4.668,1.894,8.1a168.777,168.777,0,0,0,9.335,26.842h-.594a35.921,35.921,0,0,1,4.321-11.5c.508-.854,1.052-1.684,1.572-2.476l.21-.3.272.248a165.227,165.227,0,0,0,15.352,11.551c4.866,3.318,9.273,6.265,12.889,8.84s6.463,4.742,8.345,6.339c.966.768,1.659,1.436,2.142,1.87A7.038,7.038,0,0,1,278.456,248.716Z" transform="translate(-5111.407 -12278.429)" fill="#263238"/>
    <path id="Trazado_159367" data-name="Trazado 159367" d="M273.259,196.41a2.266,2.266,0,0,1,.334.508c.21.347.52.854.879,1.535.755,1.337,1.8,3.318,3.009,5.844a99.975,99.975,0,0,1,7.54,21.048l.2.854-.693-.545a45.494,45.494,0,0,1-9.038-9.348l.582-.173c-.409,7.156-.768,13.619-1.077,19.054h0c-2.241,4.011-4.086,7.317-5.41,9.707l-1.523,2.637a5,5,0,0,1-.57.9,4.707,4.707,0,0,1,.446-.966c.347-.693.817-1.6,1.4-2.724,1.238-2.4,3.046-5.745,5.212-9.793v.1c.272-5.361.594-11.9.941-19.054v-.9l.532.743a45.392,45.392,0,0,0,8.9,9.224l-.508.31a107.093,107.093,0,0,0-7.292-21.048c-1.164-2.476-2.142-4.544-2.835-5.918-.309-.644-.57-1.164-.78-1.585A2.916,2.916,0,0,1,273.259,196.41Z" transform="translate(-5100.417 -12278.233)" fill="#263238"/>
    <path id="Trazado_159368" data-name="Trazado 159368" d="M312.807,263.635c-.186,0-1.238-9.806-2.414-21.927s-1.931-21.976-1.758-21.988,1.238,9.793,2.4,21.927S312.968,263.61,312.807,263.635Z" transform="translate(-5090.626 -12272.684)" fill="#263238"/>
    <path id="Trazado_159369" data-name="Trazado 159369" d="M372.182,263.453a10.368,10.368,0,0,1-2.167-2.068,32.722,32.722,0,0,1-4.148-5.93,33.5,33.5,0,0,1-2.749-6.7,10.733,10.733,0,0,1-.57-2.947,72.936,72.936,0,0,0,3.888,9.335A71.376,71.376,0,0,0,372.182,263.453Z" transform="translate(-5077.784 -12266.472)" fill="#263238"/>
    <path id="Trazado_159370" data-name="Trazado 159370" d="M366.274,265.5a5.217,5.217,0,0,1-.607-.706,15.206,15.206,0,0,1-1.337-2.154,22.434,22.434,0,0,1-1.684-16.269A15.721,15.721,0,0,1,363.5,244a2.935,2.935,0,0,1,.458-.817c.1,0-.4,1.238-.867,3.306a25.125,25.125,0,0,0-.508,8.122,25.418,25.418,0,0,0,2.154,7.837C365.618,264.351,366.361,265.428,366.274,265.5Z" transform="translate(-5077.955 -12267.098)" fill="#263238"/>
    <path id="Trazado_159371" data-name="Trazado 159371" d="M191.84,241.59a6.982,6.982,0,0,1,.669,1.238l1.634,3.467,5.448,11.415c2.13,4.47,4,8.53,5.274,11.514.644,1.5,1.139,2.711,1.449,3.553a6.484,6.484,0,0,1,.446,1.35,5.486,5.486,0,0,1-.669-1.238l-1.647-3.467c-1.449-3.058-3.343-7.032-5.435-11.415s-4.011-8.53-5.274-11.514c-.644-1.5-1.139-2.711-1.461-3.553A6.087,6.087,0,0,1,191.84,241.59Z" transform="translate(-5118.429 -12267.477)" fill="#263238"/>
    <path id="Trazado_159372" data-name="Trazado 159372" d="M291.708,296.45a6.394,6.394,0,0,1-.359,1.51c-.272.953-.706,2.328-1.238,4.024-1.139,3.368-2.848,7.986-4.952,12.963s-4.346,9.4-6.03,12.529c-.842,1.572-1.548,2.823-2.068,3.714a7.416,7.416,0,0,1-.842,1.238,7.105,7.105,0,0,1,.631-1.411c.5-1.015,1.127-2.278,1.87-3.776,1.572-3.17,3.714-7.6,5.844-12.567s3.912-9.546,5.15-12.876c.582-1.572,1.065-2.885,1.461-3.937A7.949,7.949,0,0,1,291.708,296.45Z" transform="translate(-5098.338 -12254.414)" fill="#263238"/>
    <path id="Trazado_159373" data-name="Trazado 159373" d="M290.02,313.21a8.152,8.152,0,0,1-.99,2.3,45.818,45.818,0,0,1-3.132,5.126,46.9,46.9,0,0,1-3.776,4.692,8.059,8.059,0,0,1-1.82,1.7c-.136-.124,2.39-2.947,5.064-6.76S289.834,313.124,290.02,313.21Z" transform="translate(-5097.368 -12250.424)" fill="#263238"/>
    <path id="Trazado_159374" data-name="Trazado 159374" d="M285.869,331.041a5.512,5.512,0,0,1-.136-.953c-.074-.681-.161-1.6-.272-2.749-.223-2.389-.569-5.844-1.015-10.1-.929-8.53-2.377-20.3-4.866-33.144a310.379,310.379,0,0,0-8.023-32.549c-.607-2.055-1.238-3.9-1.733-5.522s-.978-3.021-1.374-4.148-.656-1.969-.879-2.625a4.177,4.177,0,0,1-.26-.929,7.756,7.756,0,0,1,.384.891c.248.644.569,1.5.99,2.575s.929,2.476,1.473,4.123,1.238,3.442,1.832,5.5a275.616,275.616,0,0,1,8.221,32.525c2.476,12.876,3.875,24.675,4.692,33.218.384,4.271.669,7.738.8,10.14l.149,2.749A4.313,4.313,0,0,1,285.869,331.041Z" transform="translate(-5100.46 -12268.255)" fill="#263238"/>
    <path id="Trazado_159375" data-name="Trazado 159375" d="M284.157,322.032a19.845,19.845,0,0,0,.78-5.831,19.009,19.009,0,0,0-1.6-5.67,4.153,4.153,0,0,1,1.077,1.436,10.89,10.89,0,0,1,1.164,4.185,10.66,10.66,0,0,1-.57,4.309C284.628,321.512,284.219,322.069,284.157,322.032Z" transform="translate(-5096.643 -12251.063)" fill="#263238"/>
    <path id="Trazado_159376" data-name="Trazado 159376" d="M282.5,325.326c-.186,0-.285-.8-.223-1.77s.248-1.758.421-1.746.285.8.223,1.783S282.67,325.339,282.5,325.326Z" transform="translate(-5096.901 -12248.376)" fill="#263238"/>
    <path id="Trazado_159377" data-name="Trazado 159377" d="M181.441,305.31a8.466,8.466,0,0,1-1.486.5c-.966.285-2.34.718-4.036,1.312s-3.714,1.387-5.831,2.328-4.482,2.129-6.871,3.454a102.165,102.165,0,0,0-11.675,7.689c-1.424,1.09-2.563,1.981-3.343,2.612a6.913,6.913,0,0,1-1.238.929,6.845,6.845,0,0,1,1.1-1.114c.73-.693,1.832-1.647,3.219-2.786a84.345,84.345,0,0,1,11.65-7.887c2.4-1.337,4.754-2.476,6.946-3.442a63.185,63.185,0,0,1,5.93-2.216,40.287,40.287,0,0,1,4.11-1.114A6.7,6.7,0,0,1,181.441,305.31Z" transform="translate(-5129.114 -12252.305)" fill="#263238"/>
    <path id="Trazado_159378" data-name="Trazado 159378" d="M179.186,305.38c0,.111-1.7,0-4.408.3a45.322,45.322,0,0,0-10.338,2.167A56.657,56.657,0,0,0,154.8,312.2a43.145,43.145,0,0,1-3.826,2.2,4.126,4.126,0,0,1,.9-.768,32.053,32.053,0,0,1,2.687-1.82,45.917,45.917,0,0,1,9.682-4.581,39.52,39.52,0,0,1,10.511-2.018,27.272,27.272,0,0,1,3.244,0A3.935,3.935,0,0,1,179.186,305.38Z" transform="translate(-5128.159 -12252.338)" fill="#263238"/>
    <g id="Grupo_108756" data-name="Grupo 108756" transform="translate(-4924.522 -12021.454)" opacity="0.3">
      <path id="Trazado_159379" data-name="Trazado 159379" d="M193.77,245.17a26.47,26.47,0,0,0,11.613,25.789C202.462,263.531,197.41,252.809,193.77,245.17Z" transform="translate(-193.509 -245.17)"/>
    </g>
    <g id="Grupo_108757" data-name="Grupo 108757" transform="translate(-4876.941 -12058.807)" opacity="0.3">
      <path id="Trazado_159380" data-name="Trazado 159380" d="M231.94,223.431a28.308,28.308,0,0,0,6.351,8.444l-.124-6.772,30.952,13.78L235.89,215c-1.82,3.058-2.13,5.349-3.95,8.407" transform="translate(-231.94 -215)"/>
    </g>
    <g id="Grupo_108758" data-name="Grupo 108758" transform="translate(-4825.622 -12062.125)" opacity="0.3">
      <path id="Trazado_159381" data-name="Trazado 159381" d="M279.333,218.8c-1.325-2.08-4.952-6.475-4.952-6.475-.124,3.244-.409,7.689-.52,10.945l-.47,7.788c.483-2.711.842-7.949,1.325-10.672l5.769,5.472A8.145,8.145,0,0,0,279.333,218.8Z" transform="translate(-273.39 -212.32)"/>
    </g>
    <g id="Grupo_108759" data-name="Grupo 108759" transform="translate(-4781.831 -12047.664)" opacity="0.3">
      <path id="Trazado_159382" data-name="Trazado 159382" d="M308.76,224l4.011,35.707C314.43,248.081,317.6,241.767,308.76,224Z" transform="translate(-308.76 -224)"/>
    </g>
    <g id="Grupo_108760" data-name="Grupo 108760" transform="translate(-4715.135 -12020.079)" opacity="0.3">
      <path id="Trazado_159383" data-name="Trazado 159383" d="M384.136,270.175c-1.486-1.238-4.779-2.006-6.475-2.922-7.689-4.185-11.762-11.836-14.758-20.057l-.272-.916c.31,11.019,7.3,22.806,17.333,27.337a5.993,5.993,0,0,0,3.306.693A2.328,2.328,0,0,0,385.324,272,2.989,2.989,0,0,0,384.136,270.175Z" transform="translate(-362.63 -246.28)"/>
    </g>
    <g id="Grupo_108761" data-name="Grupo 108761" transform="translate(-4853.108 -11992.247)" opacity="0.3">
      <path id="Trazado_159384" data-name="Trazado 159384" d="M251.19,295.441c12.728-4.222,18.868-16.207,22.137-26.681a42.47,42.47,0,0,1-1.622,13.458,21.529,21.529,0,0,1-7.589,11.044,14.46,14.46,0,0,1-12.926,2.179" transform="translate(-251.19 -268.76)"/>
    </g>
    <g id="Grupo_108762" data-name="Grupo 108762" transform="translate(-4976.831 -11946.4)" opacity="0.3">
      <path id="Trazado_159385" data-name="Trazado 159385" d="M177.941,306.05a36.984,36.984,0,0,0-25.765,8.283c-.52.433-1.09,1.052-.867,1.7a1.24,1.24,0,0,0,1.238.669,3.6,3.6,0,0,0,1.411-.582,110.888,110.888,0,0,1,23.969-10.326" transform="translate(-151.26 -305.79)"/>
    </g>
    <g id="Grupo_108763" data-name="Grupo 108763" transform="translate(-4820.385 -11971.749)" opacity="0.3">
      <path id="Trazado_159386" data-name="Trazado 159386" d="M300.587,286.027a2.6,2.6,0,0,0-3.5-.062,7.6,7.6,0,0,0-2.03,3.269L279.935,326.76l-2.315,5.559,15.848-26.569c3.157-5.3,6.376-10.747,7.429-16.826A3.553,3.553,0,0,0,300.587,286.027Z" transform="translate(-277.62 -285.316)"/>
    </g>
    <path id="Trazado_159387" data-name="Trazado 159387" d="M213.733,120.22c9.372-13.087,24.91-20.738,40.746-23.648,6.661-1.238,11.031-.334,17.668,1.015a28.661,28.661,0,0,1,17,9.744c5.039,6.265,9.4,13.371,10.784,21.3,1.424,8.147,2.848,16.343,2.761,24.6s-1.808,16.689-6.19,23.672l-20.7,4.952c-11.527,1.127-23.227,2.253-34.667.347s-22.756-7.28-29.417-16.764C202.454,152.287,204.349,133.307,213.733,120.22Z" transform="translate(-5115.139 -12302.144)" fill="#263238"/>
    <path id="Trazado_159388" data-name="Trazado 159388" d="M274.5,174.945a4.314,4.314,0,0,0,1.325,1.015,10.171,10.171,0,0,0,4.4,1.238,10.887,10.887,0,0,0,4.3-21.109,10.167,10.167,0,0,0-4.519-.631c-1.077.111-1.634.359-1.609.421a11.824,11.824,0,0,1,5.794,1.028,10.864,10.864,0,0,1,4.717,4,10.3,10.3,0,0,1-2.761,13.619,10.826,10.826,0,0,1-5.906,1.845C276.568,176.282,274.6,174.71,274.5,174.945Z" transform="translate(-5098.748 -12287.993)" fill="#e0e0e0"/>
    <path id="Trazado_159389" data-name="Trazado 159389" d="M199.114,166.41a15.687,15.687,0,0,1,6.327-12.232c3.937-2.674,9.669-2.8,13.285.3l3.541,3.714a13.509,13.509,0,0,1,8.667,13.124,14.858,14.858,0,0,1-9.5,12.765A16.415,16.415,0,0,1,205.6,181.3,18.375,18.375,0,0,1,199.114,166.41Z" transform="translate(-5116.702 -12288.769)" fill="#263238"/>
    <path id="Trazado_159390" data-name="Trazado 159390" d="M203.6,179.329a7.152,7.152,0,0,1-1.4-4.086c0-2.7,1.733-6.327,4.2-9.719a28.477,28.477,0,0,1,7.949-7.255c2.377-1.473,4.024-2.068,3.962-2.229a11.524,11.524,0,0,0-4.321,1.6,25.57,25.57,0,0,0-11.477,12.629,11.344,11.344,0,0,0-1.028,4.952,5.986,5.986,0,0,0,1.139,3.269C203.14,179.168,203.56,179.378,203.6,179.329Z" transform="translate(-5116.134 -12287.845)" fill="#455a64"/>
    <path id="Trazado_159391" data-name="Trazado 159391" d="M211.976,184.468c.347,0-1.486-6.277,0-13.879s5.46-12.728,5.163-12.889a11.254,11.254,0,0,0-2.563,3.281,29.16,29.16,0,0,0-3.789,19.475A11.449,11.449,0,0,0,211.976,184.468Z" transform="translate(-5114 -12287.449)" fill="#455a64"/>
    <path id="Trazado_159392" data-name="Trazado 159392" d="M274.115,214.387c-.607-7.329-1.164-13.334-1.164-13.3s16.937-2.971,20.255-25.146c1.659-11.019.941-29.07-.124-43.816-.953-13.272-13.421-30.643-29.826-29.714l-7.342-.384-27.238,12.876a7.788,7.788,0,0,0-6.9,7.961l5.955,94.838L278.3,270.943l2.9-15.018Z" transform="translate(-5111.301 -12300.704)" fill="#ffbe9d"/>
    <path id="Trazado_159393" data-name="Trazado 159393" d="M252.711,160.124a4.681,4.681,0,0,1,1.436-2.971,4.754,4.754,0,0,1,5.745-.706,6.387,6.387,0,0,1,2.8,5.831h0a5.8,5.8,0,0,1-3.987,2.674,4.1,4.1,0,0,0-.78.074,5.189,5.189,0,0,1-3.59-1.164A4.67,4.67,0,0,1,252.711,160.124Z" transform="translate(-5103.937 -12287.904)" fill="#eb996e"/>
    <path id="Trazado_159394" data-name="Trazado 159394" d="M275.738,138.978a2.847,2.847,0,0,1-2.711,2.9,2.711,2.711,0,0,1-2.94-2.46l-.006-.078a2.823,2.823,0,0,1,2.7-2.885,2.712,2.712,0,0,1,2.953,2.446C275.734,138.925,275.737,138.952,275.738,138.978Z" transform="translate(-5099.8 -12292.512)" fill="#263238"/>
    <path id="Trazado_159395" data-name="Trazado 159395" d="M277.569,133.79c-.347.371-2.476-1.238-5.571-1.164s-5.287,1.585-5.621,1.238c-.161-.161.2-.83,1.164-1.548a7.8,7.8,0,0,1,4.494-1.436,7.571,7.571,0,0,1,4.432,1.387C277.408,132.96,277.743,133.629,277.569,133.79Z" transform="translate(-5100.69 -12293.835)" fill="#263238"/>
    <path id="Trazado_159396" data-name="Trazado 159396" d="M261.458,157.743c0-.173,1.882-.52,4.952-.941.78-.087,1.523-.248,1.647-.78a3.818,3.818,0,0,0-.545-2.3l-2.352-5.93c-3.281-8.431-5.67-15.365-5.324-15.489s3.281,6.6,6.549,15.03l2.266,5.955a4.42,4.42,0,0,1,.433,3.058,1.932,1.932,0,0,1-1.238,1.151,4.958,4.958,0,0,1-1.312.2C263.39,157.929,261.471,157.929,261.458,157.743Z" transform="translate(-5102.247 -12293.497)" fill="#263238"/>
    <path id="Trazado_159397" data-name="Trazado 159397" d="M268.824,183.469a56.417,56.417,0,0,1-29.714-7.639s8.035,15.266,30.185,13Z" transform="translate(-5107.174 -12283.133)" fill="#eb996e"/>
    <path id="Trazado_159398" data-name="Trazado 159398" d="M253.981,154.62c.508,0,.545,3.281,3.4,5.621s6.376,1.931,6.413,2.389c0,.21-.78.656-2.278.706a8.243,8.243,0,0,1-5.349-1.808,7.216,7.216,0,0,1-2.637-4.717C253.4,155.437,253.759,154.608,253.981,154.62Z" transform="translate(-5103.747 -12288.183)" fill="#263238"/>
    <path id="Trazado_159399" data-name="Trazado 159399" d="M276.253,123.648c-.532.693-2.65,0-5.175,0s-4.68.508-5.175-.223c-.223-.347.111-1.04,1.04-1.709a7.491,7.491,0,0,1,8.345.186C276.179,122.6,276.488,123.3,276.253,123.648Z" transform="translate(-5100.811 -12296.298)" fill="#263238"/>
    <path id="Trazado_159400" data-name="Trazado 159400" d="M246.89,139.519a2.836,2.836,0,0,0,2.872,2.724,2.724,2.724,0,0,0,2.809-2.636v-.051a2.847,2.847,0,0,0-2.872-2.736,2.724,2.724,0,0,0-2.809,2.636Z" transform="translate(-5105.322 -12292.421)" fill="#263238"/>
    <path id="Trazado_159401" data-name="Trazado 159401" d="M243.08,135.694c.371.359,2.476-1.337,5.5-1.473s5.361,1.3,5.67.9c.161-.173-.235-.817-1.238-1.486a7.721,7.721,0,0,0-4.569-1.176,7.43,7.43,0,0,0-4.346,1.622C243.192,134.852,242.894,135.533,243.08,135.694Z" transform="translate(-5106.241 -12293.462)" fill="#263238"/>
    <path id="Trazado_159402" data-name="Trazado 159402" d="M243.117,132.277c.569.669,2.637-.149,5.163-.3s4.692.248,5.15-.5c.211-.359-.161-1.04-1.127-1.659a7.5,7.5,0,0,0-8.32.644C243.13,131.224,242.87,131.955,243.117,132.277Z" transform="translate(-5106.241 -12294.315)" fill="#263238"/>
    <path id="Trazado_159403" data-name="Trazado 159403" d="M231.229,150.073c0-1.647-1.956-5.522-3.578-5.757-4.358-.644-12.2-.223-12.17,10.821,0,15.1,15.191,11.948,15.216,11.514S231.3,155.769,231.229,150.073Z" transform="translate(-5112.8 -12290.681)" fill="#ffbe9d"/>
    <path id="Trazado_159404" data-name="Trazado 159404" d="M224.3,159.894a5,5,0,0,1-.706.4,2.628,2.628,0,0,1-1.969,0c-1.6-.582-2.947-3.108-3.021-5.831a8.766,8.766,0,0,1,.73-3.714,3.009,3.009,0,0,1,1.969-2.018,1.337,1.337,0,0,1,1.56.718c.2.421.1.718.186.743s.322-.248.2-.879a1.631,1.631,0,0,0-.594-.941,1.967,1.967,0,0,0-1.461-.384,3.715,3.715,0,0,0-2.736,2.352,8.891,8.891,0,0,0-.9,4.21c.1,3.046,1.671,5.881,3.85,6.512a2.8,2.8,0,0,0,2.4-.409C224.3,160.265,224.3,159.919,224.3,159.894Z" transform="translate(-5112.308 -12289.768)" fill="#eb996e"/>
    <path id="Trazado_159405" data-name="Trazado 159405" d="M225.3,154.517l4.073,3.714c15.489-16.85,45.215-58.45,43.556-55.974a48.156,48.156,0,0,0-23.734-1.065c-12.133,2.872-35,10.5-33.726,24.935S225.3,154.517,225.3,154.517Z" transform="translate(-5112.814 -12301.143)" fill="#263238"/>
    <path id="Trazado_159406" data-name="Trazado 159406" d="M229.129,177.912a4.326,4.326,0,0,1-1.238,1.176,10.385,10.385,0,0,1-4.222,1.733,11.138,11.138,0,0,1-6.735-.929,10.833,10.833,0,0,1-5.435-6.314,10.956,10.956,0,0,1,.446-8.32,11.261,11.261,0,0,1,4.779-4.841,10.454,10.454,0,0,1,4.408-1.238c1.077,0,1.659.149,1.647.223a11.959,11.959,0,0,0-5.621,1.746,10.914,10.914,0,0,0-4.172,4.581,10.312,10.312,0,0,0,4.457,13.1,10.837,10.837,0,0,0,6.1,1.077C227.247,179.5,229,177.689,229.129,177.912Z" transform="translate(-5113.895 -12287.098)" fill="#e0e0e0"/>
    <path id="Trazado_159407" data-name="Trazado 159407" d="M215.246,168.2a28.038,28.038,0,0,0-.074-3.5,53.775,53.775,0,0,1,.656-9.471A64.631,64.631,0,0,1,228.3,126.845a102.528,102.528,0,0,1,22.855-21.332c3.293-2.315,6.029-4.086,7.936-5.3A23.612,23.612,0,0,0,262,98.27a2.974,2.974,0,0,0-.829.371c-.532.272-1.312.669-2.29,1.238-1.969,1.1-4.779,2.786-8.147,5.027a96.9,96.9,0,0,0-23.264,21.32,62.611,62.611,0,0,0-12.381,28.9,46.8,46.8,0,0,0-.334,9.583,18.448,18.448,0,0,0,.285,2.6A3.739,3.739,0,0,0,215.246,168.2Z" transform="translate(-5112.999 -12301.6)" fill="#455a64"/>
    <path id="Trazado_159408" data-name="Trazado 159408" d="M253.366,98a3.419,3.419,0,0,0-.854.347c-.557.248-1.349.656-2.365,1.238-2.03,1.065-4.952,2.7-8.394,4.952a129.04,129.04,0,0,0-11.675,8.493,74.306,74.306,0,0,0-12.554,12.492,34.566,34.566,0,0,0-4.531,8.06,31.766,31.766,0,0,0-1.931,8.382,49.762,49.762,0,0,0,.953,14.449,83.211,83.211,0,0,0,2.476,9.422c.347,1.1.619,1.944.83,2.476a3.661,3.661,0,0,0,.347.854,24.4,24.4,0,0,0-.78-3.479c-.557-2.216-1.387-5.435-2.1-9.447a51.767,51.767,0,0,1-.73-14.213,31.83,31.83,0,0,1,1.931-8.122,33.637,33.637,0,0,1,4.42-7.8,75.757,75.757,0,0,1,12.381-12.381,142.467,142.467,0,0,1,11.465-8.667c3.392-2.29,6.19-4.011,8.184-5.188A26.977,26.977,0,0,0,253.366,98Z" transform="translate(-5113.89 -12301.664)" fill="#455a64"/>
    <path id="Trazado_159409" data-name="Trazado 159409" d="M223.18,154.906a12.707,12.707,0,0,0,1.845-2.03l4.729-5.757c3.95-4.89,9.36-11.688,15.278-19.24s11.242-14.411,15.055-19.426l4.469-5.955a13.581,13.581,0,0,0,1.523-2.278,14.542,14.542,0,0,0-1.845,2.018L259.518,108c-3.962,4.952-9.372,11.7-15.29,19.252s-11.242,14.424-15.08,19.426l-4.47,5.968A15.834,15.834,0,0,0,223.18,154.906Z" transform="translate(-5110.967 -12301.135)" fill="#e0e0e0"/>
    <path id="Trazado_159410" data-name="Trazado 159410" d="M255.8,153.974a17.312,17.312,0,0,0-2.8.087,16.758,16.758,0,0,0-2.588,1.089c-.161-.087.706-1.35,2.476-1.721A3.07,3.07,0,0,1,255.8,153.974Z" transform="translate(-5104.487 -12288.503)" fill="#eb996e"/>
    <path id="Trazado_159411" data-name="Trazado 159411" d="M243.151,138.6a5.068,5.068,0,0,1-2.848.347,5.177,5.177,0,0,1-2.773-.681,8.844,8.844,0,0,1,2.81,0A9.739,9.739,0,0,1,243.151,138.6Z" transform="translate(-5107.55 -12292.104)" fill="#eb996e"/>
    <path id="Trazado_159412" data-name="Trazado 159412" d="M242.264,139.373c0,.186-.854.446-1.907.78s-1.919.619-2.006.446.693-.718,1.82-1.065S242.251,139.2,242.264,139.373Z" transform="translate(-5107.356 -12291.842)" fill="#eb996e"/>
    <path id="Trazado_159413" data-name="Trazado 159413" d="M279.5,137.131c.062.173-.656.594-1.61.941s-1.771.5-1.832.322.656-.582,1.609-.929S279.441,136.983,279.5,137.131Z" transform="translate(-5098.377 -12292.361)" fill="#eb996e"/>
    <path id="Trazado_159414" data-name="Trazado 159414" d="M279.3,139.751c-.062.173-.854,0-1.77-.26s-1.622-.718-1.56-.879.854,0,1.77.26S279.351,139.59,279.3,139.751Z" transform="translate(-5098.398 -12292.01)" fill="#eb996e"/>
  </g>
</svg>
