<svg xmlns="http://www.w3.org/2000/svg" width="120" height="120" viewBox="0 0 120 120">
  <g id="Grupo_109927" data-name="Grupo 109927" transform="translate(12893.942 3941.359)">
    <circle id="Elipse_5399" data-name="Elipse 5399" cx="60" cy="60" r="60" transform="translate(-12893.942 -3941.359)" fill="#fff"/>
    <g id="Grupo_109910" data-name="Grupo 109910" transform="translate(-13938.419 -4236.226)">
      <path id="Trazado_162535" data-name="Trazado 162535" d="M1146.365,380.927c-.9,3.5-3.793,5.591-7.954,5.576-21.294-.071-42.59-.032-63.884-.033-.376,0-.754.013-1.128-.01-3.983-.247-6.179-2.907-6.931-6.084.028-.107.061-54.663.07-59.4,0-1.458.475-1.965,1.843-1.966q13.033-.01,26.065-.012a1.813,1.813,0,0,1,1.727,1.007c1.205,2.075,2.491,4.1,3.657,6.2a1.622,1.622,0,0,0,1.691.908q16.022-.04,32.046-.015c1.528,0,2.032.5,2.037,2.015.007,1.731.04,3.462-.016,5.19-.023.749.206.949.942.937,2.67-.042,5.341,0,8.011-.024a1.753,1.753,0,0,1,1.928,1.208C1146.458,336.536,1146.406,380.769,1146.365,380.927Zm-41.006-44.1c-.275,1.205-1.084,1.569-2.249,1.565-7.073-.023-14.145.012-21.218-.036-1.05-.008-1.38.194-1.376,1.325.047,12.64.021,25.281.039,37.92,0,1.961.009,3.9-1.188,5.74h59.4c3.122,0,4.6-1.485,4.6-4.647q0-19.582.024-39.162c0-.929-.209-1.181-1.161-1.175-7.938.042-15.876.013-23.814.035a1.991,1.991,0,0,1-2.26-1.566,1.878,1.878,0,0,1,2.18-1.623c4.363.037,8.727-.011,13.09.036.866.01,1.109-.234,1.048-1.072a23.326,23.326,0,0,1,0-3.044c.041-.694-.168-.9-.873-.885-2.106.048-4.213.017-6.319.017-8.352,0-16.7-.01-25.054.013a2.389,2.389,0,0,1-2.387-1.3c-1.129-2.031-2.4-3.981-3.536-6.009a1.459,1.459,0,0,0-1.5-.844c-7.3.026-14.6.04-21.893-.011-1.048-.007-1.267.288-1.265,1.292q.047,27.646.023,55.294c0,.339-.015.678.013,1.015a3.844,3.844,0,0,0,5.419,3.265,3.892,3.892,0,0,0,2.308-3.905q-.037-20.764-.012-41.527c0-1.835.46-2.317,2.221-2.317,7.861,0,15.724.011,23.586-.015C1104.393,335.2,1105.154,335.6,1105.359,336.831Z" transform="translate(0 0)" fill="#050403"/>
      <path id="Trazado_162536" data-name="Trazado 162536" d="M1116.962,337.948a1.991,1.991,0,0,0,2.26,1.566c7.938-.022,15.876.008,23.814-.035.952-.006,1.163.247,1.161,1.175q-.049,19.581-.024,39.162c0,3.162-1.475,4.646-4.6,4.647h-59.4c1.2-1.84,1.191-3.779,1.188-5.74-.018-12.64.009-25.281-.039-37.92,0-1.131.326-1.332,1.376-1.325,7.073.048,14.146.013,21.218.036,1.165,0,1.974-.359,2.249-1.565h3.795c.231.865.689,1.558,1.668,1.513a1.6,1.6,0,0,0,1.536-1.511Zm-18.248,34.193h8.122c3.521,0,3.521,0,3.512-3.522-.012-4.219-1.792-7.373-5.649-9.214-.67-.32-.677-.576-.364-1.152a7.432,7.432,0,0,0,.459-5.6,5.787,5.787,0,0,0-4.333-4.315,5.966,5.966,0,0,0-6.721,2.255,7.115,7.115,0,0,0-.593,7.582c.344.756.238.984-.446,1.279a9.1,9.1,0,0,0-4.136,3.683c-1.324,2.114-1.438,4.459-1.381,6.85.038,1.627.522,2.145,2.167,2.149C1092.472,372.148,1095.593,372.141,1098.714,372.141Zm28.308-14.705c3.834,0,7.67.008,11.506-.006,1.281,0,1.885-.593,1.9-1.842q.033-2.82,0-5.64c-.015-1.237-.573-1.843-1.781-1.844q-11.674-.025-23.351,0c-1.21,0-1.71.529-1.723,1.725-.02,1.843-.01,3.685,0,5.528,0,1.654.413,2.074,2.06,2.078Q1121.325,357.444,1127.022,357.436Zm.1,4.24c-3.83,0-7.661-.008-11.492,0-1.12,0-1.823.618-1.83,1.54-.008.984.74,1.586,2.032,1.587q11.267.008,22.534,0c1.39,0,2.127-.58,2.1-1.619-.025-.987-.734-1.509-2.078-1.51Q1132.757,361.671,1127.124,361.676Zm.02,7.372c-3.8,0-7.6.012-11.4-.009-.873,0-1.573.191-1.875,1.091-.375,1.117.488,2.006,1.979,2.007q11.285.013,22.57,0c1.329,0,2.05-.569,2.051-1.557,0-1.008-.679-1.528-2.042-1.53Q1132.787,369.041,1127.143,369.048Z" transform="translate(-0.808 -1.118)" fill="#dce736"/>
      <path id="Trazado_162537" data-name="Trazado 162537" d="M1116.353,337.025l-3.8,0c-.12-.906-.565-1.549-1.533-1.588-1.05-.041-1.476.674-1.67,1.586h-3.8c-.205-1.229-.966-1.627-2.163-1.623-7.862.026-15.725.012-23.586.015-1.761,0-2.221.482-2.221,2.317q0,20.764.012,41.527a3.892,3.892,0,0,1-2.308,3.905,3.844,3.844,0,0,1-5.419-3.265c-.028-.337-.013-.677-.013-1.015q0-27.648-.023-55.294c0-1,.216-1.3,1.265-1.292,7.3.051,14.6.038,21.893.011a1.459,1.459,0,0,1,1.5.844c1.134,2.029,2.407,3.979,3.536,6.009a2.389,2.389,0,0,0,2.387,1.3c8.352-.024,16.7-.013,25.054-.013,2.106,0,4.213.031,6.319-.017.7-.015.914.191.873.885a23.326,23.326,0,0,0,0,3.044c.061.837-.182,1.082-1.048,1.072-4.363-.047-8.727,0-13.09-.036A1.878,1.878,0,0,0,1116.353,337.025Z" transform="translate(-0.199 -0.195)" fill="#75b62f"/>
      <path id="Trazado_162538" data-name="Trazado 162538" d="M1099.153,372.776c-3.121,0-6.242.007-9.363,0-1.645,0-2.13-.522-2.167-2.149-.057-2.391.057-4.736,1.381-6.85a9.1,9.1,0,0,1,4.136-3.683c.684-.295.791-.523.446-1.279a7.115,7.115,0,0,1,.593-7.582,5.966,5.966,0,0,1,6.721-2.255,5.787,5.787,0,0,1,4.333,4.315,7.432,7.432,0,0,1-.459,5.6c-.313.576-.306.832.364,1.152,3.857,1.841,5.637,4.995,5.649,9.214.009,3.521.009,3.522-3.512,3.522Zm-.036-3.09c2.518,0,5.035-.023,7.553.015.715.01.987-.162.976-.933a6.441,6.441,0,0,0-4.854-6.282c-1.861-.495-2.043-.364-2.071,1.492,0,.151,0,.3-.009.451a1.4,1.4,0,0,1-1.426,1.445,1.383,1.383,0,0,1-1.568-1.154,5.3,5.3,0,0,1-.09-1.565c.062-.724-.223-.875-.9-.851a6.478,6.478,0,0,0-5.99,6.44c-.006.739.194.969.941.956C1094.157,369.659,1096.637,369.686,1099.117,369.686Zm-3.175-14.2a8.98,8.98,0,0,0,.173,1.33,3.176,3.176,0,0,0,3.527,2.31c1.74-.232,2.747-1.573,2.739-3.651-.008-2.215-1.3-3.659-3.249-3.625C1097.252,351.884,1095.985,353.346,1095.942,355.49Z" transform="translate(-1.247 -1.753)" fill="#050403"/>
      <path id="Trazado_162539" data-name="Trazado 162539" d="M1129.114,358.071q-5.7,0-11.394,0c-1.647,0-2.056-.423-2.06-2.078-.006-1.842-.015-3.685,0-5.528.013-1.2.513-1.722,1.723-1.725q11.676-.024,23.351,0c1.208,0,1.766.608,1.781,1.844q.034,2.82,0,5.64c-.015,1.249-.618,1.837-1.9,1.842C1136.785,358.08,1132.949,358.071,1129.114,358.071Zm-.108-6.241h-8.114c-2.141,0-2.083,0-2.152,2.089-.031.951.321,1.09,1.154,1.085,5.747-.032,11.495-.017,17.242-.017,2.256,0,2.211,0,2.25-2.21.015-.837-.281-.972-1.026-.963C1135.242,351.852,1132.124,351.83,1129.006,351.83Z" transform="translate(-2.901 -1.753)" fill="#050403"/>
      <path id="Trazado_162540" data-name="Trazado 162540" d="M1129.231,363.162q5.633,0,11.267,0c1.344,0,2.052.523,2.078,1.51.026,1.04-.711,1.619-2.1,1.619q-11.267.006-22.534,0c-1.291,0-2.039-.6-2.032-1.587.007-.921.71-1.537,1.83-1.54C1121.57,363.155,1125.4,363.163,1129.231,363.162Z" transform="translate(-2.916 -2.605)" fill="#050403"/>
      <path id="Trazado_162541" data-name="Trazado 162541" d="M1129.25,371q5.643,0,11.286,0c1.363,0,2.043.522,2.042,1.53,0,.988-.722,1.556-2.051,1.557q-11.285.01-22.57,0c-1.491,0-2.354-.89-1.979-2.007.3-.9,1-1.1,1.875-1.091C1121.651,371.009,1125.451,371,1129.25,371Z" transform="translate(-2.915 -3.066)" fill="#050403"/>
      <path id="Trazado_162542" data-name="Trazado 162542" d="M1111.83,337.849c.195-.912.62-1.627,1.67-1.586.968.039,1.412.681,1.533,1.588a1.6,1.6,0,0,1-1.536,1.511C1112.519,339.407,1112.061,338.713,1111.83,337.849Z" transform="translate(-2.675 -1.018)" fill="#050403"/>
      <path id="Trazado_162543" data-name="Trazado 162543" d="M1099.313,370.533c-2.479,0-4.96-.026-7.44.016-.747.013-.948-.217-.941-.956a6.478,6.478,0,0,1,5.99-6.44c.678-.024.964.127.9.851a5.3,5.3,0,0,0,.09,1.565,1.383,1.383,0,0,0,1.568,1.154,1.4,1.4,0,0,0,1.426-1.445c.008-.15.008-.3.009-.451.028-1.857.21-1.987,2.071-1.492a6.441,6.441,0,0,1,4.854,6.282c.011.771-.261.943-.976.933C1104.348,370.511,1101.831,370.533,1099.313,370.533Z" transform="translate(-1.443 -2.6)" fill="#f85316"/>
      <path id="Trazado_162544" data-name="Trazado 162544" d="M1096.464,355.686c.043-2.144,1.31-3.605,3.19-3.636,1.948-.034,3.242,1.41,3.249,3.625.008,2.078-1,3.42-2.739,3.651a3.176,3.176,0,0,1-3.527-2.31A8.98,8.98,0,0,1,1096.464,355.686Z" transform="translate(-1.769 -1.949)" fill="#fdcd5b"/>
      <path id="Trazado_162545" data-name="Trazado 162545" d="M1129.2,352.024c3.118,0,6.236.022,9.354-.016.744-.009,1.041.126,1.026.963-.039,2.21.006,2.21-2.25,2.21-5.748,0-11.5-.015-17.242.017-.833,0-1.185-.134-1.154-1.085.069-2.087.011-2.089,2.152-2.089Z" transform="translate(-3.094 -1.947)" fill="#fdfdfd"/>
    </g>
  </g>
</svg>
