<svg xmlns="http://www.w3.org/2000/svg" width="120" height="120" viewBox="0 0 120 120">
  <g id="Grupo_109931" data-name="Grupo 109931" transform="translate(11799.187 3941.359)">
    <g id="Grupo_109930" data-name="Grupo 109930">
      <circle id="Elipse_5401" data-name="Elipse 5401" cx="60" cy="60" r="60" transform="translate(-11799.187 -3941.359)" fill="#fff"/>
      <g id="Grupo_109913" data-name="Grupo 109913" transform="translate(-12748.573 -4360.673)">
        <path id="Trazado_162573" data-name="Trazado 162573" d="M1054.053,442.427l.419.03v21.636l-.4.041Q1054.061,453.28,1054.053,442.427Z" transform="translate(-5.134 -0.06)" fill="#6c6c6c"/>
        <path id="Trazado_162574" data-name="Trazado 162574" d="M969.338,442.218a.229.229,0,0,0,.216-.009l-.015,22.12-.2-.023Z" transform="translate(0 -0.046)" fill="#6c6c6c"/>
        <path id="Trazado_162575" data-name="Trazado 162575" d="M969.552,464.283l.015-22.12c.712-1,1.6-.814,2.468-.3,3.392,1.99,6.77,4,10.153,6.007,1.159.686,2.34,1.339,3.465,2.076a1.929,1.929,0,0,0,1.805.237c5.945-2.009,11.437-.957,16.621,2.395,1.444.934,2.987,1.714,4.459,2.608a1.1,1.1,0,0,0,1.312,0c2.488-1.452,4.97-2.922,7.526-4.247a16.36,16.36,0,0,1,12.567-1.014,3.986,3.986,0,0,0,3.569-.422c4.212-2.586,8.493-5.06,12.747-7.575,1.259-.745,1.852-.647,2.672.442q.007,10.853.015,21.708a2.067,2.067,0,0,1-1.014,1c-1.619.939-3.221,1.906-4.847,2.832a2.046,2.046,0,0,0-1.048,1.348,35.11,35.11,0,0,1-2.123,6.609,19.755,19.755,0,0,1-5.351,6.408c-2.162,1.785-4.107,3.829-6.439,5.412-.565.384-.31.969-.293,1.448.042,1.2-.4,1.948-1.639,2.124-1.169-.263-1.474-1.047-1.468-2.166.029-6.421.013-12.843.015-19.264a3.011,3.011,0,0,0-.239-1.539,1.58,1.58,0,0,0-1.682-.869,1.494,1.494,0,0,0-1.381,1.279,6.029,6.029,0,0,0-.053,1.123q0,6.872,0,13.744c0,1.3-.569,2.074-1.522,2.108-.988.036-1.6-.766-1.6-2.114q0-8.449,0-16.9c0-.263.007-.526,0-.788a1.709,1.709,0,0,0-1.683-1.853,1.666,1.666,0,0,0-1.678,1.846c-.013,4.432-.006,8.863-.007,13.294,0,1.652.016,3.3-.01,4.956a1.448,1.448,0,0,1-1.467,1.539,1.469,1.469,0,0,1-1.583-1.306,4.985,4.985,0,0,1-.056-1.12q0-9.8,0-19.6c0-.376.012-.753-.021-1.126a1.523,1.523,0,0,0-1.5-1.529,1.551,1.551,0,0,0-1.75,1.39,6.337,6.337,0,0,0-.07,1.233q.009,9.744.023,19.49a7.605,7.605,0,0,1-.055,1.234,1.512,1.512,0,0,1-3.012-.075,8.85,8.85,0,0,1-.025-1.013q-.007-8.393-.014-16.786a4.52,4.52,0,0,0-.065-1.119,1.551,1.551,0,0,0-1.717-1.3,1.533,1.533,0,0,0-1.527,1.5,8.077,8.077,0,0,0-.019,1.013q0,9.407,0,18.814a2.149,2.149,0,0,1-1.728,2.4c-1.195.179-1.969-.41-2.37-1.851-.282-1.011-.5-2.04-.786-3.047a1.754,1.754,0,0,0-2.161-1.435,1.806,1.806,0,0,0-1.22,2.317c.452,2.318.943,4.629,1.367,6.953a15.094,15.094,0,0,0,3.158,7.464c1.275,1.468,2.669,2.838,4.068,4.192a2.966,2.966,0,0,1,.966,2.288c.012,4.168.089,8.336.087,12.5,0,.791.215,1,1,.993q6.309-.059,12.617,0c.845.009.953-.287.938-1.031-.08-3.754-.008-7.513-.182-11.262a4.762,4.762,0,0,1,1.78-4.317c1.061-.867,1.472-1.016,2.666-.3a1.72,1.72,0,0,1-.423,2.489,2.4,2.4,0,0,0-.858,2.161c.074,4.392.082,8.784.113,13.176.012,1.789-.376,2.183-2.181,2.184q-8.219,0-16.44,0c-1.635,0-2.142-.505-2.153-2.158-.03-4.393-.071-8.784-.051-13.176a2.646,2.646,0,0,0-.892-2.146,24.394,24.394,0,0,1-5.513-6.739,30.1,30.1,0,0,1-2.148-7.771c-.152-.781-.351-1.343-1.268-1.551a5.141,5.141,0,0,1-2-1.411c-1.871-1.614-3.7-3.275-5.581-4.88a17.644,17.644,0,0,1-5.942-10.188,5.405,5.405,0,0,0-3.1-4.244A13.186,13.186,0,0,1,969.552,464.283Zm29.307,15.132a8.71,8.71,0,0,1,.008-1.22c.311-1.876-.239-3.186-2.157-3.9a1.49,1.49,0,0,1-.888-2.119,1.529,1.529,0,0,1,2.28-.615c.81.429.764,0,.761-.561-.01-1.8-.027-3.605,0-5.407a4.606,4.606,0,0,1,4.868-4.643c1.324.113,2.149-.043,2.65-1.325a1.952,1.952,0,0,1,.8-.774c.621-.4.434-.613-.088-.908-2.151-1.215-4.3-2.438-6.428-3.691a14.108,14.108,0,0,0-8.415-1.929,27.043,27.043,0,0,0-5.143,1.185,2.13,2.13,0,0,1-1.825-.161c-1.563-.961-3.15-1.884-4.729-2.817-2.665-1.573-5.332-3.143-8.138-4.8v1.263c0,4.806.025,9.612-.022,14.417a1.73,1.73,0,0,0,1.077,1.839c1.074.524,2.024,1.313,3.117,1.783a4.939,4.939,0,0,1,2.94,4.02c.665,3.3,1.7,6.478,4.209,8.905,1.373,1.326,2.831,2.567,4.275,3.819a15.389,15.389,0,0,0,2.5,2.06,14.417,14.417,0,0,1,.125-1.529,3.856,3.856,0,0,1,.443-1.384.986.986,0,0,0-.168-1.5,1.92,1.92,0,0,1,.2-3.029,2.011,2.011,0,0,1,2.413-.03C995.235,477.358,996.958,478.328,998.859,479.414Zm28.954,4.577c1.329-1.141,2.4-2.05,3.464-2.977,2.341-2.046,4.787-4,6.057-6.981a44.947,44.947,0,0,0,1.881-6.348,2.823,2.823,0,0,1,1.37-1.943c1.541-.851,3.021-1.811,4.57-2.643a1.353,1.353,0,0,0,.822-1.4c-.028-4.956-.015-9.912-.015-14.867v-1.1c-4.187,2.465-8.239,4.794-12.222,7.235a3.412,3.412,0,0,1-3.167.346,15.151,15.151,0,0,0-10.154-.318c-2.879,1.02-5.326,2.859-8.076,4.319.254.175.4.287.55.378,4.024,2.319,8.032,4.671,12.086,6.938a5.05,5.05,0,0,1,2.843,4.837c-.037,2.515-.008,5.03-.008,7.546Z" transform="translate(-0.013)" fill="#050404"/>
        <path id="Trazado_162576" data-name="Trazado 162576" d="M1023.766,502.49c-1.194-.714-1.605-.566-2.666.3a4.762,4.762,0,0,0-1.78,4.317c.174,3.749.1,7.509.182,11.262.016.744-.093,1.04-.938,1.031q-6.309-.068-12.617,0c-.786.008-1-.2-1-.993,0-4.168-.075-8.336-.087-12.5a2.966,2.966,0,0,0-.966-2.288c-1.4-1.354-2.793-2.723-4.068-4.192a15.094,15.094,0,0,1-3.158-7.464c-.424-2.324-.915-4.635-1.367-6.953a1.806,1.806,0,0,1,1.22-2.317,1.754,1.754,0,0,1,2.161,1.435c.291,1.007.5,2.037.786,3.047.4,1.441,1.175,2.03,2.37,1.851a2.149,2.149,0,0,0,1.728-2.4q.01-9.407,0-18.814a8.077,8.077,0,0,1,.019-1.013,1.533,1.533,0,0,1,1.527-1.5,1.551,1.551,0,0,1,1.717,1.3,4.52,4.52,0,0,1,.065,1.119q.011,8.394.014,16.786a8.85,8.85,0,0,0,.025,1.013,1.512,1.512,0,0,0,3.012.075,7.605,7.605,0,0,0,.055-1.234q-.008-9.745-.023-19.49a6.337,6.337,0,0,1,.07-1.233,1.551,1.551,0,0,1,1.75-1.39,1.523,1.523,0,0,1,1.5,1.529c.033.373.021.751.021,1.126q0,9.8,0,19.6a4.985,4.985,0,0,0,.056,1.12,1.469,1.469,0,0,0,1.583,1.306,1.448,1.448,0,0,0,1.467-1.539c.026-1.651.01-3.3.01-4.956,0-4.431-.007-8.862.007-13.294a1.666,1.666,0,0,1,1.678-1.846,1.709,1.709,0,0,1,1.683,1.853c.008.262,0,.525,0,.788q0,8.449,0,16.9c0,1.348.612,2.149,1.6,2.114.953-.034,1.52-.8,1.522-2.108q.007-6.872,0-13.744a6.029,6.029,0,0,1,.053-1.123,1.494,1.494,0,0,1,1.381-1.279,1.58,1.58,0,0,1,1.682.869,3.012,3.012,0,0,1,.239,1.539c0,6.422.014,12.843-.015,19.264-.006,1.119.3,1.9,1.468,2.166a22.993,22.993,0,0,1-.531,3.84c-.807-.1-1.606-.095-1.987.787a1.637,1.637,0,0,0,.675,2.12A36.757,36.757,0,0,1,1023.766,502.49Z" transform="translate(-1.57 -1.259)" fill="#fbb586"/>
        <path id="Trazado_162577" data-name="Trazado 162577" d="M1027.831,501.46a1.637,1.637,0,0,1-.675-2.12c.38-.882,1.18-.886,1.987-.787a1.55,1.55,0,0,1,.811,2.047C1029.556,501.571,1028.741,501.67,1027.831,501.46Z" transform="translate(-3.494 -3.458)" fill="#050404"/>
        <path id="Trazado_162578" data-name="Trazado 162578" d="M999.043,479.691c-1.9-1.087-3.624-2.056-5.331-3.053a2.011,2.011,0,0,0-2.413.03,1.92,1.92,0,0,0-.2,3.029.986.986,0,0,1,.168,1.5,3.856,3.856,0,0,0-.443,1.384,14.417,14.417,0,0,0-.125,1.529,15.389,15.389,0,0,1-2.5-2.06c-1.444-1.251-2.9-2.492-4.275-3.819-2.513-2.427-3.544-5.609-4.209-8.905a4.939,4.939,0,0,0-2.94-4.02c-1.093-.47-2.043-1.259-3.117-1.783a1.73,1.73,0,0,1-1.077-1.839c.047-4.805.022-9.611.022-14.417v-1.263c2.806,1.653,5.473,3.223,8.138,4.8,1.579.933,3.166,1.856,4.729,2.817a2.13,2.13,0,0,0,1.825.161,27.043,27.043,0,0,1,5.143-1.185,14.108,14.108,0,0,1,8.415,1.929c2.13,1.253,4.277,2.476,6.428,3.691.522.295.709.512.088.908a1.952,1.952,0,0,0-.8.774c-.5,1.281-1.326,1.437-2.65,1.325a4.606,4.606,0,0,0-4.868,4.643c-.031,1.8-.014,3.6,0,5.407,0,.564.049.99-.761.561a1.529,1.529,0,0,0-2.28.615,1.49,1.49,0,0,0,.888,2.119c1.918.713,2.468,2.023,2.157,3.9A8.71,8.71,0,0,0,999.043,479.691Z" transform="translate(-0.196 -0.277)" fill="#fdcfc6"/>
        <path id="Trazado_162579" data-name="Trazado 162579" d="M1030.574,484.268V477.3c0-2.516-.028-5.031.009-7.546a5.051,5.051,0,0,0-2.843-4.837c-4.055-2.268-8.062-4.619-12.086-6.938-.155-.09-.3-.2-.55-.378,2.75-1.461,5.2-3.3,8.076-4.319a15.151,15.151,0,0,1,10.154.318,3.412,3.412,0,0,0,3.167-.346c3.983-2.441,8.036-4.77,12.223-7.235v1.1c0,4.955-.013,9.911.015,14.867a1.353,1.353,0,0,1-.822,1.4c-1.549.832-3.03,1.792-4.57,2.643a2.822,2.822,0,0,0-1.37,1.943,44.947,44.947,0,0,1-1.881,6.348c-1.27,2.978-3.716,4.935-6.057,6.981C1032.978,482.218,1031.9,483.127,1030.574,484.268Z" transform="translate(-2.773 -0.277)" fill="#fcc7a4"/>
      </g>
    </g>
  </g>
</svg>
