<svg xmlns="http://www.w3.org/2000/svg" width="120" height="120" viewBox="0 0 120 120">
  <g id="Grupo_109925" data-name="Grupo 109925" transform="translate(13694.756 3948)">
    <circle id="Elipse_5395" data-name="Elipse 5395" cx="60" cy="60" r="60" transform="translate(-13694.756 -3948)" fill="#fff"/>
    <path id="Trazado_162505" data-name="Trazado 162505" d="M1127.529,366.684a16.769,16.769,0,0,1-18.749,14.334,16.561,16.561,0,0,1,.068-32.838c7.911-1.082,16.98,3.975,18.72,14.666a15.95,15.95,0,0,1,.073,1.823A10.1,10.1,0,0,1,1127.529,366.684ZM1100,372.224c1.839-3.106,1.845-3.123,5.364-5.158.372-.215.348-.393.17-.7a8.971,8.971,0,0,1-.732-5.825,6.246,6.246,0,0,1,11.631-2.123,9.086,9.086,0,0,1,.184,7.632c-.118.313-.714.72-.008.991a9.52,9.52,0,0,1,5.3,5.184,13.116,13.116,0,0,0-1.229-16.9,13.395,13.395,0,0,0-20.683,16.9ZM1110.98,378a12.925,12.925,0,0,0,7.577-2.3,1.23,1.23,0,0,0,.685-1.47,6.194,6.194,0,0,0-6-4.688c-.51.015-.763.122-.729.692.061,1.052-.382,1.764-1.5,1.84-.922.063-1.488-.557-1.563-1.792-.037-.607-.246-.738-.808-.739a6.178,6.178,0,0,0-5.8,4.348,1.381,1.381,0,0,0,.656,1.857A13.166,13.166,0,0,0,1110.98,378Zm3.19-15.568c0-.295.013-.558,0-.82a3.147,3.147,0,0,0-3.173-3.248,3.19,3.19,0,0,0-3.188,3.356,13.068,13.068,0,0,0,.018,1.687,3.189,3.189,0,0,0,2.02,2.757,2.953,2.953,0,0,0,3.163-.512A3.537,3.537,0,0,0,1114.171,362.43Z" transform="translate(-14720.201 -4234.186)" fill="#060505"/>
    <path id="Trazado_162506" data-name="Trazado 162506" d="M1044.723,366.56a10.162,10.162,0,0,1-.2-2.081,14.66,14.66,0,0,1,.1-1.912,17.067,17.067,0,0,1,7.244-11.624,15.934,15.934,0,0,1,13.439-2.375,16.548,16.548,0,0,1-2.059,32.459A15.865,15.865,0,0,1,1051,377.611,16.62,16.62,0,0,1,1044.723,366.56Zm27.4,5.667c3.608-4.491,3.64-12.806-2.143-17.791a13.472,13.472,0,0,0-18.769,1.178c-4.858,5.384-3.921,13.232-.882,16.567a9.625,9.625,0,0,1,5.7-5.357c-1.286-1.824-1.223-3.835-1.088-5.827a6.2,6.2,0,0,1,5.224-5.693,6.125,6.125,0,0,1,6.633,3.379,8.911,8.911,0,0,1-.006,7.432c-.137.325-.593.7.1.962A9.321,9.321,0,0,1,1072.121,372.228Zm-10.91,5.765a13.076,13.076,0,0,0,7.44-2.2,1.391,1.391,0,0,0,.729-1.839,6.2,6.2,0,0,0-5.763-4.409c-.6-.009-.927.1-.843.787a1.76,1.76,0,0,1-.361,1.381,1.537,1.537,0,0,1-2.74-1.084c.115-1.038-.367-1.14-1.228-1.068a6.164,6.164,0,0,0-5.406,4.4,1.328,1.328,0,0,0,.641,1.771A13.022,13.022,0,0,0,1061.211,377.993Zm-3.173-15.772c0,.429-.011.73,0,1.029a3.161,3.161,0,0,0,6.244.7,7,7,0,0,0,.013-3.124,3.162,3.162,0,0,0-5.137-1.733A3.424,3.424,0,0,0,1058.038,362.22Z" transform="translate(-14717.277 -4234.184)" fill="#060505"/>
    <path id="Trazado_162507" data-name="Trazado 162507" d="M1097.043,322.625a13.381,13.381,0,0,0-4.261-19.346c-1.352-.759-1.758-1.685-1.135-2.591a1.588,1.588,0,0,1,2.289-.355,16.588,16.588,0,0,1-7.206,31.176,16.742,16.742,0,0,1-16.477-11.76,16.544,16.544,0,0,1,7.916-19.357c1.088-.6,1.961-.46,2.451.389a1.666,1.666,0,0,1-.9,2.329,12.883,12.883,0,0,0-6.082,6.836,13.312,13.312,0,0,0,1.49,12.7,9.694,9.694,0,0,1,4.254-4.779,4.1,4.1,0,0,1,.813-.377c.689-.185.591-.485.35-1.053a8.779,8.779,0,0,1,.122-7.72,6.241,6.241,0,0,1,11.624,2.147c.245,1.985.338,3.992-.746,5.82-.25.424-.093.572.3.729A9.338,9.338,0,0,1,1097.043,322.625Zm-10.837,5.727a13.576,13.576,0,0,0,7.558-2.391,1.185,1.185,0,0,0,.558-1.493,6.219,6.219,0,0,0-5.725-4.625c-.617-.025-1,.039-.966.816a1.464,1.464,0,0,1-1.512,1.716c-.961.04-1.479-.529-1.531-1.8-.025-.619-.254-.74-.811-.743a6.271,6.271,0,0,0-5.892,4.57,1.278,1.278,0,0,0,.621,1.6A13.8,13.8,0,0,0,1086.206,328.352Zm3.09-15.627a10.7,10.7,0,0,0-.006-1.125,3.129,3.129,0,0,0-2.811-2.886,2.994,2.994,0,0,0-3.385,2.159c-.475,1.99-.409,4.426,1.376,5.38a3.141,3.141,0,0,0,1.26.438C1087.985,316.862,1089.312,315.4,1089.3,312.725Z" transform="translate(-14718.742 -4231.372)" fill="#060505"/>
    <path id="Trazado_162508" data-name="Trazado 162508" d="M1054.6,341.6a30.474,30.474,0,0,1,9.511-18.575,1.6,1.6,0,0,1,2.4-.194c.729.7.686,1.592-.226,2.452a27.6,27.6,0,0,0-6.8,9.939,24.588,24.588,0,0,0-1.73,6.732c-.018.187-.027.376-.059.56-.2,1.162-.937,1.816-1.87,1.668C1054.942,344.042,1054.468,343.278,1054.6,341.6Z" transform="translate(-14717.867 -4232.682)" fill="#060505"/>
    <path id="Trazado_162509" data-name="Trazado 162509" d="M1119.009,342.67a1.578,1.578,0,0,1-1.351,1.508,1.506,1.506,0,0,1-1.765-1.34,35.194,35.194,0,0,0-1.2-5.716,27.8,27.8,0,0,0-7.323-11.7c-.465-.449-.947-.9-.866-1.619a1.5,1.5,0,0,1,.958-1.3,1.655,1.655,0,0,1,1.853.442,30.979,30.979,0,0,1,9.69,19.717Z" transform="translate(-14720.909 -4232.683)" fill="#060505"/>
    <path id="Trazado_162510" data-name="Trazado 162510" d="M1087.046,379.585a32.311,32.311,0,0,1-5.779-.556c-1.068-.213-1.609-.871-1.5-1.754.12-.962.83-1.474,1.994-1.292a31.466,31.466,0,0,0,9.874,0c1.119-.177,1.8.284,1.964,1.186.175.963-.329,1.623-1.471,1.866a16.906,16.906,0,0,1-1.89.305C1089.044,379.455,1087.844,379.526,1087.046,379.585Z" transform="translate(-14719.342 -4235.821)" fill="#060505"/>
    <path id="Trazado_162511" data-name="Trazado 162511" d="M1087.082,301.377a1.51,1.51,0,0,1-1.568-1.543,1.492,1.492,0,0,1,1.536-1.563,1.451,1.451,0,0,1,1.517,1.476A1.518,1.518,0,0,1,1087.082,301.377Z" transform="translate(-14719.68 -4231.27)" fill="#060505"/>
    <path id="Trazado_162512" data-name="Trazado 162512" d="M1100.2,372.418a13.395,13.395,0,0,1,20.683-16.9,13.116,13.116,0,0,1,1.229,16.9,9.52,9.52,0,0,0-5.3-5.184c-.706-.271-.11-.679.008-.991a9.086,9.086,0,0,0-.184-7.632A6.246,6.246,0,0,0,1105,360.732a8.971,8.971,0,0,0,.732,5.825c.179.31.2.488-.17.7C1102.042,369.3,1102.036,369.312,1100.2,372.418Z" transform="translate(-14720.396 -4234.38)" fill="#f3f9ff"/>
    <path id="Trazado_162513" data-name="Trazado 162513" d="M1111.5,379.336a13.166,13.166,0,0,1-7.481-2.25,1.381,1.381,0,0,1-.656-1.857,6.178,6.178,0,0,1,5.8-4.348c.562,0,.771.132.808.739.074,1.234.641,1.855,1.563,1.792,1.12-.075,1.564-.788,1.5-1.84-.034-.57.218-.677.729-.692a6.194,6.194,0,0,1,6,4.688,1.23,1.23,0,0,1-.685,1.47A12.925,12.925,0,0,1,1111.5,379.336Z" transform="translate(-14720.718 -4235.524)" fill="#dce736"/>
    <path id="Trazado_162514" data-name="Trazado 162514" d="M1115,363.073a3.537,3.537,0,0,1-1.163,3.221,2.953,2.953,0,0,1-3.163.512,3.189,3.189,0,0,1-2.02-2.757,13.068,13.068,0,0,1-.018-1.687,3.19,3.19,0,0,1,3.188-3.356,3.147,3.147,0,0,1,3.173,3.248C1115.016,362.515,1115,362.778,1115,363.073Z" transform="translate(-14721.033 -4234.829)" fill="#fac6a3"/>
    <path id="Trazado_162515" data-name="Trazado 162515" d="M1072.326,372.425a9.321,9.321,0,0,0-5.232-5.149c-.689-.261-.234-.637-.1-.962a8.911,8.911,0,0,0,.006-7.432,6.125,6.125,0,0,0-6.633-3.379,6.2,6.2,0,0,0-5.224,5.693c-.135,1.992-.2,4,1.088,5.827a9.625,9.625,0,0,0-5.7,5.357c-3.039-3.334-3.976-11.183.882-16.567a13.472,13.472,0,0,1,18.769-1.178C1075.966,359.619,1075.934,367.934,1072.326,372.425Z" transform="translate(-14717.481 -4234.382)" fill="#f3f9ff"/>
    <path id="Trazado_162516" data-name="Trazado 162516" d="M1097.213,322.616a9.322,9.322,0,0,0-5.232-5.15c-.689-.26-.233-.636-.1-.961a8.915,8.915,0,0,0,.007-7.433,6.126,6.126,0,0,0-6.634-3.378,6.2,6.2,0,0,0-5.224,5.693c-.135,1.992-.2,4,1.088,5.827a9.618,9.618,0,0,0-5.7,5.357c-3.04-3.334-3.976-11.183.881-16.567a13.472,13.472,0,0,1,18.769-1.178C1100.853,309.81,1100.821,318.125,1097.213,322.616Z" transform="translate(-14718.94 -4231.463)" fill="#f3f9ff"/>
    <path id="Trazado_162517" data-name="Trazado 162517" d="M1061.735,379.333a13.023,13.023,0,0,1-7.531-2.264,1.328,1.328,0,0,1-.641-1.771,6.164,6.164,0,0,1,5.406-4.4c.86-.072,1.342.03,1.228,1.068a1.537,1.537,0,0,0,2.74,1.084,1.76,1.76,0,0,0,.361-1.381c-.085-.684.24-.8.843-.787a6.2,6.2,0,0,1,5.763,4.409,1.391,1.391,0,0,1-.729,1.839A13.076,13.076,0,0,1,1061.735,379.333Z" transform="translate(-14717.801 -4235.524)" fill="#f85316"/>
    <path id="Trazado_162518" data-name="Trazado 162518" d="M1058.878,362.863a3.424,3.424,0,0,1,1.122-3.128,3.162,3.162,0,0,1,5.137,1.733,7,7,0,0,1-.013,3.124,3.161,3.161,0,0,1-6.244-.7C1058.866,363.593,1058.878,363.293,1058.878,362.863Z" transform="translate(-14718.117 -4234.827)" fill="#fac6a3"/>
    <path id="Trazado_162519" data-name="Trazado 162519" d="M1086.722,329.586a13.8,13.8,0,0,1-7.7-2.35,1.278,1.278,0,0,1-.621-1.6,6.271,6.271,0,0,1,5.892-4.57c.556,0,.785.123.811.743.052,1.266.57,1.836,1.531,1.8a1.464,1.464,0,0,0,1.512-1.716c-.031-.778.349-.842.966-.816a6.219,6.219,0,0,1,5.725,4.625,1.185,1.185,0,0,1-.558,1.493A13.576,13.576,0,0,1,1086.722,329.586Z" transform="translate(-14719.259 -4232.605)" fill="#3d46c2"/>
    <path id="Trazado_162520" data-name="Trazado 162520" d="M1090.124,313.266c.017,2.677-1.31,4.138-3.566,3.965a3.141,3.141,0,0,1-1.26-.438c-1.785-.955-1.852-3.39-1.376-5.38a2.994,2.994,0,0,1,3.385-2.159,3.129,3.129,0,0,1,2.811,2.886A10.7,10.7,0,0,1,1090.124,313.266Z" transform="translate(-14719.571 -4231.913)" fill="#fac6a3"/>
  </g>
</svg>
