<svg xmlns="http://www.w3.org/2000/svg" width="59.994" height="60" viewBox="0 0 59.994 60">
  <g id="Grupo_110060" data-name="Grupo 110060" transform="translate(14145.125 23884.391)">
    <g id="Grupo_109875" data-name="Grupo 109875" transform="translate(-13430.402 -23820.887)">
      <path id="Trazado_160517" data-name="Trazado 160517" d="M-672.773-3.5h-39.956c-.029-.121-.143-.111-.228-.147a2.651,2.651,0,0,1-1.765-2.633q0-21.7,0-43.392c0-.763.169-.967.937-1.168.67.17.832.63.831,1.276q-.017,21.04-.008,42.08c0,.234.011.467.017.7-.073,1.285.152,1.527,1.412,1.527h37.751a3.612,3.612,0,0,0,.584-.013.84.84,0,0,0,.777-.813,6.654,6.654,0,0,0-.014-.7V-16.4a2.318,2.318,0,0,0-.256.057,16.565,16.565,0,0,1-5.687.9c-6.21-.02-12.42-.007-18.629-.008a4.538,4.538,0,0,1-.527-.009.815.815,0,0,1-.771-.752.811.811,0,0,1,.612-.94,2.141,2.141,0,0,1,.636-.055q5.565,0,11.131-.005a1.086,1.086,0,0,0,.636-.077,15.009,15.009,0,0,1-2.984-2.127,1.027,1.027,0,0,0-.78-.3c-1.523.013-3.046.006-4.569.006-1.211,0-2.422.009-3.632,0-.679-.007-1.073-.361-1.06-.91.012-.528.386-.85,1.043-.852,2.129-.007,4.257,0,6.386-.007.185,0,.385.068.578-.074a1.124,1.124,0,0,0-.095-.2,14.8,14.8,0,0,1-2.654-5.922c-.061-.3-.226-.347-.493-.345q-1.845.016-3.691,0c-.678,0-1.078-.346-1.075-.892s.393-.86,1.087-.863c1.133,0,2.266-.017,3.4.008.373.008.463-.1.441-.462a10.792,10.792,0,0,1,.007-1.58c.034-.4-.06-.536-.487-.524-1.112.031-2.226.013-3.339.01-.7,0-1.091-.307-1.108-.847-.018-.564.4-.907,1.111-.91,1.191,0,2.383-.018,3.573.009.393.009.569-.078.663-.494a14.673,14.673,0,0,1,2.487-5.432c.071-.1.219-.185.1-.38-1.7,0-3.415,0-5.129,0-.664,0-1.329.014-1.991-.018a.794.794,0,0,1-.806-.835.809.809,0,0,1,.7-.874,2.683,2.683,0,0,1,.581-.039q3.954,0,7.909,0c.207,0,.436.072.616-.1a24.157,24.157,0,0,1,3.141-2.4h-.563q-5.565,0-11.131,0a1.691,1.691,0,0,1-.693-.07.825.825,0,0,1-.559-.923.809.809,0,0,1,.768-.753,5.44,5.44,0,0,1,.585-.01q8,0,15.993,0c2.864,0,5.744-.162,8.524,1.016V-49.55a4.27,4.27,0,0,1,.028-.581c.108-.6-.135-.728-.715-.719-2.393.036-4.788,0-7.181.025a3.4,3.4,0,0,1-2.082-.6,3.141,3.141,0,0,1-.946-2.476c.031-2.438,0-4.877.022-7.315,0-.446-.115-.535-.544-.535q-13.958.02-27.917.011c-.907,0-1.192.283-1.193,1.181,0,2.3-.008,4.6,0,6.906a.959.959,0,0,1-.829,1.086c-.717-.135-.934-.381-.935-1.095q-.006-3.485,0-6.97a2.652,2.652,0,0,1,2.89-2.867q14.526,0,29.052-.008a1.546,1.546,0,0,1,1.191.484q5.226,5.252,10.478,10.479a1.468,1.468,0,0,1,.465,1.139c-.017,2.109,0,4.217-.014,6.326a.659.659,0,0,0,.389.688,13.734,13.734,0,0,1,2.835,2.054,15.418,15.418,0,0,1,4.717,8.364c.158.757,0,1.05-.676,1.33-.736-.075-.912-.24-1.06-1a13.761,13.761,0,0,0-15.608-10.854A13.719,13.719,0,0,0-691.54-29.243a13.725,13.725,0,0,0,12.626,12.01,13.734,13.734,0,0,0,14.689-12.65.933.933,0,0,1,.922-1c.188.124.44.074.613.273a1.38,1.38,0,0,1,.2,1.167,15.566,15.566,0,0,1-2.2,6.583c-.1.169-.28.315-.038.544.607.577,1.191,1.179,1.78,1.775a.234.234,0,0,0,.344.048.964.964,0,0,1,1.3.272c1.44,1.455,2.877,2.913,4.344,4.341a6.919,6.919,0,0,1,2.238,3.234V-11c-.2.085-.164.294-.215.445a4.139,4.139,0,0,1-6.763,1.706c-1.9-1.817-3.734-3.711-5.6-5.569-.235-.234-.46-.556-.3-.827.378-.634-.1-.886-.432-1.221q-.594-.605-1.2-1.2c-.081-.08-.172-.189-.27-.2-.332-.05-1.146.739-1.146,1.092q0,5.177,0,10.354a3.67,3.67,0,0,1-.091.984A2.874,2.874,0,0,1-672.773-3.5Zm16.265-8.4a2.345,2.345,0,0,0-.621-1.578c-1.58-1.595-3.175-3.175-4.751-4.773-.221-.224-.333-.145-.507.033q-1.393,1.422-2.805,2.826c-.2.194-.209.316-.006.517,1.6,1.579,3.163,3.187,4.78,4.744a2.156,2.156,0,0,0,2.5.373A2.3,2.3,0,0,0-656.509-11.9Zm-25.015-48.424c.007-.01-.028.018-.028.047,0,2.246-.012,4.491,0,6.737,0,.63.347.943,1.008.947,1.406.009,2.812,0,4.218,0h2.535Zm17.465,41.205a1.8,1.8,0,0,0-.122-.155c-.537-.539-1.08-1.072-1.612-1.616-.211-.216-.306-.023-.412.1a13.5,13.5,0,0,1-1.571,1.57c-.214.177-.244.3-.029.5q.744.7,1.448,1.448c.2.212.322.189.512-.008.513-.534,1.048-1.049,1.57-1.574A3.228,3.228,0,0,0-664.059-19.119Z" fill="#020202"/>
      <path id="Trazado_160518" data-name="Trazado 160518" d="M-708.733-41.387v-1.721a.959.959,0,0,0,.829-1.086c-.011-2.3-.006-4.6,0-6.906,0-.9.286-1.181,1.193-1.181q13.958,0,27.917-.011c.429,0,.549.089.544.535-.025,2.438.009,4.877-.022,7.315a3.141,3.141,0,0,0,.946,2.476,1.7,1.7,0,0,0,1.889,1.865q4.031.006,8.062.006v4.162c-2.779-1.178-5.659-1.018-8.524-1.016q-8,.007-15.993,0a5.441,5.441,0,0,0-.585.01.809.809,0,0,0-.768.753.825.825,0,0,0,.559.923,1.691,1.691,0,0,0,.693.07q5.565,0,11.131,0h.563a24.157,24.157,0,0,0-3.141,2.4c-.18.171-.409.1-.616.1q-3.954.007-7.909,0a2.683,2.683,0,0,0-.581.039.809.809,0,0,0-.7.874.794.794,0,0,0,.806.835c.662.032,1.327.018,1.991.018,1.715,0,3.429,0,5.129,0,.119.195-.03.282-.1.38a14.673,14.673,0,0,0-2.487,5.432c-.093.416-.269.5-.663.494-1.191-.027-2.382-.013-3.573-.009-.715,0-1.128.345-1.111.91.017.54.409.845,1.108.847,1.113,0,2.227.022,3.339-.01.427-.012.521.121.487.524a10.792,10.792,0,0,0-.007,1.58c.022.357-.068.47-.441.462-1.132-.025-2.265-.012-3.4-.008-.694,0-1.085.318-1.087.863s.4.888,1.075.892q1.845.012,3.691,0c.267,0,.432.04.493.345a14.8,14.8,0,0,0,2.654,5.922,1.124,1.124,0,0,1,.095.2c-.193.142-.393.074-.578.074-2.129.006-4.257,0-6.386.007-.656,0-1.031.324-1.043.852-.012.548.381.9,1.06.91,1.211.012,2.421,0,3.632,0,1.523,0,3.046.007,4.569-.006a1.027,1.027,0,0,1,.78.3,15.009,15.009,0,0,0,2.984,2.127,1.086,1.086,0,0,1-.636.077q-5.565.007-11.131.005a2.141,2.141,0,0,0-.636.055.811.811,0,0,0-.612.94.815.815,0,0,0,.771.752,4.538,4.538,0,0,0,.527.009c6.21,0,12.42-.012,18.629.008a16.565,16.565,0,0,0,5.687-.9,2.318,2.318,0,0,1,.256-.057V2.672a2.232,2.232,0,0,1-1.067.242q-19.189-.007-38.378,0a2.153,2.153,0,0,1-1.066-.244c-.006-.234-.017-.467-.017-.7q0-21.04.008-42.08C-707.9-40.757-708.062-41.217-708.733-41.387Zm12.882,7.477c0-.624.009-1.248,0-1.872a1.972,1.972,0,0,0-2.015-2.053c-1.248-.023-2.5-.02-3.745,0a1.947,1.947,0,0,0-2.034,1.969q-.055,1.929,0,3.861a1.953,1.953,0,0,0,2.036,1.969c1.228.017,2.458.015,3.686,0a1.987,1.987,0,0,0,2.071-2.06C-695.842-32.7-695.85-33.306-695.85-33.91Zm0,24.934c0-.6.006-1.209,0-1.814a1.989,1.989,0,0,0-2.083-2.105q-1.814-.017-3.628,0a1.957,1.957,0,0,0-2.084,1.979q-.054,1.929,0,3.861A1.937,1.937,0,0,0-701.659-5.1q1.9.043,3.8,0a1.973,1.973,0,0,0,2-2.065C-695.843-7.767-695.85-8.372-695.85-8.977Zm-3.906-16.5v0c-.624,0-1.248-.011-1.872,0a1.919,1.919,0,0,0-2.014,1.914c-.045,1.3-.042,2.614,0,3.919a1.919,1.919,0,0,0,2,1.936c1.287.016,2.574.019,3.861,0a1.913,1.913,0,0,0,1.926-1.882c.035-1.325.032-2.652,0-3.978a1.913,1.913,0,0,0-1.907-1.9C-698.429-25.493-699.093-25.475-699.756-25.475Z" transform="translate(-5.051 -9.455)" fill="#f7f4f4"/>
      <path id="Trazado_160519" data-name="Trazado 160519" d="M-539.072,68.831c-.089.592.189,1.166.09,1.759a.933.933,0,0,0-.922,1,13.734,13.734,0,0,1-14.689,12.65,13.726,13.726,0,0,1-12.626-12.01A13.719,13.719,0,0,1-555.74,56.979a13.761,13.761,0,0,1,15.608,10.854C-539.984,68.591-539.808,68.756-539.072,68.831Zm-23.535,7.354c-.448.629-.452.905.051,1.5a11.155,11.155,0,0,0,10.99,4.121,11.409,11.409,0,0,0,9.415-12.017,11.48,11.48,0,0,0-11.151-10.7,11.473,11.473,0,0,0-11.309,14.635c.22.768.457.941,1.251.911A13.735,13.735,0,0,0-562.607,76.184Z" transform="translate(-124.321 -101.47)" fill="#3d46c2"/>
      <path id="Trazado_160520" data-name="Trazado 160520" d="M-703.426,298.693a2.153,2.153,0,0,0,1.066.243q19.189-.007,38.378,0a2.232,2.232,0,0,0,1.067-.242,6.654,6.654,0,0,1,.014.7.84.84,0,0,1-.777.813,3.613,3.613,0,0,1-.584.013h-37.751C-703.274,300.22-703.5,299.978-703.426,298.693Z" transform="translate(-9.517 -305.478)" fill="#f3f9ff"/>
      <path id="Trazado_160521" data-name="Trazado 160521" d="M-390.573,231.088a2.3,2.3,0,0,1-1.408,2.142,2.156,2.156,0,0,1-2.5-.373c-1.617-1.557-3.184-3.165-4.78-4.744-.2-.2-.19-.323.006-.517q1.415-1.4,2.805-2.826c.175-.178.286-.257.507-.033,1.576,1.6,3.171,3.178,4.751,4.773A2.345,2.345,0,0,1-390.573,231.088Z" transform="translate(-265.936 -242.988)" fill="#f85316"/>
      <path id="Trazado_160522" data-name="Trazado 160522" d="M-502.909-43.212l7.731,7.735h-2.535c-1.406,0-2.812.006-4.218,0-.661,0-1.005-.317-1.008-.947-.01-2.246,0-4.491,0-6.737C-502.937-43.193-502.9-43.222-502.909-43.212Z" transform="translate(-178.615 -17.112)" fill="#f3f9ff"/>
      <path id="Trazado_160523" data-name="Trazado 160523" d="M-498.258,15.522q-4.031,0-8.062-.006a1.7,1.7,0,0,1-1.889-1.865,3.4,3.4,0,0,0,2.082.6c2.394-.026,4.788.012,7.181-.025.58-.009.823.122.715.719A4.26,4.26,0,0,0-498.258,15.522Z" transform="translate(-174.174 -65.072)" fill="#dee4f0"/>
      <path id="Trazado_160524" data-name="Trazado 160524" d="M-412.157,209.869a3.215,3.215,0,0,1-.215.265c-.523.525-1.057,1.039-1.57,1.574-.19.2-.312.22-.512.008q-.7-.745-1.448-1.448c-.216-.2-.186-.324.029-.5a13.508,13.508,0,0,0,1.571-1.57c.106-.122.2-.314.412-.1.531.544,1.074,1.077,1.612,1.616A1.807,1.807,0,0,1-412.157,209.869Z" transform="translate(-251.902 -228.987)" fill="#d2e1f1"/>
      <path id="Trazado_160525" data-name="Trazado 160525" d="M-668.594,43.862c0,.6.008,1.209,0,1.814a1.987,1.987,0,0,1-2.071,2.06c-1.229.014-2.458.016-3.686,0a1.953,1.953,0,0,1-2.036-1.969q-.056-1.929,0-3.861a1.947,1.947,0,0,1,2.034-1.969c1.248-.018,2.5-.022,3.745,0A1.972,1.972,0,0,1-668.6,41.99C-668.586,42.614-668.594,43.238-668.594,43.862Zm-1.768,0h.007c0-.584-.008-1.168,0-1.751.005-.3-.12-.425-.415-.424q-1.722.007-3.444,0c-.29,0-.431.117-.429.415q.01,1.722.009,3.444c0,.281.1.433.41.431q1.722-.012,3.444,0c.3,0,.423-.123.418-.42C-670.369,44.991-670.362,44.427-670.362,43.862Z" transform="translate(-32.307 -87.228)" fill="#020202"/>
      <path id="Trazado_160526" data-name="Trazado 160526" d="M-668.6,203.166c0,.6.008,1.209,0,1.814a1.973,1.973,0,0,1-2,2.065q-1.9.043-3.8,0a1.937,1.937,0,0,1-1.986-1.957q-.058-1.929,0-3.861a1.957,1.957,0,0,1,2.084-1.979q1.814-.015,3.628,0a1.989,1.989,0,0,1,2.083,2.105C-668.589,201.957-668.6,202.562-668.6,203.166Zm-1.767-.011h.007c0-.545-.015-1.091.005-1.635.014-.368-.1-.53-.5-.524-1.109.017-2.219.015-3.328,0-.365,0-.475.155-.471.493q.019,1.664.008,3.328c0,.355.144.478.491.474,1.09-.013,2.18-.018,3.27,0,.426.008.536-.174.519-.562C-670.38,204.207-670.362,203.681-670.362,203.156Z" transform="translate(-32.306 -221.598)" fill="#020202"/>
      <path id="Trazado_160527" data-name="Trazado 160527" d="M-672.508,118.917c.663,0,1.327-.019,1.989,0a1.914,1.914,0,0,1,1.907,1.9c.031,1.325.033,2.653,0,3.978a1.913,1.913,0,0,1-1.926,1.882c-1.287.023-2.574.02-3.861,0a1.919,1.919,0,0,1-2-1.936c-.04-1.305-.043-2.614,0-3.919a1.919,1.919,0,0,1,2.014-1.914c.624-.014,1.248,0,1.872,0Zm-.013,1.762c-.546,0-1.093.015-1.638-.005-.342-.013-.5.09-.493.457.017,1.111.015,2.223.011,3.335,0,.3.079.465.43.459,1.131-.016,2.262-.014,3.393,0,.322,0,.457-.1.454-.435-.01-1.131-.009-2.262.008-3.393.005-.354-.163-.427-.467-.42C-671.389,120.688-671.955,120.679-672.521,120.679Z" transform="translate(-32.299 -153.847)" fill="#020202"/>
      <path id="Trazado_160528" data-name="Trazado 160528" d="M-541.289,98.026a13.7,13.7,0,0,1-.754-1.551,1.023,1.023,0,0,0,.468-1.348,8.675,8.675,0,0,1-.412-2.648,9.7,9.7,0,0,1,10.742-9.721,9.644,9.644,0,0,1,8.5,11.373,9.267,9.267,0,0,1-7.191,7.629,9.3,9.3,0,0,1-9.932-3.361A1.05,1.05,0,0,0-541.289,98.026Zm5.44-8.22a2.564,2.564,0,0,0-2.291,1.622,2.557,2.557,0,0,0,.52,2.977c.807.849,1.652,1.662,2.512,2.458a2.676,2.676,0,0,0,3.843-.076q2.32-2.319,4.582-4.7a2.72,2.72,0,0,0-.044-3.889,2.728,2.728,0,0,0-3.888.111c-.8.8-1.6,1.608-2.371,2.433-.23.244-.364.245-.589,0A2.853,2.853,0,0,0-535.85,89.805Z" transform="translate(-145.639 -123.312)" fill="#f3f9ff"/>
      <path id="Trazado_160529" data-name="Trazado 160529" d="M-550.458,88.443a1.05,1.05,0,0,1,1.42.374,9.3,9.3,0,0,0,9.932,3.361,9.267,9.267,0,0,0,7.191-7.629,9.644,9.644,0,0,0-8.5-11.373A9.7,9.7,0,0,0-551.156,82.9a8.677,8.677,0,0,0,.412,2.648,1.023,1.023,0,0,1-.468,1.348c-.795.03-1.032-.143-1.252-.911a11.473,11.473,0,0,1,11.309-14.635A11.48,11.48,0,0,1-530,82.047a11.409,11.409,0,0,1-9.415,12.017,11.155,11.155,0,0,1-10.99-4.121C-550.91,89.348-550.906,89.072-550.458,88.443Z" transform="translate(-136.47 -113.728)" fill="#020202"/>
      <path id="Trazado_160530" data-name="Trazado 160530" d="M-660.789,53.374c0,.564-.007,1.129,0,1.693.005.3-.122.422-.418.42q-1.722-.008-3.444,0c-.309,0-.41-.15-.41-.431q0-1.722-.009-3.444c0-.3.139-.416.429-.415q1.722.008,3.444,0c.3,0,.42.127.415.424-.01.584,0,1.168,0,1.751Z" transform="translate(-41.879 -96.739)" fill="#75b62f"/>
      <path id="Trazado_160531" data-name="Trazado 160531" d="M-660.807,212.619c0,.525-.018,1.052.006,1.576.018.388-.093.57-.519.563-1.09-.021-2.18-.015-3.27,0-.346,0-.493-.118-.491-.474q.012-1.664-.008-3.328c0-.338.106-.5.471-.493,1.109.014,2.219.016,3.328,0,.392-.006.509.156.5.524-.021.544-.005,1.09-.005,1.635Z" transform="translate(-41.861 -231.062)" fill="#75b62f"/>
      <path id="Trazado_160532" data-name="Trazado 160532" d="M-662.964,130.179c.566,0,1.131.009,1.7,0,.3-.007.472.066.467.42-.017,1.131-.018,2.262-.008,3.393,0,.334-.132.439-.454.435-1.131-.013-2.262-.015-3.393,0-.35.005-.431-.155-.43-.459,0-1.112.006-2.223-.011-3.335-.005-.368.151-.47.493-.457C-664.057,130.194-663.51,130.179-662.964,130.179Z" transform="translate(-41.855 -163.347)" fill="#75b62f"/>
      <path id="Trazado_160533" data-name="Trazado 160533" d="M-516.247,115.315a2.853,2.853,0,0,1,2.273.942c.225.243.359.242.589,0,.776-.825,1.57-1.633,2.371-2.433a2.728,2.728,0,0,1,3.888-.111,2.72,2.72,0,0,1,.044,3.889q-2.264,2.374-4.582,4.7a2.677,2.677,0,0,1-3.843.076c-.86-.8-1.705-1.609-2.512-2.458a2.557,2.557,0,0,1-.52-2.977A2.564,2.564,0,0,1-516.247,115.315Zm2.615,6.04a1.085,1.085,0,0,0,.755-.341l4.5-4.611a1,1,0,0,0,.312-.791.893.893,0,0,0-.573-.817.969.969,0,0,0-1.122.259c-1.048,1.077-2.092,2.158-3.148,3.227a.926.926,0,0,1-1.476.022c-.315-.291-.611-.6-.928-.893a.97.97,0,0,0-1.41-.057.962.962,0,0,0,.085,1.448c.746.745,1.508,1.472,2.261,2.21A1.089,1.089,0,0,0-513.631,121.355Z" transform="translate(-165.242 -148.821)" fill="#020202"/>
      <path id="Trazado_160534" data-name="Trazado 160534" d="M-504.017,130.858a1.089,1.089,0,0,1-.748-.345c-.753-.738-1.516-1.465-2.261-2.21a.962.962,0,0,1-.085-1.448.97.97,0,0,1,1.41.057c.317.289.613.6.928.893a.926.926,0,0,0,1.476-.022c1.056-1.069,2.1-2.15,3.148-3.227a.969.969,0,0,1,1.122-.259.893.893,0,0,1,.573.817,1,1,0,0,1-.312.791l-4.5,4.611A1.085,1.085,0,0,1-504.017,130.858Z" transform="translate(-174.856 -158.324)" fill="#3d46c2"/>
    </g>
  </g>
</svg>
