<svg xmlns="http://www.w3.org/2000/svg" width="400" height="388.738" viewBox="0 0 400 388.738">
  <g id="Shopping_bag-pana" data-name="Shopping bag-pana" transform="translate(-7.05 -13)">
    <g id="freepik--background-complete--inject-2" transform="translate(7.05 13)">
      <path id="Trazado_162938" data-name="Trazado 162938" d="M288.512,249.574l-101.148-.947-30.657-.148h-10.5a3.883,3.883,0,0,0-.741.041,7.194,7.194,0,0,0,.741,0l2.165.049,8.331.107,30.657.156,101.148.066c39.514,0,75.234.049,101.115.23,12.941.091,23.412.214,30.648.346,3.622.074,6.429.14,8.339.214a15.475,15.475,0,0,1,2.906.214,16.011,16.011,0,0,1-2.906.181c-1.91.058-4.717.1-8.339.132-7.236.066-17.716.074-30.656.041C363.737,250.274,327.993,249.969,288.512,249.574Z" transform="translate(-31.521 -54.629)" fill="#ebebeb"/>
      <path id="Trazado_162939" data-name="Trazado 162939" d="M287.97,255.477,188.2,239.26l-30.253-4.775-8.232-1.235-2.149-.3a4.059,4.059,0,0,0-.733-.074,4.593,4.593,0,0,0,.724.156l2.132.379,8.232,1.367,30.212,4.783,99.914,15.328c39,5.952,74.312,11.4,99.848,15.493,12.768,2.042,23.1,3.746,30.228,4.939,3.564.617,6.322,1.111,8.232,1.474a15.418,15.418,0,0,1,2.832.65,15.64,15.64,0,0,1-2.906-.255c-1.885-.231-4.668-.609-8.232-1.128-7.162-1.029-17.51-2.593-30.294-4.585C362.166,267.554,326.9,261.832,287.97,255.477Z" transform="translate(-31.761 -51.872)" fill="#ebebeb"/>
      <path id="Trazado_162940" data-name="Trazado 162940" d="M286.485,261.146,190.6,229.863l-29.109-9.335-7.936-2.47-2.066-.617a3.738,3.738,0,0,0-.716-.181,5.83,5.83,0,0,0,.683.263l2.042.7,7.895,2.61,29.084,9.335,96.184,30.459c37.555,11.846,71.537,22.63,96.094,30.582,12.282,3.968,22.227,7.228,29.043,9.533,3.416,1.152,6.067,2.066,7.853,2.708a14.474,14.474,0,0,1,2.7,1.087,15.361,15.361,0,0,1-2.832-.7c-1.828-.519-4.511-1.317-7.969-2.371-6.907-2.116-16.868-5.244-29.166-9.171C357.808,284.426,323.908,273.395,286.485,261.146Z" transform="translate(-32.458 -49.11)" fill="#ebebeb"/>
      <path id="Trazado_162941" data-name="Trazado 162941" d="M284.111,266.51l-89.64-45.557L167.24,207.272l-7.409-3.663-1.976-.93a3.754,3.754,0,0,0-.675-.288,5.663,5.663,0,0,0,.634.362l1.91,1,7.368,3.779,27.224,13.7L284.375,266c35.176,17.444,66.985,33.291,89.986,44.9,11.525,5.763,20.753,10.537,27.166,13.855,3.194,1.646,5.664,2.964,7.327,3.877a14.916,14.916,0,0,1,2.47,1.474,15.487,15.487,0,0,1-2.675-1.12c-1.729-.823-4.248-2-7.491-3.573-6.47-3.136-15.806-7.755-27.314-13.509C350.775,300.394,319.082,284.316,284.111,266.51Z" transform="translate(-33.591 -46.481)" fill="#ebebeb"/>
      <path id="Trazado_162942" data-name="Trazado 162942" d="M280.884,271.476l-81.21-58.629-24.7-17.641-6.75-4.75-1.77-1.218a3.869,3.869,0,0,0-.617-.387,4.542,4.542,0,0,0,.56.461l1.729,1.276,6.668,4.849,24.7,17.666,81.729,57.9c31.924,22.573,60.8,43.054,81.613,58.012,10.43,7.475,18.819,13.558,24.581,17.806,2.889,2.124,5.112,3.8,6.586,4.939a15.5,15.5,0,0,1,2.223,1.836,14.175,14.175,0,0,1-2.47-1.515c-1.572-1.046-3.869-2.618-6.816-4.659-5.894-4.116-14.373-10.06-24.812-17.493C341.316,315.073,312.561,294.345,280.884,271.476Z" transform="translate(-35.122 -44.088)" fill="#ebebeb"/>
      <path id="Trazado_162943" data-name="Trazado 162943" d="M276.882,275.908l-70.8-70.179-21.576-21.165-5.96-5.713L177,177.386a5.509,5.509,0,0,0-.552-.486,3.021,3.021,0,0,0,.486.543l1.49,1.523,5.82,5.8,21.56,21.181L277.335,275.5c27.923,27.125,53.163,51.731,71.332,69.644,9.055,8.957,16.407,16.234,21.4,21.3,2.511,2.535,4.445,4.519,5.763,5.878a14.111,14.111,0,0,1,1.893,2.149,15.547,15.547,0,0,1-2.19-1.86c-1.383-1.276-3.408-3.178-5.985-5.639-5.17-4.939-12.587-12.118-21.708-21.033C329.568,328.1,304.5,303.321,276.882,275.908Z" transform="translate(-36.998 -41.975)" fill="#ebebeb"/>
      <path id="Trazado_162944" data-name="Trazado 162944" d="M272.225,279.685l-58.745-80.033-17.921-24.17-4.939-6.536c-.56-.724-.988-1.284-1.3-1.646a3.984,3.984,0,0,0-.469-.56,5.492,5.492,0,0,0,.4.609l1.235,1.729c1.12,1.539,2.741,3.754,4.816,6.586l17.921,24.219L272.7,279.389c23.248,31.019,44.248,59.131,59.329,79.58,7.541,10.216,13.608,18.522,17.748,24.285,2.074,2.881,3.672,5.137,4.733,6.676a14.817,14.817,0,0,1,1.531,2.4,14.981,14.981,0,0,1-1.869-2.173c-1.169-1.465-2.857-3.647-5.013-6.47-4.314-5.647-10.5-13.871-18.111-24.063C315.913,339.212,295.168,310.942,272.225,279.685Z" transform="translate(-39.19 -40.179)" fill="#ebebeb"/>
      <path id="Trazado_162945" data-name="Trazado 162945" d="M267.045,282.686c-17.633-34.353-33.6-65.437-45.129-87.977l-13.822-26.59c-1.646-3.112-2.922-5.532-3.811-7.2-.436-.823-.766-1.424-1.013-1.869a4.058,4.058,0,0,0-.37-.617,3.7,3.7,0,0,0,.288.659l.938,1.9,3.7,7.261,13.8,26.606,45.968,87.574c17.971,34.163,34.2,65.124,45.8,87.606,5.812,11.245,10.463,20.366,13.632,26.689,1.581,3.161,2.791,5.631,3.6,7.31a14.4,14.4,0,0,1,1.12,2.61,14.315,14.315,0,0,1-1.5-2.428c-.914-1.646-2.231-4.034-3.91-7.154-3.35-6.232-8.133-15.3-13.995-26.508C300.616,348.123,284.637,317.039,267.045,282.686Z" transform="translate(-41.674 -38.71)" fill="#ebebeb"/>
      <path id="Trazado_162946" data-name="Trazado 162946" d="M261.462,284.861c-11.854-36.625-22.573-69.767-30.344-93.789L221.783,162.7c-1.128-3.293-2-5.911-2.6-7.7-.3-.823-.535-1.515-.7-1.992a3.893,3.893,0,0,0-.272-.667,4.473,4.473,0,0,0,.181.692c.148.486.354,1.152.617,2.025l2.47,7.73c2.206,6.726,5.384,16.415,9.319,28.384,7.993,23.956,19.024,57,31.225,93.509s23.223,69.545,31.043,93.525c3.91,11.986,7.03,21.708,9.129,28.434,1.054,3.367,1.852,5.993,2.371,7.771a13.545,13.545,0,0,1,.733,2.725,15.4,15.4,0,0,1-1.078-2.634c-.642-1.745-1.556-4.33-2.708-7.664-2.3-6.668-5.557-16.341-9.516-28.319C284.018,354.612,273.267,321.469,261.462,284.861Z" transform="translate(-44.38 -37.633)" fill="#ebebeb"/>
      <path id="Trazado_162947" data-name="Trazado 162947" d="M255.6,286.138c-5.762-37.975-11-72.344-14.818-97.255-1.951-12.422-3.532-22.474-4.626-29.455l-1.268-8.026c-.156-.9-.28-1.581-.37-2.075a4.617,4.617,0,0,0-.156-.708,4.239,4.239,0,0,0,.066.716c.066.5.165,1.194.288,2.091.272,1.86.675,4.552,1.185,8.018,1.095,6.981,2.667,17.032,4.61,29.455,4.017,24.878,9.566,59.2,15.69,97.139s11.673,72.237,15.518,97.139c1.926,12.439,3.433,22.515,4.421,29.488.494,3.482.823,6.191,1.078,8.035a13.865,13.865,0,0,1,.231,2.815,14.992,14.992,0,0,1-.642-2.758c-.354-1.819-.823-4.511-1.432-7.985-1.194-6.94-2.84-16.991-4.816-29.422C266.589,358.474,261.337,324.1,255.6,286.138Z" transform="translate(-47.235 -36.976)" fill="#ebebeb"/>
      <path id="Trazado_162948" data-name="Trazado 162948" d="M249.172,286.534c.354-38.395.675-73.126.914-98.308.049-12.562.1-22.729.123-29.792V148.226a6.722,6.722,0,0,0-.041-.716,3.941,3.941,0,0,0-.049.716c0,.5,0,1.2-.049,2.107,0,1.877-.058,4.6-.1,8.1,0,7.055-.091,17.23-.148,29.792v98.308c0,38.386,0,73.118-.173,98.267-.082,12.579-.206,22.762-.338,29.792-.066,3.515-.14,6.248-.214,8.1a15.469,15.469,0,0,1-.214,2.824,13.994,13.994,0,0,1-.2-2.824c-.049-1.852-.1-4.585-.132-8.1-.074-7.038-.091-17.222-.058-29.792C248.5,359.644,248.785,324.9,249.172,286.534Z" transform="translate(-49.731 -36.779)" fill="#ebebeb"/>
      <path id="Trazado_162949" data-name="Trazado 162949" d="M233.644,286c6.5-37.868,12.348-72.13,16.629-96.975,2.058-12.4,3.729-22.433,4.89-29.405.543-3.457.971-6.149,1.268-8.01.123-.9.23-1.589.3-2.083a4.241,4.241,0,0,0,.066-.716,5.861,5.861,0,0,0-.156.7c-.1.494-.222,1.177-.4,2.075-.321,1.852-.823,4.536-1.391,7.985-1.169,6.973-2.84,17.008-4.939,29.405-4.026,24.878-9.574,59.2-15.707,97.139s-11.673,72.212-15.855,97.032c-2.091,12.414-3.836,22.449-5.1,29.372-.634,3.466-1.136,6.158-1.506,7.977a13.79,13.79,0,0,1-.675,2.75,15.262,15.262,0,0,1,.263-2.815c.239-1.844.626-4.544,1.152-8.026,1.054-6.964,2.659-17.024,4.7-29.438C221.28,358.12,227.124,323.842,233.644,286Z" transform="translate(-43.12 -37.009)" fill="#ebebeb"/>
      <path id="Trazado_162950" data-name="Trazado 162950" d="M218.431,284.567c12.546-36.394,23.873-69.339,32.105-93.213,4.05-11.937,7.318-21.593,9.6-28.3,1.095-3.293,1.951-5.919,2.544-7.705.272-.873.486-1.539.642-2.017a3.292,3.292,0,0,0,.181-.7,5.578,5.578,0,0,0-.272.675l-.724,1.984-2.667,7.672c-2.28,6.7-5.565,16.357-9.615,28.286-8.01,23.956-19.049,56.991-31.282,93.509s-23.223,69.537-31.389,93.41c-4.116,11.937-7.409,21.576-9.8,28.228-1.177,3.293-2.116,5.9-2.774,7.639a14.818,14.818,0,0,1-1.111,2.618,13.444,13.444,0,0,1,.708-2.75c.535-1.778,1.358-4.388,2.47-7.746,2.165-6.709,5.376-16.4,9.409-28.352C194.483,353.9,205.811,320.944,218.431,284.567Z" transform="translate(-36.541 -37.685)" fill="#ebebeb"/>
      <path id="Trazado_162951" data-name="Trazado 162951" d="M203.967,282.262c18.284-34.023,34.83-64.82,46.816-87.145l14.061-26.475,3.762-7.228.955-1.885a5.233,5.233,0,0,0,.3-.659,3.212,3.212,0,0,0-.379.617l-1.037,1.852-3.877,7.17-14.077,26.466-46.034,87.557c-17.93,34.18-34.213,65.116-46.1,87.442-5.96,11.163-10.825,20.177-14.242,26.343-1.7,3.1-3.046,5.507-3.976,7.121a15.066,15.066,0,0,1-1.523,2.42,14.529,14.529,0,0,1,1.153-2.6c.823-1.646,2.05-4.116,3.663-7.277,3.235-6.3,7.977-15.369,13.888-26.557C169.112,347.073,185.634,316.26,203.967,282.262Z" transform="translate(-30.31 -38.788)" fill="#ebebeb"/>
      <path id="Trazado_162952" data-name="Trazado 162952" d="M190.629,279.121l60.292-78.954,18.111-24.021,4.882-6.586,1.251-1.721a4.254,4.254,0,0,0,.4-.609,5.124,5.124,0,0,0-.469.552l-1.317,1.646-4.989,6.487-18.16,24.054-59.518,79.49c-23.206,31.043-44.264,59.123-59.634,79.358-7.681,10.117-13.937,18.284-18.308,23.873-2.19,2.807-3.9,4.939-5.079,6.429a14.605,14.605,0,0,1-1.885,2.157,14.891,14.891,0,0,1,1.548-2.4c1.078-1.531,2.692-3.762,4.8-6.627,4.2-5.763,10.348-13.995,17.987-24.128C145.8,337.849,167.085,309.926,190.629,279.121Z" transform="translate(-24.578 -40.266)" fill="#ebebeb"/>
      <path id="Trazado_162953" data-name="Trazado 162953" d="M178.809,275.243l72.163-68.895,21.766-20.975,5.878-5.762,1.506-1.515a5.3,5.3,0,0,0,.494-.535,5.384,5.384,0,0,0-.56.469l-1.564,1.457-5.968,5.655-21.741,20.984-71.521,69.529c-27.891,27.166-53.188,51.706-71.62,69.372-9.2,8.841-16.695,15.954-21.906,20.836-2.61,2.47-4.643,4.322-6.042,5.581a14.9,14.9,0,0,1-2.214,1.844,14.671,14.671,0,0,1,1.918-2.124c1.309-1.35,3.293-3.293,5.763-5.828,5.1-5.022,12.5-12.241,21.642-21.124C125.144,326.479,150.623,302.1,178.809,275.243Z" transform="translate(-19.501 -42.092)" fill="#ebebeb"/>
      <path id="Trazado_162954" data-name="Trazado 162954" d="M168.73,270.717l82.321-57.139L275.9,196.142l6.726-4.791,1.729-1.268a4.472,4.472,0,0,0,.576-.453,4,4,0,0,0-.626.387l-1.786,1.194-6.8,4.692-24.861,17.419-81.8,57.864c-31.883,22.614-60.794,43.054-81.827,57.707-10.5,7.343-19.041,13.237-24.976,17.287-2.964,2.017-5.277,3.565-6.866,4.6a15.446,15.446,0,0,1-2.47,1.49,15.239,15.239,0,0,1,2.231-1.811c1.506-1.136,3.754-2.774,6.66-4.873,5.762-4.2,14.258-10.208,24.738-17.584C107.507,313.219,136.583,293,168.73,270.717Z" transform="translate(-15.159 -44.226)" fill="#ebebeb"/>
      <path id="Trazado_162955" data-name="Trazado 162955" d="M160.619,265.683l90.5-43.935L278.471,208.3l7.409-3.7,1.918-.988a5.667,5.667,0,0,0,.634-.362,4.018,4.018,0,0,0-.675.28l-1.959.914-7.458,3.6-27.364,13.427c-23.05,11.451-54.9,27.265-90.076,44.733s-66.96,33.266-90.126,44.561c-11.525,5.647-20.943,10.175-27.446,13.262-3.293,1.539-5.763,2.717-7.524,3.5a15.643,15.643,0,0,1-2.684,1.095,14.264,14.264,0,0,1,2.47-1.457c1.646-.889,4.157-2.173,7.36-3.8,6.421-3.293,15.732-7.919,27.273-13.608C93.322,298.348,125.287,282.8,160.619,265.683Z" transform="translate(-11.659 -46.633)" fill="#ebebeb"/>
      <path id="Trazado_162956" data-name="Trazado 162956" d="M154.712,260.264l96.481-29.545,29.191-9.055,7.911-2.527,2.058-.683a3.854,3.854,0,0,0,.683-.263,6.637,6.637,0,0,0-.716.181l-2.074.6-7.96,2.354-29.208,9.055-96.184,30.459c-37.53,11.9-71.537,22.622-96.209,30.237-12.348,3.8-22.326,6.849-29.249,8.891-3.466,1.029-6.158,1.8-7.993,2.3a15.514,15.514,0,0,1-2.832.675,14,14,0,0,1,2.7-1.062c1.795-.617,4.454-1.507,7.886-2.634,6.857-2.239,16.81-5.409,29.134-9.269C82.961,282.244,117.05,271.765,154.712,260.264Z" transform="translate(-9.094 -49.275)" fill="#ebebeb"/>
      <path id="Trazado_162957" data-name="Trazado 162957" d="M151.17,254.549l100.062-14.423,30.3-4.511,8.232-1.284,2.14-.362a3.944,3.944,0,0,0,.716-.148,4.467,4.467,0,0,0-.733.066l-2.149.272-8.232,1.169-30.327,4.495-99.922,15.312c-38.987,6-74.312,11.393-99.905,15.139-12.793,1.877-23.157,3.35-30.327,4.314-3.589.486-6.372.823-8.232,1.054a15.64,15.64,0,0,1-2.906.23,14.5,14.5,0,0,1,2.84-.626c1.877-.346,4.643-.823,8.232-1.4,7.137-1.161,17.477-2.766,30.27-4.7C76.751,265.25,112.117,260.163,151.17,254.549Z" transform="translate(-7.552 -52.038)" fill="#ebebeb"/>
      <path id="Trazado_162958" data-name="Trazado 162958" d="M150.059,248.36l101.148.823,30.656.107h10.5a4.936,4.936,0,0,0,.733,0,4.164,4.164,0,0,0-.733-.049l-2.173-.041-8.331-.091-30.656-.132-101.148.066c-39.514.049-75.234.041-101.115-.115-12.941-.074-23.412-.181-30.648-.3-3.622-.066-6.429-.132-8.339-.206a16.075,16.075,0,0,1-2.906-.206,15.409,15.409,0,0,1,2.906-.189c1.91-.058,4.717-.107,8.339-.14,7.236-.074,17.716-.1,30.657-.074C74.833,247.75,110.577,248.014,150.059,248.36Z" transform="translate(-7.05 -54.509)" fill="#ebebeb"/>
      <path id="Trazado_162959" data-name="Trazado 162959" d="M151.374,233.3l99.79,16.094,30.261,4.733,8.232,1.227,2.149.3a4.471,4.471,0,0,0,.733.066,4.3,4.3,0,0,0-.716-.156l-2.132-.379-8.232-1.35-30.237-4.783-99.938-15.213c-39.012-5.9-74.328-11.3-99.872-15.353-12.768-2.025-23.1-3.713-30.228-4.939-3.565-.609-6.331-1.1-8.232-1.465a16.252,16.252,0,0,1-2.84-.642,14.99,14.99,0,0,1,2.906.247c1.893.23,4.676.609,8.232,1.12,7.162,1.021,17.51,2.577,30.294,4.552C77.161,221.294,112.436,226.957,151.374,233.3Z" transform="translate(-7.591 -48.081)" fill="#ebebeb"/>
      <path id="Trazado_162960" data-name="Trazado 162960" d="M155.149,218.436,251.087,249.6l29.117,9.311,7.936,2.47,2.074.617a4.521,4.521,0,0,0,.716.181,4.192,4.192,0,0,0-.691-.263l-2.042-.7-7.895-2.593L251.185,249.3,154.96,218.987c-37.563-11.8-71.57-22.54-96.135-30.459-12.282-3.96-22.227-7.2-29.051-9.5-3.416-1.152-6.067-2.058-7.862-2.7a15.411,15.411,0,0,1-2.692-1.078,15.5,15.5,0,0,1,2.824.691c1.836.519,4.519,1.317,7.977,2.363,6.907,2.107,16.876,5.227,29.175,9.129C83.8,195.246,117.718,206.236,155.149,218.436Z" transform="translate(-9.201 -41.683)" fill="#ebebeb"/>
      <path id="Trazado_162961" data-name="Trazado 162961" d="M161.266,204.377,251,249.827l27.248,13.641,7.409,3.655,1.943.93a3.752,3.752,0,0,0,.675.288,3.848,3.848,0,0,0-.634-.37l-1.91-1.029-7.409-3.77-27.24-13.665-90.084-44.618c-35.184-17.4-67.026-33.208-90-44.791-11.525-5.762-20.761-10.5-27.166-13.822-3.194-1.646-5.664-2.955-7.327-3.861a16.1,16.1,0,0,1-2.47-1.474,15.089,15.089,0,0,1,2.684,1.111c1.721.823,4.248,1.992,7.483,3.565,6.487,3.136,15.822,7.738,27.339,13.476C94.561,170.567,126.271,186.612,161.266,204.377Z" transform="translate(-11.82 -35.618)" fill="#ebebeb"/>
      <path id="Trazado_162962" data-name="Trazado 162962" d="M169.568,191.442l81.284,58.522,24.7,17.617,6.75,4.742,1.778,1.21a3.87,3.87,0,0,0,.617.387,5.29,5.29,0,0,0-.568-.461l-1.721-1.276-6.684-4.841-24.7-17.633-81.827-57.8C137.256,169.38,108.353,148.931,87.526,134c-10.455-7.458-18.827-13.534-24.6-17.773-2.889-2.124-5.12-3.787-6.586-4.939a15.5,15.5,0,0,1-2.223-1.836,14.381,14.381,0,0,1,2.47,1.506c1.572,1.045,3.877,2.618,6.824,4.659,5.894,4.116,14.382,10.043,24.828,17.46C109.119,147.919,137.857,168.581,169.568,191.442Z" transform="translate(-15.371 -30.051)" fill="#ebebeb"/>
      <path id="Trazado_162963" data-name="Trazado 162963" d="M179.8,179.955l70.928,70.1,21.6,21.14,5.919,5.7,1.556,1.465a4.85,4.85,0,0,0,.552.477,4.731,4.731,0,0,0-.494-.543l-1.49-1.523c-1.358-1.342-3.293-3.293-5.828-5.763l-21.585-21.157-71.62-69.463C151.35,153.3,126.1,128.727,107.917,110.838c-9.055-8.948-16.464-16.217-21.453-21.28-2.511-2.535-4.454-4.511-5.763-5.878a14.859,14.859,0,0,1-1.9-2.14A15.246,15.246,0,0,1,81,83.4c1.383,1.268,3.408,3.169,5.993,5.631,5.17,4.939,12.6,12.1,21.733,21.008C127.049,127.829,152.14,152.583,179.8,179.955Z" transform="translate(-19.734 -25.117)" fill="#ebebeb"/>
      <path id="Trazado_162964" data-name="Trazado 162964" d="M191.764,170.149l58.852,79.959,17.954,24.145,4.939,6.536c.56.724,1,1.276,1.3,1.646a6.223,6.223,0,0,0,.469.56,3.468,3.468,0,0,0-.4-.609q-.428-.617-1.235-1.729l-4.824-6.586c-4.256-5.721-10.372-13.995-17.938-24.153L191.3,170.478c-23.3-30.978-44.33-59.033-59.461-79.5-7.557-10.208-13.632-18.506-17.79-24.268-2.075-2.873-3.672-5.129-4.733-6.66a14.587,14.587,0,0,1-1.531-2.412,14.983,14.983,0,0,1,1.869,2.173c1.169,1.465,2.857,3.647,5.022,6.462,4.347,5.655,10.578,13.888,18.135,24.038C148,110.68,168.821,138.924,191.764,170.149Z" transform="translate(-24.858 -20.892)" fill="#ebebeb"/>
      <path id="Trazado_162965" data-name="Trazado 162965" d="M205.186,162.266l45.277,87.919,13.83,26.615,3.82,7.2,1.021,1.86a3.555,3.555,0,0,0,.37.617,3.7,3.7,0,0,0-.288-.659c-.23-.453-.543-1.078-.947-1.9l-3.7-7.253c-3.293-6.3-7.993-15.378-13.83-26.59l-46.1-87.516c-18.012-34.139-34.279-65.083-45.911-87.549-5.8-11.278-10.43-20.391-13.641-26.713-1.589-3.161-2.807-5.623-3.606-7.31a13.889,13.889,0,0,1-1.128-2.61,14.818,14.818,0,0,1,1.5,2.428c.914,1.646,2.239,4.034,3.918,7.154,3.359,6.232,8.15,15.279,13.995,26.491C171.525,96.869,187.545,127.937,205.186,162.266Z" transform="translate(-30.616 -17.487)" fill="#ebebeb"/>
      <path id="Trazado_162966" data-name="Trazado 162966" d="M219.728,156.5l30.459,93.748,9.376,28.368c1.12,3.293,2,5.9,2.6,7.689l.708,1.992a4.259,4.259,0,0,0,.272.675,5.55,5.55,0,0,0-.181-.7c-.148-.477-.354-1.152-.626-2.017-.576-1.795-1.408-4.4-2.47-7.738l-9.352-28.368L219.16,156.685c-12.258-36.477-23.313-69.52-31.167-93.492-3.927-11.986-7.055-21.692-9.171-28.45-1.054-3.359-1.86-5.985-2.379-7.763a13.705,13.705,0,0,1-.683-2.75,15,15,0,0,1,1.087,2.626c.642,1.745,1.556,4.322,2.708,7.656,2.313,6.668,5.581,16.341,9.558,28.31C197.081,86.778,207.874,119.9,219.728,156.5Z" transform="translate(-36.876 -14.985)" fill="#ebebeb"/>
      <path id="Trazado_162967" data-name="Trazado 162967" d="M235.024,153.049c5.82,37.975,11.089,72.336,14.9,97.238,1.967,12.414,3.564,22.466,4.668,29.446.576,3.458,1.021,6.141,1.334,7.993.156.9.28,1.589.37,2.083a4.633,4.633,0,0,0,.156.7,4.238,4.238,0,0,0-.066-.716c-.066-.494-.165-1.185-.288-2.091l-1.2-8.01c-1.1-6.981-2.684-17.032-4.643-29.455-4.05-24.869-9.64-59.181-15.822-97.139s-11.764-72.171-15.674-97.049c-1.935-12.431-3.458-22.507-4.454-29.471-.5-3.482-.873-6.191-1.095-8.035a15.312,15.312,0,0,1-.239-2.824,13.912,13.912,0,0,1,.65,2.766c.354,1.819.823,4.511,1.441,7.977,1.227,6.94,2.873,16.991,4.89,29.413C223.935,80.729,229.237,115.1,235.024,153.049Z" transform="translate(-43.454 -13.481)" fill="#ebebeb"/>
      <path id="Trazado_162968" data-name="Trazado 162968" d="M250.392,151.967c-.3,38.395-.584,73.134-.823,98.308,0,12.562-.066,22.737-.091,29.792v10.208a6.726,6.726,0,0,0,0,.716,3.943,3.943,0,0,0,.049-.716c0-.5,0-1.194.049-2.107,0-1.877.049-4.6.091-8.1,0-7.055.058-17.23.107-29.792,0-25.174-.074-59.914-.123-98.308s-.091-73.118.049-98.267c.066-12.579.173-22.754.3-29.792.066-3.515.132-6.248.206-8.1A13.765,13.765,0,0,1,250.565,13a15.4,15.4,0,0,1,.189,2.824c.058,1.852.115,4.585.148,8.1.082,7.038.115,17.213.1,29.792C250.976,78.857,250.729,113.605,250.392,151.967Z" transform="translate(-49.906 -13)" fill="#ebebeb"/>
      <path id="Trazado_162969" data-name="Trazado 162969" d="M256.493,153.241c-6.438,37.868-12.266,72.155-16.464,97-2.042,12.4-3.7,22.441-4.849,29.413-.543,3.458-.963,6.149-1.26,8.01-.123.9-.23,1.589-.3,2.083a3.949,3.949,0,0,0-.074.716,3.467,3.467,0,0,0,.165-.7c.091-.494.214-1.177.387-2.074.321-1.852.782-4.536,1.383-7.985,1.152-6.973,2.815-17.016,4.873-29.413,3.993-24.878,9.492-59.206,15.583-97.139s11.583-72.245,15.748-97.073c2.042-12.414,3.77-22.449,5.038-29.381.626-3.466,1.136-6.149,1.5-7.969a14.5,14.5,0,0,1,.667-2.758,13.935,13.935,0,0,1-.255,2.824c-.239,1.836-.626,4.544-1.144,8.026-1.045,6.956-2.642,17.016-4.668,29.438C268.767,81.1,262.963,115.39,256.493,153.241Z" transform="translate(-47.092 -13.525)" fill="#ebebeb"/>
      <path id="Trazado_162970" data-name="Trazado 162970" d="M262.353,156.894c-12.5,36.419-23.807,69.372-32.015,93.262l-9.549,28.3c-1.095,3.334-1.951,5.927-2.544,7.722-.272.864-.477,1.531-.634,2.009a3.473,3.473,0,0,0-.181.7,5.754,5.754,0,0,0,.272-.667c.173-.477.412-1.136.716-1.992l2.667-7.672c2.264-6.709,5.54-16.374,9.574-28.3,7.969-23.964,18.934-57.016,31.126-93.542s23.141-69.57,31.282-93.451c4.067-11.937,7.409-21.593,9.763-28.244,1.177-3.293,2.107-5.9,2.766-7.639a13.706,13.706,0,0,1,1.111-2.618,15.206,15.206,0,0,1-.724,2.75c-.535,1.778-1.35,4.388-2.47,7.746-2.157,6.717-5.359,16.407-9.368,28.368C286.135,87.522,274.849,120.508,262.353,156.894Z" transform="translate(-44.242 -15.079)" fill="#ebebeb"/>
      <path id="Trazado_162971" data-name="Trazado 162971" d="M267.882,162.833l-46.734,87.2c-5.911,11.171-10.7,20.21-13.995,26.491l-3.762,7.228c-.412.823-.724,1.449-.955,1.893a5.769,5.769,0,0,0-.3.659,3.213,3.213,0,0,0,.379-.617c.247-.436.584-1.054,1.029-1.852l3.877-7.17,14.036-26.491c11.756-22.441,27.989-53.394,45.886-87.606s34.13-65.166,46.026-87.5c5.952-11.171,10.8-20.193,14.209-26.4,1.7-3.1,3.038-5.507,3.968-7.129a15.272,15.272,0,0,1,1.515-2.42,14.173,14.173,0,0,1-1.144,2.61c-.823,1.646-2.05,4.116-3.655,7.277-3.227,6.3-7.952,15.386-13.855,26.573C302.589,97.972,286.108,128.809,267.882,162.833Z" transform="translate(-41.539 -17.618)" fill="#ebebeb"/>
      <path id="Trazado_162972" data-name="Trazado 162972" d="M272.959,170.9c-23.486,30.862-44.75,58.786-60.16,79.029-7.631,10.142-13.814,18.341-18.111,24.038l-4.882,6.586-1.243,1.72a4.7,4.7,0,0,0-.4.6,3.8,3.8,0,0,0,.477-.552l1.317-1.646,4.939-6.5L213,250.153l59.42-79.564c23.165-31.068,44.182-59.173,59.527-79.432,7.672-10.126,13.921-18.3,18.284-23.873,2.182-2.807,3.886-4.98,5.063-6.438a15.894,15.894,0,0,1,1.885-2.157,14.169,14.169,0,0,1-1.548,2.4c-1.07,1.531-2.684,3.77-4.783,6.635-4.2,5.762-10.331,13.995-17.954,24.153C317.7,112.117,296.462,140.073,272.959,170.9Z" transform="translate(-39.068 -21.077)" fill="#ebebeb"/>
      <path id="Trazado_162973" data-name="Trazado 162973" d="M277.533,180.838l-72.081,68.985-21.733,21-5.87,5.763-1.506,1.515a5.3,5.3,0,0,0-.494.535,3.3,3.3,0,0,0,.56-.469l1.564-1.457,5.96-5.664,21.749-20.992c18.292-17.831,43.532-42.437,71.43-69.619s53.114-51.772,71.513-69.463c9.2-8.85,16.678-15.97,21.889-20.86,2.6-2.47,4.635-4.33,6.034-5.59a15.716,15.716,0,0,1,2.206-1.852,14.634,14.634,0,0,1-1.918,2.14c-1.3,1.35-3.252,3.293-5.763,5.828-5.063,5.03-12.439,12.249-21.6,21.14C331.133,129.536,305.679,153.936,277.533,180.838Z" transform="translate(-36.891 -25.317)" fill="#ebebeb"/>
      <path id="Trazado_162974" data-name="Trazado 162974" d="M281.42,192.454,199.189,249.7l-24.836,17.46-6.717,4.8-1.729,1.268a4,4,0,0,0-.576.461,5.934,5.934,0,0,0,.626-.387l1.786-1.2,6.783-4.733,24.853-17.444,81.7-57.971c31.867-22.647,60.761-43.12,81.762-57.814,10.5-7.343,19.033-13.254,24.96-17.288,2.964-2.017,5.277-3.573,6.857-4.61a15.447,15.447,0,0,1,2.47-1.49,15.239,15.239,0,0,1-2.239,1.819c-1.506,1.136-3.746,2.782-6.652,4.882-5.8,4.207-14.25,10.224-24.7,17.617C342.585,149.877,313.533,170.137,281.42,192.454Z" transform="translate(-35.032 -30.281)" fill="#ebebeb"/>
      <path id="Trazado_162975" data-name="Trazado 162975" d="M284.561,205.456,194.09,249.531l-27.339,13.476-7.409,3.721-1.918.988a5.658,5.658,0,0,0-.634.362,4.019,4.019,0,0,0,.675-.28l1.959-.922,7.458-3.606,27.347-13.46,90.018-44.84c35.118-17.534,66.944-33.357,90.06-44.676,11.525-5.664,20.926-10.208,27.43-13.295,3.252-1.548,5.763-2.733,7.516-3.507a16.248,16.248,0,0,1,2.684-1.1,14.267,14.267,0,0,1-2.47,1.457c-1.646.9-4.116,2.182-7.36,3.82-6.4,3.293-15.715,7.936-27.248,13.641C351.785,172.734,319.836,188.325,284.561,205.456Z" transform="translate(-33.522 -35.874)" fill="#ebebeb"/>
      <path id="Trazado_162976" data-name="Trazado 162976" d="M286.742,219.624,190.3,249.259l-29.15,9.2-7.911,2.47-2.05.683a4.816,4.816,0,0,0-.691.263,3.836,3.836,0,0,0,.716-.173l2.074-.609,7.96-2.42,29.175-9.08,96.151-30.525c37.522-11.945,71.513-22.7,96.168-30.352,12.348-3.828,22.326-6.882,29.249-8.94,3.458-1.021,6.149-1.8,7.985-2.313a14.816,14.816,0,0,1,2.832-.667,15.64,15.64,0,0,1-2.7,1.054c-1.795.626-4.454,1.523-7.886,2.643-6.857,2.256-16.8,5.433-29.117,9.311C358.493,197.545,324.421,208.074,286.742,219.624Z" transform="translate(-32.41 -41.958)" fill="#ebebeb"/>
      <path id="Trazado_162977" data-name="Trazado 162977" d="M288.117,234.486l-100,14.554-30.294,4.552-8.232,1.3-2.132.362a3.95,3.95,0,0,0-.724.148,4.472,4.472,0,0,0,.733-.066l2.149-.28,8.232-1.169,30.294-4.536,99.905-15.435c38.979-6.059,74.3-11.484,99.881-15.271,12.793-1.885,23.157-3.375,30.327-4.347,3.581-.486,6.372-.823,8.232-1.07a16.552,16.552,0,0,1,2.9-.23,14.58,14.58,0,0,1-2.84.634c-1.869.346-4.635.823-8.232,1.408-7.137,1.169-17.477,2.791-30.261,4.733C362.519,223.7,327.162,228.839,288.117,234.486Z" transform="translate(-31.743 -48.357)" fill="#ebebeb"/>
    </g>
    <g id="freepik--Table--inject-2" transform="translate(33.401 400.314)">
      <path id="Trazado_162978" data-name="Trazado 162978" d="M383.732,483.7c0,.115-77.16.214-172.323.214s-172.348-.1-172.348-.214,77.152-.214,172.348-.214S383.732,483.589,383.732,483.7Z" transform="translate(-39.06 -483.49)" fill="#263238"/>
    </g>
    <g id="freepik--Character--inject-2" transform="translate(42.852 47.167)">
      <path id="Trazado_162979" data-name="Trazado 162979" d="M346.113,428.11s-3.7,8.356-2.42,15.847-.165,16.349,3.112,17.9,4.692-.247,4.882-3.754.6-8.907.708-13.048a38.338,38.338,0,0,1,.338-5.269l1.4-11.245Z" transform="translate(-102.318 -120.553)" fill="#ffbf9d"/>
      <path id="Trazado_162980" data-name="Trazado 162980" d="M361.015,422.17s5.137,20.482,5.12,23.05a18.667,18.667,0,0,1-1.646,6.092s-1.556,8.981-2.4,10.068-9.245,2.494-9.245,2.494l-5.359-3.062,2.173-4.659,4.618.757,1.07-3.844-3-4.445-2.56-21.4Z" transform="translate(-103.037 -119.503)" fill="#ffbf9d"/>
      <path id="Trazado_162981" data-name="Trazado 162981" d="M355.49,441.37a4.94,4.94,0,0,1-.28,1.054c-.2.675-.5,1.646-.823,2.857a55.663,55.663,0,0,0-1.646,9.615c-.082.955-.123,1.885-.156,2.782a22.347,22.347,0,0,1-.165,2.618,5.129,5.129,0,0,1-2.182,3.836,2.889,2.889,0,0,1-2.955.049,2.174,2.174,0,0,1-.609-.568.659.659,0,0,1-.123-.255,3.294,3.294,0,0,0,.823.675,2.766,2.766,0,0,0,2.717-.156,4.939,4.939,0,0,0,1.951-3.63,23.239,23.239,0,0,0,.132-2.577c0-.906.066-1.844.148-2.807a47.643,47.643,0,0,1,1.786-9.681c.354-1.21.7-2.165.947-2.824A5.67,5.67,0,0,1,355.49,441.37Z" transform="translate(-102.87 -122.897)" fill="#ff9a6c"/>
      <path id="Trazado_162982" data-name="Trazado 162982" d="M345.893,423.463,342.18,410.81s13.558-9.582,14.3-8.957,4.116,18.934,4.116,18.934l-6.956,7.467Z" transform="translate(-102.098 -115.906)" fill="#ffbf9d"/>
      <path id="Trazado_162983" data-name="Trazado 162983" d="M307.5,196.984c-4.594-6.923-28.73-13.674-28.73-13.674l6.479,5.409,13.995,75.513L330.2,375.547l24.112-4.511S323.133,220.486,307.5,196.984Z" transform="translate(-90.888 -77.275)" fill="#f85316"/>
      <path id="Trazado_162984" data-name="Trazado 162984" d="M317.806,380.08l-56.991,27.989s-4.528,33.933-.634,57.345h51.533C324.786,420.45,317.806,380.08,317.806,380.08Z" transform="translate(-87.322 -112.062)" fill="#263238"/>
      <path id="Trazado_162985" data-name="Trazado 162985" d="M254.675,408.552,194.745,359.9s-24.079,36.641-16.464,73.093c1.136,5.466,4.742,20.976,7.1,28.862h70.8C254.345,436.089,254.675,408.552,254.675,408.552Z" transform="translate(-72.86 -108.494)" fill="#263238"/>
      <path id="Trazado_162986" data-name="Trazado 162986" d="M306.465,372.439c.222-.082-48.4,35.538-48.4,35.538l-65.19-44.264,12.027-23.05s33.357,14.258,50.644,10.685,36.221-19.008,36.221-19.008C296.076,341.6,303.806,362.173,306.465,372.439Z" transform="translate(-75.702 -103.622)" fill="#263238"/>
      <path id="Trazado_162987" data-name="Trazado 162987" d="M288.085,391.92l-.881,1.218-3.383,4.8c-2.955,4.231-7.244,10.381-12.661,18.16l-.049.066v.082c.617,6.792.823,14.694,1.268,23.478s.115,17.378.609,27.767h.691c-.535-10.389-.263-18.934-.708-27.759s-.741-16.629-1.4-23.412l12.447-18.209,3.293-4.865.823-1.26a2.286,2.286,0,0,0,.263-.436A3,3,0,0,0,288.085,391.92Z" transform="translate(-89.534 -114.089)" fill="#455a64"/>
      <path id="Trazado_162988" data-name="Trazado 162988" d="M279.9,81.46a25.824,25.824,0,0,1,9.582,21.848c-.313,4.009-1.416,8.594,1.194,11.657s7.656,2.939,10.126,6.059c2.914,3.672.477,9.138,1.523,13.715a9.269,9.269,0,0,0,9.879,6.89,36.221,36.221,0,0,1-17.971,7.779l-5.022-6.454c1.9,2.264,1.4,5.861-.445,8.166s-4.692,3.565-7.508,4.462A45.968,45.968,0,0,1,240.97,149" transform="translate(-84.205 -59.27)" fill="#263238"/>
      <path id="Trazado_162989" data-name="Trazado 162989" d="M196.515,112.142c1.013-3.079,2.692-5.927,3.375-9.055,1.449-6.8-1.86-14.456,1.432-20.58,2.354-4.355,7.351-6.487,12.085-7.944s9.8-2.692,13.336-6.166c2.585-2.544,4.058-6.051,6.635-8.611,3.672-3.639,9.1-4.873,14.266-5.194,5.3-.321,10.784.189,15.551,2.527s8.726,6.734,9.574,11.978c.42,2.56.107,5.236.914,7.7.881,2.708,3,4.816,4.322,7.343a13.632,13.632,0,0,1-3.408,16.333l-36.4,47.014c-7.648,2.889-26.178-.6-32.105-6.248S193.979,119.946,196.515,112.142Z" transform="translate(-76.243 -54.505)" fill="#263238"/>
      <path id="Trazado_162990" data-name="Trazado 162990" d="M278.586,98.374c-1.5-10.7-9.615-23.289-20.218-21.338L225.637,88.068c-3.219.593-.914,5.845-.6,9.1l7.121,73.809c-.058,0-4.421,3.153-6,2.552a.445.445,0,0,0-.527.667c3.927,5.7,22.482,30.657,41.605,23.05,4.272-1.7-.453-15.155.049-20.144l-.568-12.743c-.42-6.5-.626-9.162-.617-9.1s13.525-3.293,14.991-21.4C281.821,124.816,280.257,110.27,278.586,98.374Z" transform="translate(-81.195 -58.452)" fill="#ffbf9d"/>
      <path id="Trazado_162991" data-name="Trazado 162991" d="M282.671,122.159a2.3,2.3,0,0,1-2.033,2.47,2.2,2.2,0,0,1-2.519-1.885,2.3,2.3,0,0,1,2.025-2.47,2.206,2.206,0,0,1,2.527,1.885Z" transform="translate(-90.771 -66.127)" fill="#263238"/>
      <path id="Trazado_162992" data-name="Trazado 162992" d="M255.411,123.589a2.3,2.3,0,0,1-2.033,2.47,2.2,2.2,0,0,1-2.519-1.885,2.3,2.3,0,0,1,2.033-2.47,2.2,2.2,0,0,1,2.519,1.885Z" transform="translate(-85.952 -66.38)" fill="#263238"/>
      <path id="Trazado_162993" data-name="Trazado 162993" d="M286.435,113.294c-.247.428-2.379-.922-5.055-.535s-4.388,2.223-4.733,1.877c-.173-.148,0-.823.782-1.712a6.075,6.075,0,0,1,7.812-1.07C286.18,112.471,286.558,113.1,286.435,113.294Z" transform="translate(-90.502 -64.473)" fill="#263238"/>
      <path id="Trazado_162994" data-name="Trazado 162994" d="M257.141,115.609c-.313.387-2.412-1.136-5.285-1.013s-4.939,1.745-5.244,1.383c-.156-.165.148-.823,1.037-1.646a6.931,6.931,0,0,1,4.174-1.564,6.767,6.767,0,0,1,4.223,1.268C256.959,114.769,257.3,115.428,257.141,115.609Z" transform="translate(-85.196 -64.804)" fill="#263238"/>
      <path id="Trazado_162995" data-name="Trazado 162995" d="M269.764,132.373a16.426,16.426,0,0,1,3.951-1.029c.626-.115,1.21-.288,1.284-.724a3.186,3.186,0,0,0-.56-1.836c-.708-1.482-1.457-3.029-2.231-4.659-3.112-6.586-5.417-12.1-5.153-12.225s3.013,5.153,6.125,11.788l2.157,4.684a3.663,3.663,0,0,1,.51,2.47,1.589,1.589,0,0,1-.963,1,4.116,4.116,0,0,1-1.054.231C271.336,132.381,269.789,132.513,269.764,132.373Z" transform="translate(-88.813 -64.651)" fill="#263238"/>
      <path id="Trazado_162996" data-name="Trazado 162996" d="M269.9,171.1a45.606,45.606,0,0,1-24.441-4.544s6.989,12.085,24.754,9.055Z" transform="translate(-84.999 -74.314)" fill="#ff9a6c"/>
      <path id="Trazado_162997" data-name="Trazado 162997" d="M261.077,145.129a3.779,3.779,0,0,1,1.268-1.506,3.054,3.054,0,0,1,2.132-.214,5.046,5.046,0,0,1,2.8,1.416,3,3,0,0,1,.7,2.955h0c-.272,1.037-1.811,1.6-2.865,1.786a4.734,4.734,0,0,1-3.079-.65,2.7,2.7,0,0,1-1.572-2.033A3.293,3.293,0,0,1,261.077,145.129Z" transform="translate(-87.651 -70.204)" fill="#ff9a6c"/>
      <path id="Trazado_162998" data-name="Trazado 162998" d="M261.754,141.3c.4-.058.609,2.618,3.054,4.347s5.26,1.21,5.31,1.581c.058.165-.593.576-1.795.7a6.709,6.709,0,0,1-4.429-1.169,5.763,5.763,0,0,1-2.379-3.663C261.326,141.983,261.573,141.3,261.754,141.3Z" transform="translate(-87.825 -69.849)" fill="#263238"/>
      <path id="Trazado_162999" data-name="Trazado 162999" d="M256.749,104.169c-.189.691-2.684.56-5.548,1.128s-5.153,1.548-5.581.971c-.189-.272.165-.938,1.062-1.646a9.829,9.829,0,0,1,8.479-1.6C256.255,103.354,256.832,103.839,256.749,104.169Z" transform="translate(-85.018 -63.02)" fill="#263238"/>
      <path id="Trazado_163000" data-name="Trazado 163000" d="M284.63,102.374c-.453.593-2.47.165-4.775.313s-4.289.708-4.791.156c-.214-.263.049-.823.873-1.449a7.409,7.409,0,0,1,3.811-1.218,7.285,7.285,0,0,1,3.894.823C284.515,101.526,284.828,102.078,284.63,102.374Z" transform="translate(-90.22 -62.576)" fill="#263238"/>
      <path id="Trazado_163001" data-name="Trazado 163001" d="M216.879,90.476c1.646-2.544,4.618-3.853,7.409-4.939A164.643,164.643,0,0,1,262.23,75.88c1.646,2.659.123,6.281-2.313,8.232s-5.565,2.7-8.479,3.8-5.9,2.766-7.1,5.639c-1.276,3.054-.2,6.668-1.317,9.78-1.935,5.359-9.409,7.08-11.311,12.447-1.432,4.067.922,8.38,1.506,12.653A15.386,15.386,0,0,1,218.1,145.952q-1.317-23.05-2.659-46.1C215.258,96.609,215.134,93.159,216.879,90.476Z" transform="translate(-79.674 -58.283)" fill="#263238"/>
      <path id="Trazado_163002" data-name="Trazado 163002" d="M178.859,131.859c2.428-2.182,5.474-4.058,6.446-7.17,1.408-4.536-2.239-9.879.107-13.995,2.14-3.762,8.438-3.573,10.43-7.409,1.556-3-.23-5.664.362-8.3s4.33-4.939,7.014-4.643L224.21,120.8c1.951,10.208,3.91,15.641,1.721,21.609-1.2,3.293-2.766,6.462-3.235,9.92s.412,7.409,3.235,9.418c-12.554.988-24.31-5.581-35.184-11.937L179.221,143.1a8.438,8.438,0,0,1-3.161-2.634C174.4,137.622,176.439,134.032,178.859,131.859Z" transform="translate(-72.623 -60.836)" fill="#263238"/>
      <path id="Trazado_163003" data-name="Trazado 163003" d="M193.65,141.8a6,6,0,0,0,1.342.255,11.319,11.319,0,0,0,3.91-.28,12.052,12.052,0,0,0,5.45-2.931,11.879,11.879,0,0,0,3.581-7.335,12.126,12.126,0,0,0-.412-4.816,19.329,19.329,0,0,0-2.33-4.668,18.729,18.729,0,0,1-2.4-4.84,6.232,6.232,0,0,1,.675-5.318c1.136-1.5,3.293-1.9,5.227-2.7a5.762,5.762,0,0,0,2.675-1.984,5.54,5.54,0,0,0,.823-3.293c0-2.3-1-4.4-1.424-6.536a7.17,7.17,0,0,1,0-3.211,4.511,4.511,0,0,1,1.811-2.544c1.811-1.292,4.116-1.5,6.355-1.7a13.641,13.641,0,0,0,6.462-1.9,12.151,12.151,0,0,0,4.429-4.8,20.309,20.309,0,0,0,1.646-6.018,27.5,27.5,0,0,1,1.227-5.639,12.6,12.6,0,0,1,2.955-4.454,14.11,14.11,0,0,1,16.464-2.313,17.288,17.288,0,0,1,4.832,3.688,22.671,22.671,0,0,1,2.988,4.281,1.563,1.563,0,0,0-.123-.329c-.1-.206-.214-.527-.436-.922a16.464,16.464,0,0,0-2.223-3.219,17.106,17.106,0,0,0-4.849-3.861,14.523,14.523,0,0,0-17.065,2.239,13.081,13.081,0,0,0-3.136,4.659,28.434,28.434,0,0,0-1.292,5.762,19.387,19.387,0,0,1-1.6,5.763,11.451,11.451,0,0,1-4.182,4.511,12.883,12.883,0,0,1-6.158,1.786c-2.2.2-4.676.387-6.7,1.828a5.137,5.137,0,0,0-2.091,2.947,7.9,7.9,0,0,0,0,3.54c.461,2.264,1.408,4.3,1.424,6.4a4.939,4.939,0,0,1-.733,2.881,5.022,5.022,0,0,1-2.354,1.737c-.938.4-1.951.667-2.922,1.078a5.943,5.943,0,0,0-2.577,1.852,6.857,6.857,0,0,0-.757,5.894,18.712,18.712,0,0,0,2.511,5,19.182,19.182,0,0,1,2.305,4.511,11.772,11.772,0,0,1,.436,4.594,11.566,11.566,0,0,1-3.359,7.1,12.027,12.027,0,0,1-5.244,2.955A13.656,13.656,0,0,1,193.65,141.8Z" transform="translate(-75.84 -55.938)" fill="#455a64"/>
      <path id="Trazado_163004" data-name="Trazado 163004" d="M173.213,120.161a2.684,2.684,0,0,0-.42,1.029,4.511,4.511,0,0,0,.543,3.112,4.717,4.717,0,0,0,1.605,1.646,4.939,4.939,0,0,0,2.675.716,6.281,6.281,0,0,0,5.5-3.49,8.355,8.355,0,0,0,.9-3.828,11.8,11.8,0,0,0-.881-4.116c-1-2.717-2.807-5.359-2.848-8.537a5.828,5.828,0,0,1,1.457-4.314,6.373,6.373,0,0,1,4.561-1.424,14.558,14.558,0,0,0,5.441-.56,4.783,4.783,0,0,0,2.231-1.885,6.668,6.668,0,0,0,.914-2.766,22.1,22.1,0,0,0-.453-5.581,12.249,12.249,0,0,1,.3-5.17,13.04,13.04,0,0,1,5.837-7.664c2.725-1.646,5.87-1.819,8.7-1.992a26.471,26.471,0,0,0,7.944-1.251,16.67,16.67,0,0,0,5.631-3.54,16.465,16.465,0,0,0,3.079-3.951,12.018,12.018,0,0,0,1.49-3.984,22.876,22.876,0,0,1-1.737,3.836,16.818,16.818,0,0,1-8.636,7.187,26.937,26.937,0,0,1-7.8,1.136c-2.865.132-6.1.28-9.006,2.009a13.657,13.657,0,0,0-6.191,8.051,12.858,12.858,0,0,0-.321,5.466,21.836,21.836,0,0,1,.445,5.392,4.684,4.684,0,0,1-2.7,4.067c-1.589.642-3.408.469-5.178.519s-3.713.3-5.038,1.646a6.487,6.487,0,0,0-1.646,4.824,12.348,12.348,0,0,0,1.153,4.676c.609,1.424,1.284,2.741,1.8,4.067a11.228,11.228,0,0,1,.881,3.935,7.829,7.829,0,0,1-.823,3.581,5.82,5.82,0,0,1-5.038,3.293,4.692,4.692,0,0,1-2.47-.6,4.561,4.561,0,0,1-1.539-1.531,4.487,4.487,0,0,1-.642-2.947A8.679,8.679,0,0,1,173.213,120.161Z" transform="translate(-72.139 -55.937)" fill="#263238"/>
      <path id="Trazado_163005" data-name="Trazado 163005" d="M325.956,130.843a4.939,4.939,0,0,1-.041,3.293,4.338,4.338,0,0,1-2.6,2.643,4.536,4.536,0,0,1-4.61-1.26,4.116,4.116,0,0,1-1.078-2.626,8.7,8.7,0,0,1,.477-3.178c.667-2.124,2.025-4.437,1.819-7.2a10.125,10.125,0,0,0-3.82-7.261,11.788,11.788,0,0,0-3.91-2.058,17.5,17.5,0,0,0-4.47-.642,23.051,23.051,0,0,1-4.338-.453,5.763,5.763,0,0,1-3.375-2.1,7.03,7.03,0,0,1-1.227-3.713,14.118,14.118,0,0,1,.329-3.869c.51-2.47,1.268-4.939,1.128-7.343a11.188,11.188,0,0,0-2.272-6.108,14.274,14.274,0,0,0-4.116-3.458,26.478,26.478,0,0,1-3.293-2.256A8.38,8.38,0,0,1,288.5,80.61a.7.7,0,0,0,.058.222,3.734,3.734,0,0,0,.247.609,6.717,6.717,0,0,0,1.564,2.025,25.453,25.453,0,0,0,3.235,2.387,14.11,14.11,0,0,1,3.9,3.425,10.644,10.644,0,0,1,2.107,5.812c.107,2.264-.634,4.626-1.177,7.178a14.357,14.357,0,0,0-.362,4.058,7.73,7.73,0,0,0,1.342,4.116,6.462,6.462,0,0,0,3.779,2.379,24.2,24.2,0,0,0,4.478.477,16.6,16.6,0,0,1,4.289.56,11.212,11.212,0,0,1,3.68,1.918,9.467,9.467,0,0,1,3.589,6.742c.222,2.527-1.037,4.75-1.721,6.981a9.36,9.36,0,0,0-.469,3.4,4.709,4.709,0,0,0,1.268,2.939,4.939,4.939,0,0,0,5.12,1.292,4.791,4.791,0,0,0,2.865-5.491A2.8,2.8,0,0,0,325.956,130.843Z" transform="translate(-92.608 -59.12)" fill="#263238"/>
      <path id="Trazado_163006" data-name="Trazado 163006" d="M276.644,186.465s16.991,29.109,23.091,42.758c3.392,7.6,4.223,21.955-1.391,43.951-4.207,16.464,4.676,38.839,6.026,42.042,3.046,7.236-16.423,17.386-19.14,19.181-24.079,15.872-78.057-13.278-78.057-13.278l14.818-33.151-12.5-27.989-4.635-72.912,23.05-8.026c12.241,6.026,30.335,6.174,35.332,2.675Z" transform="translate(-77.822 -76.521)" fill="#f85316"/>
      <path id="Trazado_163007" data-name="Trazado 163007" d="M289.48,346.237l.37-.107,1.087-.255,1.778-.4,2.363-.766c.9-.263,1.828-.724,2.889-1.136a35.043,35.043,0,0,0,3.293-1.646,51.944,51.944,0,0,0,7.409-5.087,54.693,54.693,0,0,0,7.648-7.755c.321-.379.6-.782.906-1.177s.593-.823.873-1.227.56-.823.823-1.284a5.228,5.228,0,0,0,.362-.667l.173-.338.091-.337a12.2,12.2,0,0,0-.206-3.112c-.173-1.054-.387-2.124-.634-3.2-.971-4.305-2.231-8.775-3.515-13.418-.65-2.321-1.309-4.676-1.943-7.08-.321-1.21-.634-2.42-.906-3.655-.14-.617-.263-1.243-.346-1.893a18.928,18.928,0,0,1-.066-1.926c.091-5.112.626-10.043,1.144-14.818h0c2.066-8.166,3.877-15.913,4.182-23.05a30.243,30.243,0,0,0-.2-5.145,36.1,36.1,0,0,0-1.136-4.709,69.318,69.318,0,0,0-3.046-8.1A91.376,91.376,0,0,0,307.056,223c-.766-1.235-1.383-2.165-1.811-2.8-.2-.3-.362-.535-.477-.716a1.217,1.217,0,0,1-.156-.247l.189.23c.115.148.288.379.51.691.445.617,1.087,1.539,1.869,2.766a84.6,84.6,0,0,1,5.977,10.932,66.349,66.349,0,0,1,3.1,8.117,35.15,35.15,0,0,1,1.177,4.75,31.02,31.02,0,0,1,.222,5.211c-.288,7.162-2.091,14.933-4.116,23.1h0c-.51,4.758-1.054,9.706-1.136,14.768a17.871,17.871,0,0,0,.066,1.885c.082.609.2,1.227.338,1.844.272,1.218.576,2.47.9,3.63.634,2.4,1.292,4.766,1.935,7.088,1.284,4.635,2.535,9.113,3.5,13.443.247,1.078.453,2.157.626,3.227a12.109,12.109,0,0,1,.2,3.227c-.041.14-.074.288-.115.42l-.181.362a6.178,6.178,0,0,1-.379.691c-.272.453-.543.889-.823,1.3s-.576.823-.889,1.235-.593.823-.914,1.185a53.868,53.868,0,0,1-7.738,7.763,51.455,51.455,0,0,1-7.491,5.071c-1.194.576-2.289,1.177-3.342,1.605s-2.017.823-2.922,1.111l-2.379.716c-.708.165-1.309.272-1.795.379l-1.095.214Z" transform="translate(-92.781 -83.627)" fill="#263238"/>
      <g id="Grupo_109938" data-name="Grupo 109938" transform="translate(219.259 164.582)" opacity="0.3">
        <path id="Trazado_163008" data-name="Trazado 163008" d="M323.516,321.044a100.284,100.284,0,0,1-2.264-36.748c1.243-9.961,3.252-20.062,1.111-29.866.074,9.055-1.8,16.061-4.215,26.779-2.264,10.093-.823,15-.683,18.786" transform="translate(-316.885 -254.43)"/>
      </g>
      <path id="Trazado_163009" data-name="Trazado 163009" d="M207.67,334.768s4.437,2.025,8.512-4.2,9.047-27.059,9.7-29.249c.436-1.416,1.967-45.071,1.967-45.071l-7.1,41.432,1.778,3.976c-2.091,5.664-3.811,8.232-5.894,13.7C213.605,323.268,210.263,333.336,207.67,334.768Z" transform="translate(-78.318 -90.17)" opacity="0.3"/>
      <path id="Trazado_163010" data-name="Trazado 163010" d="M219.384,243.874s-7.3,71.529-18.72,78.839a16.665,16.665,0,0,1-9.879,2.239c-12.776-.568-22.7-11.385-22.745-24.17,0-15.172,2.527-35.785,3.507-44.264,1.959-16.975,8.841-63.124,26.861-67.874s21,21.1,21,21.1Z" transform="translate(-71.312 -78.116)" fill="#f85316"/>
      <path id="Trazado_163011" data-name="Trazado 163011" d="M173.9,183.343s-3.293,4.38-3.293,9.055c0,1.342,2.47,11.048,2.47,11.048l10.2,7.845,19.049,6.149-1.523,10.644,16.39,2.782s.329-12.6,0-20.58-9.879-15.937-9.879-15.937-7.944-9.574-11.352-9.055-3.243,4.223-1.646,6.331,6.166,7.137,6.166,7.137l-18.819-1.646-5.68-4.865s1.877-4.939,1.3-6.652a3.054,3.054,0,0,0-3.383-2.256Z" transform="translate(-71.767 -77.276)" fill="#ffbf9d"/>
      <path id="Trazado_163012" data-name="Trazado 163012" d="M177,199.64a9.936,9.936,0,0,1,1.778,1.07c1.062.708,2.527,1.7,4.116,2.832l.321.222h-.247a6.372,6.372,0,0,1,4.668-.955,5.358,5.358,0,0,1,1.375.445c.3.156.461.272.445.288a9.415,9.415,0,0,0-1.86-.436,6.4,6.4,0,0,0-4.38,1.013l-.123.082-.123-.082-.321-.23c-1.589-1.12-3.021-2.165-4.042-2.931A10.544,10.544,0,0,1,177,199.64Z" transform="translate(-72.896 -80.162)" fill="#ff9a6c"/>
      <path id="Trazado_163013" data-name="Trazado 163013" d="M171.483,209.17c.1.058-4.61,8.767-10.512,19.461s-10.784,19.313-10.891,19.255,4.6-8.767,10.512-19.461S171.417,209.112,171.483,209.17Z" transform="translate(-68.137 -81.847)" fill="#263238"/>
      <path id="Trazado_163014" data-name="Trazado 163014" d="M186.687,200.2c.115,0-.239,8.232-.823,18.284s-1.1,18.275-1.218,18.267.23-8.191.823-18.292S186.58,200.192,186.687,200.2Z" transform="translate(-74.244 -80.261)" fill="#263238"/>
      <path id="Trazado_163015" data-name="Trazado 163015" d="M188.067,200.44c.123,0,.906,8.957,1.762,20.012s1.441,20.037,1.325,20.045-.906-8.948-1.753-20.012S187.952,200.448,188.067,200.44Z" transform="translate(-74.85 -80.304)" fill="#263238"/>
      <path id="Trazado_163016" data-name="Trazado 163016" d="M73.29,362.514l50.644-116.658,59.56-14.686-49.706,124.6Z" transform="translate(-54.562 -85.736)" fill="#455a64"/>
      <path id="Trazado_163017" data-name="Trazado 163017" d="M99.583,402.139,73.29,389.272l60.5-6.742L167.4,398.418Z" transform="translate(-54.562 -112.495)" fill="#455a64"/>
      <path id="Trazado_163018" data-name="Trazado 163018" d="M99.583,402.139,73.29,389.272l60.5-6.742L167.4,398.418Z" transform="translate(-54.562 -112.495)" opacity="0.3"/>
      <path id="Trazado_163019" data-name="Trazado 163019" d="M196.486,231.17l1.334,5.441,9.228-.28L180.392,371.66,146.78,355.772Z" transform="translate(-67.554 -85.736)" fill="#455a64"/>
      <path id="Trazado_163020" data-name="Trazado 163020" d="M196.415,231.17s-.049.156-.165.461-.288.757-.51,1.334c-.461,1.185-1.128,2.906-1.992,5.112-1.762,4.454-4.289,10.866-7.409,18.786-6.314,15.855-15.015,37.736-24.631,61.906L146.89,355.813l-.263-.247,22.293-11.171.156-.074.058.156c3.474,8.364,6.281,15.147,8.232,19.848.963,2.33,1.7,4.116,2.223,5.4.239.609.428,1.078.568,1.416a3.418,3.418,0,0,1,.173.486s-.082-.156-.222-.469l-.6-1.4c-.535-1.243-1.309-3.046-2.3-5.367l-8.356-19.757.206.074-22.227,11.237-.453.23.189-.477c4.462-11.212,9.483-23.807,14.777-37.094,9.656-24.145,18.407-46.009,24.738-61.856,3.186-7.895,5.762-14.291,7.549-18.728.9-2.2,1.589-3.91,2.074-5.087.23-.568.42-1,.543-1.317S196.415,231.17,196.415,231.17Z" transform="translate(-67.483 -85.736)" fill="#263238"/>
      <path id="Trazado_163021" data-name="Trazado 163021" d="M202.6,237.78c.107,0-6.232,24.219-14.176,54.028S173.971,345.8,173.84,345.736s6.232-24.219,14.176-54.036S202.487,237.747,202.6,237.78Z" transform="translate(-72.337 -86.905)" fill="#263238"/>
      <path id="Trazado_163022" data-name="Trazado 163022" d="M196.486,231.17l1.334,5.441L169.056,344.568l-22.276,11.2Z" transform="translate(-67.554 -85.736)" opacity="0.3"/>
      <path id="Trazado_163023" data-name="Trazado 163023" d="M163.461,197.73c.091.074-7.928,8.924-17.9,19.757s-18.111,19.543-18.226,19.461,7.928-8.924,17.9-19.757S163.37,197.648,163.461,197.73Z" transform="translate(-64.115 -79.825)" fill="#263238"/>
      <path id="Trazado_163024" data-name="Trazado 163024" d="M50.54,332.8l50.644-99.9,59.551-12.57L111.03,327.019Z" transform="translate(-50.54 -83.82)" fill="#f85316"/>
      <path id="Trazado_163025" data-name="Trazado 163025" d="M76.833,366.724,50.54,355.709l60.49-5.779,33.62,13.6Z" transform="translate(-50.54 -106.732)" fill="#f85316"/>
      <path id="Trazado_163026" data-name="Trazado 163026" d="M76.833,366.724,50.54,355.709l60.49-5.779,33.62,13.6Z" transform="translate(-50.54 -106.732)" opacity="0.3"/>
      <path id="Trazado_163027" data-name="Trazado 163027" d="M173.726,220.33l1.334,4.659,9.236-.239L157.64,340.618l-33.62-13.6Z" transform="translate(-63.53 -83.82)" fill="#f85316"/>
      <path id="Trazado_163028" data-name="Trazado 163028" d="M173.644,220.33s-.049.14-.165.4l-.51,1.161c-.477,1.037-1.161,2.527-2.033,4.445-1.786,3.877-4.355,9.451-7.532,16.324-6.4,13.781-15.229,32.8-24.985,53.789-5.1,10.924-9.944,21.3-14.3,30.648l-.255-.263,22.284-9.549.132-.058.066.132,8.232,17c.955,2,1.7,3.556,2.214,4.635l.568,1.21c.123.272.181.42.181.42s-.082-.132-.222-.4l-.609-1.194-2.289-4.594-8.356-16.942.2.074L124.037,327.2l-.477.206.214-.469c4.355-9.344,9.187-19.757,14.266-30.665l25.108-53.731c3.227-6.857,5.837-12.414,7.656-16.267l2.1-4.412.56-1.144A3.1,3.1,0,0,1,173.644,220.33Z" transform="translate(-63.449 -83.82)" fill="#263238"/>
      <path id="Trazado_163029" data-name="Trazado 163029" d="M179.823,226c.115,0-6.232,20.753-14.176,46.281s-14.472,46.191-14.587,46.158,6.24-20.753,14.176-46.289S179.724,225.951,179.823,226Z" transform="translate(-68.31 -84.822)" fill="#263238"/>
      <path id="Trazado_163030" data-name="Trazado 163030" d="M173.726,220.33l1.334,4.659L146.3,317.428l-22.276,9.59Z" transform="translate(-63.53 -83.82)" opacity="0.3"/>
      <path id="Trazado_163031" data-name="Trazado 163031" d="M141.65,227.711a4.811,4.811,0,0,1,.626-.173l1.8-.42,6.643-1.474,21.963-4.7,4.116-.823.2-.041.049.189,1.325,4.659-.206-.148,9.236-.214h.23l-.058.214c-.938,3.943-1.712,7.211-2.272,9.541-.272,1.1-.494,1.992-.65,2.634-.074.28-.14.51-.189.691s-.066.239-.082.23a1.3,1.3,0,0,1,0-.239,5.266,5.266,0,0,1,.132-.7l.568-2.667c.519-2.33,1.243-5.614,2.124-9.566l.173.214-9.228.272h-.165l-.041-.148c-.428-1.506-.881-3.062-1.342-4.659l.255.148-4.116.873-21.988,4.577-6.676,1.342-1.819.338A3.293,3.293,0,0,1,141.65,227.711Z" transform="translate(-66.647 -83.776)" fill="#263238"/>
      <path id="Trazado_163032" data-name="Trazado 163032" d="M184.77,208.391a13.937,13.937,0,0,0-2.107-2.47,9.45,9.45,0,0,0-3-1.729c-.617-.222-1.292-.313-2.025-.543a2.47,2.47,0,0,1-1.029-.6,2.165,2.165,0,0,1-.543-1.12c-.148-.823-.058-1.548-.173-2.256a9.325,9.325,0,0,0-.477-1.984,6.668,6.668,0,0,0-.823-1.646,2.272,2.272,0,0,0-1.235-.889,1.861,1.861,0,0,0-1.243,0,1.235,1.235,0,0,0-.65.659c-.214.5-.222.823-.272.823s0-.082,0-.23a2.033,2.033,0,0,1,.132-.659,1.367,1.367,0,0,1,.708-.823,2.1,2.1,0,0,1,1.424,0,2.6,2.6,0,0,1,1.424.971,7.1,7.1,0,0,1,.9,1.72,9.122,9.122,0,0,1,.527,2.074c.115.733.041,1.523.173,2.223a1.721,1.721,0,0,0,.428.906,2.066,2.066,0,0,0,.823.5c.65.214,1.375.321,2.017.568a9.2,9.2,0,0,1,3.062,1.869,8.429,8.429,0,0,1,1.531,1.869A2.667,2.667,0,0,1,184.77,208.391Z" transform="translate(-71.866 -79.307)" fill="#ff9a6c"/>
      <path id="Trazado_163033" data-name="Trazado 163033" d="M174.878,183.46c.049,0-.37.552-.914,1.449a16.76,16.76,0,0,0-1.646,3.746,56.521,56.521,0,0,0-1.152,5.721,5.367,5.367,0,0,1,0-1.729,19.033,19.033,0,0,1,.766-4.116,13.426,13.426,0,0,1,1.811-3.787,4.511,4.511,0,0,1,1.136-1.284Z" transform="translate(-71.852 -77.302)" fill="#ff9a6c"/>
      <path id="Trazado_163034" data-name="Trazado 163034" d="M176.266,195.3c.115.049-2.091,5.409-4.939,11.986s-5.211,11.854-5.318,11.813,2.091-5.417,4.939-11.986S176.159,195.251,176.266,195.3Z" transform="translate(-70.953 -79.395)" fill="#263238"/>
      <path id="Trazado_163035" data-name="Trazado 163035" d="M179.257,197c.107,0-1.1,4.758-2.708,10.554s-3,10.463-3.12,10.43,1.095-4.75,2.708-10.545S179.141,197,179.257,197Z" transform="translate(-72.264 -79.696)" fill="#263238"/>
      <path id="Trazado_163036" data-name="Trazado 163036" d="M209.28,202.564a71.619,71.619,0,0,1-7.96-.585A72.445,72.445,0,0,1,193.4,201a75.557,75.557,0,0,1,7.96.593A75.941,75.941,0,0,1,209.28,202.564Z" transform="translate(-75.796 -80.403)" fill="#ff9a6c"/>
      <path id="Trazado_163037" data-name="Trazado 163037" d="M208.414,193.519a5.565,5.565,0,0,1-3.474,2.931,17.773,17.773,0,0,1,1.778-1.424C207.665,194.235,208.282,193.445,208.414,193.519Z" transform="translate(-77.836 -79.079)" fill="#ff9a6c"/>
      <path id="Trazado_163038" data-name="Trazado 163038" d="M216.332,239.838h.2l.576.082,2.239.379,8.446,1.5h.115v.115c-1.095,10.043-3.112,26.145-6.586,44.058-1.482,7.623-3.12,14.818-4.758,21.354s-2.988,12.447-4.939,17.172a14.942,14.942,0,0,1-3.7,5.763,14.522,14.522,0,0,1-4.355,2.807,12.283,12.283,0,0,1-3.169.823,7.915,7.915,0,0,1-1.144.074,2.056,2.056,0,0,1,.288-.041,6.379,6.379,0,0,0,.823-.115,13.633,13.633,0,0,0,3.12-.914,14.439,14.439,0,0,0,4.256-2.84,14.678,14.678,0,0,0,3.581-5.7c1.885-4.709,3.293-10.595,4.816-17.156,1.646-6.52,3.243-13.723,4.725-21.338,3.5-17.9,5.59-33.982,6.783-44l.107.14-8.421-1.646-2.223-.445-.576-.123A.824.824,0,0,1,216.332,239.838Z" transform="translate(-76.83 -87.259)" fill="#263238"/>
    </g>
    <g id="freepik--speech-bubble--inject-2" transform="translate(282.225 57.861)">
      <path id="Trazado_163039" data-name="Trazado 163039" d="M343.841,128.034l3.211-9.689a32.591,32.591,0,1,1,8.125,8.4h0Z" transform="translate(-341.362 -67.523)" fill="#fff"/>
      <path id="Trazado_163040" data-name="Trazado 163040" d="M343.8,128.005l.749-.1,2.182-.272,8.405-1.013-.066.165h0a.1.1,0,0,1,0-.14.091.091,0,0,1,.123,0,32.723,32.723,0,0,0,14.95,5.762,32.377,32.377,0,0,0,5.022.206,36.928,36.928,0,0,0,5.318-.659,32.328,32.328,0,0,0,4.207-62.227,33,33,0,0,0-14.818-1.539A32,32,0,0,0,356.7,72.982a32.41,32.41,0,0,0-14.118,19.757q-.148.691-.3,1.358a9.556,9.556,0,0,0-.239,1.342c-.107.9-.206,1.786-.3,2.651a44.5,44.5,0,0,0,.058,5.046,32.327,32.327,0,0,0,5.252,15.057.115.115,0,0,1,0,.091l-2.47,7.154c-.28.823-.486,1.424-.634,1.86l-.23.642s.058-.206.189-.617.329-1.037.584-1.844l2.346-7.261v.082a32.311,32.311,0,0,1-5.4-15.131,47.264,47.264,0,0,1-.082-5.1c.1-.881.206-1.77.3-2.675a8.622,8.622,0,0,1,.23-1.367l.3-1.367A32.756,32.756,0,0,1,356.418,72.6a32.237,32.237,0,0,1,13.451-4.849A33.447,33.447,0,0,1,384.876,69.3,32.591,32.591,0,0,1,398.1,77.929a14.873,14.873,0,0,1,1.276,1.506l1.235,1.539,1.078,1.646a12.9,12.9,0,0,1,1.013,1.646l.922,1.753c.321.568.51,1.194.774,1.778a17.592,17.592,0,0,1,.7,1.795c.2.609.37,1.227.552,1.836a32.656,32.656,0,0,1-25.075,40.848,36.581,36.581,0,0,1-5.384.642,31.811,31.811,0,0,1-5.063-.23,32.558,32.558,0,0,1-15.032-5.927l.132-.148h0a.107.107,0,0,1,0,.148h-.049l-8.5.889-2.157.222Z" transform="translate(-341.319 -67.494)" fill="#263238"/>
      <path id="Trazado_163041" data-name="Trazado 163041" d="M362.87,105.371l4.544-5.022,9.64,7.738L391.378,91.64l4.684,4.561L376.84,117.349Z" transform="translate(-345.129 -71.763)" fill="#f85316"/>
    </g>
  </g>
</svg>
