<svg xmlns="http://www.w3.org/2000/svg" width="120" height="120" viewBox="0 0 120 120">
  <g id="Grupo_109929" data-name="Grupo 109929" transform="translate(12168.063 3941.359)">
    <circle id="Elipse_5400" data-name="Elipse 5400" cx="60" cy="60" r="60" transform="translate(-12168.063 -3941.359)" fill="#fff"/>
    <path id="Trazado_162553" data-name="Trazado 162553" d="M952.979,393.473h47q6.1,6.07,12.194,12.137a1.97,1.97,0,0,1,.5,1.551c-.009,2.521-.042,5.042.013,7.562a1.738,1.738,0,0,1-1.616,2.029,1.88,1.88,0,0,1-1.5-2.182c.041-1.731-.024-3.466.027-5.2.023-.77-.181-1.036-.995-1.022-2.86.049-5.723.022-8.583.018-1.8,0-2.246-.458-2.248-2.294,0-2.786-.051-5.575.026-8.358.027-.988-.3-1.141-1.194-1.139q-20.163.044-40.325,0c-.885,0-1.106.22-1.1,1.1q.038,35.751,0,71.5c0,.966.266,1.145,1.177,1.144q25.979-.044,51.959,0c.993,0,1.307-.2,1.3-1.263-.041-13.065-.018-26.131-.041-39.2,0-1.161.306-1.987,1.505-2.3,1.221.205,1.616.932,1.614,2.15q-.044,20.819,0,41.639a2.4,2.4,0,0,1-.962,2.111H953.2a2.074,2.074,0,0,1-1.145-2.12c.047-2.382.015-4.765.015-7.462-1.572,2.428-2.942,4.574-4.344,6.7-.881,1.332-2.06,1.3-2.932-.036-1.188-1.826-2.332-3.681-3.574-5.47a4.166,4.166,0,0,1-.723-2.532q.023-27.06.011-54.122c0-.376-.007-.754.014-1.129a5.682,5.682,0,0,1,4.694-5.322,5.784,5.784,0,0,1,6.364,3.39c.1.232.03.615.49.659,0-3.487.023-6.948-.015-10.408A2.377,2.377,0,0,1,952.979,393.473Zm-4.066,43.605V424.43c0-3.125-.028-6.249.019-9.373.012-.8-.219-1.044-1.007-.991a19.812,19.812,0,0,1-3.046,0c-1.029-.091-1.316.237-1.311,1.287.042,9.448.024,18.9.024,28.344,0,5.044.03,10.089-.024,15.133-.011,1.039.171,1.512,1.324,1.38a15.174,15.174,0,0,1,2.932,0c.887.072,1.114-.218,1.11-1.1C948.9,451.759,948.913,444.419,948.913,437.078Zm-2.79-26.1c2.774,0,2.775,0,2.77-2.622,0-.3.014-.6-.013-.9a2.673,2.673,0,0,0-1.05-1.924,2.592,2.592,0,0,0-3.858.895,6.357,6.357,0,0,0-.188,4.31C943.963,411.411,945.426,410.8,946.123,410.978ZM1007.1,405.2a47.036,47.036,0,0,0-6.17-6.079c0,1.781.007,3.543,0,5.305,0,.454.008.794.633.784C1003.381,405.183,1005.207,405.2,1007.1,405.2Zm-58.486,58.205h-4.7l2.372,3.624Z" transform="translate(-13083.446 -4317.296)" fill="#020202"/>
    <path id="Trazado_162554" data-name="Trazado 162554" d="M1011.979,416.943q0,1.909,0,3.816a1.6,1.6,0,0,0-1.467,1.547c-.033.983.624,1.424,1.467,1.67v3.79c-1.2.31-1.507,1.136-1.505,2.3.024,13.066,0,26.132.041,39.2,0,1.066-.31,1.265-1.3,1.263q-25.979-.045-51.959,0c-.912,0-1.178-.177-1.177-1.144q.047-35.751,0-71.5c0-.885.22-1.107,1.1-1.1q20.162.044,40.325,0c.9,0,1.222.151,1.194,1.139-.077,2.784-.03,5.572-.026,8.358,0,1.836.449,2.291,2.248,2.294,2.861,0,5.724.031,8.583-.018.814-.014,1.017.252.995,1.022-.052,1.73.013,3.465-.027,5.2A1.88,1.88,0,0,0,1011.979,416.943ZM974.255,401.33c-2.634,0-5.267-.011-7.9,0a5.53,5.53,0,0,0-5.879,5.849q-.023,7.674,0,15.35a5.558,5.558,0,0,0,5.834,5.911q7.956.035,15.913,0A5.575,5.575,0,0,0,988,422.579q.018-7.675,0-15.351a5.556,5.556,0,0,0-5.85-5.895C979.521,401.317,976.888,401.33,974.255,401.33Zm9.041,39.643q10.394,0,20.788,0c1.5,0,2.03-.544,2.038-2.044.009-1.808.013-3.615,0-5.423-.01-1.4-.5-1.891-1.918-1.892q-20.9-.007-41.8,0c-1.464,0-1.92.485-1.928,2-.008,1.657,0,3.315,0,4.972,0,1.988.4,2.393,2.377,2.394Q973.072,440.975,983.3,440.973Zm-.149,24.99q10.336,0,20.673,0c1.867,0,2.3-.444,2.3-2.337q0-2.372,0-4.745c0-1.867-.458-2.322-2.339-2.323q-10.788,0-21.577,0-9.658,0-19.317,0c-1.992,0-2.416.414-2.418,2.357q0,2.372,0,4.745c0,1.867.444,2.3,2.341,2.3Zm.227-21.89q-10.394,0-20.789,0c-1.6,0-2.1.5-2.112,2.072-.008,1.657,0,3.314,0,4.971,0,1.943.425,2.36,2.413,2.361q10.9,0,21.805,0,9.66,0,19.32,0c1.589,0,2.105-.527,2.112-2.094.007-1.657,0-3.314,0-4.971,0-1.9-.432-2.337-2.3-2.338Q993.6,444.071,983.374,444.073Z" transform="translate(-13084.35 -4317.487)" fill="#f3f9ff"/>
    <path id="Trazado_162555" data-name="Trazado 162555" d="M949.1,438.346c0,7.341-.017,14.681.021,22.021,0,.887-.222,1.177-1.11,1.1a15.174,15.174,0,0,0-2.932,0c-1.154.132-1.336-.341-1.324-1.38.055-5.044.024-10.089.024-15.133,0-9.448.018-18.9-.024-28.344,0-1.049.283-1.378,1.311-1.287a19.812,19.812,0,0,0,3.046,0c.787-.053,1.019.189,1.007.991-.047,3.124-.019,6.248-.019,9.373Z" transform="translate(-13083.635 -4318.563)" fill="#75b62f"/>
    <path id="Trazado_162556" data-name="Trazado 162556" d="M946.307,411.689c-.7-.175-2.16.433-2.34-.246a6.357,6.357,0,0,1,.188-4.31,2.592,2.592,0,0,1,3.858-.895,2.673,2.673,0,0,1,1.05,1.924c.027.3.013.6.013.9C949.082,411.689,949.082,411.689,946.307,411.689Z" transform="translate(-13083.631 -4318.006)" fill="#dce736"/>
    <path id="Trazado_162557" data-name="Trazado 162557" d="M1010.818,405.552c-1.89,0-3.715-.021-5.541.01-.625.01-.636-.33-.633-.784.01-1.762,0-3.524,0-5.305A47.034,47.034,0,0,1,1010.818,405.552Z" transform="translate(-13087.167 -4317.644)" fill="#dee4f0"/>
    <path id="Trazado_162558" data-name="Trazado 162558" d="M948.821,467.716l-2.328,3.624-2.372-3.624Z" transform="translate(-13083.656 -4321.603)" fill="#75b62f"/>
    <path id="Trazado_162559" data-name="Trazado 162559" d="M1015.336,425.453c-.843-.246-1.5-.687-1.467-1.67a1.6,1.6,0,0,1,1.467-1.547c.884.152,1.566.5,1.592,1.545C1016.956,424.88,1016.256,425.267,1015.336,425.453Z" transform="translate(-13087.702 -4318.964)" fill="#070605"/>
    <path id="Trazado_162560" data-name="Trazado 162560" d="M974.525,401.611c2.634,0,5.267-.013,7.9,0a5.556,5.556,0,0,1,5.85,5.895q.015,7.675,0,15.351a5.575,5.575,0,0,1-5.783,5.863q-7.956.041-15.913,0a5.558,5.558,0,0,1-5.834-5.911q-.017-7.675,0-15.35a5.53,5.53,0,0,1,5.879-5.849C969.258,401.6,971.891,401.611,974.525,401.611Zm10.2,22.84a2.282,2.282,0,0,0,.386-1.47q0-7.8,0-15.592a2.389,2.389,0,0,0-2.652-2.659q-7.965-.028-15.931,0a2.439,2.439,0,0,0-2.649,2.688q-.018,7.74,0,15.48c0,.614.012.614.453,1.356a8.5,8.5,0,0,1,4.968-5.951c.343-.143.292-.387.146-.643-.858-1.5-.693-3.143-.576-4.746a5.265,5.265,0,0,1,3.152-4.49,5.385,5.385,0,0,1,5.765.478c2.45,1.711,2.6,4.214,2.394,6.859-.066.835-.873,1.678-.6,2.293.306.688,1.424.845,2.1,1.4A9.137,9.137,0,0,1,984.725,424.451ZM974.518,425.6c2.033,0,4.067-.048,6.1.022.943.032,1.095-.3.867-1.107a5.108,5.108,0,0,0-4.4-3.675,42.967,42.967,0,0,0-5.189,0,5.085,5.085,0,0,0-4.351,3.592c-.206.777-.183,1.236.883,1.19C970.451,425.534,972.485,425.6,974.518,425.6Zm2.521-11.155c0-.4.009-.626,0-.852a2.545,2.545,0,1,0-5.09-.033,13.028,13.028,0,0,0,.028,1.8,2.54,2.54,0,0,0,4.543,1.261A3.093,3.093,0,0,0,977.039,414.441Z" transform="translate(-13084.62 -4317.768)" fill="#070605"/>
    <path id="Trazado_162561" data-name="Trazado 162561" d="M983.566,443.118q-10.223,0-20.448,0c-1.975,0-2.375-.406-2.377-2.394,0-1.657-.007-3.315,0-4.972.008-1.511.464-2,1.928-2q20.9-.007,41.8,0c1.419,0,1.907.488,1.918,1.892.014,1.808.01,3.615,0,5.423-.008,1.5-.539,2.042-2.038,2.044Q993.96,443.125,983.566,443.118Zm-.067-3.172h17.84c1.888,0,1.833,0,1.909-1.864.039-.953-.163-1.248-1.2-1.244-12.044.044-24.088.029-36.133.029-2.057,0-2,0-2.072,2.027-.036.945.313,1.074,1.136,1.069C971.155,439.932,977.326,439.947,983.5,439.947Z" transform="translate(-13084.62 -4319.633)" fill="#070605"/>
    <path id="Trazado_162562" data-name="Trazado 162562" d="M983.417,469.645H963.083c-1.9,0-2.338-.436-2.341-2.3q0-2.372,0-4.745c0-1.942.426-2.357,2.418-2.357q9.659,0,19.317,0,10.788,0,21.577,0c1.881,0,2.337.456,2.339,2.323q0,2.372,0,4.745c0,1.893-.436,2.336-2.3,2.337Q993.753,469.648,983.417,469.645Zm.077-3.131h17.84c1.893,0,1.821,0,1.919-1.859.057-1.081-.321-1.27-1.312-1.267q-18.01.051-36.02.022c-2.059,0-2,0-2.076,2.046-.034.935.294,1.081,1.13,1.077C971.149,466.5,977.322,466.514,983.495,466.514Z" transform="translate(-13084.62 -4321.169)" fill="#070605"/>
    <path id="Trazado_162563" data-name="Trazado 162563" d="M983.644,446.987q10.224,0,20.449,0c1.868,0,2.3.441,2.3,2.338,0,1.657.006,3.314,0,4.971-.007,1.567-.523,2.091-2.112,2.094q-9.661.011-19.32,0-10.9,0-21.805,0c-1.989,0-2.411-.417-2.413-2.361,0-1.657-.006-3.314,0-4.971.008-1.571.511-2.071,2.112-2.072Q973.251,446.982,983.644,446.987Zm-.128,6.292h17.6c2.113,0,2.06,0,2.131-2.094.03-.911-.257-1.088-1.114-1.086q-18.055.042-36.11.02c-2.167,0-2.121,0-2.178,2.138-.023.85.206,1.048,1.049,1.044C971.1,453.261,977.31,453.279,983.516,453.279Z" transform="translate(-13084.62 -4320.4)" fill="#070605"/>
    <path id="Trazado_162564" data-name="Trazado 162564" d="M984.917,424.643a9.137,9.137,0,0,0-3.045-5c-.678-.551-1.8-.708-2.1-1.4-.275-.615.532-1.458.6-2.293.209-2.644.056-5.148-2.394-6.859a5.385,5.385,0,0,0-5.765-.478,5.265,5.265,0,0,0-3.152,4.49c-.118,1.6-.283,3.246.576,4.746.146.256.2.5-.146.643a8.5,8.5,0,0,0-4.968,5.951c-.441-.742-.452-.742-.453-1.356q0-7.74,0-15.48a2.439,2.439,0,0,1,2.649-2.688q7.965-.03,15.931,0a2.389,2.389,0,0,1,2.652,2.659q.014,7.8,0,15.592A2.282,2.282,0,0,1,984.917,424.643Z" transform="translate(-13084.813 -4317.959)" fill="#fbfbfb"/>
    <path id="Trazado_162565" data-name="Trazado 162565" d="M974.931,426.776c-2.033,0-4.068-.062-6.1.025-1.065.046-1.089-.413-.883-1.19a5.085,5.085,0,0,1,4.351-3.592,42.967,42.967,0,0,1,5.189,0,5.108,5.108,0,0,1,4.4,3.675c.227.808.075,1.139-.867,1.107C979,426.728,976.964,426.776,974.931,426.776Z" transform="translate(-13085.033 -4318.947)" fill="#f85316"/>
    <path id="Trazado_162566" data-name="Trazado 162566" d="M977.728,415.02a3.093,3.093,0,0,1-.519,2.175,2.54,2.54,0,0,1-4.543-1.261,13.028,13.028,0,0,1-.028-1.8,2.545,2.545,0,1,1,5.09.033C977.738,414.393,977.728,414.619,977.728,415.02Z" transform="translate(-13085.31 -4318.346)" fill="#fce4ac"/>
    <path id="Trazado_162567" data-name="Trazado 162567" d="M983.69,440.137c-6.173,0-12.345-.014-18.518.017-.823,0-1.172-.124-1.136-1.069.074-2.025.015-2.027,2.072-2.027,12.044,0,24.089.015,36.133-.029,1.035,0,1.237.291,1.2,1.244-.076,1.862-.022,1.864-1.909,1.864Z" transform="translate(-13084.812 -4319.823)" fill="#fbfbfb"/>
    <path id="Trazado_162568" data-name="Trazado 162568" d="M983.686,466.707c-6.173,0-12.346-.015-18.518.018-.836,0-1.164-.141-1.13-1.077.074-2.043.017-2.046,2.076-2.046q18.01,0,36.02-.022c.991,0,1.37.186,1.312,1.267-.1,1.856-.025,1.859-1.919,1.859Z" transform="translate(-13084.812 -4321.363)" fill="#fbfbfb"/>
    <path id="Trazado_162569" data-name="Trazado 162569" d="M983.708,453.471c-6.206,0-12.413-.018-18.618.022-.843,0-1.072-.194-1.049-1.044.057-2.137.01-2.138,2.178-2.138q18.055,0,36.11-.02c.857,0,1.145.175,1.114,1.086-.071,2.092-.018,2.094-2.131,2.094Z" transform="translate(-13084.812 -4320.592)" fill="#fbfbfb"/>
  </g>
</svg>
