<svg xmlns="http://www.w3.org/2000/svg" width="136" height="136" viewBox="0 0 136 136">
  <g id="Grupo_110069" data-name="Grupo 110069" transform="translate(14852.377 22056.301)">
    <rect id="Rectángulo_41377" data-name="Rectángulo 41377" width="136" height="136" rx="15" transform="translate(-14852.377 -22056.301)" fill="#f8fad6"/>
    <g id="Grupo_109854" data-name="Grupo 109854" transform="translate(-13895.178 -22342.309)">
      <g id="Grupo_108618" data-name="Grupo 108618" transform="translate(-931.918 303.335)">
        <g id="Grupo_108617" data-name="Grupo 108617" transform="translate(0 19.182)">
          <g id="Grupo_108616" data-name="Grupo 108616">
            <path id="Trazado_158240" data-name="Trazado 158240" d="M-913.872,319.565v4.43h-1.476a3.288,3.288,0,0,0-2.088.438,3.473,3.473,0,0,0-.448,2.21v17.005a3.433,3.433,0,0,0,.461,2.232,3.228,3.228,0,0,0,2.075.439h1.476v4.43h-18.046v-4.43h1.5a3.183,3.183,0,0,0,2.052-.439,3.412,3.412,0,0,0,.464-2.232V326.642a3.421,3.421,0,0,0-.454-2.21,3.224,3.224,0,0,0-2.062-.438h-1.5v-4.43Z" transform="translate(931.918 -318.62)" fill="#75b62f"/>
            <path id="Trazado_158241" data-name="Trazado 158241" d="M-914.535,339.437h4.359a11.167,11.167,0,0,0,3.592,5.646,9.1,9.1,0,0,0,5.911,2.034,5.505,5.505,0,0,0,3.292-.9,2.776,2.776,0,0,0,1.237-2.351q0-2.249-5.364-3.77c-1.166-.316-2.075-.58-2.738-.8q-3.227-1-4.968-1.7a10.6,10.6,0,0,1-2.52-1.317,9.387,9.387,0,0,1-2.71-3.116,8.5,8.5,0,0,1-.869-3.9,9.467,9.467,0,0,1,3.392-7.583,13.367,13.367,0,0,1,8.957-2.884,23.44,23.44,0,0,1,5.28.57,20.285,20.285,0,0,1,4.753,1.76l.815-1.572h4.346v10.832h-5.094a8.341,8.341,0,0,0-2.829-4.927,8.788,8.788,0,0,0-5.548-1.621,5.551,5.551,0,0,0-3.344.95,2.8,2.8,0,0,0-1.317,2.334q0,2.081,5.035,3.15c.822.181,1.463.326,1.917.431q7.039,1.659,9.861,4.122a8.439,8.439,0,0,1,2.83,6.71,9.16,9.16,0,0,1-3.483,7.53q-3.473,2.8-9.381,2.8a21.19,21.19,0,0,1-5.193-.625,22.733,22.733,0,0,1-4.949-1.9l-1.123,1.723h-4.147Z" transform="translate(935.905 -318.803)" fill="#75b62f"/>
            <path id="Trazado_158242" data-name="Trazado 158242" d="M-889.767,335.366q0-7.751,4.684-12.155t12.947-4.407q8.21,0,12.886,4.407t4.673,12.155q0,7.738-4.684,12.128t-12.965,4.381q-8.2,0-12.865-4.407T-889.767,335.366Zm17.617-11.8a4.677,4.677,0,0,0-4.468,2.78q-1.406,2.785-1.405,8.931,0,6.263,1.391,9.05a4.63,4.63,0,0,0,4.437,2.794,4.673,4.673,0,0,0,4.48-2.768q1.388-2.77,1.393-8.943,0-6.215-1.393-9.028A4.637,4.637,0,0,0-872.15,323.561Z" transform="translate(942.038 -318.803)" fill="#75b62f"/>
          </g>
        </g>
        <path id="Trazado_158243" data-name="Trazado 158243" d="M-861.693,347.894a34.275,34.275,0,0,1-8.054,8.229,25.216,25.216,0,0,0-3.446-2.411,55.214,55.214,0,0,0,4.551-5.818h-1.688a56.458,56.458,0,0,1-4.106,5.122,27.8,27.8,0,0,0-5.818-2.163c.609-1.115,1.168-2.149,1.606-2.959h-1.571c-.459.848-.947,1.747-1.441,2.653a37.209,37.209,0,0,0-8.105-.7l-.029-1.953h-1.379l.027,2a53.187,53.187,0,0,0-8.38,1.11l-.071.016-1.863-3.127h-1.6l0,0,2.04,3.428a39.752,39.752,0,0,0-5.4,1.452c-1.577-1.685-3.054-3.358-4.355-4.882h-1.813c1.389,1.652,3.028,3.529,4.8,5.438a13.955,13.955,0,0,0-3.516,2.261,42.682,42.682,0,0,1-8.325-7.7h-1.76c9.733,12.593,28.813,21.515,45.588,13.48a38.243,38.243,0,0,0,15.765-13.48Zm-13.723,6.189a56.234,56.234,0,0,1-7.736,6.927c-.326-.2-.682-.422-1.1-.691a7.982,7.982,0,0,0-1.065-.57c.706-1.012,2.633-4.458,4.374-7.636A26.7,26.7,0,0,1-875.416,354.083Zm-6.939-2.271c-1.938,3.531-3.8,6.835-4.148,7.228l-.227.228a13.8,13.8,0,0,0-2.909-.42l-.108-7.62A36.132,36.132,0,0,1-882.356,351.813Zm-8.771-.537.105,7.553c-.955.019-1.906.086-2.822.176-.307.032-.588.1-.874.156l-1.061-1.729-3.07-5.155A51.44,51.44,0,0,1-891.127,351.276Zm-9.152,1.3,3.324,5.583.857,1.4a9.628,9.628,0,0,0-2.023,1.059,75.268,75.268,0,0,1-7.259-6.741A46.334,46.334,0,0,1-900.279,352.575Zm-6.505,1.825a80.006,80.006,0,0,0,7.568,7.1c-.017.016-.041.036-.057.052a41.344,41.344,0,0,1-10.869-5.145A13.074,13.074,0,0,1-906.784,354.4Zm9.131,7.59a7.8,7.8,0,0,1,3.946-1.61c2.992-.3,6.369-.4,8.712,1.1.616.4,1.134.715,1.566.972A32.245,32.245,0,0,1-897.653,361.991Zm21.256-1.861A29.72,29.72,0,0,1-881.429,362c-.114-.058-.255-.134-.435-.232a59.091,59.091,0,0,0,7.708-7.009,23.811,23.811,0,0,1,3.234,2.189A41,41,0,0,1-876.4,360.13Z" transform="translate(934.445 -292.637)" fill="#75b62f"/>
        <path id="Trazado_158244" data-name="Trazado 158244" d="M-919.738,319.878a34.3,34.3,0,0,1,8.054-8.229,25.2,25.2,0,0,0,3.446,2.409,55.091,55.091,0,0,0-4.551,5.82h1.688a56.274,56.274,0,0,1,4.106-5.121,27.793,27.793,0,0,0,5.818,2.161c-.608,1.116-1.168,2.15-1.606,2.96h1.571c.459-.848.947-1.747,1.442-2.652a37.345,37.345,0,0,0,8.1.7l.029,1.953h1.379l-.027-2a53.308,53.308,0,0,0,8.38-1.111l.071-.015,1.863,3.127h1.6l0,0-2.04-3.429a39.4,39.4,0,0,0,5.4-1.452c1.577,1.686,3.054,3.359,4.355,4.883h1.813c-1.389-1.652-3.028-3.529-4.8-5.438a13.956,13.956,0,0,0,3.516-2.261,42.649,42.649,0,0,1,8.325,7.7h1.76c-9.733-12.594-28.813-21.515-45.588-13.48a38.234,38.234,0,0,0-15.765,13.48Zm13.723-6.189a56.159,56.159,0,0,1,7.736-6.927c.326.2.682.42,1.1.691a7.988,7.988,0,0,0,1.065.57c-.706,1.011-2.631,4.458-4.374,7.635A26.763,26.763,0,0,1-906.015,313.688Zm6.939,2.271c1.938-3.532,3.8-6.837,4.148-7.228l.227-.228a13.8,13.8,0,0,0,2.909.419l.108,7.622A36.221,36.221,0,0,1-899.076,315.959Zm8.771.537-.105-7.555c.955-.019,1.906-.084,2.822-.176a8.608,8.608,0,0,0,.874-.156l1.062,1.73,3.07,5.155A51.6,51.6,0,0,1-890.3,316.5Zm9.152-1.3-3.322-5.582-.858-1.4a9.567,9.567,0,0,0,2.023-1.06,75.473,75.473,0,0,1,7.259,6.742A46.32,46.32,0,0,1-881.153,315.2Zm6.505-1.825a80.311,80.311,0,0,0-7.568-7.1c.017-.016.041-.036.057-.052a41.35,41.35,0,0,1,10.869,5.146A13.081,13.081,0,0,1-874.647,313.37Zm-9.131-7.59a7.806,7.806,0,0,1-3.946,1.611c-2.992.3-6.369.4-8.712-1.1-.616-.4-1.134-.714-1.566-.972A32.264,32.264,0,0,1-883.778,305.779Zm-21.256,1.863A29.713,29.713,0,0,1-900,305.776c.114.058.255.133.435.232a59.016,59.016,0,0,0-7.708,7.009,23.889,23.889,0,0,1-3.234-2.189A41,41,0,0,1-905.034,307.642Z" transform="translate(934.445 -303.335)" fill="#75b62f"/>
      </g>
      <text id="_9001" data-name="9001" transform="translate(-889.67 399.633)" fill="#3d46c2" font-size="26" font-family="Roboto-Bold, Roboto" font-weight="700"><tspan x="-29.834" y="0">9001</tspan></text>
    </g>
  </g>
</svg>
