<svg xmlns="http://www.w3.org/2000/svg" width="56.235" height="60.002" viewBox="0 0 56.235 60.002">
  <g id="Grupo_110064" data-name="Grupo 110064" transform="translate(14150.741 23393.99)">
    <g id="Grupo_109870" data-name="Grupo 109870" transform="translate(-15034.672 -22829.629)">
      <path id="Trazado_159632" data-name="Trazado 159632" d="M925.759-504.36h-38.9c-.017-.093-.092-.1-.166-.132a3.759,3.759,0,0,1-2.762-3.934q0-25.982,0-51.963a3.745,3.745,0,0,1,3.955-3.97q18.538,0,37.076,0a4.531,4.531,0,0,1,.816.053,3.754,3.754,0,0,1,3.143,3.973q0,25.923,0,51.846c0,.2,0,.391-.007.586a3.788,3.788,0,0,1-2.586,3.362C926.14-504.475,925.891-504.591,925.759-504.36Zm-36.2-30.053q0,11.952-.007,23.9c0,.367.026.537.481.536q16.4-.023,32.8,0c.387,0,.475-.1.475-.482q-.014-23.9,0-47.808c0-.382-.1-.483-.479-.479q-2.87.03-5.74,0a.668.668,0,0,0-.747.454,1.958,1.958,0,0,1-1.011,1.021.7.7,0,0,0-.471.851,2.946,2.946,0,0,1,0,.468,2.794,2.794,0,0,1-2.815,2.835q-5.623.021-11.246,0a2.789,2.789,0,0,1-2.774-2.375,6.262,6.262,0,0,1-.03-1.169.476.476,0,0,0-.325-.528,2.288,2.288,0,0,1-1.19-1.161.6.6,0,0,0-.664-.394c-1.894.014-3.788.027-5.682-.007-.5-.009-.593.132-.592.607Q889.568-546.278,889.555-534.414Zm37.492.055q0-12.948,0-25.9c0-1.551-.691-2.234-2.257-2.235h-6.678c-1.388,0-1.369,0-1.386,1.38-.005.416.109.513.516.509,2.245-.021,4.491-.012,6.736-.009.877,0,1.194.32,1.194,1.2q0,25.046,0,50.093c0,.881-.319,1.2-1.2,1.2q-17.544,0-35.087,0c-.885,0-1.206-.316-1.206-1.192q0-25.046,0-50.093c0-.91.312-1.213,1.242-1.213q2.929,0,5.858,0c1.349,0,1.322,0,1.354-1.367.011-.476-.161-.524-.563-.521-2.538.017-5.076.008-7.615.009a1.908,1.908,0,0,0-2.155,2.161q0,25.955,0,51.909a1.92,1.92,0,0,0,2.191,2.184h36.844c1.512,0,2.21-.7,2.21-2.228Q927.048-521.411,927.047-534.359Zm-20.654-24.376c2.457,0,4.915,0,7.372,0a.955.955,0,0,0,1.095-1.065c.011-.761-.006-1.522.01-2.282.006-.277-.03-.411-.367-.411q-8.074.017-16.148,0c-.333,0-.377.126-.371.408.016.721,0,1.443.006,2.165,0,.872.322,1.186,1.207,1.186Q902.795-558.733,906.393-558.735Zm.046,3.75h5.145c1.165,0,1.418-.278,1.412-1.461,0-.324-.077-.431-.415-.422-.935.023-1.871.008-2.807.008q-4.707,0-9.414.007c-.163,0-.4-.138-.493.141a1.226,1.226,0,0,0,1.192,1.726Q903.75-554.981,906.439-554.985Z" transform="translate(0)"/>
      <path id="Trazado_159633" data-name="Trazado 159633" d="M1192.084-443.766a2.165,2.165,0,0,1-.7-1.165c-.681-2.254-1.381-4.5-2.076-6.752a3.258,3.258,0,0,1-.16-.974q.008-18.188.005-36.375a3.3,3.3,0,0,1,3.13-3.48,3.263,3.263,0,0,1,3.423,3.239c.023,2.479.016,4.959,0,7.439,0,.431.071.661.555.573a1.584,1.584,0,0,1,.409,0,.933.933,0,0,1,.916.947.95.95,0,0,1-.886.921c-.321.039-.773-.158-.932.1s-.052.679-.052,1.029q0,12.74,0,25.48a3.228,3.228,0,0,1-.118.98c-.73,2.341-1.46,4.682-2.165,7.031a1.586,1.586,0,0,1-.764,1.01Zm1.757-22.5c0-4.157-.011-8.314.014-12.471,0-.553-.162-.706-.684-.662a7.559,7.559,0,0,1-1.461-.01c-.575-.064-.7.141-.7.7q.029,12.12.013,24.24c0,.312.016.625,0,.937s.093.414.4.4c.6-.021,1.211-.043,1.814,0,.48.031.625-.108.622-.606C1193.832-457.914,1193.841-462.09,1193.841-466.267Zm0-19.22c0-1.248.015-2.5-.005-3.743a1.391,1.391,0,0,0-1.409-1.411,1.393,1.393,0,0,0-1.392,1.429c-.014,2.534,0,5.069-.012,7.6,0,.294.1.356.369.35.682-.017,1.365-.026,2.046,0,.342.013.417-.106.412-.427C1193.831-482.952,1193.841-484.219,1193.839-485.487Zm-1.46,37.448.113,0,1-3.206h-2.115Z" transform="translate(-257.421 -60.594)"/>
      <path id="Trazado_159634" data-name="Trazado 159634" d="M919.782-504.2q0-11.864-.012-23.728c0-.475.092-.616.592-.607,1.893.034,3.788.021,5.682.007a.6.6,0,0,1,.664.394,2.289,2.289,0,0,0,1.19,1.161.475.475,0,0,1,.325.528,6.268,6.268,0,0,0,.03,1.169,2.789,2.789,0,0,0,2.774,2.375q5.623.018,11.246,0a2.794,2.794,0,0,0,2.815-2.835,2.951,2.951,0,0,0,0-.468.7.7,0,0,1,.471-.852,1.959,1.959,0,0,0,1.011-1.021.668.668,0,0,1,.747-.454q2.87.029,5.74,0c.382,0,.479.1.479.479q-.015,23.9,0,47.808c0,.377-.088.482-.475.482q-16.4-.017-32.8,0c-.454,0-.481-.169-.481-.536Q919.788-492.244,919.782-504.2Zm25.307,11.774q0,4.361,0,8.722c0,.768.342,1.112,1.1,1.118q1.7.012,3.395,0c.791,0,1.126-.345,1.126-1.152q0-8.693,0-17.386c0-.806-.334-1.142-1.13-1.146-1.093-.006-2.185,0-3.278,0-.91,0-1.213.311-1.214,1.239Q945.087-496.725,945.089-492.422Zm1.483-16.409c-2.408,2.41-4.727,4.721-7.032,7.047-.231.233-.373.139-.589.015-1.788-1.03-3.588-2.041-5.372-3.079a1.152,1.152,0,0,0-1.443.1c-1.421,1.1-2.866,2.159-4.3,3.234-.983.737-1.97,1.469-2.948,2.212a.9.9,0,0,0-.36,1.082.9.9,0,0,0,.833.631,1.229,1.229,0,0,0,.839-.356c2.138-1.6,4.281-3.2,6.409-4.813a.584.584,0,0,1,.769-.052c1.766,1.031,3.545,2.038,5.32,3.053.782.447,1.043.413,1.688-.231q3.5-3.5,7-7a4.686,4.686,0,0,0,.376-.488l.145.1c0,.442-.014.884,0,1.325a.931.931,0,0,0,.956.965.921.921,0,0,0,.907-.955q.026-1.844,0-3.69a.915.915,0,0,0-1.005-.972q-1.815-.019-3.63,0a.921.921,0,0,0-.978.941.935.935,0,0,0,1,.925C945.579-508.82,946.006-508.831,946.572-508.831Zm-16.48,17.75q0,3.658,0,7.317c0,.85.322,1.179,1.153,1.183q1.668.008,3.336,0c.8,0,1.132-.341,1.133-1.145q0-7.287,0-14.575c0-.831-.333-1.15-1.183-1.153q-1.609-.005-3.219,0c-.913,0-1.219.311-1.22,1.233Q930.09-494.651,930.092-491.081Zm-1.875,2c0-1.834,0-3.667,0-5.5,0-.769-.341-1.115-1.1-1.12q-1.7-.012-3.393,0c-.8,0-1.13.338-1.131,1.144q0,5.413,0,10.826c0,.807.334,1.147,1.125,1.151q1.667.009,3.335,0c.833,0,1.16-.333,1.161-1.175Q928.222-486.419,928.217-489.082Zm9.373.885c0,1.5,0,3,0,4.505,0,.763.345,1.1,1.108,1.109q1.7.011,3.393,0c.787,0,1.119-.347,1.12-1.157q.005-4.476,0-8.952c0-.8-.338-1.134-1.138-1.138-1.092-.005-2.184,0-3.276,0-.886,0-1.2.314-1.207,1.186C937.588-491.161,937.59-489.679,937.59-488.2Zm-4.706-31.883c-1.189,0-2.377,0-3.566,0-.686,0-1.1.367-1.1.939s.418.931,1.106.932q3.566.007,7.131,0c.7,0,1.112-.346,1.128-.911.016-.587-.415-.958-1.136-.961C935.262-520.083,934.073-520.08,932.885-520.08Zm-.044,6.563c1.208,0,2.416,0,3.624,0,.693,0,1.11-.352,1.121-.918s-.4-.951-1.084-.953q-3.595-.008-7.19,0c-.682,0-1.1.374-1.091.946s.421.922,1.113.925C930.5-513.513,931.672-513.517,932.841-513.517Zm.124,2.812c-1.208,0-2.416,0-3.624,0-.695,0-1.109.349-1.12.917s.406.952,1.084.954q3.595.009,7.19,0c.68,0,1.1-.377,1.091-.947s-.423-.921-1.114-.924C935.3-510.709,934.134-510.7,932.965-510.7Zm-8.518-9.373c-.311,0-.623-.016-.933,0a.924.924,0,0,0-.917.937.918.918,0,0,0,.929.925c.641.022,1.283.025,1.924,0a.914.914,0,0,0,.889-.9.925.925,0,0,0-.9-.953C925.109-520.1,924.777-520.077,924.447-520.077Zm.03,6.556v0c.311,0,.623.015.933,0a.93.93,0,0,0,.93-.927.915.915,0,0,0-.919-.934c-.64-.024-1.283-.025-1.924,0a.912.912,0,0,0-.9.951.924.924,0,0,0,.889.906C923.814-513.5,924.146-513.521,924.477-513.521Zm.006,2.823a8.7,8.7,0,0,0-1.048.008.884.884,0,0,0-.834.893.891.891,0,0,0,.832.952c.678.037,1.361.034,2.04,0a.909.909,0,0,0,.867-.925.922.922,0,0,0-.865-.928C925.145-510.722,924.813-510.7,924.483-510.7Z" transform="translate(-30.227 -30.218)" fill="#f8f8f9"/>
      <path id="Trazado_159635" data-name="Trazado 159635" d="M937.12-524.331q0,12.948,0,25.9c0,1.524-.7,2.228-2.21,2.228H898.065a1.92,1.92,0,0,1-2.191-2.184q0-25.954,0-51.909a1.908,1.908,0,0,1,2.155-2.161c2.538,0,5.077.008,7.615-.009.4,0,.574.045.563.521-.031,1.366-.005,1.367-1.354,1.367q-2.929,0-5.858,0c-.93,0-1.242.3-1.242,1.214q0,25.046,0,50.093c0,.876.321,1.192,1.206,1.192q17.544,0,35.087,0c.878,0,1.2-.321,1.2-1.2q0-25.046,0-50.093c0-.883-.318-1.2-1.194-1.2-2.245,0-4.491-.012-6.736.009-.407,0-.521-.093-.516-.509.017-1.38,0-1.38,1.386-1.38h6.678c1.566,0,2.257.684,2.257,2.235Q937.12-537.279,937.12-524.331Z" transform="translate(-10.073 -10.028)" fill="#3d46c2"/>
      <path id="Trazado_159636" data-name="Trazado 159636" d="M982.07-548.689q-3.6,0-7.2,0c-.885,0-1.2-.314-1.207-1.186,0-.722.01-1.444-.006-2.165-.006-.282.037-.409.371-.408q8.074.016,16.148,0c.338,0,.373.134.367.411-.015.76,0,1.521-.01,2.282a.955.955,0,0,1-1.095,1.064C986.984-548.686,984.527-548.689,982.07-548.689Z" transform="translate(-75.677 -10.046)" fill="#f85316"/>
      <path id="Trazado_159637" data-name="Trazado 159637" d="M991.78-514.739q-2.689,0-5.379,0a1.226,1.226,0,0,1-1.191-1.726c.1-.28.33-.141.493-.141q4.707-.014,9.414-.007c.936,0,1.871.015,2.807-.008.337-.008.413.1.415.422.006,1.183-.247,1.461-1.412,1.461Z" transform="translate(-85.341 -40.246)" fill="#f8f8f9"/>
      <path id="Trazado_159638" data-name="Trazado 159638" d="M1203.841-395.752c0,4.177-.009,8.353.012,12.53,0,.5-.142.637-.622.606-.6-.039-1.209-.017-1.814,0-.308.011-.421-.1-.4-.4s0-.624,0-.937q0-12.12-.013-24.24c0-.562.127-.766.7-.7a7.551,7.551,0,0,0,1.461.01c.522-.044.688.109.684.662C1203.83-404.066,1203.841-399.909,1203.841-395.752Z" transform="translate(-267.421 -131.109)" fill="#75b62f"/>
      <path id="Trazado_159639" data-name="Trazado 159639" d="M1203.914-475.39c0,1.267-.009,2.535.008,3.8,0,.321-.07.44-.412.427-.681-.026-1.365-.017-2.046,0-.269.007-.37-.056-.369-.35.012-2.534,0-5.069.013-7.6a1.393,1.393,0,0,1,1.392-1.429,1.391,1.391,0,0,1,1.409,1.411C1203.929-477.885,1203.913-476.637,1203.914-475.39Z" transform="translate(-267.495 -70.691)" fill="#f85316"/>
      <path id="Trazado_159640" data-name="Trazado 159640" d="M1204.356-225.79,1203.35-229h2.115l-1,3.206Z" transform="translate(-269.397 -282.843)" fill="#dce736"/>
      <path id="Trazado_159641" data-name="Trazado 159641" d="M1081.441-350.988q0-4.3,0-8.605c0-.928.3-1.237,1.214-1.239,1.093,0,2.185-.005,3.278,0,.8,0,1.13.34,1.131,1.146q0,8.693,0,17.386c0,.807-.335,1.147-1.126,1.152q-1.7.009-3.394,0c-.758-.005-1.1-.35-1.1-1.118Q1081.436-346.627,1081.441-350.988Zm1.879,0v6.675c0,1.287,0,1.265,1.3,1.292.459.01.574-.114.572-.573-.018-4.684-.012-9.369-.011-14.053,0-1.317,0-1.3-1.329-1.321-.439-.008-.547.1-.543.543C1083.332-355.944,1083.32-353.465,1083.32-350.986Z" transform="translate(-166.578 -171.652)"/>
      <path id="Trazado_159642" data-name="Trazado 159642" d="M971.862-412.855c-.566,0-.993.011-1.42,0a.935.935,0,0,1-1-.925.921.921,0,0,1,.978-.941q1.815-.023,3.63,0a.915.915,0,0,1,1.005.972q.025,1.845,0,3.69a.921.921,0,0,1-.907.955.931.931,0,0,1-.956-.965c-.017-.441,0-.883,0-1.325l-.145-.1a4.709,4.709,0,0,1-.376.488q-3.494,3.5-7,7c-.645.644-.906.678-1.688.231-1.775-1.015-3.555-2.022-5.32-3.053a.584.584,0,0,0-.768.052c-2.128,1.615-4.272,3.21-6.409,4.813a1.229,1.229,0,0,1-.839.356.9.9,0,0,1-.833-.631.9.9,0,0,1,.36-1.082c.978-.743,1.965-1.475,2.948-2.212,1.436-1.076,2.882-2.139,4.3-3.234a1.152,1.152,0,0,1,1.443-.1c1.784,1.038,3.583,2.048,5.371,3.079.215.124.357.218.589-.015C967.135-408.134,969.454-410.445,971.862-412.855Z" transform="translate(-55.517 -126.194)"/>
      <path id="Trazado_159643" data-name="Trazado 159643" d="M985.678-334.5q0-3.571,0-7.141c0-.922.307-1.231,1.22-1.233q1.609,0,3.219,0c.85,0,1.183.322,1.183,1.153q0,7.287,0,14.575c0,.8-.336,1.141-1.133,1.145q-1.668.009-3.336,0c-.831,0-1.152-.333-1.153-1.183Q985.674-330.838,985.678-334.5Zm1.873.028v5.272c0,1.33,0,1.31,1.313,1.337.447.009.579-.1.576-.565-.022-3.73-.012-7.459-.012-11.189,0-1.394,0-1.377-1.371-1.395-.4-.005-.521.086-.516.506C987.564-338.492,987.55-336.48,987.55-334.469Z" transform="translate(-85.812 -186.802)"/>
      <path id="Trazado_159644" data-name="Trazado 159644" d="M943.418-312.311q0,2.663,0,5.325c0,.843-.328,1.172-1.162,1.175q-1.667.007-3.335,0c-.791,0-1.124-.344-1.125-1.151q0-5.413,0-10.826c0-.806.333-1.14,1.131-1.144q1.7-.009,3.393,0c.755.005,1.094.351,1.1,1.12C943.422-315.978,943.418-314.145,943.418-312.311Zm-3.738-.121v3.454c0,1.285,0,1.257,1.3,1.29.5.012.556-.169.553-.592-.017-2.478-.009-4.956-.008-7.434,0-1.35,0-1.329-1.36-1.346-.436-.005-.5.146-.494.531C939.693-315.164,939.68-313.8,939.68-312.432Z" transform="translate(-45.427 -206.988)"/>
      <path id="Trazado_159645" data-name="Trazado 159645" d="M1033.555-301.322c0-1.482,0-2.965,0-4.447,0-.871.321-1.184,1.207-1.186,1.092,0,2.184,0,3.276,0,.8,0,1.137.337,1.138,1.138q.006,4.476,0,8.952c0,.81-.333,1.152-1.12,1.157q-1.7.01-3.393,0c-.762,0-1.1-.346-1.108-1.109C1033.55-298.318,1033.555-299.82,1033.555-301.322Zm1.87-.067v2.4c0,1.426,0,1.411,1.408,1.417.385,0,.484-.1.48-.484-.02-1.875-.009-3.75-.009-5.625,0-1.447,0-1.436-1.467-1.415-.331,0-.425.094-.42.424C1035.437-303.577,1035.425-302.483,1035.425-301.389Z" transform="translate(-126.191 -217.093)"/>
      <path id="Trazado_159646" data-name="Trazado 159646" d="M978.4-474.572c1.189,0,2.377,0,3.566,0,.721,0,1.152.374,1.136.961-.016.565-.432.91-1.128.911q-3.566.006-7.131,0c-.688,0-1.1-.362-1.106-.932s.412-.935,1.1-.939C976.021-474.576,977.209-474.572,978.4-474.572Z" transform="translate(-75.74 -75.726)"/>
      <path id="Trazado_159647" data-name="Trazado 159647" d="M978.354-442.766c-1.169,0-2.338,0-3.507,0-.692,0-1.106-.355-1.113-.925s.409-.944,1.091-.946q3.6-.008,7.19,0c.68,0,1.1.379,1.084.953s-.428.915-1.121.918C980.77-442.762,979.562-442.766,978.354-442.766Z" transform="translate(-75.739 -100.969)"/>
      <path id="Trazado_159648" data-name="Trazado 159648" d="M978.477-414.707c1.169,0,2.338,0,3.507,0,.691,0,1.107.355,1.114.924s-.411.946-1.091.947q-3.6.008-7.19,0c-.678,0-1.1-.382-1.084-.954s.425-.915,1.12-.918C976.061-414.71,977.269-414.707,978.477-414.707Z" transform="translate(-75.739 -126.216)"/>
      <path id="Trazado_159649" data-name="Trazado 159649" d="M939.673-474.581c.33,0,.662-.018.991,0a.925.925,0,0,1,.9.953.914.914,0,0,1-.889.9c-.64.028-1.283.026-1.924,0a.917.917,0,0,1-.929-.925.924.924,0,0,1,.917-.937C939.05-474.6,939.362-474.581,939.673-474.581Z" transform="translate(-45.452 -75.714)"/>
      <path id="Trazado_159650" data-name="Trazado 159650" d="M939.7-442.815c-.331,0-.662.02-.991,0a.924.924,0,0,1-.889-.906.912.912,0,0,1,.9-.951c.64-.027,1.283-.025,1.924,0a.914.914,0,0,1,.918.935.93.93,0,0,1-.929.927c-.31.019-.622,0-.932,0Z" transform="translate(-45.451 -100.925)"/>
      <path id="Trazado_159651" data-name="Trazado 159651" d="M939.716-414.73c.33,0,.663-.023.991,0a.922.922,0,0,1,.865.928.909.909,0,0,1-.867.925c-.679.031-1.362.034-2.04,0a.891.891,0,0,1-.832-.952.884.884,0,0,1,.834-.893A8.827,8.827,0,0,1,939.716-414.73Z" transform="translate(-45.46 -126.188)"/>
      <path id="Trazado_159652" data-name="Trazado 159652" d="M1093.384-340.917c0-2.479.012-4.958-.011-7.436,0-.439.1-.551.542-.543,1.331.025,1.329,0,1.329,1.321,0,4.684-.007,9.369.011,14.053,0,.458-.113.582-.572.573-1.3-.027-1.3-.005-1.3-1.292Z" transform="translate(-176.642 -181.721)" fill="#3d46c2"/>
      <path id="Trazado_159653" data-name="Trazado 159653" d="M997.579-324.432c0-2.011.013-4.023-.011-6.034,0-.419.113-.511.516-.506,1.372.018,1.372,0,1.371,1.395,0,3.729-.01,7.459.012,11.189,0,.469-.129.574-.576.565-1.312-.027-1.313-.007-1.313-1.337Z" transform="translate(-95.841 -196.839)" fill="#dce736"/>
      <path id="Trazado_159654" data-name="Trazado 159654" d="M949.79-302.324c0-1.366.014-2.732-.009-4.1-.006-.385.058-.537.494-.531,1.362.017,1.361,0,1.36,1.346,0,2.478-.009,4.956.008,7.434,0,.423-.058.6-.553.592-1.3-.033-1.3,0-1.3-1.29Z" transform="translate(-55.537 -217.096)" fill="#75b62f"/>
      <path id="Trazado_159655" data-name="Trazado 159655" d="M1045.463-291.376c0-1.094.012-2.188-.008-3.281-.006-.33.088-.419.42-.424,1.468-.021,1.467-.032,1.467,1.415,0,1.875-.011,3.75.009,5.625,0,.381-.1.485-.48.484-1.408-.005-1.408.01-1.408-1.416Z" transform="translate(-136.229 -227.105)" fill="#f85316"/>
    </g>
  </g>
</svg>
